<?xml version="1.0" encoding="UTF-8"?>
<svg xmlns="http://www.w3.org/2000/svg" xmlns:xlink="http://www.w3.org/1999/xlink" width="150px" height="150px" viewBox="0 0 150 150" version="1.1">
<g id="surface1">
<path style=" stroke:none;fill-rule:nonzero;fill:rgb(49.019608%,6.666667%,4.705882%);fill-opacity:1;" d="M 54.363281 0 L 54.363281 11.261719 L 63.140625 11.261719 L 63.140625 93.957031 L 46.429688 93.957031 L 46.429688 31.230469 L 54.273438 31.230469 L 54.273438 19.925781 L 15.476562 19.925781 L 15.476562 31.230469 L 24.25 31.230469 L 24.25 103.898438 L 38.496094 118.417969 L 63.140625 118.417969 L 63.140625 135.175781 L 54.363281 135.175781 L 54.363281 149.691406 L 95.546875 149.691406 L 95.546875 135.175781 L 86.773438 135.175781 L 86.773438 118.417969 L 111.417969 118.417969 L 125.660156 103.898438 L 125.660156 31.230469 L 134.433594 31.230469 L 134.433594 19.925781 L 95.636719 19.925781 L 95.636719 31.230469 L 103.484375 31.230469 L 103.484375 93.957031 L 86.773438 93.957031 L 86.773438 11.261719 L 95.546875 11.261719 L 95.546875 0 Z M 54.363281 0 "/>
</g>
</svg>
