<?xml version="1.0" encoding="UTF-8"?>
<svg xmlns="http://www.w3.org/2000/svg" xmlns:xlink="http://www.w3.org/1999/xlink" width="50px" height="50px" viewBox="0 0 50 50" version="1.1">
<g id="surface1">
<path style=" stroke:none;fill-rule:nonzero;fill:rgb(0%,0%,0%);fill-opacity:1;" d="M 49.054688 29.941406 C 48.765625 29.058594 48.003906 28.445312 47.015625 28.300781 C 46.554688 28.230469 46.019531 28.261719 45.390625 28.390625 C 44.296875 28.617188 43.480469 28.703125 42.886719 28.71875 C 45.128906 24.933594 46.953125 20.617188 48 16.554688 C 49.699219 9.984375 48.792969 6.992188 47.730469 5.636719 C 44.925781 2.054688 40.835938 0.128906 35.898438 0.0703125 C 33.265625 0.0390625 30.957031 0.558594 29.75 0.933594 C 28.625 0.734375 27.417969 0.625 26.152344 0.601562 C 23.777344 0.566406 21.679688 1.082031 19.886719 2.144531 C 18.894531 1.8125 17.300781 1.335938 15.464844 1.035156 C 11.136719 0.324219 7.648438 0.878906 5.101562 2.679688 C 2.011719 4.863281 0.582031 8.652344 0.84375 13.945312 C 0.929688 15.625 1.871094 20.738281 3.347656 25.589844 C 4.199219 28.378906 5.109375 30.691406 6.046875 32.46875 C 7.375 34.992188 8.800781 36.476562 10.398438 37.011719 C 11.296875 37.308594 12.921875 37.519531 14.636719 36.09375 C 14.851562 36.355469 15.140625 36.617188 15.527344 36.859375 C 16.015625 37.167969 16.613281 37.417969 17.207031 37.566406 C 19.355469 38.105469 21.367188 37.96875 23.082031 37.21875 C 23.09375 37.523438 23.101562 37.8125 23.109375 38.066406 C 23.121094 38.472656 23.132812 38.875 23.148438 39.25 C 23.25 41.78125 23.421875 43.753906 23.933594 45.128906 C 23.960938 45.207031 23.996094 45.320312 24.039062 45.445312 C 24.292969 46.222656 24.71875 47.53125 25.800781 48.550781 C 26.925781 49.609375 28.28125 49.9375 29.523438 49.9375 C 30.148438 49.9375 30.742188 49.855469 31.265625 49.742188 C 33.125 49.34375 35.238281 48.738281 36.765625 46.5625 C 38.210938 44.503906 38.910156 41.40625 39.039062 36.523438 C 39.054688 36.386719 39.070312 36.253906 39.085938 36.128906 C 39.09375 36.042969 39.105469 35.957031 39.117188 35.871094 L 39.457031 35.902344 L 39.542969 35.90625 C 41.4375 35.992188 43.753906 35.59375 45.175781 34.929688 C 46.300781 34.410156 49.902344 32.507812 49.054688 29.941406 "/>
<path style=" stroke:none;fill-rule:nonzero;fill:rgb(20%,40.392157%,56.862745%);fill-opacity:1;" d="M 45.816406 30.441406 C 40.183594 31.601562 39.796875 29.695312 39.796875 29.695312 C 45.742188 20.871094 48.230469 9.667969 46.082031 6.925781 C 40.230469 -0.550781 30.097656 2.984375 29.929688 3.078125 L 29.875 3.085938 C 28.761719 2.855469 27.515625 2.71875 26.117188 2.695312 C 23.570312 2.652344 21.636719 3.363281 20.167969 4.476562 C 20.167969 4.476562 2.09375 -2.96875 2.933594 13.839844 C 3.113281 17.417969 8.0625 40.898438 13.960938 33.808594 C 16.117188 31.214844 18.203125 29.019531 18.203125 29.019531 C 19.238281 29.707031 20.476562 30.058594 21.773438 29.933594 L 21.875 29.847656 C 21.84375 30.167969 21.859375 30.484375 21.917969 30.855469 C 20.394531 32.554688 20.84375 32.855469 17.804688 33.480469 C 14.730469 34.113281 16.535156 35.242188 17.714844 35.535156 C 19.144531 35.894531 22.453125 36.398438 24.6875 33.269531 L 24.597656 33.628906 C 25.195312 34.105469 25.613281 36.730469 25.542969 39.113281 C 25.472656 41.492188 25.425781 43.125 25.894531 44.402344 C 26.363281 45.679688 26.832031 48.550781 30.824219 47.695312 C 34.164062 46.980469 35.894531 45.125 36.132812 42.035156 C 36.304688 39.835938 36.691406 40.160156 36.714844 38.195312 L 37.023438 37.265625 C 37.382812 34.285156 37.082031 33.324219 39.136719 33.773438 L 39.636719 33.816406 C 41.152344 33.882812 43.132812 33.570312 44.296875 33.03125 C 46.800781 31.871094 48.285156 29.929688 45.816406 30.441406 "/>
<path style=" stroke:none;fill-rule:nonzero;fill:rgb(100%,100%,100%);fill-opacity:1;" d="M 21.226562 15.441406 C 20.71875 15.371094 20.257812 15.433594 20.027344 15.609375 C 19.894531 15.710938 19.855469 15.824219 19.84375 15.902344 C 19.816406 16.113281 19.960938 16.34375 20.050781 16.464844 C 20.308594 16.800781 20.679688 17.035156 21.046875 17.085938 C 21.101562 17.09375 21.15625 17.097656 21.207031 17.097656 C 21.820312 17.097656 22.378906 16.617188 22.429688 16.265625 C 22.492188 15.820312 21.847656 15.527344 21.226562 15.441406 "/>
<path style=" stroke:none;fill-rule:nonzero;fill:rgb(100%,100%,100%);fill-opacity:1;" d="M 38.042969 15.453125 C 37.992188 15.109375 37.375 15.007812 36.789062 15.089844 C 36.207031 15.171875 35.636719 15.433594 35.6875 15.78125 C 35.722656 16.054688 36.210938 16.515625 36.789062 16.515625 C 36.839844 16.515625 36.886719 16.511719 36.9375 16.503906 C 37.324219 16.449219 37.605469 16.207031 37.738281 16.066406 C 37.945312 15.851562 38.0625 15.609375 38.042969 15.453125 "/>
<path style=" stroke:none;fill-rule:nonzero;fill:rgb(100%,100%,100%);fill-opacity:1;" d="M 47.691406 30.308594 C 47.476562 29.660156 46.785156 29.449219 45.636719 29.6875 C 42.226562 30.390625 41.003906 29.902344 40.601562 29.609375 C 43.253906 25.570312 45.433594 20.6875 46.609375 16.132812 C 47.167969 13.976562 47.476562 11.972656 47.5 10.339844 C 47.527344 8.546875 47.222656 7.230469 46.59375 6.425781 C 44.054688 3.183594 40.328125 1.445312 35.820312 1.394531 C 32.71875 1.363281 30.101562 2.15625 29.59375 2.378906 C 28.523438 2.113281 27.359375 1.949219 26.089844 1.929688 C 23.761719 1.890625 21.75 2.449219 20.085938 3.582031 C 19.359375 3.3125 17.492188 2.671875 15.203125 2.304688 C 11.25 1.667969 8.109375 2.148438 5.867188 3.738281 C 3.195312 5.632812 1.960938 9.019531 2.199219 13.804688 C 2.277344 15.414062 3.195312 20.367188 4.644531 25.113281 C 6.550781 31.355469 8.621094 34.890625 10.800781 35.617188 C 11.054688 35.703125 11.351562 35.761719 11.675781 35.761719 C 12.46875 35.761719 13.445312 35.402344 14.457031 34.183594 C 16.144531 32.15625 17.714844 30.457031 18.296875 29.839844 C 19.152344 30.300781 20.09375 30.558594 21.058594 30.585938 C 21.058594 30.609375 21.0625 30.632812 21.0625 30.660156 C 20.871094 30.886719 20.710938 31.089844 20.578125 31.261719 C 19.910156 32.109375 19.769531 32.285156 17.625 32.726562 C 17.011719 32.851562 15.390625 33.1875 15.367188 34.324219 C 15.339844 35.566406 17.285156 36.085938 17.503906 36.144531 C 18.277344 36.335938 19.019531 36.429688 19.730469 36.429688 C 21.453125 36.429688 22.972656 35.863281 24.183594 34.769531 C 24.144531 39.199219 24.332031 43.5625 24.863281 44.890625 C 25.296875 45.980469 26.363281 48.640625 29.722656 48.640625 C 30.214844 48.640625 30.757812 48.582031 31.355469 48.457031 C 34.863281 47.703125 36.386719 46.152344 36.976562 42.734375 C 37.292969 40.910156 37.832031 36.546875 38.085938 34.207031 C 38.625 34.375 39.316406 34.449219 40.0625 34.449219 C 41.621094 34.449219 43.421875 34.121094 44.550781 33.59375 C 45.816406 33.007812 48.105469 31.5625 47.691406 30.308594 Z M 39.335938 14.496094 C 39.324219 15.1875 39.230469 15.816406 39.128906 16.46875 C 39.019531 17.171875 38.910156 17.902344 38.878906 18.785156 C 38.851562 19.644531 38.960938 20.539062 39.0625 21.402344 C 39.273438 23.148438 39.488281 24.945312 38.65625 26.722656 C 38.527344 26.492188 38.402344 26.238281 38.285156 25.960938 C 38.183594 25.710938 37.957031 25.308594 37.644531 24.75 C 36.433594 22.574219 33.59375 17.484375 35.046875 15.410156 C 35.480469 14.789062 36.578125 14.15625 39.335938 14.496094 Z M 35.996094 2.796875 C 40.035156 2.882812 43.230469 4.394531 45.496094 7.289062 C 47.230469 9.503906 45.320312 19.597656 39.785156 28.304688 C 39.730469 28.234375 39.675781 28.164062 39.617188 28.09375 C 39.59375 28.0625 39.570312 28.035156 39.546875 28.003906 C 40.976562 25.644531 40.699219 23.308594 40.449219 21.238281 C 40.347656 20.386719 40.25 19.582031 40.273438 18.828125 C 40.300781 18.03125 40.40625 17.34375 40.507812 16.683594 C 40.632812 15.863281 40.761719 15.019531 40.726562 14.023438 C 40.753906 13.917969 40.761719 13.796875 40.75 13.648438 C 40.660156 12.691406 39.570312 9.832031 37.34375 7.246094 C 36.128906 5.828125 34.355469 4.246094 31.933594 3.175781 C 32.976562 2.960938 34.398438 2.757812 35.996094 2.796875 Z M 13.386719 33.292969 C 12.269531 34.632812 11.496094 34.378906 11.242188 34.292969 C 9.589844 33.742188 7.671875 30.246094 5.980469 24.703125 C 4.515625 19.910156 3.660156 15.089844 3.59375 13.734375 C 3.378906 9.460938 4.414062 6.480469 6.671875 4.878906 C 10.347656 2.273438 16.390625 3.832031 18.816406 4.625 C 18.785156 4.65625 18.746094 4.691406 18.710938 4.726562 C 14.726562 8.75 14.824219 15.621094 14.832031 16.042969 C 14.832031 16.203125 14.847656 16.433594 14.863281 16.75 C 14.933594 17.90625 15.0625 20.058594 14.71875 22.496094 C 14.402344 24.761719 15.101562 26.976562 16.636719 28.578125 C 16.792969 28.742188 16.960938 28.898438 17.128906 29.042969 C 16.449219 29.773438 14.964844 31.390625 13.386719 33.292969 Z M 17.644531 27.609375 C 16.40625 26.320312 15.84375 24.527344 16.101562 22.6875 C 16.460938 20.113281 16.328125 17.871094 16.257812 16.667969 C 16.246094 16.5 16.238281 16.351562 16.234375 16.234375 C 16.816406 15.71875 19.511719 14.273438 21.4375 14.714844 C 22.3125 14.914062 22.847656 15.511719 23.070312 16.542969 C 24.222656 21.863281 23.222656 24.082031 22.421875 25.863281 C 22.257812 26.230469 22.101562 26.578125 21.964844 26.9375 L 21.863281 27.214844 C 21.601562 27.917969 21.359375 28.570312 21.207031 29.191406 C 19.894531 29.1875 18.613281 28.625 17.644531 27.609375 Z M 17.84375 34.789062 C 17.460938 34.691406 17.117188 34.527344 16.914062 34.386719 C 17.082031 34.308594 17.382812 34.199219 17.90625 34.09375 C 20.429688 33.574219 20.820312 33.207031 21.671875 32.125 C 21.867188 31.875 22.089844 31.59375 22.394531 31.253906 C 22.398438 31.253906 22.398438 31.253906 22.398438 31.253906 C 22.851562 30.742188 23.0625 30.828125 23.441406 30.984375 C 23.75 31.113281 24.046875 31.496094 24.167969 31.921875 C 24.226562 32.121094 24.289062 32.5 24.078125 32.796875 C 22.300781 35.285156 19.707031 35.253906 17.84375 34.789062 Z M 31.0625 47.089844 C 27.972656 47.753906 26.878906 46.175781 26.160156 44.375 C 25.691406 43.210938 25.464844 37.960938 25.625 32.167969 C 25.628906 32.089844 25.617188 32.015625 25.597656 31.945312 C 25.578125 31.8125 25.550781 31.675781 25.511719 31.535156 C 25.269531 30.691406 24.679688 29.988281 23.976562 29.695312 C 23.695312 29.578125 23.179688 29.367188 22.5625 29.523438 C 22.695312 28.980469 22.921875 28.367188 23.171875 27.703125 L 23.273438 27.425781 C 23.390625 27.109375 23.539062 26.78125 23.695312 26.4375 C 24.535156 24.574219 25.683594 22.019531 24.4375 16.246094 C 23.96875 14.085938 22.40625 13.027344 20.039062 13.273438 C 18.621094 13.421875 17.324219 13.992188 16.675781 14.320312 C 16.539062 14.390625 16.410156 14.460938 16.292969 14.527344 C 16.472656 12.347656 17.15625 8.277344 19.707031 5.703125 C 21.316406 4.082031 23.457031 3.28125 26.066406 3.324219 C 31.207031 3.40625 34.503906 6.046875 36.363281 8.242188 C 37.964844 10.136719 38.832031 12.046875 39.179688 13.074219 C 36.574219 12.808594 34.804688 13.324219 33.90625 14.609375 C 31.949219 17.402344 34.972656 22.824219 36.425781 25.429688 C 36.691406 25.90625 36.921875 26.320312 36.996094 26.492188 C 37.46875 27.640625 38.082031 28.40625 38.527344 28.964844 C 38.664062 29.136719 38.796875 29.300781 38.898438 29.449219 C 38.109375 29.675781 36.691406 30.199219 36.824219 32.828125 C 36.71875 34.144531 35.976562 40.316406 35.601562 42.496094 C 35.105469 45.378906 34.042969 46.453125 31.0625 47.089844 Z M 43.960938 32.328125 C 43.15625 32.703125 41.804688 32.984375 40.523438 33.046875 C 39.105469 33.113281 38.386719 32.886719 38.214844 32.75 C 38.136719 31.109375 38.746094 30.941406 39.390625 30.757812 C 39.492188 30.730469 39.589844 30.703125 39.683594 30.667969 C 39.746094 30.71875 39.808594 30.765625 39.878906 30.8125 C 41.019531 31.5625 43.050781 31.644531 45.917969 31.054688 C 45.929688 31.050781 45.9375 31.050781 45.949219 31.046875 C 45.5625 31.410156 44.902344 31.894531 43.960938 32.328125 Z M 43.960938 32.328125 "/>
</g>
</svg>
