<?xml version="1.0" encoding="UTF-8"?>
<svg xmlns="http://www.w3.org/2000/svg" xmlns:xlink="http://www.w3.org/1999/xlink" width="988px" height="750px" viewBox="0 0 988 750" version="1.1">
<g id="surface1">
<path style=" stroke:none;fill-rule:nonzero;fill:rgb(90.196078%,41.176471%,63.529412%);fill-opacity:1;" d="M 988 322.039062 L 628.628906 322.039062 L 628.628906 230.042969 L 988 230.042969 Z M 988 322.039062 "/>
<path style=" stroke:none;fill-rule:nonzero;fill:rgb(95.294118%,74.509804%,14.901961%);fill-opacity:1;" d="M 941.324219 322.039062 L 628.628906 322.039062 L 628.628906 91.949219 L 941.324219 91.949219 Z M 941.324219 322.039062 "/>
<path style=" stroke:none;fill-rule:nonzero;fill:rgb(93.333333%,61.176471%,20.392157%);fill-opacity:1;" d="M 812.132812 322.039062 L 628.628906 322.039062 L 628.628906 0 L 812.132812 0 Z M 812.132812 322.039062 "/>
<path style=" stroke:none;fill-rule:nonzero;fill:rgb(95.294118%,73.72549%,52.941176%);fill-opacity:1;" d="M 848.234375 322.039062 L 628.628906 322.039062 L 628.628906 35.933594 L 848.234375 35.933594 Z M 848.234375 322.039062 "/>
<path style=" stroke:none;fill-rule:nonzero;fill:rgb(89.019608%,44.705882%,10.980392%);fill-opacity:1;" d="M 628.578125 35.988281 L 628.578125 322.007812 L 812.113281 322.007812 L 812.113281 35.988281 Z M 628.578125 35.988281 "/>
<path style=" stroke:none;fill-rule:nonzero;fill:rgb(67.843137%,10.588235%,0.784314%);fill-opacity:1;" d="M 444.617188 322.039062 L 628.628906 322.039062 L 628.628906 368.042969 L 444.617188 368.042969 Z M 444.617188 322.039062 "/>
<path style=" stroke:none;fill-rule:nonzero;fill:rgb(90.980392%,55.294118%,7.843137%);fill-opacity:1;" d="M 628.578125 91.898438 L 628.578125 322.007812 L 848.339844 322.007812 L 848.339844 91.898438 Z M 628.578125 91.898438 "/>
<path style=" stroke:none;fill-rule:nonzero;fill:rgb(84.705882%,33.72549%,1.568627%);fill-opacity:1;" d="M 628.578125 91.898438 L 628.578125 322.007812 L 812.113281 322.007812 L 812.113281 91.898438 Z M 628.578125 91.898438 "/>
<path style=" stroke:none;fill-rule:nonzero;fill:rgb(75.686275%,26.27451%,1.176471%);fill-opacity:1;" d="M 743.382812 322.039062 L 628.628906 322.039062 L 628.628906 183.933594 L 743.382812 183.933594 Z M 743.382812 322.039062 "/>
<path style=" stroke:none;fill-rule:nonzero;fill:rgb(85.882353%,30.588235%,9.411765%);fill-opacity:1;" d="M 628.578125 230.109375 L 628.578125 322.007812 L 941.429688 322.007812 L 941.429688 230.109375 Z M 628.578125 230.109375 "/>
<path style=" stroke:none;fill-rule:nonzero;fill:rgb(81.960784%,22.352941%,5.098039%);fill-opacity:1;" d="M 628.578125 230.109375 L 628.578125 322.007812 L 848.339844 322.007812 L 848.339844 230.109375 Z M 628.578125 230.109375 "/>
<path style=" stroke:none;fill-rule:nonzero;fill:rgb(76.078431%,13.72549%,1.176471%);fill-opacity:1;" d="M 628.578125 230.109375 L 628.578125 322.007812 L 812.113281 322.007812 L 812.113281 230.109375 Z M 628.578125 230.109375 "/>
<path style=" stroke:none;fill-rule:nonzero;fill:rgb(67.843137%,10.588235%,0.784314%);fill-opacity:1;" d="M 628.578125 230.109375 L 628.578125 322.007812 L 743.5 322.007812 L 743.5 230.109375 Z M 628.578125 230.109375 "/>
<path style=" stroke:none;fill-rule:nonzero;fill:rgb(0%,0%,0%);fill-opacity:1;" d="M 668.640625 495.304688 C 637.328125 500.871094 620.632812 524.53125 620.632812 565.585938 C 620.632812 607.339844 642.894531 635.175781 675.597656 635.175781 C 691.601562 635.175781 705.515625 629.609375 734.738281 614.996094 C 734.738281 649.09375 734.738281 649.09375 734.738281 649.09375 C 699.253906 665.792969 678.378906 669.96875 650.550781 669.96875 C 619.238281 669.96875 596.976562 662.316406 579.582031 643.527344 C 561.488281 625.433594 551.75 601.773438 551.75 574.632812 C 551.75 515.484375 596.277344 474.429688 660.984375 474.429688 C 703.429688 474.429688 733.347656 494.609375 733.347656 523.140625 C 733.347656 541.929688 719.429688 555.148438 699.253906 555.148438 C 688.816406 555.148438 680.46875 551.671875 668.640625 545.40625 "/>
<path style=" stroke:none;fill-rule:nonzero;fill:rgb(0%,0%,0%);fill-opacity:1;" d="M 512.089844 574.632812 C 540.617188 539.144531 551.054688 524.53125 551.054688 507.132812 C 551.054688 489.738281 537.136719 474.429688 517.65625 474.429688 C 506.523438 474.429688 496.085938 480.691406 491.21875 486.257812 C 491.21875 559.324219 491.21875 559.324219 491.21875 559.324219 C 444.601562 621.953125 444.601562 621.953125 444.601562 621.953125 C 444.601562 479.996094 444.601562 479.996094 444.601562 479.996094 C 400.070312 479.996094 400.070312 479.996094 400.070312 479.996094 C 326.316406 601.773438 326.316406 601.773438 326.316406 601.773438 C 326.316406 479.996094 326.316406 479.996094 326.316406 479.996094 C 301.269531 479.996094 301.269531 479.996094 301.269531 479.996094 C 233.78125 495.304688 233.78125 495.304688 233.78125 495.304688 C 233.78125 512.703125 233.78125 512.703125 233.78125 512.703125 C 270.65625 516.179688 270.65625 516.179688 270.65625 516.179688 C 270.65625 667.1875 270.65625 667.1875 270.65625 667.1875 C 317.273438 667.1875 317.273438 667.1875 317.273438 667.1875 C 388.242188 550.277344 388.242188 550.277344 388.242188 550.277344 C 388.242188 667.1875 388.242188 667.1875 388.242188 667.1875 C 440.425781 667.1875 440.425781 667.1875 440.425781 667.1875 "/>
<path style=" stroke:none;fill-rule:nonzero;fill:rgb(0%,0%,0%);fill-opacity:1;" d="M 92.539062 643.527344 C 98.105469 643.527344 99.496094 643.527344 102.976562 643.527344 C 140.546875 643.527344 161.417969 620.5625 161.417969 574.632812 C 161.417969 536.359375 144.722656 515.484375 113.410156 515.484375 C 109.238281 515.484375 102.976562 516.179688 92.539062 518.269531 Z M 92.539062 725.640625 C 123.152344 732.597656 123.152344 732.597656 123.152344 732.597656 C 123.152344 749.996094 123.152344 749.996094 123.152344 749.996094 C 2.78125 749.996094 2.78125 749.996094 2.78125 749.996094 C 2.78125 732.597656 2.78125 732.597656 2.78125 732.597656 C 30.613281 725.640625 30.613281 725.640625 30.613281 725.640625 C 30.613281 515.484375 30.613281 515.484375 30.613281 515.484375 C 0 515.484375 0 515.484375 0 515.484375 C 0 498.089844 0 498.089844 0 498.089844 C 73.054688 475.820312 73.054688 475.820312 73.054688 475.820312 C 92.539062 475.820312 92.539062 475.820312 92.539062 475.820312 C 92.539062 500.871094 92.539062 500.871094 92.539062 500.871094 C 126.632812 479.996094 138.460938 476.515625 156.550781 476.515625 C 196.902344 476.515625 227.519531 514.09375 227.519531 566.285156 C 227.519531 626.128906 186.46875 667.1875 123.847656 667.1875 C 116.890625 667.1875 105.0625 666.488281 92.539062 665.792969 "/>
</g>
</svg>
