<?xml version="1.0" standalone="no"?>
<!DOCTYPE svg PUBLIC "-//W3C//DTD SVG 20010904//EN"
 "http://www.w3.org/TR/2001/REC-SVG-20010904/DTD/svg10.dtd">
<svg version="1.0" xmlns="http://www.w3.org/2000/svg"
 width="400.000000pt" height="400.000000pt" viewBox="0 0 400.000000 400.000000"
 preserveAspectRatio="xMidYMid meet">

<g transform="translate(0.000000,400.000000) scale(0.100000,-0.100000)"
fill="#000000" stroke="none">
<path d="M1157 3101 c-105 -34 -159 -84 -183 -169 -14 -47 -14 -61 -2 -110 8
-33 18 -56 25 -55 8 2 10 -4 6 -15 -6 -15 -5 -15 10 -3 15 12 17 12 11 -3 -5
-12 2 -26 18 -41 35 -32 106 -67 120 -59 6 4 8 3 5 -3 -9 -14 68 -47 85 -38 7
5 10 4 5 0 -4 -5 14 -19 40 -33 27 -13 56 -31 66 -39 21 -20 22 -76 2 -97 -35
-35 -141 -45 -249 -25 -45 8 -61 7 -74 -3 -15 -12 -16 -11 -3 5 11 14 11 17 0
17 -8 0 -24 3 -36 6 -22 6 -23 4 -23 -74 l0 -80 75 -11 c150 -22 394 -7 353
21 -9 6 -5 7 9 3 44 -12 141 64 170 132 20 50 17 141 -8 187 -31 59 -67 85
-237 171 -152 77 -157 81 -160 113 -4 36 19 72 45 72 8 0 12 4 9 8 -9 15 168
3 237 -16 l67 -19 0 73 c0 82 4 78 -90 90 -125 16 -235 14 -293 -5z m288 -92
c11 -16 1 -19 -13 -3 -7 8 -8 14 -3 14 5 0 13 -5 16 -11z m-429 -37 c-17 -16
-18 -16 -5 5 7 12 15 20 18 17 3 -2 -3 -12 -13 -22z m377 21 c-7 -2 -19 -2
-25 0 -7 3 -2 5 12 5 14 0 19 -2 13 -5z m-218 -183 c3 -5 1 -10 -4 -10 -6 0
-11 5 -11 10 0 6 2 10 4 10 3 0 8 -4 11 -10z m220 -78 c-3 -3 -11 0 -18 7 -9
10 -8 11 6 5 10 -3 15 -9 12 -12z m-280 -22 c4 -6 -1 -7 -11 -3 -12 4 -15 3
-10 -5 5 -8 2 -10 -9 -5 -13 5 -14 7 -3 14 17 11 26 11 33 -1z m409 -46 c3 -8
2 -12 -4 -9 -6 3 -10 10 -10 16 0 14 7 11 14 -7z m-168 -75 c3 -6 1 -16 -5
-22 -9 -9 -11 -8 -6 6 4 10 2 17 -4 17 -6 0 -11 -5 -11 -12 0 -6 -3 -9 -6 -5
-7 7 4 27 16 27 5 0 12 -5 16 -11z m74 -113 c-7 -7 -13 -7 -20 0 -6 6 -3 10
10 10 13 0 16 -4 10 -10z m-43 -58 c-3 -8 -6 -5 -6 6 -1 11 2 17 5 13 3 -3 4
-12 1 -19z m137 -34 c3 -8 2 -12 -4 -9 -6 3 -10 10 -10 16 0 14 7 11 14 -7z
m-34 -39 c-7 -8 -17 -15 -23 -15 -6 0 -2 7 9 15 25 19 30 19 14 0z m-473 -47
c-3 -8 -6 -5 -6 6 -1 11 2 17 5 13 3 -3 4 -12 1 -19z m83 12 c0 -5 -2 -10 -4
-10 -3 0 -8 5 -11 10 -3 6 -1 10 4 10 6 0 11 -4 11 -10z"/>
<path d="M2301 2801 c-14 -13 -20 -25 -15 -33 6 -11 5 -11 -8 0 -14 11 -18 10
-27 -6 -11 -21 -7 -72 9 -101 37 -70 141 -64 180 9 12 22 3 53 -13 43 -6 -3
-7 -1 -3 6 4 6 12 9 17 6 13 -8 11 27 -2 45 -9 13 -10 12 -5 -3 3 -11 2 -16
-4 -12 -6 3 -10 13 -10 20 0 17 -50 45 -78 45 -10 0 -29 -9 -41 -19z m11 -23
c-7 -7 -12 -8 -12 -2 0 14 12 26 19 19 2 -3 -1 -11 -7 -17z m-26 -71 c-2 -7
-5 -3 -6 8 -1 19 -1 19 -15 1 -13 -17 -14 -16 -11 10 2 16 4 34 5 39 1 6 9 -3
17 -18 8 -16 13 -34 10 -40z m32 18 c-3 -3 -9 2 -12 12 -6 14 -5 15 5 6 7 -7
10 -15 7 -18z m99 -57 c-3 -8 -6 -5 -6 6 -1 11 2 17 5 13 3 -3 4 -12 1 -19z
m-97 -30 c0 -11 -12 -10 -30 2 -12 7 -10 9 8 7 12 0 22 -5 22 -9z m53 -15 c-7
-2 -21 -2 -30 0 -10 3 -4 5 12 5 17 0 24 -2 18 -5z"/>
<path d="M2633 2495 c-17 -7 -44 -32 -59 -54 -22 -35 -25 -47 -20 -85 5 -29
11 -43 19 -41 14 5 26 -2 47 -29 9 -12 10 -17 3 -12 -7 4 -13 2 -13 -3 0 -6 7
-11 15 -11 8 0 15 -4 15 -10 0 -5 20 -10 45 -10 43 0 45 1 41 25 -3 15 -1 23
5 20 5 -4 7 -10 4 -15 -3 -5 4 -8 16 -7 12 1 24 9 27 19 2 10 8 15 13 13 4 -3
14 13 20 36 10 32 10 45 0 61 -7 11 -8 17 -2 14 13 -9 2 21 -19 50 -19 26 -72
54 -102 54 -13 -1 -37 -7 -55 -15z m64 -1 c-3 -3 -12 -4 -19 -1 -8 3 -5 6 6 6
11 1 17 -2 13 -5z m-52 -14 c-27 -12 -43 -12 -25 0 8 5 22 9 30 9 10 0 8 -3
-5 -9z m155 -46 c0 -2 -9 -4 -20 -4 -11 0 -20 4 -20 9 0 5 9 7 20 4 11 -3 20
-7 20 -9z m-206 -13 c3 -5 -3 -11 -15 -14 -16 -4 -18 -3 -8 9 13 16 16 17 23
5z m156 -12 c0 -5 -4 -9 -10 -9 -5 0 -10 7 -10 16 0 8 5 12 10 9 6 -3 10 -10
10 -16z m57 -51 c-3 -8 -6 -5 -6 6 -1 11 2 17 5 13 3 -3 4 -12 1 -19z m-57
-52 c-7 -7 -13 -7 -20 0 -6 6 -3 10 10 10 13 0 16 -4 10 -10z"/>
<path d="M1955 2452 c-12 -12 9 -21 27 -11 14 8 18 8 14 0 -4 -6 7 -17 26 -26
22 -10 25 -13 8 -8 -14 3 -30 6 -37 6 -7 0 -10 4 -7 9 8 13 -10 10 -25 -4 -11
-10 -13 -10 -7 0 4 6 3 12 -3 12 -6 0 -15 -9 -21 -20 -8 -15 -8 -20 2 -20 10
0 10 -2 1 -8 -29 -19 7 -79 52 -88 51 -9 92 11 105 52 14 42 7 67 -27 94 -23
18 -94 26 -108 12z m95 -17 c16 -19 0 -19 -26 0 -16 12 -16 14 -3 15 9 0 22
-7 29 -15z m-53 -97 c-3 -7 -5 -2 -5 12 0 14 2 19 5 13 2 -7 2 -19 0 -25z
m-32 12 c3 -5 2 -10 -4 -10 -5 0 -13 5 -16 10 -3 6 -2 10 4 10 5 0 13 -4 16
-10z m80 -40 c-3 -5 -14 -10 -23 -9 -14 0 -13 2 3 9 27 11 27 11 20 0z"/>
<path d="M2580 2302 c0 -12 19 -26 26 -19 2 2 -2 10 -11 17 -9 8 -15 8 -15 2z"/>
<path d="M2985 2200 l30 -8 -33 -1 c-23 -1 -31 -5 -26 -13 5 -10 4 -10 -6 -1
-15 13 -54 -17 -76 -58 -19 -37 -23 -115 -6 -111 8 1 11 -2 7 -8 -3 -6 -11 -8
-16 -5 -14 9 -11 -3 9 -38 29 -54 71 -83 132 -92 33 -4 41 -3 30 4 -13 9 -13
11 2 11 9 0 19 -4 23 -10 14 -22 105 37 105 69 0 12 -2 12 -13 -3 -12 -16 -13
-16 -13 1 0 10 -3 29 -7 43 -4 14 -4 19 -1 12 4 -9 9 -10 19 -2 11 9 16 6 25
-12 10 -21 10 -21 -3 -5 -13 16 -15 16 -21 1 -8 -22 -8 -26 3 -19 5 3 13 0 16
-6 8 -13 31 17 34 44 5 62 2 81 -19 122 -31 61 -77 87 -160 90 -46 2 -56 1
-35 -5z m153 -55 c-3 -3 -9 2 -12 12 -6 14 -5 15 5 6 7 -7 10 -15 7 -18z
m-218 -5 c0 -5 -5 -10 -11 -10 -5 0 -7 5 -4 10 3 6 8 10 11 10 2 0 4 -4 4 -10z
m30 -14 c0 -3 -4 -8 -10 -11 -5 -3 -10 -1 -10 4 0 6 5 11 10 11 6 0 10 -2 10
-4z m224 -32 c3 -8 2 -12 -4 -9 -6 3 -10 10 -10 16 0 14 7 11 14 -7z m-297
-26 c-3 -7 -5 -2 -5 12 0 14 2 19 5 13 2 -7 2 -19 0 -25z m113 -163 c0 -7 -39
-12 -49 -5 -7 4 1 7 18 8 17 0 31 -1 31 -3z m120 -5 c8 -5 11 -10 5 -10 -5 0
-17 5 -25 10 -8 5 -10 10 -5 10 6 0 17 -5 25 -10z"/>
<path d="M2290 2123 c-28 -20 -50 -69 -37 -82 8 -8 8 -11 -1 -11 -39 0 30 -84
77 -95 53 -11 109 32 126 95 5 19 4 22 -4 10 -9 -12 -11 -9 -11 16 0 63 -95
105 -150 67z m34 -9 c3 -8 2 -12 -4 -9 -6 3 -10 10 -10 16 0 14 7 11 14 -7z
m61 6 c13 -5 14 -9 5 -9 -8 0 -24 4 -35 9 -13 5 -14 9 -5 9 8 0 24 -4 35 -9z
m-77 -22 c8 -10 5 -13 -13 -13 -18 0 -21 3 -13 13 6 6 12 12 13 12 1 0 7 -6
13 -12z m117 -16 c-3 -3 -11 0 -18 7 -9 10 -8 11 6 5 10 -3 15 -9 12 -12z
m-135 -32 c0 -5 -5 -10 -11 -10 -5 0 -7 5 -4 10 3 6 8 10 11 10 2 0 4 -4 4
-10z m127 -12 c-3 -8 -6 -5 -6 6 -1 11 2 17 5 13 3 -3 4 -12 1 -19z m-137 -38
c8 -5 11 -10 7 -10 -5 0 -5 -5 -2 -10 5 -8 12 -7 23 2 15 11 15 11 5 -3 -7 -9
-10 -19 -6 -22 3 -4 4 -7 1 -7 -2 0 -17 14 -31 30 -27 30 -26 38 3 20z m140
-15 c0 -11 -10 -15 -32 -14 -31 2 -31 2 -5 6 15 2 27 9 27 14 0 5 2 9 5 9 3 0
5 -7 5 -15z m-47 -32 c-7 -2 -19 -2 -25 0 -7 3 -2 5 12 5 14 0 19 -2 13 -5z"/>
<path d="M1655 2101 c-45 -13 -59 -28 -59 -66 0 -39 13 -52 64 -67 29 -9 65
12 75 42 15 48 -34 104 -80 91z m36 -18 c13 -16 12 -17 -3 -4 -17 13 -22 21
-14 21 2 0 10 -8 17 -17z m29 -79 c0 -8 -19 -13 -24 -6 -3 5 1 9 9 9 8 0 15
-2 15 -3z"/>
<path d="M2643 1822 c-23 -7 -45 -25 -73 -58 -12 -15 -16 -52 -10 -116 1 -17
30 -14 30 3 0 5 5 9 12 9 6 0 3 -9 -7 -20 -18 -20 -18 -21 3 -42 18 -18 23
-19 37 -8 13 11 15 10 9 -3 -4 -12 2 -18 20 -23 37 -9 71 2 111 37 41 36 54
86 35 138 -12 34 -40 71 -40 54 0 -4 -6 0 -14 9 -14 19 -79 31 -113 20z m-9
-24 c-4 -6 1 -17 11 -25 17 -12 16 -13 -13 -9 -18 2 -36 7 -40 11 -4 4 4 4 18
0 22 -7 23 -6 12 8 -10 12 -10 16 0 20 19 8 20 8 12 -5z m139 -20 c16 -12 14
-13 -22 -13 -22 0 -37 3 -34 8 2 4 14 5 26 2 21 -6 20 -5 -3 15 -18 15 -19 19
-5 11 11 -5 28 -16 38 -23z m-137 -148 c-4 -39 -11 -45 -30 -29 -13 12 -12 17
7 36 28 28 27 28 23 -7z m146 2 c-6 -5 -19 -17 -27 -28 -15 -19 -15 -19 -8 1
7 21 22 35 38 35 6 0 4 -4 -3 -8z m-85 -58 c-3 -3 -12 -4 -19 -1 -8 3 -5 6 6
6 11 1 17 -2 13 -5z"/>
<path d="M2610 1620 c0 -5 5 -10 10 -10 6 0 10 5 10 10 0 6 -4 10 -10 10 -5 0
-10 -4 -10 -10z"/>
<path d="M1972 1774 c-45 -23 -58 -61 -43 -124 1 -3 7 2 14 10 7 8 26 16 42
17 22 2 26 0 15 -7 -8 -5 -23 -10 -32 -10 -9 0 -20 -5 -23 -10 -9 -15 15 -42
32 -36 7 3 13 0 13 -7 0 -8 4 -6 10 3 7 10 10 11 10 2 0 -19 56 13 76 44 43
65 -43 155 -114 118z"/>
<path d="M963 1725 c0 -12 15 -15 74 -15 53 0 79 4 89 15 14 13 6 15 -74 15
-72 0 -89 -3 -89 -15z"/>
<path d="M1429 1731 c7 -5 9 -11 4 -14 -5 -3 -10 -73 -11 -156 -3 -119 -1
-151 10 -151 9 -1 8 -3 -3 -10 -8 -5 -72 -8 -142 -7 -119 2 -127 1 -130 -18
-4 -18 -4 -17 -6 3 0 13 -8 22 -18 23 -12 0 -13 2 -5 6 10 4 12 41 11 155 -1
128 -3 149 -16 144 -8 -3 -48 -6 -89 -6 l-74 0 2 -407 3 -408 74 -3 c53 -2 77
1 82 10 7 10 9 10 11 -2 1 -8 5 68 8 170 l5 185 45 -3 c33 -2 41 0 30 7 -12 8
-7 11 20 11 26 0 31 -3 20 -10 -11 -7 -6 -10 20 -9 29 0 31 2 15 9 -16 7 -11
9 20 9 29 1 36 -2 25 -9 -11 -7 -7 -10 18 -10 26 0 32 4 33 23 l0 22 9 -22 c5
-13 17 -23 27 -24 11 0 13 -3 6 -6 -10 -3 -13 -46 -13 -163 0 -87 3 -165 6
-174 5 -13 23 -16 90 -16 l84 0 0 410 0 410 -82 2 -83 2 80 5 c52 4 81 10 83
19 1 9 -22 12 -90 12 -56 0 -88 -4 -79 -9z m-229 -355 c0 -2 -7 -6 -15 -10 -8
-3 -15 -1 -15 4 0 6 7 10 15 10 8 0 15 -2 15 -4z m98 -3 c-10 -2 -26 -2 -35 0
-10 3 -2 5 17 5 19 0 27 -2 18 -5z m75 0 c-7 -2 -19 -2 -25 0 -7 3 -2 5 12 5
14 0 19 -2 13 -5z"/>
<path d="M2305 1450 c-30 -11 -48 -37 -41 -56 4 -12 2 -15 -9 -10 -18 7 -20
-5 -2 -23 6 -8 7 -11 2 -8 -6 3 -11 -3 -11 -14 0 -10 4 -19 9 -19 4 0 6 -4 2
-9 -6 -10 41 -51 59 -51 7 0 8 3 1 8 -11 7 -14 76 -4 86 3 3 5 -9 4 -26 -3
-40 13 -78 32 -78 8 0 27 7 44 15 22 12 28 21 26 38 -2 12 -2 16 0 9 9 -27 27
-4 30 37 2 38 -2 48 -31 77 -35 35 -68 42 -111 24z m-10 -40 c3 -5 1 -10 -4
-10 -6 0 -11 5 -11 10 0 6 2 10 4 10 3 0 8 -4 11 -10z m145 -45 c0 -5 -5 -3
-10 5 -5 8 -10 20 -10 25 0 6 5 3 10 -5 5 -8 10 -19 10 -25z m-157 -20 c-3 -9
-8 -14 -10 -11 -3 3 -2 9 2 15 9 16 15 13 8 -4z m7 -29 c0 -3 -4 -8 -10 -11
-5 -3 -10 -1 -10 4 0 6 5 11 10 11 6 0 10 -2 10 -4z"/>
</g>
</svg>
