<?xml version="1.0" encoding="UTF-8"?>
<svg xmlns="http://www.w3.org/2000/svg" xmlns:xlink="http://www.w3.org/1999/xlink" width="50px" height="50px" viewBox="0 0 50 50" version="1.1">
<defs>
<linearGradient id="linear0" gradientUnits="userSpaceOnUse" x1="2.59" y1="10.16" x2="15.41" y2="10.16" gradientTransform="matrix(2.777777,0,0,2.777777,0,0)">
<stop offset="0" style="stop-color:rgb(0%,35.686275%,63.137255%);stop-opacity:1;"/>
<stop offset="0.07" style="stop-color:rgb(0%,37.647059%,66.27451%);stop-opacity:1;"/>
<stop offset="0.36" style="stop-color:rgb(0%,44.313725%,78.431373%);stop-opacity:1;"/>
<stop offset="0.52" style="stop-color:rgb(0%,47.058824%,83.137255%);stop-opacity:1;"/>
<stop offset="0.64" style="stop-color:rgb(0%,45.490196%,80.392157%);stop-opacity:1;"/>
<stop offset="0.82" style="stop-color:rgb(0%,41.568627%,73.333333%);stop-opacity:1;"/>
<stop offset="1" style="stop-color:rgb(0%,35.686275%,63.137255%);stop-opacity:1;"/>
</linearGradient>
<radialGradient id="radial0" gradientUnits="userSpaceOnUse" cx="9.36" cy="10.57" fx="9.36" fy="10.57" r="7.07" gradientTransform="matrix(2083.387573,0,0,540.090332,861.669887,843.168477)">
<stop offset="0" style="stop-color:rgb(94.901961%,94.901961%,94.901961%);stop-opacity:1;"/>
<stop offset="0.58" style="stop-color:rgb(93.333333%,93.333333%,93.333333%);stop-opacity:1;"/>
<stop offset="1" style="stop-color:rgb(90.196078%,90.196078%,90.196078%);stop-opacity:1;"/>
</radialGradient>
</defs>
<g id="surface1">
<path style=" stroke:none;fill-rule:nonzero;fill:url(#linear0);" d="M 25 14.277344 C 15.167969 14.277344 7.195312 11.5 7.195312 7.835938 L 7.195312 42.164062 C 7.195312 45.695312 15.027344 48.554688 24.75 48.609375 L 25 48.609375 C 34.832031 48.609375 42.804688 45.832031 42.804688 42.164062 L 42.804688 7.832031 C 42.804688 11.417969 34.832031 14.277344 25 14.277344 Z M 25 14.277344 "/>
<path style=" stroke:none;fill-rule:nonzero;fill:rgb(90.980392%,90.980392%,90.980392%);fill-opacity:1;" d="M 42.804688 7.835938 C 42.804688 11.417969 34.832031 14.277344 25 14.277344 C 15.167969 14.277344 7.195312 11.5 7.195312 7.835938 C 7.195312 4.167969 15.167969 1.390625 25 1.390625 C 34.832031 1.390625 42.804688 4.167969 42.804688 7.835938 "/>
<path style=" stroke:none;fill-rule:nonzero;fill:rgb(31.372549%,90.196078%,100%);fill-opacity:1;" d="M 38.667969 7.304688 C 38.667969 9.585938 32.527344 11.417969 25 11.417969 C 17.472656 11.417969 11.332031 9.582031 11.332031 7.304688 C 11.332031 5.027344 17.472656 3.222656 25 3.222656 C 32.527344 3.222656 38.667969 5.054688 38.667969 7.304688 "/>
<path style=" stroke:none;fill-rule:nonzero;fill:rgb(9.803922%,54.117647%,70.196078%);fill-opacity:1;" d="M 25 8.332031 C 21.332031 8.238281 17.679688 8.777344 14.195312 9.917969 C 17.683594 11.035156 21.339844 11.542969 25 11.417969 C 28.667969 11.523438 32.328125 10.976562 35.804688 9.804688 C 32.3125 8.71875 28.660156 8.21875 25 8.332031 Z M 25 8.332031 "/>
<path style=" stroke:none;fill-rule:nonzero;fill:url(#radial0);" d="M 35.832031 31.667969 L 35.832031 22.222656 L 33.332031 22.222656 L 33.332031 33.695312 L 40.167969 33.695312 L 40.167969 31.667969 Z M 16 27.027344 C 15.484375 26.820312 15.003906 26.53125 14.582031 26.167969 C 14.355469 25.925781 14.238281 25.605469 14.25 25.277344 C 14.234375 24.945312 14.390625 24.628906 14.667969 24.445312 C 15.007812 24.207031 15.417969 24.089844 15.835938 24.109375 C 16.824219 24.066406 17.800781 24.351562 18.609375 24.914062 L 18.609375 22.527344 C 17.722656 22.195312 16.78125 22.046875 15.835938 22.085938 C 14.742188 22.027344 13.667969 22.359375 12.804688 23.027344 C 12.042969 23.617188 11.609375 24.535156 11.640625 25.5 C 11.640625 26.917969 12.527344 28.027344 14.417969 28.859375 C 15.03125 29.121094 15.609375 29.457031 16.140625 29.859375 C 16.402344 30.082031 16.554688 30.40625 16.554688 30.75 C 16.554688 31.09375 16.390625 31.414062 16.113281 31.613281 C 15.734375 31.832031 15.296875 31.9375 14.859375 31.917969 C 13.742188 31.90625 12.667969 31.492188 11.832031 30.75 L 11.832031 33.332031 C 12.75 33.804688 13.773438 34.035156 14.804688 34 C 15.96875 34.066406 17.125 33.746094 18.082031 33.082031 C 18.769531 32.433594 19.109375 31.496094 19 30.554688 C 19.015625 29.84375 18.765625 29.152344 18.304688 28.613281 C 17.65625 27.929688 16.871094 27.386719 16 27.027344 Z M 30.554688 31.445312 C 31.1875 30.386719 31.503906 29.175781 31.472656 27.945312 C 31.410156 26.902344 31.09375 25.894531 30.554688 25 C 30.121094 24.132812 29.445312 23.410156 28.613281 22.917969 C 27.765625 22.4375 26.808594 22.1875 25.832031 22.195312 C 24.785156 22.171875 23.746094 22.429688 22.832031 22.945312 C 21.976562 23.421875 21.273438 24.136719 20.804688 25 C 20.3125 25.980469 20.066406 27.066406 20.082031 28.164062 C 20.089844 29.132812 20.316406 30.082031 20.75 30.945312 C 21.175781 31.800781 21.839844 32.515625 22.667969 33 C 23.507812 33.511719 24.460938 33.796875 25.445312 33.832031 L 27.832031 36.609375 L 31.195312 36.609375 L 27.777344 33.554688 C 28.929688 33.210938 29.914062 32.460938 30.554688 31.445312 Z M 27.777344 30.75 C 27.265625 31.386719 26.484375 31.746094 25.667969 31.722656 C 24.84375 31.75 24.054688 31.375 23.554688 30.722656 C 22.96875 29.917969 22.683594 28.9375 22.75 27.945312 C 22.683594 26.953125 22.96875 25.96875 23.554688 25.167969 C 24.085938 24.511719 24.882812 24.136719 25.722656 24.140625 C 26.546875 24.101562 27.332031 24.488281 27.804688 25.167969 C 28.351562 25.984375 28.617188 26.960938 28.554688 27.945312 C 28.652344 28.945312 28.375 29.945312 27.777344 30.75 Z M 27.777344 30.75 "/>
</g>
</svg>
