<?xml version="1.0" encoding="UTF-8"?>
<svg xmlns="http://www.w3.org/2000/svg" xmlns:xlink="http://www.w3.org/1999/xlink" width="50px" height="50px" viewBox="0 0 50 50" version="1.1">
<g id="surface1">
<path style=" stroke:none;fill-rule:nonzero;fill:rgb(21.960784%,16.470588%,14.117647%);fill-opacity:1;" d="M 23.316406 0.816406 L 26.585938 0.816406 C 35.855469 1.773438 42.601562 6.386719 46.828125 14.664062 C 48.085938 17.429688 48.839844 20.3125 49.085938 23.316406 L 49.085938 26.585938 C 48.132812 35.855469 43.515625 42.601562 35.242188 46.828125 C 32.476562 48.085938 29.589844 48.839844 26.585938 49.085938 L 23.316406 49.085938 C 14.046875 48.132812 7.300781 43.515625 3.078125 35.242188 C 1.816406 32.476562 1.066406 29.589844 0.816406 26.585938 L 0.816406 23.316406 C 1.773438 14.046875 6.386719 7.300781 14.664062 3.078125 C 17.429688 1.816406 20.3125 1.066406 23.316406 0.816406 Z M 23.316406 0.816406 "/>
<path style=" stroke:none;fill-rule:nonzero;fill:rgb(88.235294%,84.313725%,79.607843%);fill-opacity:1;" d="M 43.507812 24.757812 C 43.40625 22.1875 42.734375 19.78125 41.492188 17.546875 C 41.738281 16.804688 41.820312 16.019531 41.730469 15.242188 C 41.53125 14.746094 41.164062 14.476562 40.625 14.421875 C 39.792969 14.375 38.960938 14.359375 38.125 14.375 C 38.296875 14.296875 38.492188 14.25 38.703125 14.230469 C 37.613281 12.582031 36.246094 11.136719 34.664062 9.953125 C 32.640625 8.28125 30.296875 7.449219 27.644531 7.453125 C 25.546875 7.496094 23.589844 8.054688 21.777344 9.132812 C 17.949219 11.324219 14.773438 14.242188 12.257812 17.882812 C 11.476562 17.972656 10.691406 18.023438 9.90625 18.027344 C 5.816406 17.386719 4.632812 18.957031 6.347656 22.738281 C 7.039062 24.125 7.679688 25.539062 8.269531 26.972656 C 8.183594 28.125 8.117188 29.277344 8.078125 30.433594 C 6.832031 32.441406 5.660156 34.492188 4.566406 36.585938 C 4.503906 36.714844 4.4375 36.714844 4.375 36.585938 C 1.238281 30.707031 0.546875 24.554688 2.304688 18.125 C 4.953125 10.226562 10.222656 4.953125 18.125 2.308594 C 26.699219 0.0507812 34.328125 1.8125 41.007812 7.597656 C 47.125 13.574219 49.515625 20.800781 48.171875 29.277344 C 47.074219 34.765625 44.429688 39.332031 40.242188 42.980469 C 40.03125 43.164062 39.804688 43.292969 39.566406 43.367188 C 38.96875 41.578125 39.078125 39.832031 39.902344 38.125 C 41.121094 36.136719 42.089844 34.003906 42.789062 31.78125 C 43.476562 29.46875 43.714844 27.128906 43.507812 24.757812 Z M 43.507812 24.757812 "/>
<path style=" stroke:none;fill-rule:nonzero;fill:rgb(98.823529%,98.823529%,98.823529%);fill-opacity:1;" d="M 34.664062 9.953125 C 36.246094 11.136719 37.613281 12.582031 38.703125 14.230469 C 38.503906 14.246094 38.308594 14.292969 38.125 14.375 C 36.480469 14.488281 34.859375 14.84375 33.316406 15.433594 C 31.8125 15.503906 30.304688 15.554688 28.796875 15.574219 C 28.414062 15.730469 28.03125 15.75 27.644531 15.625 C 26.558594 15.578125 25.664062 15.144531 24.953125 14.328125 C 23.886719 13.675781 22.761719 13.546875 21.585938 13.941406 C 20.753906 14.511719 20.449219 15.296875 20.671875 16.296875 C 21.183594 17.207031 21.328125 18.167969 21.105469 19.183594 C 21.015625 19.335938 20.933594 19.496094 20.863281 19.664062 C 18.191406 22.109375 15.804688 24.851562 13.75 27.835938 C 13.140625 28.898438 12.65625 30.027344 12.308594 31.203125 C 12.117188 32.871094 12.804688 34.007812 14.375 34.617188 C 15.238281 34.960938 16.144531 35.1875 17.066406 35.289062 C 16.296875 35.875 15.433594 36.066406 14.472656 35.867188 C 13.257812 35.652344 12.078125 35.28125 10.960938 34.757812 C 9.8125 36.835938 8.738281 38.953125 7.742188 41.105469 C 7.097656 40.382812 6.472656 39.644531 5.867188 38.894531 C 5.800781 38.773438 5.800781 38.628906 5.867188 38.511719 C 6.683594 36.582031 7.582031 34.691406 8.558594 32.835938 C 9.058594 33.722656 9.78125 34.316406 10.722656 34.617188 C 9.96875 33.894531 9.503906 33.011719 9.328125 31.972656 C 9.148438 30.320312 9.3125 28.652344 9.808594 27.066406 C 11.738281 20.878906 15.214844 15.765625 20.242188 11.730469 C 22.410156 10.183594 24.8125 9.1875 27.453125 8.75 C 29.953125 8.578125 32.359375 8.980469 34.664062 9.953125 Z M 34.664062 9.953125 "/>
<path style=" stroke:none;fill-rule:nonzero;fill:rgb(21.960784%,16.470588%,14.117647%);fill-opacity:1;" d="M 27.644531 15.625 C 26.296875 16.105469 24.980469 16.667969 23.703125 17.308594 C 22.824219 17.960938 21.972656 18.652344 21.152344 19.375 C 21.109375 19.320312 21.09375 19.25 21.105469 19.183594 C 21.328125 18.167969 21.183594 17.207031 20.671875 16.296875 C 20.449219 15.296875 20.753906 14.511719 21.585938 13.941406 C 22.761719 13.546875 23.882812 13.675781 24.953125 14.328125 C 25.660156 15.144531 26.558594 15.578125 27.644531 15.625 Z M 27.644531 15.625 "/>
<path style=" stroke:none;fill-rule:nonzero;fill:rgb(21.568627%,16.078431%,13.72549%);fill-opacity:1;" d="M 38.125 14.375 C 38.957031 14.359375 39.792969 14.375 40.625 14.421875 C 41.164062 14.476562 41.53125 14.746094 41.730469 15.242188 C 41.820312 16.019531 41.738281 16.804688 41.488281 17.546875 C 40.902344 19.191406 40.003906 20.648438 38.796875 21.921875 C 37.957031 22.492188 37.058594 22.589844 36.105469 22.210938 C 33.996094 21.582031 32.3125 20.382812 31.058594 18.605469 C 30.65625 17.597656 30.929688 16.8125 31.875 16.25 C 32.355469 15.976562 32.835938 15.707031 33.316406 15.433594 C 34.859375 14.84375 36.480469 14.488281 38.125 14.375 Z M 38.125 14.375 "/>
<path style=" stroke:none;fill-rule:nonzero;fill:rgb(53.333333%,45.098039%,38.823529%);fill-opacity:1;" d="M 33.316406 15.433594 C 32.835938 15.707031 32.355469 15.976562 31.875 16.25 C 30.929688 16.8125 30.65625 17.597656 31.058594 18.605469 C 32.3125 20.382812 33.996094 21.582031 36.105469 22.210938 C 37.058594 22.589844 37.957031 22.492188 38.796875 21.921875 C 40.003906 20.648438 40.902344 19.191406 41.488281 17.546875 C 42.730469 19.78125 43.40625 22.1875 43.507812 24.757812 C 43.042969 26.265625 42.414062 27.714844 41.636719 29.085938 C 41.269531 29.613281 40.867188 30.109375 40.433594 30.578125 C 39.96875 30.894531 39.519531 31.230469 39.085938 31.585938 L 38.992188 31.441406 C 39.425781 29.832031 39.542969 28.148438 39.328125 26.492188 C 39.242188 26.046875 39.082031 25.625 38.847656 25.242188 C 38.699219 27.378906 38.144531 29.464844 37.210938 31.394531 C 35.972656 33.71875 34.066406 34.535156 31.492188 33.84375 C 27.640625 32.746094 24.257812 30.839844 21.347656 28.125 C 21.53125 29.28125 21.855469 30.410156 22.308594 31.492188 C 22.902344 33.28125 23.0625 35.109375 22.789062 36.96875 C 22.699219 37.367188 22.570312 37.753906 22.40625 38.125 C 21.105469 40.242188 19.980469 42.460938 19.039062 44.761719 C 18.722656 45.605469 18.46875 46.472656 18.269531 47.355469 C 18.222656 47.453125 18.132812 47.523438 18.027344 47.546875 C 14.023438 46.289062 10.589844 44.144531 7.742188 41.105469 C 8.738281 38.953125 9.8125 36.835938 10.960938 34.757812 C 12.078125 35.28125 13.257812 35.652344 14.472656 35.867188 C 15.429688 36.066406 16.296875 35.875 17.066406 35.289062 C 16.144531 35.183594 15.238281 34.960938 14.375 34.617188 C 12.804688 34.007812 12.117188 32.871094 12.308594 31.199219 C 12.65625 30.027344 13.140625 28.898438 13.75 27.835938 C 15.804688 24.851562 18.191406 22.109375 20.863281 19.664062 C 20.933594 19.496094 21.015625 19.335938 21.105469 19.183594 C 21.09375 19.25 21.109375 19.320312 21.152344 19.375 C 21.972656 18.652344 22.824219 17.960938 23.703125 17.308594 C 24.980469 16.667969 26.296875 16.105469 27.644531 15.625 C 28.03125 15.75 28.414062 15.730469 28.796875 15.578125 C 30.308594 15.554688 31.8125 15.503906 33.316406 15.433594 Z M 33.316406 15.433594 "/>
<path style=" stroke:none;fill-rule:nonzero;fill:rgb(98.431373%,98.431373%,98.431373%);fill-opacity:1;" d="M 39.855469 32.453125 C 39.324219 34.703125 38.566406 36.890625 37.597656 38.992188 C 37.394531 39.371094 37.089844 39.628906 36.683594 39.761719 L 36.585938 39.613281 C 37 38.460938 37.195312 37.238281 37.164062 36.007812 C 36.816406 37.449219 36.285156 38.839844 35.578125 40.144531 C 34.839844 40.449219 34.085938 40.496094 33.316406 40.289062 C 33.078125 39.988281 32.898438 39.644531 32.789062 39.28125 C 32.539062 38.074219 32.394531 36.851562 32.355469 35.625 C 35.40625 35.832031 37.90625 34.773438 39.855469 32.453125 Z M 39.855469 32.453125 "/>
</g>
</svg>
