<?xml version="1.0" encoding="UTF-8"?>
<svg xmlns="http://www.w3.org/2000/svg" xmlns:xlink="http://www.w3.org/1999/xlink" width="50px" height="50px" viewBox="0 0 50 50" version="1.1">
<g id="surface1">
<path style=" stroke:none;fill-rule:evenodd;fill:rgb(22.745098%,30.196078%,32.941176%);fill-opacity:1;" d="M 28.828125 19.84375 L 33.242188 19.84375 L 33.242188 24.335938 L 35.46875 24.335938 C 36.484375 24.335938 37.539062 24.140625 38.515625 23.828125 C 38.984375 23.671875 39.53125 23.4375 40 23.164062 C 39.375 22.34375 39.0625 21.328125 38.984375 20.3125 C 38.867188 18.945312 39.140625 17.148438 40.078125 16.09375 L 40.546875 15.546875 L 41.09375 15.976562 C 42.5 17.109375 43.632812 18.632812 43.867188 20.429688 C 45.546875 19.921875 47.5 20.039062 48.984375 20.898438 L 49.570312 21.25 L 49.257812 21.875 C 48.007812 24.296875 45.390625 25.078125 42.851562 24.921875 C 39.023438 34.414062 30.742188 38.90625 20.664062 38.90625 C 15.46875 38.90625 10.703125 36.953125 7.96875 32.34375 L 7.929688 32.265625 L 7.539062 31.445312 C 6.601562 29.414062 6.328125 27.1875 6.523438 24.960938 L 6.601562 24.296875 L 10.351562 24.296875 L 10.351562 19.84375 L 14.765625 19.84375 L 14.765625 15.46875 L 23.554688 15.46875 L 23.554688 11.054688 L 28.828125 11.054688 Z M 28.828125 19.84375 "/>
<path style=" stroke:none;fill-rule:nonzero;fill:rgb(0%,66.666667%,85.490196%);fill-opacity:1;" d="M 43.125 21.523438 C 43.4375 19.21875 41.71875 17.421875 40.625 16.5625 C 39.414062 17.96875 39.21875 21.71875 41.132812 23.28125 C 40.039062 24.21875 37.8125 25.117188 35.46875 25.117188 L 7.265625 25.117188 C 7.03125 27.539062 7.460938 29.765625 8.4375 31.679688 L 8.75 32.265625 C 8.945312 32.617188 9.179688 32.929688 9.414062 33.28125 C 10.585938 33.359375 11.640625 33.398438 12.617188 33.359375 C 14.53125 33.320312 16.09375 33.085938 17.304688 32.695312 C 17.5 32.617188 17.65625 32.734375 17.734375 32.890625 C 17.8125 33.085938 17.695312 33.242188 17.539062 33.320312 C 17.382812 33.359375 17.226562 33.4375 17.03125 33.476562 C 16.09375 33.75 15.078125 33.90625 13.789062 33.984375 L 13.554688 33.984375 C 13.046875 34.023438 12.5 34.023438 11.914062 34.023438 C 11.289062 34.023438 10.703125 34.023438 10 33.984375 C 12.34375 36.640625 16.015625 38.203125 20.625 38.203125 C 30.390625 38.203125 38.671875 33.867188 42.304688 24.179688 C 44.921875 24.453125 47.421875 23.789062 48.554688 21.5625 C 46.796875 20.507812 44.453125 20.859375 43.125 21.523438 Z M 43.125 21.523438 "/>
<path style=" stroke:none;fill-rule:nonzero;fill:rgb(15.686275%,72.156863%,92.156863%);fill-opacity:1;" d="M 43.125 21.523438 C 43.4375 19.21875 41.71875 17.421875 40.625 16.5625 C 39.414062 17.96875 39.21875 21.71875 41.132812 23.28125 C 40.039062 24.21875 37.8125 25.117188 35.46875 25.117188 L 8.90625 25.117188 C 8.789062 28.828125 10.15625 31.640625 12.617188 33.320312 C 14.53125 33.28125 16.09375 33.046875 17.304688 32.65625 C 17.5 32.578125 17.65625 32.695312 17.734375 32.851562 C 17.8125 33.046875 17.695312 33.203125 17.539062 33.28125 C 17.382812 33.320312 17.226562 33.398438 17.03125 33.4375 C 16.09375 33.710938 15 33.90625 13.710938 33.984375 L 13.671875 33.945312 C 16.992188 35.664062 21.796875 35.625 27.34375 33.515625 C 33.515625 31.132812 39.296875 26.601562 43.320312 21.445312 C 43.242188 21.484375 43.164062 21.484375 43.125 21.523438 Z M 43.125 21.523438 "/>
<path style=" stroke:none;fill-rule:nonzero;fill:rgb(0.784314%,54.509804%,72.156863%);fill-opacity:1;" d="M 7.304688 28.046875 C 7.460938 29.335938 7.851562 30.546875 8.4375 31.679688 L 8.75 32.265625 C 8.945312 32.617188 9.179688 32.929688 9.414062 33.28125 C 10.585938 33.359375 11.640625 33.398438 12.617188 33.359375 C 14.53125 33.320312 16.09375 33.085938 17.304688 32.695312 C 17.5 32.617188 17.65625 32.734375 17.734375 32.890625 C 17.8125 33.085938 17.695312 33.242188 17.539062 33.320312 C 17.382812 33.359375 17.226562 33.4375 17.03125 33.476562 C 16.09375 33.75 15 33.945312 13.710938 34.023438 L 13.554688 34.023438 C 13.046875 34.0625 12.5 34.0625 11.953125 34.0625 C 11.328125 34.0625 10.703125 34.0625 10.039062 34.023438 C 12.382812 36.679688 16.09375 38.242188 20.703125 38.242188 C 29.0625 38.242188 36.328125 35.078125 40.546875 28.085938 L 7.304688 28.085938 Z M 7.304688 28.046875 "/>
<path style=" stroke:none;fill-rule:nonzero;fill:rgb(0.392157%,60.784314%,77.647059%);fill-opacity:1;" d="M 9.179688 28.046875 C 9.6875 30.3125 10.859375 32.109375 12.617188 33.320312 C 14.53125 33.28125 16.09375 33.046875 17.304688 32.65625 C 17.5 32.578125 17.65625 32.695312 17.734375 32.851562 C 17.8125 33.046875 17.695312 33.203125 17.539062 33.28125 C 17.382812 33.320312 17.226562 33.398438 17.03125 33.4375 C 16.09375 33.710938 15 33.90625 13.671875 33.984375 C 16.992188 35.703125 21.796875 35.664062 27.304688 33.554688 C 30.625 32.265625 33.867188 30.351562 36.757812 28.046875 Z M 9.179688 28.046875 "/>
<path style=" stroke:none;fill-rule:evenodd;fill:rgb(0%,67.45098%,82.745098%);fill-opacity:1;" d="M 11.09375 20.585938 L 14.921875 20.585938 L 14.921875 24.414062 L 11.09375 24.414062 Z M 11.40625 20.898438 L 11.71875 20.898438 L 11.71875 24.0625 L 11.40625 24.0625 Z M 11.953125 20.898438 L 12.265625 20.898438 L 12.265625 24.0625 L 11.953125 24.0625 Z M 12.539062 20.898438 L 12.851562 20.898438 L 12.851562 24.0625 L 12.539062 24.0625 Z M 13.125 20.898438 L 13.4375 20.898438 L 13.4375 24.0625 L 13.125 24.0625 Z M 13.710938 20.898438 L 14.023438 20.898438 L 14.023438 24.0625 L 13.710938 24.0625 Z M 14.296875 20.898438 L 14.609375 20.898438 L 14.609375 24.0625 L 14.296875 24.0625 Z M 15.46875 16.210938 L 19.296875 16.210938 L 19.296875 20.039062 L 15.46875 20.039062 Z M 15.820312 16.523438 L 16.132812 16.523438 L 16.132812 19.6875 L 15.820312 19.6875 Z M 16.367188 16.523438 L 16.679688 16.523438 L 16.679688 19.6875 L 16.367188 19.6875 Z M 16.953125 16.523438 L 17.265625 16.523438 L 17.265625 19.6875 L 16.953125 19.6875 Z M 17.539062 16.523438 L 17.851562 16.523438 L 17.851562 19.6875 L 17.539062 19.6875 Z M 18.085938 16.523438 L 18.398438 16.523438 L 18.398438 19.6875 L 18.085938 19.6875 Z M 18.671875 16.523438 L 18.984375 16.523438 L 18.984375 19.6875 L 18.671875 19.6875 Z M 18.671875 16.523438 "/>
<path style=" stroke:none;fill-rule:evenodd;fill:rgb(13.72549%,76.078431%,93.333333%);fill-opacity:1;" d="M 15.46875 20.585938 L 19.296875 20.585938 L 19.296875 24.414062 L 15.46875 24.414062 Z M 15.820312 20.898438 L 16.132812 20.898438 L 16.132812 24.0625 L 15.820312 24.0625 Z M 16.367188 20.898438 L 16.679688 20.898438 L 16.679688 24.0625 L 16.367188 24.0625 Z M 16.953125 20.898438 L 17.265625 20.898438 L 17.265625 24.0625 L 16.953125 24.0625 Z M 17.539062 20.898438 L 17.851562 20.898438 L 17.851562 24.0625 L 17.539062 24.0625 Z M 18.085938 20.898438 L 18.398438 20.898438 L 18.398438 24.0625 L 18.085938 24.0625 Z M 18.671875 20.898438 L 18.984375 20.898438 L 18.984375 24.0625 L 18.671875 24.0625 Z M 18.671875 20.898438 "/>
<path style=" stroke:none;fill-rule:evenodd;fill:rgb(0%,67.45098%,82.745098%);fill-opacity:1;" d="M 19.882812 20.585938 L 23.710938 20.585938 L 23.710938 24.414062 L 19.882812 24.414062 Z M 20.195312 20.898438 L 20.507812 20.898438 L 20.507812 24.0625 L 20.195312 24.0625 Z M 20.78125 20.898438 L 21.09375 20.898438 L 21.09375 24.0625 L 20.78125 24.0625 Z M 21.367188 20.898438 L 21.679688 20.898438 L 21.679688 24.0625 L 21.367188 24.0625 Z M 21.914062 20.898438 L 22.226562 20.898438 L 22.226562 24.0625 L 21.914062 24.0625 Z M 22.5 20.898438 L 22.8125 20.898438 L 22.8125 24.0625 L 22.5 24.0625 Z M 23.085938 20.898438 L 23.398438 20.898438 L 23.398438 24.0625 L 23.085938 24.0625 Z M 23.085938 20.898438 "/>
<path style=" stroke:none;fill-rule:evenodd;fill:rgb(13.72549%,76.078431%,93.333333%);fill-opacity:1;" d="M 19.882812 16.210938 L 23.710938 16.210938 L 23.710938 20.039062 L 19.882812 20.039062 Z M 20.195312 16.523438 L 20.507812 16.523438 L 20.507812 19.6875 L 20.195312 19.6875 Z M 20.78125 16.523438 L 21.09375 16.523438 L 21.09375 19.6875 L 20.78125 19.6875 Z M 21.367188 16.523438 L 21.679688 16.523438 L 21.679688 19.6875 L 21.367188 19.6875 Z M 21.914062 16.523438 L 22.226562 16.523438 L 22.226562 19.6875 L 21.914062 19.6875 Z M 22.5 16.523438 L 22.8125 16.523438 L 22.8125 19.6875 L 22.5 19.6875 Z M 23.085938 16.523438 L 23.398438 16.523438 L 23.398438 19.6875 L 23.085938 19.6875 Z M 24.296875 20.585938 L 28.125 20.585938 L 28.125 24.414062 L 24.296875 24.414062 Z M 24.609375 20.898438 L 24.921875 20.898438 L 24.921875 24.0625 L 24.609375 24.0625 Z M 25.195312 20.898438 L 25.507812 20.898438 L 25.507812 24.0625 L 25.195312 24.0625 Z M 25.742188 20.898438 L 26.054688 20.898438 L 26.054688 24.0625 L 25.742188 24.0625 Z M 26.328125 20.898438 L 26.640625 20.898438 L 26.640625 24.0625 L 26.328125 24.0625 Z M 26.914062 20.898438 L 27.226562 20.898438 L 27.226562 24.0625 L 26.914062 24.0625 Z M 27.5 20.898438 L 27.8125 20.898438 L 27.8125 24.0625 L 27.5 24.0625 Z M 27.5 20.898438 "/>
<path style=" stroke:none;fill-rule:evenodd;fill:rgb(0%,67.45098%,82.745098%);fill-opacity:1;" d="M 24.296875 16.210938 L 28.125 16.210938 L 28.125 20.039062 L 24.296875 20.039062 Z M 24.609375 16.523438 L 24.921875 16.523438 L 24.921875 19.6875 L 24.609375 19.6875 Z M 25.195312 16.523438 L 25.507812 16.523438 L 25.507812 19.6875 L 25.195312 19.6875 Z M 25.742188 16.523438 L 26.054688 16.523438 L 26.054688 19.6875 L 25.742188 19.6875 Z M 26.328125 16.523438 L 26.640625 16.523438 L 26.640625 19.6875 L 26.328125 19.6875 Z M 26.914062 16.523438 L 27.226562 16.523438 L 27.226562 19.6875 L 26.914062 19.6875 Z M 27.5 16.523438 L 27.8125 16.523438 L 27.8125 19.6875 L 27.5 19.6875 Z M 27.5 16.523438 "/>
<path style=" stroke:none;fill-rule:evenodd;fill:rgb(13.72549%,76.078431%,93.333333%);fill-opacity:1;" d="M 24.296875 11.796875 L 28.125 11.796875 L 28.125 15.625 L 24.296875 15.625 Z M 24.609375 12.109375 L 24.921875 12.109375 L 24.921875 15.273438 L 24.609375 15.273438 Z M 25.195312 12.109375 L 25.507812 12.109375 L 25.507812 15.273438 L 25.195312 15.273438 Z M 25.742188 12.109375 L 26.054688 12.109375 L 26.054688 15.273438 L 25.742188 15.273438 Z M 26.328125 12.109375 L 26.640625 12.109375 L 26.640625 15.273438 L 26.328125 15.273438 Z M 26.914062 12.109375 L 27.226562 12.109375 L 27.226562 15.273438 L 26.914062 15.273438 Z M 27.5 12.109375 L 27.8125 12.109375 L 27.8125 15.273438 L 27.5 15.273438 Z M 27.5 12.109375 "/>
<path style=" stroke:none;fill-rule:evenodd;fill:rgb(0%,67.45098%,82.745098%);fill-opacity:1;" d="M 28.710938 20.585938 L 32.539062 20.585938 L 32.539062 24.414062 L 28.710938 24.414062 Z M 29.023438 20.898438 L 29.335938 20.898438 L 29.335938 24.0625 L 29.023438 24.0625 Z M 29.570312 20.898438 L 29.882812 20.898438 L 29.882812 24.0625 L 29.570312 24.0625 Z M 30.15625 20.898438 L 30.46875 20.898438 L 30.46875 24.0625 L 30.15625 24.0625 Z M 30.742188 20.898438 L 31.054688 20.898438 L 31.054688 24.0625 L 30.742188 24.0625 Z M 31.328125 20.898438 L 31.640625 20.898438 L 31.640625 24.0625 L 31.328125 24.0625 Z M 31.914062 20.898438 L 32.226562 20.898438 L 32.226562 24.0625 L 31.914062 24.0625 Z M 31.914062 20.898438 "/>
<path style=" stroke:none;fill-rule:evenodd;fill:rgb(83.137255%,93.333333%,94.509804%);fill-opacity:1;" d="M 19.0625 30.585938 C 19.648438 30.585938 20.117188 31.054688 20.117188 31.640625 C 20.117188 32.226562 19.648438 32.695312 19.0625 32.695312 C 18.476562 32.695312 18.007812 32.226562 18.007812 31.640625 C 18.007812 31.054688 18.476562 30.585938 19.0625 30.585938 "/>
<path style=" stroke:none;fill-rule:evenodd;fill:rgb(22.745098%,30.196078%,32.941176%);fill-opacity:1;" d="M 19.0625 30.898438 C 19.140625 30.898438 19.257812 30.898438 19.335938 30.9375 C 19.257812 30.976562 19.179688 31.09375 19.179688 31.210938 C 19.179688 31.367188 19.335938 31.523438 19.492188 31.523438 C 19.609375 31.523438 19.726562 31.445312 19.765625 31.367188 C 19.804688 31.445312 19.804688 31.5625 19.804688 31.640625 C 19.804688 32.070312 19.453125 32.382812 19.0625 32.382812 C 18.632812 32.382812 18.320312 32.03125 18.320312 31.640625 C 18.320312 31.25 18.632812 30.898438 19.0625 30.898438 M 0.429688 28.4375 L 49.414062 28.4375 C 48.359375 28.164062 46.054688 27.8125 46.40625 26.40625 C 44.453125 28.632812 39.804688 27.96875 38.59375 26.875 C 37.265625 28.789062 29.609375 28.046875 29.101562 26.5625 C 27.460938 28.515625 22.34375 28.515625 20.703125 26.5625 C 20.15625 28.046875 12.5 28.789062 11.210938 26.875 C 10.039062 27.96875 5.351562 28.632812 3.398438 26.40625 C 3.828125 27.773438 1.484375 28.164062 0.429688 28.4375 "/>
<path style=" stroke:none;fill-rule:nonzero;fill:rgb(74.901961%,85.882353%,87.843137%);fill-opacity:1;" d="M 21.875 38.203125 C 19.257812 36.953125 17.851562 35.273438 17.03125 33.4375 C 16.054688 33.710938 14.882812 33.90625 13.554688 33.984375 C 13.046875 34.023438 12.5 34.023438 11.953125 34.023438 C 11.289062 34.023438 10.625 34.023438 9.921875 33.984375 C 12.265625 36.328125 15.234375 38.164062 20.664062 38.203125 Z M 21.875 38.203125 "/>
<path style=" stroke:none;fill-rule:nonzero;fill:rgb(83.137255%,93.333333%,94.509804%);fill-opacity:1;" d="M 18.007812 35.117188 C 17.65625 34.609375 17.304688 34.023438 17.03125 33.4375 C 16.054688 33.710938 14.882812 33.90625 13.554688 33.984375 C 14.453125 34.453125 15.78125 34.921875 18.007812 35.117188 Z M 18.007812 35.117188 "/>
</g>
</svg>
