<?xml version="1.0" encoding="UTF-8"?>
<svg xmlns="http://www.w3.org/2000/svg" xmlns:xlink="http://www.w3.org/1999/xlink" width="50px" height="50px" viewBox="0 0 50 50" version="1.1">
<g id="surface1">
<path style=" stroke:none;fill-rule:nonzero;fill:rgb(38.431373%,21.176471%,59.215686%);fill-opacity:1;" d="M 23.90625 0 L 25.839844 0 C 30.886719 0.210938 35.875 1.910156 39.917969 4.953125 C 43.75 7.796875 46.742188 11.761719 48.40625 16.242188 C 49.359375 18.738281 49.835938 21.390625 50 24.050781 L 50 25.695312 C 49.839844 30.109375 48.570312 34.492188 46.199219 38.230469 C 43.542969 42.484375 39.589844 45.9375 34.976562 47.929688 C 25.058594 46.921875 16.667969 40.152344 13.589844 30.667969 C 10.511719 21.1875 13.324219 10.78125 20.757812 4.136719 C 28.195312 -2.503906 38.851562 -4.125 47.925781 0 L 47.089844 0 C 42.507812 -0.0742188 37.945312 -1.429688 34.082031 -3.902344 C 29.710938 -6.679688 26.226562 -10.851562 24.308594 -15.667969 C 0.738281 31.714844 0.171875 28.914062 0 26.097656 L 0 24.164062 C 0.195312 18.539062 2.324219 12.988281 6.019531 8.734375 C 9.050781 5.199219 13.085938 2.53125 17.535156 1.148438 C 19.597656 0.496094 21.75 0.160156 23.90625 0 M 9.839844 14.65625 C 9.828125 19.40625 9.835938 24.152344 9.835938 28.898438 C 10.394531 28.902344 10.953125 28.902344 11.511719 28.902344 C 11.484375 24.828125 11.550781 20.75 11.472656 16.679688 C 11.660156 17.03125 11.828125 17.398438 12.042969 17.734375 C 14.46875 21.449219 16.835938 25.195312 19.261719 28.90625 C 19.941406 28.898438 20.617188 28.898438 21.296875 28.90625 C 21.296875 24.15625 21.296875 19.40625 21.300781 14.65625 C 21 9.777344 21 4.882812 21.292969 0 C 21.324219 4.03125 21.242188 8.0625 21.34375 12.089844 C 18.800781 8.046875 16.226562 4.023438 13.648438 0 C 13.652344 0 13.652344 0 13.652344 0 M 28.828125 -0.00390625 C 28.777344 4.746094 28.824219 9.496094 28.808594 14.242188 C 31.335938 14.238281 33.863281 14.253906 36.390625 14.234375 C 44.867188 27.082031 43.195312 44.109375 32.378906 55.058594 C 21.5625 66.007812 4.558594 67.886719 -8.390625 59.566406 C -21.339844 51.246094 -26.691406 34.996094 -21.226562 20.609375 C -15.761719 6.222656 -0.96875 -2.375 14.234375 0 C 12.277344 -0.0078125 10.320312 0.00390625 8.359375 -0.0078125 C 8.332031 -1.652344 8.359375 -3.300781 8.34375 -4.945312 C 10.0625 -4.972656 11.777344 -4.9375 13.492188 -4.960938 C 13.488281 -5.460938 13.488281 -5.960938 13.484375 -6.460938 C 11.773438 -6.402344 10.058594 -6.480469 8.34375 -6.453125 C 8.347656 -8.027344 8.351562 -9.597656 8.351562 -11.171875 C 10.1875 -11.171875 12.023438 -11.179688 13.855469 -11.167969 C 13.851562 -11.675781 13.855469 -12.1875 13.863281 -12.695312 C 11.460938 -12.699219 9.0625 -12.695312 6.664062 -12.695312 M 15.492188 -12.675781 C 15.492188 -12.179688 15.492188 -11.6875 15.496094 -11.195312 C 16.859375 -11.210938 18.21875 -11.152344 19.582031 -11.179688 C 19.570312 -6.9375 19.582031 -2.699219 19.578125 1.542969 C 20.148438 1.558594 20.722656 1.554688 21.292969 1.507812 C 21.246094 -0.832031 21.335938 -3.175781 21.230469 -5.515625 C 21.257812 -6.570312 21.203125 -7.621094 21.277344 -8.675781 C 21.316406 -9.511719 21.167969 -10.34375 21.261719 -11.179688 C 22.636719 -11.164062 24.011719 -11.175781 25.382812 -11.175781 C 34.730469 -3.886719 37.132812 9.246094 30.972656 19.371094 C 24.808594 29.496094 12.042969 33.402344 1.273438 28.449219 C -9.496094 23.5 -14.847656 11.269531 -11.175781 0 C -14.484375 -0.0429688 -17.792969 -0.0351562 -21.097656 -0.00390625 M 5.292969 26.988281 C 4.519531 27.34375 4.46875 28.5625 5.234375 28.953125 C 5.90625 29.414062 6.917969 28.808594 6.886719 28.011719 C 6.9375 27.230469 5.992188 26.570312 5.292969 26.988281 M 16.710938 32.960938 C 15.039062 34.316406 15.058594 37.335938 16.90625 38.527344 C 17.949219 39.191406 19.289062 39.054688 20.390625 38.613281 C 20.394531 38.371094 20.402344 38.128906 20.410156 37.886719 C 19.367188 38.429688 17.90625 38.542969 17.023438 37.648438 C 15.863281 36.382812 16.125 34.027344 17.652344 33.164062 C 18.515625 32.710938 19.570312 32.84375 20.421875 33.257812 C 20.417969 33 20.417969 32.742188 20.421875 32.484375 C 19.210938 32.054688 17.714844 32.078125 16.710938 32.960938 M 23.433594 34.019531 C 22.695312 34.105469 21.964844 34.496094 21.621094 35.179688 C 21.132812 36.15625 21.1875 37.472656 21.960938 38.289062 C 22.753906 39.1875 24.28125 39.195312 25.15625 38.40625 C 26.101562 37.503906 26.210938 35.878906 25.453125 34.824219 C 25.003906 34.1875 24.171875 33.972656 23.433594 34.019531 M 30.417969 35.085938 C 29.769531 36.210938 29.898438 37.917969 31.042969 38.683594 C 31.898438 39.160156 32.96875 39.007812 33.808594 38.5625 C 33.804688 38.320312 33.808594 38.078125 33.820312 37.839844 C 33.160156 38.257812 32.28125 38.566406 31.546875 38.144531 C 31.039062 37.863281 30.882812 37.261719 30.800781 36.726562 C 31.925781 36.710938 33.046875 36.695312 34.171875 36.699219 C 34.140625 35.984375 34.125 35.175781 33.605469 34.625 C 32.746094 33.675781 31.007812 33.976562 30.417969 35.085938 M 27.132812 34.171875 L 27.132812 38.863281 C 27.386719 38.863281 27.644531 38.863281 27.902344 38.863281 C 27.914062 38.007812 27.886719 37.148438 27.914062 36.289062 C 27.917969 35.792969 28.117188 35.289062 28.492188 34.953125 C 28.804688 34.71875 29.226562 34.847656 29.585938 34.859375 C 29.582031 34.609375 29.578125 34.363281 29.578125 34.117188 C 28.875 33.960938 28.273438 34.371094 27.921875 34.941406 C 27.914062 34.695312 27.90625 34.449219 27.898438 34.203125 C 27.644531 34.195312 27.386719 34.183594 27.132812 34.171875 Z M 27.132812 34.171875 "/>
<path style=" stroke:none;fill-rule:nonzero;fill:rgb(38.431373%,21.176471%,59.215686%);fill-opacity:1;" d="M 22.953125 34.851562 C 23.597656 34.539062 24.523438 34.691406 24.882812 35.359375 C 25.292969 36.097656 25.285156 37.074219 24.832031 37.785156 C 24.238281 38.679688 22.671875 38.484375 22.28125 37.496094 C 21.890625 36.613281 22.042969 35.355469 22.953125 34.851562 Z M 30.875 36.097656 C 30.894531 35.484375 31.320312 34.875 31.941406 34.738281 C 32.320312 34.675781 32.757812 34.742188 33.023438 35.050781 C 33.285156 35.328125 33.339844 35.71875 33.40625 36.082031 C 32.5625 36.085938 31.71875 36.070312 30.875 36.097656 Z M 30.875 36.097656 "/>
</g>
</svg>
