<?xml version="1.0" encoding="UTF-8"?>
<svg xmlns="http://www.w3.org/2000/svg" xmlns:xlink="http://www.w3.org/1999/xlink" width="50px" height="50px" viewBox="0 0 50 47" version="1.1">
<defs>
<linearGradient id="linear0" gradientUnits="userSpaceOnUse" x1="0.49997" y1="-0.19516" x2="0.49997" y2="1.29625" gradientTransform="matrix(7.90625,0,0,13.90625,19.347656,8.421875)">
<stop offset="0" style="stop-color:rgb(3.529412%,58.039216%,86.27451%);stop-opacity:1;"/>
<stop offset="0.35" style="stop-color:rgb(40%,80.784314%,96.078431%);stop-opacity:1;"/>
<stop offset="0.846" style="stop-color:rgb(7.058824%,48.235294%,79.215686%);stop-opacity:1;"/>
<stop offset="1" style="stop-color:rgb(7.058824%,48.235294%,79.215686%);stop-opacity:1;"/>
</linearGradient>
<linearGradient id="linear1" gradientUnits="userSpaceOnUse" x1="0.50001" y1="-0.19516" x2="0.50001" y2="1.29624" gradientTransform="matrix(8.296875,0,0,14.261719,19.953125,7.964844)">
<stop offset="0" style="stop-color:rgb(5.490196%,46.27451%,73.72549%);stop-opacity:1;"/>
<stop offset="0.36" style="stop-color:rgb(21.176471%,68.235294%,90.980392%);stop-opacity:1;"/>
<stop offset="0.846" style="stop-color:rgb(0%,67.843137%,93.72549%);stop-opacity:1;"/>
<stop offset="1" style="stop-color:rgb(0%,67.843137%,93.72549%);stop-opacity:1;"/>
</linearGradient>
<linearGradient id="linear2" gradientUnits="userSpaceOnUse" x1="0.49999" y1="1.10922" x2="0.49999" y2="-0.06214" gradientTransform="matrix(7.878906,0,0,14.445313,24.496094,5.824219)">
<stop offset="0" style="stop-color:rgb(10.980392%,38.823529%,71.764706%);stop-opacity:1;"/>
<stop offset="0.5" style="stop-color:rgb(20%,74.117647%,94.901961%);stop-opacity:1;"/>
<stop offset="1" style="stop-color:rgb(20%,74.117647%,94.901961%);stop-opacity:0.419608;"/>
</linearGradient>
<linearGradient id="linear3" gradientUnits="userSpaceOnUse" x1="0.50001" y1="-0.19515" x2="0.50001" y2="1.29627" gradientTransform="matrix(7.800781,0,0,14.804688,23.40625,5.917969)">
<stop offset="0" style="stop-color:rgb(8.627451%,41.568627%,72.156863%);stop-opacity:1;"/>
<stop offset="0.4" style="stop-color:rgb(21.176471%,68.235294%,90.980392%);stop-opacity:1;"/>
<stop offset="0.846" style="stop-color:rgb(2.745098%,59.607843%,86.666667%);stop-opacity:1;"/>
<stop offset="1" style="stop-color:rgb(2.745098%,59.607843%,86.666667%);stop-opacity:1;"/>
</linearGradient>
<linearGradient id="linear4" gradientUnits="userSpaceOnUse" x1="0.49999" y1="-0.19521" x2="0.49999" y2="1.29627" gradientTransform="matrix(10.117188,0,0,15.742188,20.484375,6.214844)">
<stop offset="0" style="stop-color:rgb(7.058824%,26.27451%,47.45098%);stop-opacity:1;"/>
<stop offset="0.39" style="stop-color:rgb(7.843137%,52.941176%,79.607843%);stop-opacity:1;"/>
<stop offset="0.78" style="stop-color:rgb(8.627451%,31.764706%,59.215686%);stop-opacity:1;"/>
<stop offset="1" style="stop-color:rgb(8.627451%,31.764706%,59.215686%);stop-opacity:1;"/>
</linearGradient>
<linearGradient id="linear5" gradientUnits="userSpaceOnUse" x1="0" y1="0.50001" x2="1" y2="0.50001" gradientTransform="matrix(3.367187,0,0,5.289062,15.980469,7.707031)">
<stop offset="0" style="stop-color:rgb(20%,74.117647%,94.901961%);stop-opacity:0.698039;"/>
<stop offset="1" style="stop-color:rgb(11.372549%,67.45098%,84.705882%);stop-opacity:1;"/>
</linearGradient>
<linearGradient id="linear6" gradientUnits="userSpaceOnUse" x1="0.5001" y1="0.94686" x2="0.5001" y2="-0.03025" gradientTransform="matrix(13.722656,0,0,16.871094,34.398438,5.449219)">
<stop offset="0" style="stop-color:rgb(7.45098%,41.568627%,70.588235%);stop-opacity:1;"/>
<stop offset="0.6" style="stop-color:rgb(34.901961%,79.215686%,96.078431%);stop-opacity:0.54902;"/>
<stop offset="1" style="stop-color:rgb(34.901961%,79.215686%,96.078431%);stop-opacity:0.235294;"/>
</linearGradient>
<linearGradient id="linear7" gradientUnits="userSpaceOnUse" x1="-0.00001" y1="0.5" x2="0.99999" y2="0.5" gradientTransform="matrix(12.484375,0,0,16.953125,4.035156,5.8125)">
<stop offset="0" style="stop-color:rgb(1.960784%,63.137255%,90.196078%);stop-opacity:0.247059;"/>
<stop offset="1" style="stop-color:rgb(1.960784%,63.137255%,90.196078%);stop-opacity:1;"/>
</linearGradient>
<linearGradient id="linear8" gradientUnits="userSpaceOnUse" x1="0.49998" y1="1.24314" x2="0.49998" y2="-0.09421" gradientTransform="matrix(8.503906,0,0,12.621094,6.699219,6.148438)">
<stop offset="0" style="stop-color:rgb(19.215686%,55.686275%,83.529412%);stop-opacity:1;"/>
<stop offset="1" style="stop-color:rgb(21.960784%,65.490196%,89.411765%);stop-opacity:1;"/>
</linearGradient>
<linearGradient id="linear9" gradientUnits="userSpaceOnUse" x1="0.49999" y1="0.912" x2="0.49999" y2="-0.76785" gradientTransform="matrix(7.90625,0,0,9.765625,8.074219,12.992188)">
<stop offset="0" style="stop-color:rgb(1.960784%,63.137255%,90.196078%);stop-opacity:1;"/>
<stop offset="1" style="stop-color:rgb(1.960784%,63.137255%,90.196078%);stop-opacity:0.54902;"/>
</linearGradient>
<linearGradient id="linear10" gradientUnits="userSpaceOnUse" x1="0.5" y1="1.0001" x2="0.5" y2="0.0001" gradientTransform="matrix(9.105469,0,0,13.863281,8.367188,8.871094)">
<stop offset="0" style="stop-color:rgb(9.803922%,34.901961%,65.098039%);stop-opacity:1;"/>
<stop offset="0.5" style="stop-color:rgb(1.960784%,63.137255%,90.196078%);stop-opacity:1;"/>
<stop offset="0.918" style="stop-color:rgb(49.411765%,77.254902%,91.764706%);stop-opacity:1;"/>
<stop offset="1" style="stop-color:rgb(49.411765%,77.254902%,91.764706%);stop-opacity:1;"/>
</linearGradient>
<linearGradient id="linear11" gradientUnits="userSpaceOnUse" x1="0.59804" y1="0.94568" x2="0.38471" y2="0.05755" gradientTransform="matrix(12.597656,0,0,16.925781,5.925781,5.84375)">
<stop offset="0" style="stop-color:rgb(8.627451%,31.372549%,58.823529%);stop-opacity:1;"/>
<stop offset="1" style="stop-color:rgb(5.098039%,50.980392%,79.215686%);stop-opacity:1;"/>
</linearGradient>
<linearGradient id="linear12" gradientUnits="userSpaceOnUse" x1="0.49995" y1="0.76998" x2="0.49995" y2="-0.03299" gradientTransform="matrix(5.679688,0,0,9.78125,35.558594,5.816406)">
<stop offset="0" style="stop-color:rgb(1.960784%,63.137255%,90.196078%);stop-opacity:1;"/>
<stop offset="0.874" style="stop-color:rgb(1.568627%,58.431373%,83.921569%);stop-opacity:1;"/>
<stop offset="1" style="stop-color:rgb(1.568627%,58.431373%,83.921569%);stop-opacity:1;"/>
</linearGradient>
<linearGradient id="linear13" gradientUnits="userSpaceOnUse" x1="0.65263" y1="-0.04161" x2="0.34263" y2="1.05844" gradientTransform="matrix(10.449219,0,0,16.464844,35.324219,5.453125)">
<stop offset="0" style="stop-color:rgb(21.960784%,65.490196%,89.411765%);stop-opacity:0.329412;"/>
<stop offset="0.962" style="stop-color:rgb(5.490196%,53.333333%,82.745098%);stop-opacity:1;"/>
<stop offset="1" style="stop-color:rgb(5.490196%,53.333333%,82.745098%);stop-opacity:1;"/>
</linearGradient>
<linearGradient id="linear14" gradientUnits="userSpaceOnUse" x1="0.50017" y1="-0.00296" x2="0.50017" y2="1.01882" gradientTransform="matrix(12.183594,0,0,16.773438,33.148438,5.453125)">
<stop offset="0" style="stop-color:rgb(8.627451%,54.901961%,83.137255%);stop-opacity:1;"/>
<stop offset="0.5" style="stop-color:rgb(10.980392%,52.941176%,80%);stop-opacity:1;"/>
<stop offset="1" style="stop-color:rgb(8.235294%,29.411765%,55.294118%);stop-opacity:1;"/>
</linearGradient>
<linearGradient id="linear15" gradientUnits="userSpaceOnUse" x1="0.16674" y1="2.05565" x2="0.87813" y2="-0.19836" gradientTransform="matrix(5.628906,0,0,-0.726562,16.136719,6.542969)">
<stop offset="0" style="stop-color:rgb(59.215686%,83.921569%,93.333333%);stop-opacity:1;"/>
<stop offset="0.703" style="stop-color:rgb(33.333333%,75.686275%,91.764706%);stop-opacity:1;"/>
<stop offset="1" style="stop-color:rgb(33.333333%,75.686275%,91.764706%);stop-opacity:1;"/>
</linearGradient>
<linearGradient id="linear16" gradientUnits="userSpaceOnUse" x1="0.0689" y1="0.063" x2="0.75783" y2="1.16771" gradientTransform="matrix(4.589844,0,0,-1.28125,19.074219,7.097656)">
<stop offset="0" style="stop-color:rgb(47.843137%,80%,92.54902%);stop-opacity:1;"/>
<stop offset="1" style="stop-color:rgb(24.705882%,71.764706%,92.941176%);stop-opacity:1;"/>
</linearGradient>
<linearGradient id="linear17" gradientUnits="userSpaceOnUse" x1="0.49997" y1="0.06363" x2="0.49997" y2="1.27961" gradientTransform="matrix(9.023437,0,0,13.785156,32.378906,5.472656)">
<stop offset="0" style="stop-color:rgb(11.372549%,65.490196%,90.588235%);stop-opacity:1;"/>
<stop offset="1" style="stop-color:rgb(21.568627%,67.058824%,90.588235%);stop-opacity:0;"/>
</linearGradient>
</defs>
<g id="surface1">
<path style=" stroke:none;fill-rule:nonzero;fill:rgb(0%,0%,0%);fill-opacity:1;" d="M 41.007812 27.335938 C 41.007812 27.261719 40.988281 27.207031 40.945312 27.175781 C 40.898438 27.136719 40.820312 27.117188 40.707031 27.117188 L 40.546875 27.117188 L 40.546875 27.554688 L 40.742188 27.554688 C 40.921875 27.554688 41.007812 27.480469 41.007812 27.335938 Z M 41.261719 28.242188 L 41.039062 28.242188 L 40.898438 27.9375 C 40.824219 27.78125 40.75 27.707031 40.664062 27.707031 L 40.546875 27.707031 L 40.546875 28.242188 L 40.363281 28.242188 L 40.363281 26.964844 L 40.730469 26.964844 C 40.890625 26.964844 41.015625 27 41.097656 27.070312 C 41.167969 27.132812 41.203125 27.214844 41.203125 27.3125 C 41.203125 27.402344 41.175781 27.476562 41.117188 27.535156 C 41.058594 27.597656 40.980469 27.640625 40.875 27.664062 L 40.875 27.667969 C 40.945312 27.683594 41.019531 27.761719 41.089844 27.902344 L 41.261719 28.246094 Z M 41.664062 27.617188 C 41.664062 27.363281 41.578125 27.152344 41.402344 26.984375 C 41.230469 26.816406 41.015625 26.730469 40.765625 26.730469 C 40.507812 26.730469 40.289062 26.816406 40.121094 26.984375 C 39.949219 27.15625 39.863281 27.367188 39.863281 27.617188 C 39.863281 27.871094 39.953125 28.085938 40.128906 28.253906 C 40.300781 28.425781 40.515625 28.507812 40.765625 28.507812 C 41.015625 28.507812 41.226562 28.425781 41.402344 28.253906 C 41.578125 28.082031 41.664062 27.871094 41.664062 27.617188 Z M 41.785156 27.609375 C 41.785156 27.894531 41.6875 28.132812 41.492188 28.320312 C 41.292969 28.515625 41.050781 28.609375 40.761719 28.609375 C 40.46875 28.609375 40.226562 28.515625 40.03125 28.328125 C 39.839844 28.140625 39.746094 27.90625 39.746094 27.617188 C 39.746094 27.339844 39.84375 27.101562 40.039062 26.910156 C 40.234375 26.714844 40.476562 26.621094 40.769531 26.621094 C 41.054688 26.621094 41.292969 26.710938 41.488281 26.894531 C 41.6875 27.085938 41.785156 27.324219 41.785156 27.609375 Z M 14.058594 31.179688 L 13.429688 31.179688 L 13.429688 27.628906 C 13.429688 27.351562 13.445312 27.007812 13.480469 26.605469 L 13.464844 26.605469 C 13.40625 26.839844 13.351562 27.011719 13.304688 27.117188 L 11.476562 31.179688 L 11.171875 31.179688 L 9.339844 27.148438 C 9.289062 27.035156 9.234375 26.851562 9.179688 26.605469 L 9.167969 26.605469 C 9.1875 26.816406 9.195312 27.160156 9.195312 27.636719 L 9.195312 31.179688 L 8.589844 31.179688 L 8.589844 25.894531 L 9.421875 25.894531 L 11.0625 29.578125 C 11.1875 29.855469 11.269531 30.066406 11.308594 30.210938 L 11.332031 30.210938 C 11.441406 29.921875 11.527344 29.707031 11.589844 29.5625 L 13.269531 25.894531 L 14.058594 25.894531 Z M 15.992188 31.179688 L 15.378906 31.179688 L 15.378906 27.40625 L 15.992188 27.40625 Z M 16.097656 26.050781 C 16.097656 26.164062 16.058594 26.257812 15.980469 26.332031 C 15.902344 26.410156 15.804688 26.445312 15.695312 26.445312 C 15.585938 26.445312 15.488281 26.410156 15.410156 26.335938 C 15.332031 26.261719 15.296875 26.167969 15.296875 26.050781 C 15.296875 25.941406 15.332031 25.851562 15.410156 25.773438 C 15.484375 25.699219 15.589844 25.660156 15.695312 25.664062 C 15.804688 25.664062 15.902344 25.699219 15.980469 25.773438 C 16.058594 25.851562 16.097656 25.941406 16.097656 26.050781 Z M 19.808594 31.003906 C 19.515625 31.183594 19.167969 31.269531 18.761719 31.269531 C 18.214844 31.269531 17.769531 31.089844 17.433594 30.730469 C 17.105469 30.382812 16.941406 29.933594 16.941406 29.382812 C 16.941406 28.765625 17.121094 28.265625 17.480469 27.882812 C 17.839844 27.503906 18.324219 27.3125 18.933594 27.3125 C 19.265625 27.3125 19.5625 27.378906 19.820312 27.503906 L 19.820312 28.125 C 19.535156 27.925781 19.230469 27.828125 18.90625 27.828125 C 18.515625 27.828125 18.199219 27.960938 17.953125 28.230469 C 17.699219 28.503906 17.570312 28.871094 17.570312 29.328125 C 17.570312 29.765625 17.6875 30.113281 17.921875 30.371094 C 18.160156 30.625 18.472656 30.753906 18.867188 30.753906 C 19.203125 30.753906 19.515625 30.644531 19.808594 30.429688 Z M 22.734375 28.015625 C 22.625 27.933594 22.46875 27.894531 22.265625 27.894531 C 22.015625 27.894531 21.808594 28.003906 21.636719 28.226562 C 21.445312 28.472656 21.351562 28.816406 21.351562 29.253906 L 21.351562 31.179688 L 20.738281 31.179688 L 20.738281 27.40625 L 21.351562 27.40625 L 21.351562 28.183594 L 21.363281 28.183594 C 21.457031 27.90625 21.59375 27.695312 21.78125 27.546875 C 21.953125 27.40625 22.148438 27.339844 22.367188 27.339844 C 22.527344 27.339844 22.652344 27.355469 22.734375 27.390625 Z M 26.148438 29.296875 C 26.148438 28.816406 26.035156 28.445312 25.816406 28.191406 C 25.601562 27.949219 25.300781 27.828125 24.914062 27.828125 C 24.535156 27.828125 24.226562 27.953125 24 28.199219 C 23.757812 28.460938 23.636719 28.832031 23.636719 29.3125 C 23.636719 29.765625 23.753906 30.121094 23.984375 30.371094 C 24.214844 30.628906 24.523438 30.753906 24.914062 30.753906 C 25.316406 30.753906 25.625 30.625 25.835938 30.367188 C 26.042969 30.117188 26.148438 29.761719 26.148438 29.296875 M 26.777344 29.277344 C 26.777344 29.878906 26.605469 30.363281 26.261719 30.722656 C 25.914062 31.085938 25.453125 31.269531 24.871094 31.269531 C 24.296875 31.269531 23.835938 31.085938 23.503906 30.722656 C 23.175781 30.375 23.007812 29.910156 23.007812 29.335938 C 23.007812 28.679688 23.195312 28.171875 23.570312 27.8125 C 23.914062 27.480469 24.378906 27.3125 24.957031 27.3125 C 25.53125 27.3125 25.976562 27.488281 26.296875 27.835938 C 26.613281 28.183594 26.777344 28.664062 26.777344 29.277344 M 29.8125 30.167969 C 29.8125 30.476562 29.695312 30.734375 29.460938 30.9375 C 29.207031 31.160156 28.855469 31.269531 28.410156 31.269531 C 28.050781 31.269531 27.730469 31.195312 27.460938 31.042969 L 27.460938 30.394531 C 27.761719 30.632812 28.09375 30.753906 28.457031 30.753906 C 28.941406 30.753906 29.1875 30.578125 29.1875 30.226562 C 29.1875 30.078125 29.132812 29.957031 29.023438 29.863281 C 28.917969 29.765625 28.707031 29.652344 28.394531 29.515625 C 28.074219 29.378906 27.847656 29.234375 27.714844 29.089844 C 27.550781 28.914062 27.46875 28.6875 27.46875 28.40625 C 27.46875 28.09375 27.597656 27.832031 27.847656 27.625 C 28.097656 27.417969 28.421875 27.3125 28.820312 27.3125 C 29.125 27.3125 29.394531 27.371094 29.636719 27.488281 L 29.636719 28.097656 C 29.386719 27.917969 29.097656 27.828125 28.769531 27.828125 C 28.566406 27.828125 28.402344 27.878906 28.28125 27.976562 C 28.160156 28.074219 28.097656 28.199219 28.097656 28.355469 C 28.097656 28.523438 28.148438 28.652344 28.25 28.746094 C 28.34375 28.832031 28.535156 28.9375 28.824219 29.058594 C 29.152344 29.195312 29.390625 29.332031 29.53125 29.476562 C 29.71875 29.660156 29.8125 29.890625 29.8125 30.167969 M 33.558594 29.296875 C 33.558594 28.816406 33.445312 28.445312 33.226562 28.191406 C 33.011719 27.949219 32.710938 27.828125 32.324219 27.828125 C 31.945312 27.828125 31.636719 27.953125 31.410156 28.199219 C 31.167969 28.460938 31.046875 28.832031 31.046875 29.3125 C 31.046875 29.765625 31.164062 30.121094 31.390625 30.371094 C 31.625 30.628906 31.9375 30.753906 32.324219 30.753906 C 32.726562 30.753906 33.035156 30.625 33.246094 30.367188 C 33.453125 30.117188 33.558594 29.761719 33.558594 29.296875 M 34.1875 29.277344 C 34.1875 29.878906 34.011719 30.363281 33.667969 30.722656 C 33.324219 31.085938 32.863281 31.269531 32.28125 31.269531 C 31.703125 31.269531 31.246094 31.085938 30.910156 30.722656 C 30.582031 30.375 30.417969 29.910156 30.417969 29.335938 C 30.417969 28.679688 30.605469 28.171875 30.980469 27.8125 C 31.324219 27.480469 31.789062 27.3125 32.367188 27.3125 C 32.941406 27.3125 33.386719 27.488281 33.707031 27.835938 C 34.023438 28.183594 34.1875 28.664062 34.1875 29.277344 M 36.886719 26.121094 C 36.765625 26.058594 36.632812 26.023438 36.480469 26.023438 C 36.050781 26.023438 35.835938 26.289062 35.835938 26.824219 L 35.835938 27.40625 L 36.734375 27.40625 L 36.734375 27.917969 L 35.835938 27.917969 L 35.835938 31.179688 L 35.222656 31.179688 L 35.222656 27.917969 L 34.574219 27.917969 L 34.574219 27.40625 L 35.222656 27.40625 L 35.222656 26.792969 C 35.222656 26.378906 35.351562 26.050781 35.617188 25.816406 C 35.839844 25.613281 36.117188 25.511719 36.441406 25.511719 C 36.632812 25.511719 36.777344 25.535156 36.886719 25.578125 Z M 39.304688 31.140625 C 39.160156 31.222656 38.964844 31.261719 38.726562 31.261719 C 38.058594 31.261719 37.726562 30.890625 37.726562 30.148438 L 37.726562 27.917969 L 37.070312 27.917969 L 37.070312 27.40625 L 37.726562 27.40625 L 37.726562 26.484375 C 37.921875 26.421875 38.125 26.355469 38.339844 26.289062 L 38.339844 27.40625 L 39.304688 27.40625 L 39.304688 27.917969 L 38.339844 27.917969 L 38.339844 30.046875 C 38.339844 30.300781 38.382812 30.480469 38.46875 30.585938 C 38.558594 30.695312 38.703125 30.746094 38.90625 30.746094 C 39.058594 30.746094 39.191406 30.707031 39.304688 30.625 Z M 39.304688 31.140625 "/>
<path style=" stroke:none;fill-rule:nonzero;fill:rgb(0%,0%,0%);fill-opacity:1;" d="M 6.1875 45.910156 C 6.1875 46.203125 6.082031 46.460938 5.867188 46.675781 C 5.648438 46.890625 5.386719 47 5.082031 47 C 4.78125 47 4.527344 46.890625 4.316406 46.675781 C 4.109375 46.460938 4.003906 46.203125 4.003906 45.910156 C 4.003906 45.605469 4.109375 45.347656 4.316406 45.136719 C 4.527344 44.921875 4.78125 44.816406 5.082031 44.816406 C 5.386719 44.816406 5.648438 44.921875 5.867188 45.140625 C 6.082031 45.355469 6.1875 45.613281 6.1875 45.910156 M 19.90625 46.777344 L 17.90625 46.777344 L 10.65625 35.734375 C 10.480469 35.457031 10.332031 35.167969 10.214844 34.863281 L 10.15625 34.863281 C 10.207031 35.160156 10.234375 35.792969 10.234375 36.765625 L 10.234375 46.777344 L 8.585938 46.777344 L 8.585938 32.921875 L 10.722656 32.921875 L 17.757812 43.792969 C 18.039062 44.222656 18.230469 44.53125 18.328125 44.71875 L 18.367188 44.71875 C 18.300781 44.320312 18.269531 43.640625 18.269531 42.679688 L 18.269531 32.921875 L 19.90625 32.921875 Z M 30.464844 46.777344 L 23.015625 46.777344 L 23.015625 32.921875 L 30.140625 32.921875 L 30.140625 34.390625 L 24.660156 34.390625 L 24.660156 39 L 29.738281 39 L 29.738281 40.46875 L 24.660156 40.46875 L 24.660156 45.308594 L 30.464844 45.308594 Z M 41.757812 34.390625 L 37.710938 34.390625 L 37.710938 46.777344 L 36.066406 46.777344 L 36.066406 34.390625 L 32.011719 34.390625 L 32.011719 32.921875 L 41.757812 32.921875 Z M 41.757812 34.390625 "/>
<path style=" stroke:none;fill-rule:nonzero;fill:url(#linear0);" d="M 19.347656 8.988281 C 20.933594 13.777344 21.535156 22.328125 26.183594 22.328125 C 26.535156 22.328125 26.894531 22.292969 27.253906 22.226562 C 23.027344 21.253906 22.527344 12.800781 19.953125 8.421875 C 19.746094 8.605469 19.542969 8.796875 19.347656 8.988281 "/>
<path style=" stroke:none;fill-rule:nonzero;fill:url(#linear1);" d="M 19.953125 8.421875 C 22.527344 12.800781 23.027344 21.253906 27.253906 22.226562 C 27.585938 22.164062 27.917969 22.074219 28.25 21.957031 C 24.460938 20.128906 23.410156 11.917969 20.484375 7.964844 C 20.304688 8.113281 20.125 8.265625 19.953125 8.421875 "/>
<path style=" stroke:none;fill-rule:nonzero;fill:rgb(7.843137%,33.333333%,60.392157%);fill-opacity:1;" d="M 23.664062 5.816406 C 23.3125 5.816406 22.953125 5.851562 22.59375 5.917969 C 21.652344 6.09375 20.699219 6.492188 19.738281 7.097656 C 20 7.351562 20.25 7.644531 20.484375 7.964844 C 21.464844 7.164062 22.4375 6.570312 23.40625 6.214844 C 23.761719 6.085938 24.125 5.984375 24.496094 5.917969 C 24.222656 5.851562 23.945312 5.816406 23.664062 5.816406 "/>
<path style=" stroke:none;fill-rule:nonzero;fill:url(#linear2);" d="M 31.210938 20.269531 C 31.613281 19.953125 32.003906 19.617188 32.375 19.261719 C 30.761719 14.492188 30.183594 5.824219 25.503906 5.824219 C 25.167969 5.824219 24.832031 5.855469 24.496094 5.917969 C 28.757812 6.960938 29.304688 16.105469 31.210938 20.269531 "/>
<path style=" stroke:none;fill-rule:nonzero;fill:rgb(18.823529%,57.254902%,76.862745%);fill-opacity:1;" d="M 24.496094 5.917969 C 24.222656 5.851562 23.945312 5.816406 23.664062 5.816406 L 25.503906 5.824219 C 25.167969 5.824219 24.832031 5.855469 24.496094 5.917969 "/>
<path style=" stroke:none;fill-rule:nonzero;fill:rgb(9.803922%,41.176471%,73.72549%);fill-opacity:1;" d="M 31.128906 21.285156 C 30.945312 21.113281 30.769531 20.921875 30.601562 20.722656 C 29.8125 21.269531 29.027344 21.6875 28.25 21.957031 C 28.527344 22.09375 28.824219 22.191406 29.125 22.253906 C 29.371094 22.300781 29.621094 22.328125 29.871094 22.328125 C 30.746094 22.328125 31.4375 22.222656 32.027344 21.945312 C 31.703125 21.773438 31.40625 21.550781 31.128906 21.285156 "/>
<path style=" stroke:none;fill-rule:nonzero;fill:url(#linear3);" d="M 23.40625 6.214844 C 27.222656 8.183594 27.554688 17.101562 30.601562 20.722656 C 30.808594 20.578125 31.011719 20.425781 31.207031 20.269531 C 29.300781 16.105469 28.757812 6.960938 24.496094 5.917969 C 24.125 5.984375 23.761719 6.085938 23.40625 6.214844 "/>
<path style=" stroke:none;fill-rule:nonzero;fill:url(#linear4);" d="M 20.484375 7.964844 C 23.410156 11.917969 24.460938 20.128906 28.25 21.957031 C 29.03125 21.6875 29.8125 21.269531 30.601562 20.722656 C 27.554688 17.101562 27.222656 8.183594 23.40625 6.214844 C 22.4375 6.570312 21.464844 7.164062 20.484375 7.964844 "/>
<path style=" stroke:none;fill-rule:nonzero;fill:url(#linear5);" d="M 17.472656 8.871094 C 17.015625 9.894531 16.546875 11.238281 15.980469 12.996094 C 17.105469 11.429688 18.230469 10.082031 19.347656 8.988281 C 19.191406 8.519531 19.027344 8.089844 18.847656 7.707031 C 18.371094 8.070312 17.910156 8.460938 17.472656 8.871094 "/>
<path style=" stroke:none;fill-rule:nonzero;fill:rgb(16.862745%,45.490196%,69.411765%);fill-opacity:1;" d="M 19.257812 7.414062 C 19.117188 7.507812 18.984375 7.609375 18.847656 7.707031 C 19.027344 8.089844 19.191406 8.519531 19.347656 8.988281 C 19.542969 8.796875 19.746094 8.605469 19.953125 8.421875 C 19.734375 8.054688 19.503906 7.714844 19.257812 7.414062 "/>
<path style=" stroke:none;fill-rule:nonzero;fill:rgb(7.058824%,35.294118%,61.960784%);fill-opacity:1;" d="M 19.734375 7.097656 C 19.574219 7.199219 19.414062 7.304688 19.253906 7.414062 C 19.503906 7.714844 19.734375 8.054688 19.953125 8.421875 C 20.125 8.265625 20.304688 8.113281 20.484375 7.964844 C 20.25 7.644531 20 7.351562 19.734375 7.097656 "/>
<path style=" stroke:none;fill-rule:nonzero;fill:url(#linear6);" d="M 45.773438 5.453125 C 43.613281 13.664062 39.105469 20.257812 35.324219 21.917969 L 35.316406 21.917969 C 35.25 21.949219 35.179688 21.980469 35.113281 22.003906 C 35.105469 22.011719 35.09375 22.011719 35.089844 22.015625 C 35.070312 22.023438 35.050781 22.03125 35.03125 22.039062 C 35.019531 22.042969 35.011719 22.042969 35.003906 22.046875 C 34.972656 22.058594 34.941406 22.070312 34.910156 22.082031 C 34.894531 22.085938 34.882812 22.089844 34.871094 22.09375 C 34.855469 22.101562 34.839844 22.105469 34.824219 22.109375 C 34.808594 22.113281 34.792969 22.117188 34.777344 22.125 C 34.765625 22.128906 34.75 22.132812 34.738281 22.136719 C 34.710938 22.144531 34.683594 22.152344 34.65625 22.164062 C 34.644531 22.164062 34.636719 22.167969 34.625 22.171875 C 34.605469 22.175781 34.585938 22.179688 34.570312 22.1875 C 34.554688 22.191406 34.546875 22.195312 34.53125 22.195312 C 34.511719 22.203125 34.492188 22.207031 34.472656 22.210938 L 34.398438 22.226562 C 34.574219 22.289062 34.757812 22.320312 34.941406 22.320312 C 38.523438 22.320312 42.140625 15.984375 48.121094 5.449219 L 45.773438 5.449219 Z M 45.773438 5.453125 "/>
<path style=" stroke:none;fill-rule:nonzero;fill:url(#linear7);" d="M 15.203125 6.152344 C 15.203125 6.152344 15.207031 6.144531 15.207031 6.144531 C 15.210938 6.144531 15.214844 6.144531 15.214844 6.140625 L 15.222656 6.140625 C 15.242188 6.132812 15.257812 6.125 15.277344 6.117188 C 15.285156 6.117188 15.285156 6.117188 15.289062 6.113281 C 15.296875 6.113281 15.300781 6.105469 15.304688 6.105469 C 15.328125 6.097656 15.347656 6.089844 15.367188 6.085938 L 15.371094 6.085938 C 15.417969 6.070312 15.460938 6.054688 15.507812 6.035156 C 15.515625 6.035156 15.519531 6.03125 15.527344 6.03125 C 15.546875 6.023438 15.566406 6.019531 15.589844 6.015625 C 15.597656 6.007812 15.605469 6.007812 15.613281 6.003906 C 15.636719 6 15.65625 5.992188 15.675781 5.988281 C 15.683594 5.988281 15.691406 5.980469 15.695312 5.980469 C 15.761719 5.964844 15.828125 5.945312 15.894531 5.929688 C 15.902344 5.929688 15.910156 5.925781 15.921875 5.925781 C 15.941406 5.917969 15.957031 5.917969 15.980469 5.914062 C 15.988281 5.910156 15.996094 5.910156 16.007812 5.90625 C 16.027344 5.898438 16.042969 5.898438 16.066406 5.894531 L 16.078125 5.894531 C 16.117188 5.886719 16.160156 5.878906 16.199219 5.875 L 16.222656 5.875 C 16.242188 5.867188 16.257812 5.867188 16.277344 5.863281 C 16.289062 5.863281 16.300781 5.859375 16.308594 5.859375 C 16.328125 5.859375 16.34375 5.851562 16.363281 5.851562 C 16.371094 5.851562 16.378906 5.851562 16.390625 5.84375 C 16.433594 5.839844 16.476562 5.835938 16.519531 5.832031 C 16.394531 5.820312 16.265625 5.816406 16.140625 5.8125 C 12.101562 5.8125 6.539062 13.199219 4.035156 22.765625 L 4.515625 22.765625 C 5.320312 21.355469 6.039062 20.023438 6.699219 18.769531 C 8.453125 11.996094 12.027344 7.375 15.203125 6.148438 "/>
<path style=" stroke:none;fill-rule:nonzero;fill:rgb(5.098039%,50.980392%,79.215686%);fill-opacity:1;" d="M 17.472656 8.871094 C 17.910156 8.460938 18.371094 8.070312 18.847656 7.707031 C 18.75 7.492188 18.640625 7.285156 18.523438 7.082031 C 18.152344 7.527344 17.816406 8.109375 17.472656 8.871094 "/>
<path style=" stroke:none;fill-rule:nonzero;fill:rgb(5.098039%,50.980392%,79.215686%);fill-opacity:1;" d="M 17.804688 6.207031 C 18.070312 6.425781 18.304688 6.726562 18.519531 7.085938 C 18.589844 7 18.660156 6.925781 18.730469 6.855469 C 18.429688 6.578125 18.105469 6.351562 17.753906 6.179688 C 17.769531 6.1875 17.78125 6.195312 17.796875 6.199219 C 17.796875 6.199219 17.804688 6.207031 17.804688 6.207031 "/>
<path style=" stroke:none;fill-rule:nonzero;fill:url(#linear8);" d="M 6.699219 18.769531 C 10.378906 11.777344 12.121094 7.347656 15.203125 6.148438 C 12.027344 7.375 8.453125 11.996094 6.699219 18.769531 "/>
<path style=" stroke:none;fill-rule:nonzero;fill:rgb(7.058824%,48.235294%,79.215686%);fill-opacity:1;" d="M 18.730469 6.855469 C 18.65625 6.925781 18.589844 7 18.519531 7.082031 C 18.640625 7.285156 18.75 7.496094 18.847656 7.707031 C 18.984375 7.609375 19.117188 7.507812 19.253906 7.414062 C 19.09375 7.214844 18.917969 7.027344 18.730469 6.855469 "/>
<path style=" stroke:none;fill-rule:nonzero;fill:url(#linear9);" d="M 8.367188 22.734375 C 8.347656 22.742188 8.324219 22.742188 8.300781 22.742188 L 8.289062 22.742188 C 8.269531 22.742188 8.25 22.75 8.234375 22.75 L 8.222656 22.75 C 8.175781 22.753906 8.132812 22.753906 8.089844 22.757812 L 8.074219 22.757812 C 11.800781 22.65625 13.503906 20.816406 14.347656 18.148438 C 14.988281 16.125 15.515625 14.421875 15.980469 12.992188 C 14.417969 15.15625 12.851562 17.738281 11.277344 20.632812 C 10.515625 22.027344 9.359375 22.609375 8.367188 22.734375 "/>
<path style=" stroke:none;fill-rule:nonzero;fill:url(#linear10);" d="M 8.367188 22.734375 C 9.359375 22.609375 10.515625 22.027344 11.277344 20.632812 C 12.851562 17.742188 14.421875 15.160156 15.980469 12.992188 C 16.546875 11.238281 17.015625 9.894531 17.472656 8.871094 C 14.367188 11.789062 11.246094 16.636719 8.367188 22.734375 "/>
<path style=" stroke:none;fill-rule:nonzero;fill:rgb(1.960784%,63.137255%,90.196078%);fill-opacity:1;" d="M 6.699219 18.769531 C 6.039062 20.023438 5.320312 21.355469 4.515625 22.765625 L 5.921875 22.765625 C 6.097656 21.421875 6.359375 20.085938 6.699219 18.773438 "/>
<path style=" stroke:none;fill-rule:nonzero;fill:url(#linear11);" d="M 16.390625 5.847656 C 16.378906 5.847656 16.371094 5.855469 16.359375 5.855469 C 16.34375 5.859375 16.328125 5.859375 16.308594 5.859375 C 16.296875 5.859375 16.289062 5.859375 16.277344 5.867188 C 16.257812 5.871094 16.242188 5.871094 16.222656 5.875 C 16.214844 5.875 16.207031 5.875 16.199219 5.882812 C 16.15625 5.886719 16.117188 5.894531 16.078125 5.902344 L 16.066406 5.902344 C 16.042969 5.90625 16.027344 5.910156 16.007812 5.914062 C 15.996094 5.917969 15.988281 5.917969 15.976562 5.921875 C 15.957031 5.925781 15.941406 5.929688 15.921875 5.933594 C 15.910156 5.9375 15.902344 5.9375 15.894531 5.9375 C 15.828125 5.953125 15.761719 5.972656 15.695312 5.988281 C 15.691406 5.988281 15.683594 5.996094 15.675781 5.996094 C 15.65625 6 15.636719 6.007812 15.613281 6.011719 C 15.605469 6.019531 15.597656 6.019531 15.585938 6.019531 C 15.566406 6.027344 15.546875 6.03125 15.527344 6.039062 C 15.519531 6.039062 15.515625 6.042969 15.507812 6.042969 C 15.460938 6.058594 15.417969 6.078125 15.371094 6.089844 C 15.351562 6.097656 15.328125 6.105469 15.308594 6.113281 C 15.300781 6.117188 15.292969 6.121094 15.28125 6.125 C 15.261719 6.128906 15.242188 6.136719 15.222656 6.144531 C 15.21875 6.148438 15.210938 6.152344 15.203125 6.152344 C 12.125 7.351562 10.382812 11.777344 6.703125 18.773438 C 6.363281 20.089844 6.101562 21.421875 5.925781 22.769531 L 6.121094 22.769531 C 6.675781 22.769531 6.835938 22.765625 7.472656 22.765625 L 8.09375 22.765625 C 8.136719 22.757812 8.179688 22.757812 8.226562 22.753906 L 8.234375 22.753906 C 8.253906 22.753906 8.273438 22.75 8.292969 22.75 L 8.304688 22.75 C 8.328125 22.75 8.351562 22.746094 8.371094 22.742188 C 11.25 16.644531 14.371094 11.796875 17.476562 8.878906 C 17.820312 8.117188 18.15625 7.53125 18.523438 7.089844 C 18.308594 6.730469 18.074219 6.433594 17.808594 6.214844 C 17.546875 5.996094 17.800781 6.214844 17.800781 6.207031 C 17.785156 6.203125 17.773438 6.195312 17.757812 6.1875 C 17.742188 6.179688 17.730469 6.171875 17.714844 6.164062 C 17.699219 6.160156 17.683594 6.152344 17.671875 6.144531 C 17.652344 6.140625 17.636719 6.132812 17.621094 6.125 C 17.609375 6.117188 17.597656 6.113281 17.582031 6.109375 C 17.554688 6.097656 17.527344 6.085938 17.5 6.074219 C 17.488281 6.070312 17.476562 6.066406 17.46875 6.0625 C 17.445312 6.054688 17.425781 6.046875 17.40625 6.039062 C 17.394531 6.03125 17.382812 6.03125 17.371094 6.027344 C 17.34375 6.015625 17.316406 6.007812 17.289062 6 L 17.28125 6 C 17.25 5.988281 17.21875 5.980469 17.183594 5.972656 C 17.175781 5.964844 17.167969 5.964844 17.160156 5.964844 C 17.132812 5.957031 17.105469 5.949219 17.078125 5.941406 C 17.074219 5.941406 17.066406 5.9375 17.0625 5.9375 C 16.992188 5.917969 16.925781 5.902344 16.855469 5.890625 C 16.847656 5.890625 16.839844 5.886719 16.835938 5.886719 C 16.804688 5.878906 16.777344 5.875 16.746094 5.871094 C 16.738281 5.867188 16.734375 5.867188 16.726562 5.867188 C 16.691406 5.859375 16.65625 5.855469 16.625 5.851562 L 16.605469 5.851562 C 16.578125 5.847656 16.550781 5.847656 16.523438 5.84375 C 16.480469 5.847656 16.4375 5.851562 16.394531 5.855469 "/>
<path style=" stroke:none;fill-rule:nonzero;fill:url(#linear12);" d="M 37.339844 9.996094 C 36.632812 12.234375 36.058594 14.082031 35.558594 15.597656 C 37.503906 12.960938 39.417969 9.644531 41.238281 5.816406 C 39.113281 6.476562 37.980469 7.980469 37.339844 9.996094 "/>
<path style=" stroke:none;fill-rule:nonzero;fill:url(#linear13);" d="M 35.621094 21.78125 C 35.523438 21.828125 35.421875 21.878906 35.324219 21.917969 C 39.105469 20.257812 43.613281 13.664062 45.773438 5.453125 L 45.335938 5.453125 C 40.375 14.191406 38.78125 20.039062 35.621094 21.78125 "/>
<path style=" stroke:none;fill-rule:nonzero;fill:rgb(2.745098%,60.392157%,88.235294%);fill-opacity:1;" d="M 33.152344 21.046875 C 33.976562 20.054688 34.644531 18.375 35.558594 15.597656 C 34.503906 17.027344 33.441406 18.257812 32.378906 19.257812 C 32.378906 19.265625 32.378906 19.265625 32.375 19.269531 C 32.605469 19.953125 32.859375 20.558594 33.148438 21.046875 "/>
<path style=" stroke:none;fill-rule:nonzero;fill:rgb(9.803922%,41.176471%,73.72549%);fill-opacity:1;" d="M 33.152344 21.046875 C 32.871094 21.382812 32.574219 21.640625 32.246094 21.828125 C 32.171875 21.871094 32.101562 21.910156 32.027344 21.945312 C 32.382812 22.136719 32.777344 22.257812 33.179688 22.304688 C 33.242188 22.3125 33.304688 22.316406 33.367188 22.320312 L 33.378906 22.320312 C 33.410156 22.320312 33.441406 22.320312 33.46875 22.328125 L 33.777344 22.328125 C 33.789062 22.328125 33.800781 22.328125 33.8125 22.320312 C 33.835938 22.320312 33.859375 22.320312 33.878906 22.316406 L 33.914062 22.316406 C 33.9375 22.316406 33.964844 22.308594 33.988281 22.308594 L 33.992188 22.308594 C 34 22.308594 34.007812 22.300781 34.015625 22.300781 C 34.042969 22.296875 34.070312 22.292969 34.09375 22.289062 L 34.117188 22.289062 C 34.148438 22.285156 34.175781 22.28125 34.207031 22.277344 L 34.222656 22.277344 C 34.28125 22.265625 34.339844 22.253906 34.398438 22.238281 C 33.910156 22.0625 33.5 21.648438 33.148438 21.054688 "/>
<path style=" stroke:none;fill-rule:nonzero;fill:rgb(11.764706%,36.078431%,70.196078%);fill-opacity:1;" d="M 26.183594 22.328125 C 26.535156 22.328125 26.894531 22.292969 27.253906 22.222656 C 27.585938 22.164062 27.917969 22.074219 28.25 21.960938 C 28.527344 22.09375 28.824219 22.191406 29.125 22.253906 C 29.371094 22.300781 29.621094 22.328125 29.875 22.328125 Z M 26.183594 22.328125 "/>
<path style=" stroke:none;fill-rule:nonzero;fill:rgb(11.764706%,36.078431%,70.196078%);fill-opacity:1;" d="M 29.875 22.328125 C 30.746094 22.328125 31.4375 22.222656 32.027344 21.945312 C 32.382812 22.136719 32.777344 22.257812 33.179688 22.304688 C 33.242188 22.3125 33.304688 22.316406 33.367188 22.320312 L 33.378906 22.320312 C 33.410156 22.320312 33.441406 22.320312 33.46875 22.328125 L 33.578125 22.328125 L 29.871094 22.328125 Z M 29.875 22.328125 "/>
<path style=" stroke:none;fill-rule:nonzero;fill:rgb(11.372549%,37.647059%,70.980392%);fill-opacity:1;" d="M 33.578125 22.328125 L 33.78125 22.328125 C 33.792969 22.328125 33.804688 22.328125 33.816406 22.320312 C 33.835938 22.320312 33.859375 22.320312 33.882812 22.316406 L 33.917969 22.316406 C 33.941406 22.316406 33.964844 22.308594 33.992188 22.308594 L 33.996094 22.308594 C 34.003906 22.308594 34.011719 22.300781 34.019531 22.300781 C 34.046875 22.296875 34.074219 22.292969 34.097656 22.289062 C 34.105469 22.289062 34.113281 22.289062 34.121094 22.285156 C 34.152344 22.277344 34.179688 22.277344 34.210938 22.269531 L 34.226562 22.269531 C 34.285156 22.257812 34.34375 22.25 34.402344 22.234375 C 34.574219 22.296875 34.757812 22.328125 34.941406 22.328125 L 33.578125 22.332031 Z M 33.578125 22.328125 "/>
<path style=" stroke:none;fill-rule:nonzero;fill:rgb(9.019608%,37.254902%,67.058824%);fill-opacity:1;" d="M 32.375 19.269531 L 32.375 19.261719 C 32.003906 19.617188 31.613281 19.953125 31.210938 20.269531 C 31.011719 20.425781 30.808594 20.578125 30.601562 20.722656 C 30.773438 20.921875 30.945312 21.109375 31.128906 21.28125 C 31.40625 21.546875 31.703125 21.773438 32.027344 21.945312 C 32.101562 21.910156 32.175781 21.871094 32.246094 21.828125 C 32.578125 21.640625 32.875 21.382812 33.152344 21.046875 C 32.863281 20.558594 32.609375 19.953125 32.378906 19.265625 "/>
<path style=" stroke:none;fill-rule:nonzero;fill:url(#linear14);" d="M 43.949219 5.453125 L 41.746094 5.453125 C 41.628906 5.457031 41.511719 5.460938 41.398438 5.46875 C 41.34375 5.582031 41.289062 5.699219 41.238281 5.8125 C 39.414062 9.640625 37.5 12.957031 35.554688 15.59375 C 34.644531 18.367188 33.972656 20.050781 33.148438 21.042969 C 33.5 21.632812 33.910156 22.050781 34.398438 22.226562 C 34.410156 22.21875 34.421875 22.21875 34.433594 22.21875 L 34.441406 22.21875 C 34.453125 22.21875 34.460938 22.210938 34.46875 22.210938 C 34.488281 22.207031 34.511719 22.203125 34.53125 22.195312 C 34.542969 22.191406 34.554688 22.191406 34.566406 22.1875 C 34.585938 22.179688 34.605469 22.175781 34.621094 22.171875 C 34.632812 22.167969 34.644531 22.164062 34.65625 22.164062 C 34.683594 22.152344 34.710938 22.148438 34.738281 22.136719 C 34.75 22.132812 34.761719 22.128906 34.777344 22.125 C 34.792969 22.121094 34.808594 22.117188 34.820312 22.109375 C 34.839844 22.101562 34.855469 22.101562 34.867188 22.09375 C 34.882812 22.089844 34.894531 22.085938 34.90625 22.082031 C 34.9375 22.070312 34.96875 22.058594 35.003906 22.046875 C 35.011719 22.046875 35.019531 22.039062 35.027344 22.039062 C 35.046875 22.03125 35.066406 22.023438 35.085938 22.015625 C 35.09375 22.011719 35.101562 22.007812 35.113281 22.007812 C 35.179688 21.980469 35.246094 21.949219 35.316406 21.921875 L 35.324219 21.921875 C 35.421875 21.875 35.519531 21.828125 35.617188 21.78125 C 38.777344 20.039062 40.375 14.191406 45.332031 5.453125 Z M 43.949219 5.453125 "/>
<path style=" stroke:none;fill-rule:nonzero;fill:rgb(49.019608%,79.607843%,92.54902%);fill-opacity:1;" d="M 16.519531 5.835938 C 16.527344 5.835938 16.535156 5.835938 16.542969 5.84375 C 16.5625 5.84375 16.582031 5.84375 16.601562 5.847656 L 16.621094 5.847656 C 16.652344 5.855469 16.6875 5.855469 16.722656 5.863281 C 16.730469 5.863281 16.738281 5.863281 16.742188 5.867188 C 16.769531 5.871094 16.800781 5.878906 16.832031 5.882812 C 16.835938 5.882812 16.84375 5.886719 16.851562 5.886719 C 16.921875 5.902344 16.992188 5.914062 17.058594 5.933594 C 17.0625 5.933594 17.070312 5.9375 17.074219 5.9375 C 17.105469 5.945312 17.128906 5.953125 17.15625 5.960938 C 17.167969 5.960938 17.171875 5.964844 17.179688 5.96875 C 17.214844 5.976562 17.246094 5.984375 17.277344 5.996094 C 17.277344 5.996094 17.28125 5.996094 17.285156 6 C 17.3125 6.007812 17.339844 6.019531 17.371094 6.027344 C 17.382812 6.035156 17.390625 6.035156 17.402344 6.039062 C 17.421875 6.046875 17.445312 6.054688 17.464844 6.0625 C 17.476562 6.0625 17.484375 6.070312 17.496094 6.074219 C 17.523438 6.085938 17.550781 6.097656 17.578125 6.109375 C 17.59375 6.113281 17.605469 6.121094 17.617188 6.125 C 17.632812 6.132812 17.652344 6.140625 17.667969 6.148438 C 17.679688 6.152344 17.695312 6.160156 17.710938 6.167969 C 17.726562 6.175781 17.738281 6.179688 17.753906 6.1875 C 18.105469 6.359375 18.429688 6.585938 18.730469 6.863281 C 18.835938 6.75 18.953125 6.648438 19.074219 6.550781 C 18.417969 6.09375 17.675781 5.832031 16.820312 5.832031 C 16.71875 5.832031 16.621094 5.835938 16.519531 5.84375 "/>
<path style=" stroke:none;fill-rule:nonzero;fill:rgb(36.862745%,77.254902%,92.941176%);fill-opacity:1;" d="M 18.730469 6.855469 C 18.917969 7.027344 19.09375 7.214844 19.253906 7.414062 C 19.414062 7.304688 19.574219 7.199219 19.734375 7.097656 C 19.53125 6.894531 19.3125 6.710938 19.074219 6.542969 C 18.953125 6.636719 18.835938 6.742188 18.730469 6.855469 "/>
<path style=" stroke:none;fill-rule:nonzero;fill:url(#linear15);" d="M 16.519531 5.835938 C 16.621094 5.828125 16.71875 5.824219 16.820312 5.824219 C 17.675781 5.824219 18.417969 6.085938 19.074219 6.542969 C 19.765625 6.003906 20.605469 5.816406 21.765625 5.816406 L 16.136719 5.816406 C 16.269531 5.816406 16.394531 5.824219 16.519531 5.835938 "/>
<path style=" stroke:none;fill-rule:nonzero;fill:url(#linear16);" d="M 21.765625 5.816406 C 20.605469 5.816406 19.765625 6.003906 19.074219 6.542969 C 19.3125 6.710938 19.53125 6.894531 19.734375 7.097656 C 20.699219 6.492188 21.652344 6.09375 22.59375 5.917969 C 22.949219 5.851562 23.304688 5.820312 23.664062 5.816406 Z M 21.765625 5.816406 "/>
<path style=" stroke:none;fill-rule:nonzero;fill:url(#linear17);" d="M 35.558594 15.601562 C 36.058594 14.082031 36.632812 12.234375 37.339844 9.996094 C 37.980469 7.980469 39.113281 6.472656 41.238281 5.816406 C 41.292969 5.703125 41.347656 5.585938 41.402344 5.472656 C 37.9375 5.679688 36.316406 7.417969 35.5 9.992188 C 34.074219 14.488281 33.210938 17.402344 32.378906 19.257812 C 33.441406 18.257812 34.503906 17.027344 35.558594 15.601562 "/>
<path style=" stroke:none;fill-rule:nonzero;fill:rgb(0%,0%,0%);fill-opacity:1;" d="M 40.644531 21.128906 L 40.25 21.128906 L 40.25 22.332031 L 40.089844 22.332031 L 40.089844 21.128906 L 39.695312 21.128906 L 39.695312 20.984375 L 40.644531 20.984375 Z M 42.253906 22.332031 L 42.09375 22.332031 L 42.09375 21.425781 C 42.09375 21.355469 42.097656 21.269531 42.105469 21.167969 C 42.089844 21.226562 42.074219 21.269531 42.0625 21.296875 L 41.597656 22.332031 L 41.519531 22.332031 L 41.054688 21.304688 C 41.039062 21.277344 41.027344 21.230469 41.011719 21.167969 L 41.007812 21.167969 C 41.011719 21.21875 41.015625 21.308594 41.015625 21.429688 L 41.015625 22.332031 L 40.859375 22.332031 L 40.859375 20.984375 L 41.070312 20.984375 L 41.492188 21.925781 C 41.523438 21.996094 41.542969 22.050781 41.550781 22.085938 L 41.558594 22.085938 C 41.585938 22.011719 41.609375 21.957031 41.625 21.921875 L 42.050781 20.984375 L 42.253906 20.984375 Z M 42.253906 22.332031 "/>
</g>
</svg>
