<?xml version="1.0" encoding="UTF-8"?>
<svg xmlns="http://www.w3.org/2000/svg" xmlns:xlink="http://www.w3.org/1999/xlink" width="50px" height="50px" viewBox="0 0 50 50" version="1.1">
<defs>
<filter id="alpha" filterUnits="objectBoundingBox" x="0%" y="0%" width="100%" height="100%">
  <feColorMatrix type="matrix" in="SourceGraphic" values="0 0 0 0 1 0 0 0 0 1 0 0 0 0 1 0 0 0 1 0"/>
</filter>
<mask id="mask0">
  <g filter="url(#alpha)">
<rect x="0" y="0" width="50" height="50" style="fill:rgb(0%,0%,0%);fill-opacity:0.101961;stroke:none;"/>
  </g>
</mask>
<clipPath id="clip1">
  <rect x="0" y="0" width="50" height="50"/>
</clipPath>
<g id="surface5" clip-path="url(#clip1)">
<path style=" stroke:none;fill-rule:nonzero;fill:rgb(100%,100%,100%);fill-opacity:1;" d="M 7.671875 7.03125 C 0.746094 13.203125 -2.191406 22.699219 0.0351562 31.703125 C 2.265625 40.707031 9.292969 47.734375 18.296875 49.964844 C 27.300781 52.191406 36.796875 49.253906 42.96875 42.328125 Z M 7.671875 7.03125 "/>
</g>
</defs>
<g id="surface1">
<path style=" stroke:none;fill-rule:nonzero;fill:rgb(36.078431%,17.647059%,56.862745%);fill-opacity:1;" d="M 50 25 C 50 38.808594 38.808594 50 25 50 C 11.191406 50 0 38.808594 0 25 C 0 11.191406 11.191406 0 25 0 C 38.808594 0 50 11.191406 50 25 Z M 50 25 "/>
<use xlink:href="#surface5" mask="url(#mask0)"/>
<path style=" stroke:none;fill-rule:nonzero;fill:rgb(100%,100%,100%);fill-opacity:1;" d="M 5.78125 29.101562 C 5.488281 29.105469 5.203125 28.988281 5 28.773438 C 4.792969 28.566406 4.675781 28.285156 4.679688 27.992188 C 4.675781 27.699219 4.792969 27.417969 5 27.210938 C 5.199219 26.992188 5.484375 26.871094 5.78125 26.875 C 6.078125 26.875 6.359375 26.996094 6.5625 27.210938 C 6.773438 27.417969 6.890625 27.699219 6.890625 27.992188 C 6.894531 28.285156 6.773438 28.570312 6.5625 28.773438 C 6.359375 28.984375 6.074219 29.101562 5.78125 29.101562 Z M 5.78125 29.101562 "/>
<path style=" stroke:none;fill-rule:nonzero;fill:rgb(100%,100%,100%);fill-opacity:1;" d="M 21.304688 28.90625 L 19.257812 28.90625 L 11.9375 17.546875 C 11.753906 17.265625 11.601562 16.96875 11.484375 16.65625 L 11.421875 16.65625 C 11.492188 17.304688 11.515625 17.957031 11.5 18.609375 L 11.5 28.90625 L 9.835938 28.90625 L 9.835938 14.664062 L 12 14.664062 L 19.125 25.820312 C 19.421875 26.285156 19.613281 26.601562 19.703125 26.773438 L 19.742188 26.773438 C 19.660156 26.078125 19.625 25.378906 19.640625 24.679688 L 19.640625 14.664062 L 21.304688 14.664062 Z M 21.304688 28.90625 "/>
<path style=" stroke:none;fill-rule:nonzero;fill:rgb(100%,100%,100%);fill-opacity:1;" d="M 32.570312 28.90625 L 25 28.90625 L 25 14.664062 L 32.21875 14.664062 L 32.21875 16.171875 L 26.703125 16.171875 L 26.703125 20.90625 L 31.84375 20.90625 L 31.84375 22.40625 L 26.703125 22.40625 L 26.703125 27.34375 L 32.578125 27.34375 Z M 32.570312 28.90625 "/>
<path style=" stroke:none;fill-rule:nonzero;fill:rgb(100%,100%,100%);fill-opacity:1;" d="M 43.75 16.171875 L 39.609375 16.171875 L 39.609375 28.90625 L 37.945312 28.90625 L 37.945312 16.171875 L 33.851562 16.171875 L 33.851562 14.664062 L 43.75 14.664062 Z M 43.75 16.171875 "/>
<path style=" stroke:none;fill-rule:nonzero;fill:rgb(94.901961%,94.901961%,94.901961%);fill-opacity:1;" d="M 20.40625 38.59375 C 19.84375 38.867188 19.21875 39 18.59375 38.976562 C 17.75 39.015625 16.933594 38.6875 16.351562 38.078125 C 15.777344 37.4375 15.476562 36.59375 15.507812 35.734375 C 15.464844 34.792969 15.804688 33.875 16.453125 33.1875 C 17.082031 32.542969 17.957031 32.191406 18.859375 32.21875 C 19.394531 32.199219 19.925781 32.292969 20.421875 32.492188 L 20.421875 33.273438 C 19.945312 33.007812 19.40625 32.875 18.859375 32.882812 C 18.164062 32.863281 17.492188 33.148438 17.023438 33.664062 C 16.535156 34.21875 16.285156 34.941406 16.320312 35.679688 C 16.285156 36.378906 16.519531 37.0625 16.976562 37.59375 C 17.421875 38.070312 18.050781 38.332031 18.703125 38.304688 C 19.304688 38.320312 19.894531 38.167969 20.414062 37.867188 Z M 20.40625 38.59375 "/>
<path style=" stroke:none;fill-rule:nonzero;fill:rgb(94.901961%,94.901961%,94.901961%);fill-opacity:1;" d="M 23.601562 38.976562 C 22.972656 38.996094 22.363281 38.742188 21.9375 38.28125 C 21.511719 37.804688 21.289062 37.179688 21.320312 36.539062 C 21.28125 35.863281 21.515625 35.199219 21.96875 34.695312 C 22.433594 34.242188 23.0625 34.003906 23.710938 34.03125 C 24.324219 34 24.921875 34.234375 25.34375 34.679688 C 25.757812 35.179688 25.96875 35.820312 25.929688 36.46875 C 25.960938 37.128906 25.734375 37.773438 25.296875 38.265625 C 24.859375 38.738281 24.242188 38.996094 23.601562 38.976562 Z M 23.65625 34.703125 C 23.222656 34.683594 22.800781 34.867188 22.515625 35.195312 C 22.214844 35.582031 22.066406 36.066406 22.09375 36.554688 C 22.066406 37.03125 22.21875 37.496094 22.515625 37.867188 C 22.804688 38.191406 23.222656 38.371094 23.65625 38.351562 C 24.082031 38.375 24.492188 38.203125 24.773438 37.882812 C 25.058594 37.496094 25.195312 37.019531 25.164062 36.539062 C 25.195312 36.058594 25.058594 35.578125 24.773438 35.1875 C 24.496094 34.859375 24.082031 34.679688 23.65625 34.703125 Z M 23.65625 34.703125 "/>
<path style=" stroke:none;fill-rule:nonzero;fill:rgb(94.901961%,94.901961%,94.901961%);fill-opacity:1;" d="M 29.578125 34.9375 C 29.410156 34.828125 29.210938 34.773438 29.007812 34.789062 C 28.6875 34.800781 28.394531 34.96875 28.226562 35.242188 C 27.992188 35.609375 27.882812 36.042969 27.90625 36.476562 L 27.90625 38.867188 L 27.125 38.867188 L 27.125 34.179688 L 27.90625 34.179688 L 27.90625 35.15625 C 27.992188 34.855469 28.164062 34.582031 28.398438 34.375 C 28.601562 34.199219 28.863281 34.101562 29.132812 34.101562 C 29.285156 34.09375 29.433594 34.117188 29.578125 34.164062 Z M 29.578125 34.9375 "/>
<path style=" stroke:none;fill-rule:nonzero;fill:rgb(94.901961%,94.901961%,94.901961%);fill-opacity:1;" d="M 34.15625 36.71875 L 30.851562 36.71875 C 30.828125 37.15625 30.972656 37.585938 31.25 37.921875 C 31.542969 38.214844 31.945312 38.367188 32.359375 38.34375 C 32.890625 38.339844 33.402344 38.152344 33.8125 37.820312 L 33.8125 38.523438 C 33.328125 38.84375 32.757812 38.996094 32.179688 38.96875 C 31.589844 39 31.015625 38.765625 30.617188 38.328125 C 30.210938 37.820312 30.007812 37.179688 30.046875 36.53125 C 30.019531 35.878906 30.238281 35.242188 30.664062 34.75 C 31.054688 34.296875 31.628906 34.046875 32.226562 34.0625 C 32.765625 34.03125 33.289062 34.25 33.648438 34.65625 C 34.007812 35.128906 34.1875 35.71875 34.148438 36.3125 Z M 33.375 36.085938 C 33.390625 35.722656 33.28125 35.367188 33.0625 35.078125 C 32.847656 34.832031 32.53125 34.699219 32.203125 34.71875 C 31.863281 34.714844 31.539062 34.851562 31.304688 35.101562 C 31.046875 35.375 30.886719 35.722656 30.84375 36.09375 Z M 33.375 36.085938 "/>
</g>
</svg>
