<?xml version="1.0" encoding="UTF-8"?>
<svg xmlns="http://www.w3.org/2000/svg" xmlns:xlink="http://www.w3.org/1999/xlink" width="30px" height="30px" viewBox="0 0 30 30" version="1.1">
<g id="surface1">
<path style=" stroke:none;fill-rule:nonzero;fill:rgb(21.960784%,69.411765%,90.588235%);fill-opacity:1;" d="M 1.25 3.75 L 28.75 3.75 C 29.441406 3.75 30 4.308594 30 5 L 30 25 C 30 25.691406 29.441406 26.25 28.75 26.25 L 1.25 26.25 C 0.558594 26.25 0 25.691406 0 25 L 0 5 C 0 4.308594 0.558594 3.75 1.25 3.75 Z M 1.25 3.75 "/>
<path style=" stroke:none;fill-rule:nonzero;fill:rgb(16.078431%,60.392157%,80%);fill-opacity:1;" d="M 29.898438 25.351562 C 29.714844 25.828125 29.265625 26.15625 28.75 26.1875 L 1.25 26.25 C 0.746094 26.253906 0.289062 25.953125 0.09375 25.488281 C -0.09375 25.023438 0.015625 24.492188 0.367188 24.136719 L 11.175781 13.582031 C 13.398438 11.539062 16.824219 11.558594 19.023438 13.625 L 29.625 24.007812 C 29.976562 24.359375 30.085938 24.886719 29.898438 25.351562 Z M 29.898438 25.351562 "/>
<path style=" stroke:none;fill-rule:nonzero;fill:rgb(41.568627%,75.686275%,90.588235%);fill-opacity:1;" d="M 29.898438 4.648438 C 29.714844 4.171875 29.265625 3.84375 28.75 3.8125 L 1.25 3.75 C 0.746094 3.746094 0.289062 4.046875 0.09375 4.511719 C -0.09375 4.976562 0.015625 5.507812 0.367188 5.863281 L 11.175781 16.417969 C 13.398438 18.460938 16.824219 18.441406 19.023438 16.375 L 29.625 5.992188 C 29.976562 5.640625 30.085938 5.113281 29.898438 4.648438 Z M 29.898438 4.648438 "/>
</g>
</svg>
