<?xml version="1.0" encoding="UTF-8"?>
<svg xmlns="http://www.w3.org/2000/svg" xmlns:xlink="http://www.w3.org/1999/xlink" width="50px" height="50px" viewBox="0 0 50 50" version="1.1">
<g id="surface1">
<path style=" stroke:none;fill-rule:nonzero;fill:rgb(100%,100%,100%);fill-opacity:1;" d="M 12.5 0 L 37.5 0 C 44.402344 0 50 5.597656 50 12.5 L 50 37.5 C 50 44.402344 44.402344 50 37.5 50 L 12.5 50 C 5.597656 50 0 44.402344 0 37.5 L 0 12.5 C 0 5.597656 5.597656 0 12.5 0 Z M 12.5 0 "/>
<path style=" stroke:none;fill-rule:evenodd;fill:rgb(0%,0%,0%);fill-opacity:1;" d="M 16.046875 14.296875 C 15.902344 13.050781 17.023438 13.578125 16.878906 14.332031 C 16.667969 14.53125 16.28125 14.367188 16.046875 14.296875 Z M 17.378906 14.0625 C 17.660156 14.035156 17.929688 13.992188 18.011719 13.761719 C 17.625 13.523438 17.039062 14.117188 17.28125 14.398438 C 17.414062 14.386719 17.296875 14.125 17.378906 14.0625 Z M 13.644531 14.832031 C 13.878906 14.722656 14.265625 14.761719 14.378906 14.53125 C 13.679688 14.285156 12.417969 14.464844 12.210938 14.929688 C 12.742188 14.898438 13.191406 14.472656 13.644531 14.832031 Z M 12.078125 14.964844 C 11.925781 14.933594 11.867188 15.105469 11.945312 15.199219 C 12.0625 15.195312 12.078125 15.085938 12.078125 14.964844 Z M 11.710938 15.632812 C 11.6875 15.3125 10.917969 15.058594 10.84375 15.496094 C 10.910156 15.746094 11.53125 15.90625 11.710938 15.632812 Z M 10.410156 15.332031 C 10.25 15.339844 10.167969 15.425781 10.078125 15.496094 C 10.199219 15.566406 10.464844 15.542969 10.410156 15.332031 Z M 10.011719 16.230469 C 10.597656 16.191406 10.777344 16.730469 11.277344 16.664062 C 11.371094 16.082031 10.175781 15.285156 10.011719 16.230469 Z M 17.945312 19.132812 C 17.773438 18.550781 18.308594 18.050781 17.980469 17.597656 C 17.527344 17.632812 17.132812 19.742188 17.78125 19.734375 C 18.246094 19.726562 18.40625 18.453125 18.445312 18.03125 C 18.105469 18.226562 18.253906 18.90625 17.945312 19.132812 Z M 12.378906 18.898438 C 12.386719 18.8125 12.332031 18.789062 12.246094 18.800781 C 12.246094 18.890625 12.320312 18.960938 12.378906 18.898438 Z M 14.011719 19.867188 C 14.019531 19.660156 14.011719 19.46875 13.84375 19.433594 C 13.71875 19.417969 13.726562 19.535156 13.644531 19.566406 C 13.691406 19.742188 13.785156 19.871094 14.011719 19.867188 Z M 12.410156 20.933594 C 13.050781 21.003906 13.476562 21.464844 14.078125 21.46875 C 13.601562 21.144531 13.101562 20.839844 12.34375 20.800781 C 12.320312 20.890625 12.410156 20.867188 12.410156 20.933594 Z M 17.445312 21.433594 C 17.398438 21.207031 17.296875 21.027344 17.179688 20.867188 C 17.222656 21.101562 17.28125 21.320312 17.445312 21.433594 Z M 13.777344 22.167969 C 13.359375 21.605469 12.691406 21.121094 11.945312 21 C 12.050781 21.894531 13.042969 21.902344 13.777344 22.167969 Z M 12.644531 22.367188 C 12.359375 21.886719 11.867188 21.609375 11.277344 21.433594 C 11.609375 21.847656 11.914062 22.460938 12.644531 22.367188 Z M 11.109375 21.902344 C 11.222656 22.097656 11.511719 22.300781 11.445312 22.566406 C 11.152344 22.480469 11.007812 22.246094 10.710938 22.167969 C 10.867188 22.386719 11.476562 23.367188 11.84375 23.335938 C 12.078125 23.3125 12.1875 23.054688 12.144531 22.632812 C 11.964844 22.246094 11.390625 22.078125 11.109375 21.902344 Z M 12.8125 22.769531 C 12.886719 22.972656 12.910156 23.222656 13.179688 23.234375 C 13.132812 23.003906 12.996094 22.859375 12.8125 22.769531 Z M 12.578125 22.867188 C 12.453125 22.855469 12.382812 22.894531 12.378906 23 C 12.414062 23.007812 12.429688 23.039062 12.445312 23.066406 C 12.550781 23.0625 12.589844 22.992188 12.578125 22.867188 Z M 18.28125 23.632812 C 18.316406 23.445312 18.351562 23.082031 18.28125 22.902344 C 18.238281 23.089844 18.078125 23.507812 18.28125 23.632812 Z M 15.945312 22.933594 C 15.972656 23.132812 15.875 23.449219 16.046875 23.5 C 16.054688 23.355469 16.085938 23.027344 15.945312 22.933594 Z M 17.511719 23.703125 C 17.417969 23.617188 17.277344 23.746094 17.214844 23.667969 C 17.144531 23.449219 17.171875 23.128906 16.980469 23.035156 C 16.957031 23.035156 16.933594 23.035156 16.914062 23.035156 C 16.636719 23.601562 16.664062 24.824219 17.144531 25.136719 C 17.238281 25.289062 17.246094 25.523438 17.480469 25.535156 C 17.671875 25.382812 17.71875 25.085938 17.746094 24.769531 C 17.328125 24.679688 17.71875 23.960938 17.511719 23.703125 Z M 18.515625 24.066406 C 18.554688 23.773438 18.808594 23.34375 18.613281 23.035156 C 18.550781 23.328125 18.429688 23.738281 18.515625 24.066406 Z M 12.644531 24.335938 C 12.699219 24.183594 12.65625 23.925781 12.542969 23.835938 C 12.464844 23.980469 12.421875 24.316406 12.644531 24.335938 Z M 13.246094 24.46875 C 13.378906 24.554688 13.390625 24.769531 13.578125 24.800781 C 13.8125 24.503906 13.367188 23.972656 13.246094 24.46875 Z M 18.945312 25.136719 C 18.949219 25.238281 18.8125 25.378906 18.914062 25.46875 C 18.933594 25.386719 19.035156 25.214844 18.945312 25.136719 Z M 19.246094 26.4375 C 19.246094 26.28125 19.265625 26.105469 19.179688 26.035156 C 19.164062 26.15625 19.078125 26.417969 19.246094 26.4375 Z M 15.011719 27.804688 C 15.03125 27.925781 15.050781 28.050781 15.179688 28.070312 C 15.261719 27.957031 15.199219 27.753906 15.011719 27.804688 Z M 16.511719 27.96875 C 16.558594 28.058594 16.691406 28.234375 16.78125 28.167969 C 16.703125 28.113281 16.613281 27.894531 16.511719 27.96875 Z M 19.679688 28.335938 C 19.585938 28.734375 19.808594 29.097656 19.980469 29.335938 C 20.050781 28.949219 20.042969 28.394531 19.679688 28.335938 Z M 20.515625 30.90625 C 20.566406 30.804688 20.582031 30.492188 20.480469 30.4375 C 20.394531 30.558594 20.316406 30.847656 20.515625 30.90625 Z M 22.015625 32.503906 C 21.964844 32.261719 21.773438 31.996094 21.582031 32.003906 C 21.648438 32.25 21.660156 32.546875 22.015625 32.503906 Z M 22.316406 32.972656 C 22.316406 33.125 22.296875 33.300781 22.382812 33.371094 C 22.386719 33.210938 22.382812 33.058594 22.316406 32.972656 Z M 11.308594 33.003906 C 11.3125 33.128906 11.375 33.183594 11.445312 33.238281 C 11.429688 33.128906 11.414062 33.023438 11.308594 33.003906 Z M 23.515625 34.839844 C 23.433594 34.210938 23.101562 33.828125 22.683594 33.539062 C 22.742188 34.191406 23.0625 34.582031 23.515625 34.839844 Z M 28.886719 38.140625 C 28.863281 38.121094 28.726562 38.0625 28.71875 38.140625 C 28.769531 38.179688 28.859375 38.257812 28.886719 38.140625 Z M 45.792969 40.609375 C 45.792969 40.730469 45.792969 40.851562 45.792969 40.976562 C 45.738281 41.089844 45.722656 41.238281 45.691406 41.375 C 44.765625 41.972656 43.023438 41.753906 42.257812 42.511719 C 40.914062 41.785156 39.667969 42.925781 38.257812 43.042969 C 38.023438 43.0625 37.765625 43.023438 37.523438 43.042969 C 36.6875 43.109375 35.875 43.304688 35.019531 43.378906 C 34.148438 43.449219 33.269531 43.503906 32.351562 43.542969 C 32.019531 43.542969 31.6875 43.542969 31.351562 43.542969 C 27.21875 43.328125 23.128906 42.769531 20.082031 41.410156 C 18.5625 40.730469 17.164062 39.898438 15.878906 38.90625 C 14.628906 37.945312 13.34375 36.875 12.445312 35.671875 C 11.484375 34.394531 10.527344 33.152344 9.675781 31.738281 C 8.855469 30.375 8.089844 28.9375 7.410156 27.335938 C 6.738281 25.757812 6.257812 24.195312 5.808594 22.265625 C 5.511719 21.007812 5.199219 19.582031 4.675781 18.398438 C 4.46875 17.9375 4.230469 17.5625 4.207031 17.132812 C 4.207031 17.03125 4.207031 16.929688 4.207031 16.832031 C 4.371094 15.429688 5.460938 14.617188 6.742188 14.230469 C 7.0625 14.132812 7.375 14.039062 7.675781 13.863281 C 7.695312 13.851562 7.886719 13.832031 7.808594 13.730469 C 7.238281 13.59375 6.769531 14.433594 6.140625 14.195312 C 5.585938 13.988281 5.90625 13.125 6.507812 12.863281 C 6.789062 12.742188 7.347656 12.710938 7.609375 12.5625 C 8.054688 12.3125 8.257812 11.78125 8.175781 11.296875 C 8.125 11.011719 7.828125 10.859375 7.84375 10.628906 C 7.859375 10.308594 8.433594 10.027344 8.710938 9.828125 C 9.042969 9.585938 9.441406 9.28125 9.410156 8.894531 C 9.375 8.492188 8.902344 8.363281 8.675781 8.0625 C 8.320312 7.585938 8.261719 6.871094 8.84375 6.59375 C 9.449219 6.300781 10.582031 6.460938 10.710938 7.226562 C 10.820312 7.902344 10.34375 8.160156 10.542969 8.660156 C 10.917969 9.59375 13.832031 8.117188 13.109375 10.0625 C 13.753906 11.066406 16.257812 10.207031 16.3125 11.796875 C 17.355469 11.816406 17.835938 12.609375 18.679688 12.929688 C 18.90625 13.015625 19.175781 13.015625 19.414062 13.097656 C 20.835938 13.578125 22.597656 14.097656 23.183594 15.464844 C 22.65625 15.820312 21.933594 15.582031 21.316406 15.363281 C 20.777344 15.175781 19.988281 14.800781 19.449219 15.03125 C 18.910156 15.257812 18.9375 16.179688 19.015625 17.097656 C 19.214844 19.546875 19.332031 22.074219 19.679688 24.269531 C 20.167969 27.328125 21.210938 29.78125 22.683594 31.703125 C 24.105469 33.566406 25.777344 35.511719 27.953125 36.875 C 29.785156 38.023438 31.84375 38.925781 34.453125 39.507812 C 34.839844 39.59375 35.308594 39.78125 35.519531 39.742188 C 35.835938 39.679688 36.515625 38.765625 36.753906 38.542969 C 37.328125 38.007812 38.101562 37.261719 38.921875 37.90625 C 38.8125 38.796875 38.015625 39 37.820312 39.808594 C 38.316406 40.125 38.839844 39.839844 39.457031 39.875 C 40.171875 39.917969 40.722656 40.328125 41.324219 40.242188 C 41.707031 40.1875 41.898438 39.902344 42.191406 39.707031 C 42.855469 40.675781 45.410156 39.417969 45.792969 40.609375 Z M 38.554688 38.140625 C 38.542969 38.035156 38.601562 37.851562 38.488281 37.839844 C 38.394531 37.890625 38.296875 38.195312 38.554688 38.140625 Z M 21.78125 14.664062 C 22.109375 14.859375 22.394531 15.09375 22.683594 15.332031 C 22.855469 14.824219 22.359375 14.5 21.78125 14.53125 C 21.78125 14.574219 21.78125 14.621094 21.78125 14.664062 Z M 30.753906 39.242188 C 30.878906 39.269531 30.972656 39.292969 30.984375 39.140625 C 30.867188 39.132812 30.785156 39.164062 30.753906 39.242188 Z M 26.148438 36.308594 C 26.140625 36.464844 26.457031 36.46875 26.515625 36.441406 C 26.464844 36.335938 26.308594 36.199219 26.148438 36.308594 Z M 25.351562 35.671875 C 25.40625 35.730469 25.546875 35.699219 25.648438 35.707031 C 25.660156 35.585938 25.613281 35.519531 25.582031 35.441406 C 25.40625 35.421875 25.359375 35.527344 25.351562 35.671875 Z M 18.945312 22.035156 C 18.855469 21.957031 18.789062 22.097656 18.746094 22.035156 C 18.855469 21.207031 19.03125 19.933594 18.679688 19.234375 C 18.59375 19.15625 18.457031 19.257812 18.414062 19.199219 C 18.648438 18.644531 18.804688 17.484375 18.714844 16.796875 C 18.683594 16.554688 18.554688 16.125 18.414062 16.03125 C 18.054688 15.792969 17.726562 16.160156 17.480469 16.230469 C 17.324219 16.277344 17.148438 16.246094 16.980469 16.265625 C 16.308594 16.34375 15.59375 16.546875 15.144531 16.765625 C 15.378906 16.921875 15.710938 16.976562 15.8125 17.265625 C 15.230469 17.222656 14.777344 17.054688 14.277344 16.929688 C 14.332031 17.683594 13.410156 17.449219 12.84375 17.5 C 13.039062 17.503906 13.070312 17.597656 13.078125 17.730469 C 13.101562 18.175781 11.644531 18.699219 11.144531 18.367188 C 10.429688 18.941406 11.457031 19.53125 11.410156 20.265625 C 11.269531 20.371094 11.207031 20.550781 11.078125 20.667969 C 10.367188 20.683594 9.621094 20.828125 9.742188 21.566406 C 9.648438 21.511719 9.496094 21.472656 9.375 21.535156 C 9.195312 22 9.5 22.507812 9.910156 22.601562 C 10.011719 22.570312 10.039062 22.460938 10.175781 22.46875 C 11.105469 22.644531 11.429688 23.261719 11.378906 24.433594 C 11.367188 24.636719 11.386719 24.902344 11.242188 25.035156 C 10.71875 25 10.230469 23.699219 11.078125 23.667969 C 10.875 23.367188 10.71875 22.921875 10.34375 22.933594 C 9.910156 22.945312 9.71875 23.628906 9.410156 23.867188 C 9.855469 24.113281 10.898438 24.792969 10.042969 25.234375 C 10.464844 25.296875 10.703125 25.464844 10.875 25.703125 C 11.167969 26.09375 11.160156 26.683594 11.378906 27.003906 C 11.820312 27.648438 12.050781 26.425781 12.578125 26.9375 C 12.703125 26.976562 12.523438 26.816406 12.511719 26.800781 C 12.058594 26.316406 11.375 25.917969 11.109375 25.335938 C 11.3125 25.242188 11.582031 25.34375 11.777344 25.367188 C 11.851562 24.976562 11.582031 24.535156 11.675781 24.234375 C 11.746094 24.019531 11.875 24.113281 12.011719 24.035156 C 12.089844 23.988281 12.027344 23.8125 12.175781 23.867188 C 12.175781 24.324219 11.902344 25.097656 12.210938 25.433594 C 12.664062 25.515625 12.792969 24.738281 13.179688 24.734375 C 13.390625 24.734375 13.59375 25.109375 13.746094 25.300781 C 13.925781 25.53125 14.167969 25.8125 14.113281 26.070312 C 13.992188 26.609375 13.085938 26.195312 12.777344 25.96875 C 12.964844 26.714844 14.125 26.832031 14.179688 27.804688 C 14.183594 27.910156 14.128906 28.050781 14.144531 28.167969 C 14.210938 28.683594 14.6875 29.0625 15.179688 28.738281 C 15.25 28.921875 15.261719 29.167969 15.445312 29.238281 C 15.609375 29.101562 15.550781 28.742188 15.644531 28.535156 C 16.226562 28.660156 16.53125 28.9375 16.710938 29.402344 C 16.800781 29.632812 16.777344 30.058594 17.144531 30.070312 C 17.203125 29.503906 16.757812 29.148438 16.679688 28.601562 C 16.976562 29.085938 18.054688 29.605469 18.011719 30.371094 C 17.984375 30.875 17.386719 30.929688 16.8125 31.003906 C 17.359375 31.191406 17.589844 31.804688 18.179688 32.003906 C 18.339844 32.058594 18.542969 32.011719 18.714844 32.070312 C 19.144531 32.222656 19.839844 33.109375 19.648438 33.671875 C 18.726562 34.136719 18.003906 32.878906 16.980469 32.90625 C 17.410156 33.457031 18.117188 33.640625 18.714844 33.90625 C 19.351562 34.191406 19.992188 34.484375 20.613281 34.773438 C 22.078125 35.453125 23.09375 36.34375 24.050781 37.472656 C 23.386719 37.835938 21.371094 37.234375 22.582031 36.808594 C 22.160156 36.792969 21.714844 36.527344 21.347656 36.671875 C 21.542969 37.945312 23.21875 37.738281 24.484375 37.941406 C 24.367188 38.160156 24.207031 38.332031 24.082031 38.542969 C 24.179688 38.597656 24.316406 38.621094 24.484375 38.609375 C 24.402344 38.738281 24.191406 38.738281 24.183594 38.941406 C 24.34375 39.15625 24.664062 39.214844 24.882812 39.375 C 25.738281 38.761719 25.835938 40.15625 26.382812 40.175781 C 26.902344 40.195312 27 39.449219 27.519531 39.375 C 27.386719 39.644531 27.132812 39.789062 27.015625 40.074219 C 27.523438 39.953125 27.667969 39.679688 28.085938 39.574219 C 29.574219 39.199219 30.792969 40.4375 32.019531 40.574219 C 32.460938 40.625 32.898438 40.871094 33.285156 40.941406 C 33.789062 41.03125 34.097656 40.867188 34.488281 40.675781 C 33.894531 40.121094 32.535156 40.339844 32.054688 39.675781 C 32.070312 39.558594 32.148438 39.503906 32.21875 39.441406 C 30.660156 39.785156 29.675781 38.847656 29.019531 37.972656 C 27.09375 37.476562 25.402344 36.742188 24.582031 35.140625 C 24.542969 34.988281 24.730469 35.066406 24.683594 34.90625 C 24.007812 34.152344 23.328125 33.386719 22.78125 32.503906 C 22.59375 32.199219 22.464844 31.816406 22.25 31.570312 C 22.113281 31.414062 21.882812 31.332031 21.75 31.171875 C 21.601562 30.996094 21.578125 30.777344 21.347656 30.703125 C 21.257812 30.835938 21.320312 31.121094 21.25 31.269531 C 21.085938 30.628906 20.730469 30.015625 20.046875 30.003906 C 20.035156 29.535156 20.414062 29.457031 20.613281 29.203125 C 20.347656 28.886719 20.285156 28.484375 20.148438 28.003906 C 19.8125 26.835938 19.535156 25.613281 19.246094 24.535156 C 18.867188 24.675781 18.765625 25.097656 18.582031 25.433594 C 18.597656 24.953125 18.621094 24.476562 18.878906 24.234375 C 19 24.25 19.011719 24.371094 19.082031 24.433594 C 19.144531 24.207031 19.359375 23.996094 19.246094 23.699219 C 19.160156 23.566406 18.910156 23.628906 18.847656 23.632812 C 19.011719 23.230469 19.148438 22.5 18.945312 22.035156 Z M 32.351562 41.808594 C 32.640625 41.6875 32.902344 41.535156 33.019531 41.242188 C 32.707031 41.320312 32.265625 41.4375 32.351562 41.808594 Z M 32.386719 41.140625 C 32.195312 41.25 31.976562 41.332031 31.851562 41.507812 C 32.128906 41.527344 32.453125 41.25 32.386719 41.140625 Z M 31.351562 41.644531 C 31.542969 41.59375 31.742188 41.398438 31.71875 41.242188 C 31.5 41.265625 31.160156 41.421875 31.351562 41.644531 Z M 31.484375 40.875 C 31.1875 40.78125 30.941406 41.015625 30.917969 41.308594 C 31.1875 41.242188 31.367188 41.089844 31.484375 40.875 Z M 30.550781 40.941406 C 30.257812 40.992188 30.039062 41.117188 29.953125 41.375 C 30.308594 41.519531 30.492188 41.210938 30.550781 40.941406 Z M 30.085938 41.808594 C 30.167969 41.8125 30.246094 41.816406 30.253906 41.742188 C 30.203125 41.691406 30.0625 41.695312 30.085938 41.808594 Z M 30.621094 40.375 C 30.152344 40.339844 29.59375 40.640625 29.886719 41.042969 C 30.195312 40.886719 30.511719 40.734375 30.621094 40.375 Z M 28.316406 41.007812 C 28.609375 41.050781 28.6875 40.71875 28.886719 40.773438 C 29 40.847656 28.929688 41.109375 29.117188 41.109375 C 29.554688 41.019531 29.710938 40.425781 29.453125 40.007812 C 28.863281 40.113281 28.324219 40.4375 28.316406 41.007812 Z M 28.453125 40.140625 C 28.273438 40.230469 28.085938 40.308594 27.984375 40.476562 C 28.203125 40.464844 28.527344 40.226562 28.453125 40.140625 Z M 27.519531 40.308594 C 27.535156 40.398438 27.378906 40.480469 27.484375 40.542969 C 27.511719 40.5 27.6875 40.335938 27.519531 40.308594 Z M 26.917969 41.109375 C 26.90625 41.15625 26.871094 41.171875 26.882812 41.242188 C 26.929688 41.242188 26.972656 41.242188 27.019531 41.242188 C 27.027344 41.15625 27.003906 41.097656 26.917969 41.109375 Z M 26.417969 40.941406 C 26.25 40.953125 26.183594 41.066406 26.183594 41.242188 C 26.328125 41.210938 26.460938 41.164062 26.417969 40.941406 Z M 23.050781 39.242188 C 22.84375 39.234375 22.78125 39.265625 23.015625 39.308594 C 23.238281 39.351562 23.632812 39.371094 23.78125 39.308594 C 23.605469 39.304688 23.152344 39.246094 23.050781 39.242188 Z M 24.050781 38.707031 C 23.875 38.574219 23.523438 38.671875 23.347656 38.742188 C 23.449219 39.019531 23.945312 38.894531 24.050781 38.707031 Z M 22.984375 41.210938 C 23.8125 41.644531 24.960938 42.121094 26.148438 41.976562 C 25.285156 41.550781 24 41.371094 22.984375 41.210938 Z M 21.75 40.84375 C 21.828125 40.953125 22.015625 40.953125 22.148438 41.007812 C 22.394531 40.769531 21.855469 40.636719 21.75 40.84375 Z M 18.613281 38.140625 C 18.386719 38.160156 18.144531 38.160156 18.082031 38.339844 C 18.292969 38.421875 18.605469 38.371094 18.613281 38.140625 Z M 17.980469 39.007812 C 18.058594 39.078125 18.203125 39.164062 18.246094 39.007812 C 18.210938 38.972656 18.007812 38.9375 17.980469 39.007812 Z M 18.378906 36.171875 C 18.410156 36.035156 18.144531 35.980469 18.113281 36.105469 C 18.1875 36.144531 18.25 36.191406 18.378906 36.171875 Z M 18.8125 37.308594 C 18.8125 37.261719 18.828125 37.234375 18.847656 37.207031 C 18.746094 37.105469 18.546875 37.085938 18.378906 37.140625 C 18.40625 37.300781 18.675781 37.367188 18.8125 37.308594 Z M 18.847656 39.441406 C 18.890625 39.488281 19.003906 39.488281 19.046875 39.441406 C 19.0625 39.335938 19.003906 39.304688 18.945312 39.273438 C 18.917969 39.335938 18.867188 39.371094 18.847656 39.441406 Z M 19.882812 35.605469 C 19.773438 35.292969 19.417969 35.375 19.179688 35.273438 C 18.800781 35.109375 18.472656 34.714844 17.980469 34.707031 C 17.957031 34.707031 17.9375 34.707031 17.914062 34.707031 C 18.34375 35.210938 18.910156 35.753906 19.882812 35.605469 Z M 18.148438 34.375 C 17.835938 34.160156 17.496094 33.980469 17.046875 33.90625 C 17.1875 34.265625 17.742188 34.386719 18.148438 34.375 Z M 19.179688 35.941406 C 19.414062 36.183594 19.707031 36.367188 20.214844 36.339844 C 20.019531 36.078125 19.554688 35.910156 19.179688 35.941406 Z M 20.449219 37.441406 C 20.105469 37.203125 19.566406 36.816406 19.113281 36.90625 C 19.375 37.246094 19.898438 37.5 20.449219 37.441406 Z M 19.179688 38.707031 C 19.171875 38.753906 19.125 38.765625 19.113281 38.808594 C 19.195312 38.914062 19.320312 38.730469 19.179688 38.707031 Z M 19.949219 39.707031 C 19.976562 39.835938 20.097656 39.867188 20.214844 39.910156 C 20.257812 39.832031 20.347656 39.796875 20.316406 39.640625 C 20.234375 39.59375 19.941406 39.566406 19.949219 39.707031 Z M 20.582031 38.242188 C 20.476562 38.179688 20.101562 38.105469 20.015625 38.242188 C 20.175781 38.308594 20.492188 38.476562 20.582031 38.242188 Z M 20.679688 37.105469 C 20.714844 36.859375 20.433594 36.859375 20.316406 36.941406 C 20.324219 37.105469 20.546875 37.066406 20.679688 37.105469 Z M 21.046875 35.304688 C 20.898438 35.078125 20.480469 35.121094 20.179688 35.039062 C 19.960938 34.765625 19.441406 34.667969 18.980469 34.738281 C 19.507812 35.089844 20.109375 35.367188 21.046875 35.304688 Z M 20.980469 38.507812 C 21.125 38.632812 21.347656 38.671875 21.546875 38.742188 C 21.558594 38.664062 21.601562 38.617188 21.582031 38.507812 C 21.484375 38.394531 21.0625 38.339844 20.980469 38.507812 Z M 18.148438 33.105469 C 18.179688 32.949219 18.089844 32.917969 17.945312 32.9375 C 17.894531 33.113281 18.0625 33.066406 18.148438 33.105469 Z M 18.945312 33.503906 C 18.851562 33.480469 18.882812 33.324219 18.746094 33.339844 C 18.625 33.453125 18.84375 33.625 18.945312 33.503906 Z M 16.644531 33.738281 C 16.535156 33.496094 16.285156 33.386719 16.113281 33.207031 C 16.4375 32.734375 15.710938 32.542969 15.578125 32.207031 C 15.578125 32.105469 15.648438 32.074219 15.679688 32.003906 C 15.398438 31.839844 15.074219 31.71875 14.910156 31.4375 C 15.039062 31.34375 15.386719 31.464844 15.511719 31.371094 C 15.308594 31.285156 15.09375 31.214844 15.011719 31.003906 C 15.128906 30.730469 15.605469 30.820312 15.710938 30.539062 C 15.136719 30.410156 14.566406 30.105469 13.945312 30.136719 C 13.953125 30.375 14.164062 30.40625 14.246094 30.570312 C 14.058594 30.488281 13.910156 30.371094 13.644531 30.371094 C 13.625 30.535156 13.730469 30.574219 13.710938 30.738281 C 13.53125 30.753906 13.4375 30.679688 13.246094 30.703125 C 13.382812 31.011719 13.734375 31.105469 13.84375 31.4375 C 13.707031 31.472656 13.523438 31.382812 13.476562 31.4375 C 13.828125 31.730469 14.34375 32.039062 14.546875 32.371094 C 14.21875 32.3125 14.03125 32.109375 13.710938 32.039062 C 13.976562 32.566406 14.628906 32.675781 15.113281 32.9375 C 15.609375 33.207031 16.054688 33.640625 16.644531 33.738281 Z M 15.914062 34.140625 C 16.050781 34.214844 16.328125 34.457031 16.511719 34.273438 C 16.359375 34.203125 16.113281 34.050781 15.914062 34.140625 Z M 15.644531 33.972656 C 15.550781 33.820312 15.074219 33.738281 14.945312 33.839844 C 15.164062 33.902344 15.367188 34.070312 15.644531 33.972656 Z M 15.046875 34.074219 C 15.035156 34.117188 15 34.136719 15.011719 34.207031 C 15.070312 34.1875 15.207031 34.246094 15.210938 34.171875 C 15.160156 34.136719 15.144531 34.066406 15.046875 34.074219 Z M 14.613281 29.636719 C 14.519531 29.324219 14.398438 28.980469 14.144531 28.738281 C 14.007812 28.605469 13.875 28.609375 13.777344 28.4375 C 13.519531 27.984375 13.644531 27.34375 13.3125 26.871094 C 13.234375 26.84375 13.082031 26.804688 13.011719 26.871094 C 13.015625 27.089844 13.523438 27.605469 13.179688 27.871094 C 12.410156 27.902344 12.117188 27.289062 11.378906 27.402344 C 11.210938 27.832031 11.800781 28.054688 11.644531 28.371094 C 12.703125 28.710938 13.546875 29.449219 14.613281 29.636719 Z M 12.210938 30.636719 C 12.40625 30.785156 12.691406 31.027344 12.945312 31.003906 C 12.742188 30.863281 12.558594 30.523438 12.210938 30.636719 Z M 11.84375 30.335938 C 11.757812 30.070312 11.609375 29.863281 11.277344 29.835938 C 11.34375 30.125 11.65625 30.167969 11.84375 30.335938 Z M 11.277344 31.203125 C 11.457031 31.328125 11.632812 31.625 11.8125 31.636719 C 11.679688 31.46875 11.523438 31.148438 11.277344 31.203125 Z M 11.511719 28.902344 C 11.527344 28.855469 11.558594 28.820312 11.578125 28.769531 C 11.492188 28.652344 11.28125 28.714844 11.242188 28.835938 C 11.308594 28.882812 11.433594 28.867188 11.511719 28.902344 Z M 16.679688 30.238281 C 16.675781 29.949219 16.355469 29.785156 16.113281 29.9375 C 16.191406 30.148438 16.421875 30.207031 16.679688 30.238281 Z M 13.542969 25.871094 C 13.550781 25.8125 13.339844 25.8125 13.34375 25.871094 C 13.390625 25.878906 13.546875 26.019531 13.542969 25.871094 Z M 12.246094 25.734375 C 12.199219 25.734375 12.15625 25.734375 12.109375 25.734375 C 12.066406 25.777344 12.078125 25.878906 12.078125 25.96875 C 12.136719 25.976562 12.265625 26.089844 12.3125 26.003906 C 12.226562 25.972656 12.320312 25.769531 12.246094 25.734375 Z M 9.742188 25.703125 C 9.851562 25.953125 10.300781 25.933594 10.375 25.667969 C 10.1875 25.59375 9.90625 25.648438 9.742188 25.703125 Z M 9.84375 24.769531 C 9.714844 24.761719 9.597656 24.765625 9.507812 24.800781 C 9.535156 24.949219 9.84375 24.921875 9.84375 24.769531 Z M 10.144531 19.398438 C 9.972656 19.480469 9.613281 19.320312 9.441406 19.398438 C 9.59375 20 10.71875 19.675781 10.644531 19.199219 C 10.578125 18.792969 9.507812 18.894531 9.144531 18.933594 C 9.425781 19.136719 9.878906 19.175781 10.144531 19.398438 Z M 8.808594 20.03125 C 8.871094 20.125 9.042969 20.109375 9.144531 20.167969 C 9.164062 20.097656 9.226562 20.070312 9.210938 19.964844 C 9.121094 19.921875 8.808594 19.882812 8.808594 20.03125 Z M 10.511719 19.898438 C 10.492188 19.972656 10.429688 20.117188 10.542969 20.132812 C 10.621094 20.078125 10.605469 19.949219 10.511719 19.898438 Z M 11.445312 17.898438 C 11.433594 17.800781 11.519531 17.796875 11.511719 17.699219 C 11.375 17.683594 11.277344 17.710938 11.277344 17.832031 C 11.339844 17.847656 11.359375 17.902344 11.445312 17.898438 Z M 11.410156 10.496094 C 11.277344 11.308594 12.011719 12.292969 12.878906 11.996094 C 12.917969 11.6875 12.777344 11.5625 12.777344 11.296875 C 13 11.242188 13.128906 11.453125 13.246094 11.394531 C 12.921875 10.808594 12.058594 10.761719 11.410156 10.496094 Z M 11.042969 9.726562 C 11.335938 9.785156 11.796875 9.757812 11.910156 9.527344 C 11.6875 9.378906 11.023438 9.339844 11.042969 9.726562 Z M 10.242188 7.394531 C 10.308594 6.746094 9.515625 6.386719 9.042969 6.828125 C 8.746094 7.101562 8.617188 7.761719 9.074219 7.996094 C 9.023438 7.824219 8.871094 7.753906 8.910156 7.496094 C 9.257812 7.296875 9.894531 7.589844 10.242188 7.394531 Z M 10.011719 9.527344 C 10.09375 9.480469 10.222656 9.472656 10.210938 9.328125 C 10.109375 9.339844 9.933594 9.449219 10.011719 9.527344 Z M 9.308594 11.996094 C 9.726562 12.003906 10.039062 11.769531 10.445312 11.761719 C 10.792969 11.753906 11.128906 11.859375 11.542969 11.828125 C 11.246094 10.957031 9.800781 11.71875 9.308594 11.996094 Z M 8.675781 13.53125 C 9.460938 13.429688 10.558594 12.914062 11.609375 13.03125 C 12.007812 13.074219 12.355469 13.296875 12.578125 13.464844 C 12.464844 13.34375 12.328125 12.84375 12.578125 12.761719 C 13.125 12.867188 13.144531 13.902344 13.8125 13.761719 C 14.152344 13.695312 14.253906 13.03125 14.078125 12.628906 C 14.332031 12.808594 14.464844 13.109375 14.8125 13.195312 C 14.734375 12.875 14.5 12.707031 14.34375 12.464844 C 14.445312 12.339844 14.574219 12.246094 14.546875 11.996094 C 13.589844 11.902344 12.742188 12.417969 11.84375 12.597656 C 11.144531 12.734375 10.625 12.871094 10.011719 13.03125 C 9.546875 13.148438 9.03125 13.234375 8.675781 13.53125 Z M 5.875 20.433594 C 5.828125 20.476562 5.816406 20.632812 5.90625 20.632812 C 5.933594 20.609375 5.996094 20.402344 5.875 20.433594 Z M 7.042969 16.464844 C 5.578125 16.695312 7.136719 18.253906 8.007812 17.867188 C 8.121094 17.695312 8.085938 17.539062 8.074219 17.296875 C 8.582031 17.347656 8.964844 17.101562 9.410156 17.199219 C 9.480469 17.351562 9.347656 17.484375 9.308594 17.632812 C 10.824219 17.535156 11.570312 16.347656 13.210938 16.164062 C 13.414062 16.140625 13.648438 16.179688 13.878906 16.164062 C 14.570312 16.125 15.332031 15.996094 16.046875 15.863281 C 16.746094 15.734375 17.382812 15.476562 17.980469 15.332031 C 18.726562 15.144531 19.863281 14.65625 19.714844 13.664062 C 19.695312 13.550781 19.617188 13.449219 19.546875 13.328125 C 15.574219 12.945312 12.601562 14.503906 9.476562 15.132812 C 9.101562 15.207031 8.644531 15.15625 8.34375 15.464844 C 8.453125 15.734375 8.835938 15.726562 9.007812 15.929688 C 8.921875 16.03125 8.707031 16.007812 8.675781 16.164062 C 8.75 16.445312 9.167969 16.382812 9.210938 16.699219 C 8.546875 17.167969 7.152344 16.570312 7.476562 15.632812 C 6.472656 15.851562 5.011719 16.070312 5.007812 17.199219 C 5.003906 17.695312 5.300781 18.15625 5.640625 18.433594 C 5.410156 17.382812 5.800781 15.828125 7.042969 16.464844 Z M 8.277344 22.699219 C 8.304688 22.476562 7.933594 22.316406 7.808594 22.46875 C 7.933594 22.578125 8.125 22.617188 8.277344 22.699219 Z M 7.109375 23.132812 C 7.34375 23.953125 7.421875 24.933594 8.042969 25.367188 C 7.949219 24.40625 7.605469 23.691406 7.109375 23.132812 Z M 8.507812 22.265625 C 8.613281 21.796875 7.921875 21.613281 7.875 21.933594 C 7.835938 22.214844 8.277344 22.179688 8.507812 22.265625 Z M 8.640625 21.367188 C 8.492188 21.203125 8.113281 21.101562 7.84375 21.167969 C 7.9375 21.402344 8.527344 21.753906 8.640625 21.367188 Z M 8.242188 19.898438 C 8.394531 19.804688 8.554688 19.722656 8.574219 19.5 C 8.382812 19.355469 7.917969 19.335938 7.875 19.566406 C 7.84375 19.742188 8.078125 19.8125 8.242188 19.898438 Z M 8.675781 20.464844 C 8.691406 20.351562 8.664062 20.28125 8.640625 20.199219 C 8.472656 20.195312 8.390625 20.28125 8.375 20.433594 C 8.457031 20.460938 8.554688 20.476562 8.675781 20.464844 Z M 6.339844 20.300781 C 6.316406 20.214844 6.308594 20.109375 6.242188 20.066406 C 6.160156 20.15625 6.15625 20.316406 6.339844 20.300781 Z M 6.675781 18.03125 C 6.527344 17.972656 6.304688 18.035156 6.242188 18.164062 C 6.3125 18.230469 6.414062 18.261719 6.507812 18.296875 C 6.542969 18.1875 6.691406 18.195312 6.675781 18.03125 Z M 7.042969 22.335938 C 6.957031 22.140625 6.945312 21.875 6.773438 21.765625 C 6.320312 21.832031 6.769531 22.488281 7.042969 22.335938 Z M 7.675781 25.933594 C 8 26.722656 8.34375 27.574219 9.042969 27.9375 C 8.519531 27.355469 8.398438 26.394531 8.042969 25.703125 C 7.917969 25.464844 7.722656 25.277344 7.609375 25.035156 C 7.339844 24.464844 7.214844 23.800781 6.675781 23.535156 C 6.886719 24.375 7.34375 25.132812 7.675781 25.933594 Z M 16.847656 38.441406 C 16.644531 37.753906 16.101562 37.40625 15.34375 37.273438 C 15.160156 36.828125 14.617188 36.734375 14.511719 36.207031 C 14.496094 36.097656 14.71875 36.058594 14.644531 36.007812 C 13.628906 36.199219 13.59375 35.125 13.113281 34.671875 C 11.890625 34.695312 12.117188 33.1875 11.445312 32.40625 C 11.25 32.183594 11.058594 32.128906 10.84375 31.90625 C 10.511719 30.871094 9.640625 30.347656 9.144531 29.4375 C 8.699219 28.628906 8.609375 27.714844 7.875 27.136719 C 8.453125 29.097656 9.695312 30.753906 10.808594 32.40625 C 11.703125 33.726562 12.308594 34.984375 13.3125 36.039062 C 13.652344 36.398438 14.035156 36.636719 14.445312 36.972656 C 15.140625 37.542969 15.621094 38.601562 16.847656 38.441406 Z M 16.710938 36.171875 C 16.675781 36.03125 16.417969 35.933594 16.28125 36.007812 C 16.410156 36.078125 16.550781 36.136719 16.710938 36.171875 Z M 17.945312 35.304688 C 17.722656 35.042969 17.246094 34.941406 16.8125 34.773438 C 16.273438 34.5625 15.503906 34.363281 15.113281 34.605469 C 15.152344 34.933594 15.414062 35.039062 15.578125 35.238281 C 16.042969 35.3125 16.308594 35.539062 16.746094 35.574219 C 17.261719 35.617188 17.746094 35.59375 17.945312 35.304688 Z M 33.855469 42.910156 C 32.84375 42.449219 31.363281 42.96875 30.285156 42.710938 C 30.082031 42.660156 29.902344 42.519531 29.71875 42.507812 C 29.535156 42.5 29.324219 42.59375 29.152344 42.609375 C 28.226562 42.691406 27.382812 42.601562 26.515625 42.476562 C 25.910156 42.390625 25.261719 42.355469 24.714844 42.210938 C 24.195312 42.070312 23.652344 41.75 23.117188 41.542969 C 22.570312 41.332031 22.003906 41.121094 21.480469 40.910156 C 20.453125 40.488281 19.359375 39.765625 18.28125 39.476562 C 19.007812 40.25 20.261719 40.496094 21.113281 41.140625 C 19.90625 40.804688 18.996094 40.171875 17.914062 39.707031 C 18.757812 40.464844 19.933594 40.921875 21.113281 41.410156 C 22.289062 41.894531 23.566406 42.304688 24.949219 42.507812 C 27.695312 42.914062 30.914062 43.515625 33.855469 42.910156 Z M 34.722656 42.808594 C 34.550781 42.816406 34.335938 42.78125 34.320312 42.945312 C 34.464844 43.066406 34.710938 43.054688 34.722656 42.808594 Z M 36.523438 38.875 C 36.570312 39.121094 36.925781 39.046875 36.890625 38.773438 C 36.707031 38.75 36.628906 38.824219 36.523438 38.875 Z M 39.289062 40.609375 C 38.394531 40.585938 37.289062 40.277344 36.355469 40.308594 C 35.996094 40.320312 35.5625 40.40625 35.453125 40.773438 C 35.730469 40.886719 36.023438 40.820312 36.355469 40.808594 C 37.4375 40.773438 38.757812 41.257812 39.289062 40.609375 Z M 40.191406 40.542969 C 40.035156 40.542969 39.988281 40.652344 39.957031 40.773438 C 40 40.820312 40.101562 40.808594 40.191406 40.808594 C 40.175781 40.660156 40.234375 40.644531 40.191406 40.542969 Z M 42.15625 40.410156 C 41.996094 40.382812 41.933594 40.585938 41.992188 40.675781 C 42.097656 40.691406 42.121094 40.628906 42.191406 40.609375 C 42.214844 40.507812 42.132812 40.511719 42.15625 40.410156 Z M 44.925781 40.609375 C 44.242188 40.535156 43.445312 40.582031 42.824219 40.675781 C 43.191406 41.019531 44.503906 40.800781 44.925781 40.609375 Z M 12.84375 20.332031 C 13.171875 20.515625 13.476562 20.902344 13.910156 20.867188 C 13.792969 20.707031 13.628906 20.59375 13.511719 20.433594 C 13.636719 20.421875 13.742188 20.394531 13.777344 20.300781 C 13.371094 20.015625 12.851562 19.667969 12.644531 19.300781 C 12.78125 19.566406 12.992188 19.988281 12.84375 20.332031 Z M 17.113281 20.601562 C 17.042969 20.527344 17.074219 20.351562 16.980469 20.300781 C 16.957031 20.445312 17.050781 20.648438 17.113281 20.601562 Z M 14.046875 23.5 C 14.097656 24.050781 14.445312 24.300781 14.476562 24.867188 C 14.089844 24.425781 13.871094 23.808594 13.613281 23.234375 C 13.585938 23.929688 13.796875 24.359375 13.976562 24.835938 C 14.117188 25.203125 14.25 25.628906 14.613281 25.734375 C 14.78125 25.703125 14.769531 25.496094 14.945312 25.46875 C 15.132812 25.496094 15.226562 25.785156 15.34375 25.769531 C 15.257812 25.667969 15.230469 25.507812 15.210938 25.335938 C 15.246094 25.210938 15.421875 25.234375 15.480469 25.136719 C 15.144531 24.449219 14.664062 23.90625 14.046875 23.5 Z M 14.046875 23.5 "/>
</g>
</svg>
