<?xml version="1.0" encoding="UTF-8"?>
<svg xmlns="http://www.w3.org/2000/svg" xmlns:xlink="http://www.w3.org/1999/xlink" width="30px" height="30px" viewBox="0 0 30 30" version="1.1">
<g id="surface1">
<path style=" stroke:none;fill-rule:nonzero;fill:rgb(100%,100%,100%);fill-opacity:1;" d="M 15 0.351562 C 6.71875 0.351562 0 7.066406 0 15.351562 C 0 21.980469 4.296875 27.601562 10.257812 29.585938 C 11.007812 29.722656 11.28125 29.261719 11.28125 28.863281 C 11.28125 28.507812 11.269531 27.324219 11.261719 26.070312 C 7.089844 26.976562 6.207031 24.300781 6.207031 24.300781 C 5.527344 22.566406 4.542969 22.105469 4.542969 22.105469 C 3.183594 21.175781 4.644531 21.195312 4.644531 21.195312 C 6.152344 21.300781 6.945312 22.738281 6.945312 22.738281 C 8.285156 25.035156 10.453125 24.371094 11.308594 23.988281 C 11.445312 23.019531 11.832031 22.355469 12.261719 21.980469 C 8.929688 21.601562 5.429688 20.316406 5.429688 14.566406 C 5.429688 12.929688 6.015625 11.59375 6.972656 10.542969 C 6.820312 10.164062 6.304688 8.636719 7.121094 6.574219 C 7.121094 6.574219 8.378906 6.167969 11.246094 8.109375 C 12.441406 7.777344 13.726562 7.609375 15 7.605469 C 16.273438 7.609375 17.558594 7.777344 18.757812 8.109375 C 21.621094 6.167969 22.878906 6.574219 22.878906 6.574219 C 23.695312 8.636719 23.179688 10.164062 23.027344 10.542969 C 23.988281 11.59375 24.570312 12.929688 24.570312 14.566406 C 24.570312 20.328125 21.058594 21.597656 17.71875 21.96875 C 18.257812 22.433594 18.738281 23.347656 18.738281 24.746094 C 18.738281 26.753906 18.71875 28.371094 18.71875 28.863281 C 18.71875 29.261719 18.992188 29.730469 19.75 29.582031 C 25.707031 27.597656 30 21.976562 30 15.351562 C 30 7.066406 23.285156 0.351562 15 0.351562 Z M 5.617188 21.71875 C 5.585938 21.792969 5.46875 21.816406 5.359375 21.765625 C 5.253906 21.714844 5.191406 21.613281 5.226562 21.539062 C 5.257812 21.464844 5.375 21.441406 5.484375 21.492188 C 5.59375 21.542969 5.65625 21.644531 5.617188 21.71875 Z M 6.355469 22.378906 C 6.285156 22.445312 6.144531 22.414062 6.050781 22.308594 C 5.953125 22.203125 5.933594 22.0625 6.003906 21.996094 C 6.078125 21.929688 6.214844 21.960938 6.3125 22.066406 C 6.410156 22.171875 6.429688 22.3125 6.355469 22.378906 Z M 6.863281 23.21875 C 6.769531 23.285156 6.621094 23.222656 6.527344 23.089844 C 6.433594 22.957031 6.433594 22.796875 6.527344 22.734375 C 6.621094 22.667969 6.769531 22.726562 6.863281 22.859375 C 6.957031 22.996094 6.957031 23.15625 6.863281 23.21875 Z M 7.71875 24.195312 C 7.636719 24.285156 7.460938 24.261719 7.332031 24.136719 C 7.203125 24.015625 7.164062 23.847656 7.246094 23.753906 C 7.332031 23.664062 7.507812 23.691406 7.636719 23.8125 C 7.765625 23.933594 7.804688 24.105469 7.71875 24.195312 Z M 8.824219 24.523438 C 8.789062 24.644531 8.621094 24.695312 8.449219 24.644531 C 8.28125 24.59375 8.167969 24.457031 8.203125 24.339844 C 8.238281 24.21875 8.40625 24.164062 8.578125 24.21875 C 8.75 24.269531 8.859375 24.40625 8.824219 24.523438 Z M 10.082031 24.664062 C 10.085938 24.789062 9.945312 24.890625 9.765625 24.894531 C 9.585938 24.898438 9.441406 24.796875 9.4375 24.675781 C 9.4375 24.550781 9.578125 24.449219 9.757812 24.445312 C 9.9375 24.441406 10.082031 24.542969 10.082031 24.664062 Z M 11.320312 24.617188 C 11.34375 24.738281 11.21875 24.863281 11.039062 24.894531 C 10.867188 24.925781 10.707031 24.851562 10.683594 24.734375 C 10.660156 24.609375 10.789062 24.484375 10.960938 24.453125 C 11.140625 24.421875 11.296875 24.496094 11.320312 24.617188 Z M 11.320312 24.617188 "/>
</g>
</svg>
