<?xml version="1.0" encoding="UTF-8"?>
<svg xmlns="http://www.w3.org/2000/svg" xmlns:xlink="http://www.w3.org/1999/xlink" width="50px" height="50px" viewBox="0 0 50 50" version="1.1">
<g id="surface1">
<path style=" stroke:none;fill-rule:nonzero;fill:rgb(91.764706%,27.058824%,20.784314%);fill-opacity:1;" d="M 31.484375 15.742188 L 31.640625 15.742188 L 31.5625 15.664062 L 37.03125 10.195312 L 37.03125 10.078125 C 32.421875 6.015625 26.054688 4.609375 20.15625 6.367188 C 14.257812 8.125 9.726562 12.8125 8.085938 18.75 C 8.164062 18.710938 8.28125 18.671875 8.398438 18.671875 C 10.429688 17.34375 12.851562 16.5625 15.390625 16.5625 C 16.25 16.5625 17.070312 16.640625 17.890625 16.796875 C 17.929688 16.757812 17.96875 16.757812 18.007812 16.757812 C 21.523438 12.890625 27.460938 12.421875 31.523438 15.742188 Z M 31.484375 15.742188 "/>
<path style=" stroke:none;fill-rule:nonzero;fill:rgb(33.333333%,49.411765%,74.901961%);fill-opacity:1;" d="M 42.226562 18.671875 C 41.328125 15.351562 39.453125 12.34375 36.835938 10.039062 L 31.25 15.585938 C 33.59375 17.5 34.960938 20.390625 34.882812 23.398438 L 34.882812 24.375 C 41.484375 24.375 41.484375 34.21875 34.882812 34.21875 L 24.960938 34.21875 L 24.960938 42.03125 L 24.921875 42.03125 L 24.960938 42.109375 L 34.882812 42.109375 C 40.585938 42.148438 45.625 38.476562 47.304688 33.085938 C 48.984375 27.695312 46.914062 21.835938 42.226562 18.671875 Z M 42.226562 18.671875 "/>
<path style=" stroke:none;fill-rule:nonzero;fill:rgb(21.176471%,65.882353%,32.156863%);fill-opacity:1;" d="M 15.234375 42.148438 L 25.507812 42.148438 L 25.507812 34.257812 L 15.234375 34.257812 C 14.492188 34.257812 13.789062 34.101562 13.125 33.828125 L 7.1875 39.53125 L 7.1875 39.609375 C 9.53125 41.289062 12.34375 42.1875 15.273438 42.1875 Z M 15.234375 42.148438 "/>
<path style=" stroke:none;fill-rule:nonzero;fill:rgb(97.647059%,73.72549%,8.235294%);fill-opacity:1;" d="M 15.703125 16.367188 C 9.882812 16.40625 4.726562 20 2.851562 25.273438 C 0.976562 30.585938 2.851562 36.40625 7.460938 39.84375 L 13.554688 34.023438 C 10.195312 32.578125 9.414062 28.359375 11.992188 25.898438 C 14.570312 23.398438 18.945312 24.179688 20.46875 27.382812 L 26.5625 21.5625 C 23.984375 18.320312 19.960938 16.40625 15.703125 16.445312 Z M 15.703125 16.367188 "/>
</g>
</svg>
