<?xml version="1.0" encoding="UTF-8"?>
<svg xmlns="http://www.w3.org/2000/svg" xmlns:xlink="http://www.w3.org/1999/xlink" width="50px" height="50px" viewBox="0 0 50 50" version="1.1">
<g id="surface1">
<path style=" stroke:none;fill-rule:nonzero;fill:rgb(40.392157%,38.431373%,65.098039%);fill-opacity:1;" d="M 39.882812 0.78125 L 10.117188 0.78125 C 7.539062 0.78125 5.46875 2.851562 5.46875 5.429688 L 5.46875 44.609375 C 5.46875 47.1875 7.539062 49.257812 10.117188 49.257812 L 39.921875 49.257812 C 42.5 49.257812 44.570312 47.1875 44.570312 44.609375 L 44.570312 5.429688 C 44.53125 2.851562 42.460938 0.78125 39.882812 0.78125 Z M 14.453125 42.460938 L 14.453125 31.445312 L 19.960938 36.953125 Z M 35.15625 42.578125 L 30.039062 42.578125 L 30.078125 42.5 L 30.078125 23.203125 C 30.078125 23.203125 31.289062 18.59375 14.570312 25.078125 C 14.53125 25.15625 14.492188 7.226562 14.492188 7.226562 L 19.921875 7.1875 L 19.921875 18.671875 C 19.921875 18.671875 35.15625 12.65625 35.15625 23.242188 Z M 33.125 14.0625 L 27.34375 14.0625 C 29.414062 11.71875 31.328125 7.421875 31.328125 7.421875 L 37.304688 7.421875 C 37.304688 7.421875 36.289062 10.15625 33.125 14.0625 Z M 33.125 14.0625 "/>
</g>
</svg>
