<?xml version="1.0" encoding="UTF-8"?>
<svg xmlns="http://www.w3.org/2000/svg" xmlns:xlink="http://www.w3.org/1999/xlink" width="50px" height="50px" viewBox="0 0 50 50" version="1.1">
<defs>
<linearGradient id="linear0" gradientUnits="userSpaceOnUse" x1="0.98031" y1="0.00161" x2="0.58888" y2="0.40766" gradientTransform="matrix(23.363281,0,0,23.226563,13.320312,16.066406)">
<stop offset="0.18" style="stop-color:rgb(0%,32.156863%,80%);stop-opacity:1;"/>
<stop offset="1" style="stop-color:rgb(14.901961%,51.764706%,100%);stop-opacity:1;"/>
</linearGradient>
<linearGradient id="linear1" gradientUnits="userSpaceOnUse" x1="1.00665" y1="0.00455" x2="0.55402" y2="0.44727" gradientTransform="matrix(23.363281,0,0,23.226563,2.679687,26.773437)">
<stop offset="0.18" style="stop-color:rgb(0%,32.156863%,80%);stop-opacity:1;"/>
<stop offset="1" style="stop-color:rgb(14.901961%,51.764706%,100%);stop-opacity:1;"/>
</linearGradient>
</defs>
<g id="surface1">
<path style=" stroke:none;fill-rule:nonzero;fill:rgb(14.901961%,51.764706%,100%);fill-opacity:1;" d="M 45.457031 5.355469 L 23.957031 5.355469 C 23.957031 10.714844 28.304688 15.0625 33.664062 15.0625 L 37.625 15.0625 L 37.625 18.882812 C 37.628906 24.238281 41.96875 28.578125 47.320312 28.582031 L 47.320312 7.222656 C 47.320312 6.191406 46.488281 5.355469 45.457031 5.355469 Z M 45.457031 5.355469 "/>
<path style=" stroke:none;fill-rule:nonzero;fill:url(#linear0);" d="M 34.820312 16.066406 L 13.320312 16.066406 C 13.324219 21.421875 17.664062 25.761719 23.019531 25.765625 L 26.980469 25.765625 L 26.980469 29.601562 C 26.988281 34.957031 31.328125 39.292969 36.683594 39.292969 L 36.683594 17.933594 C 36.683594 16.902344 35.851562 16.066406 34.820312 16.066406 Z M 34.820312 16.066406 "/>
<path style=" stroke:none;fill-rule:nonzero;fill:url(#linear1);" d="M 24.175781 26.773438 L 2.679688 26.773438 C 2.679688 32.132812 7.023438 36.476562 12.382812 36.476562 L 16.355469 36.476562 L 16.355469 40.300781 C 16.359375 45.652344 20.691406 49.988281 26.042969 50 L 26.042969 28.640625 C 26.042969 27.609375 25.207031 26.773438 24.175781 26.773438 Z M 24.175781 26.773438 "/>
</g>
</svg>
