<?xml version="1.0" encoding="UTF-8"?>
<svg xmlns="http://www.w3.org/2000/svg" xmlns:xlink="http://www.w3.org/1999/xlink" width="50px" height="50px" viewBox="0 0 50 50" version="1.1">
<g id="surface1">
<path style=" stroke:none;fill-rule:nonzero;fill:rgb(100%,100%,100%);fill-opacity:1;" d="M 12.5 0 L 37.5 0 C 44.402344 0 50 5.597656 50 12.5 L 50 37.5 C 50 44.402344 44.402344 50 37.5 50 L 12.5 50 C 5.597656 50 0 44.402344 0 37.5 L 0 12.5 C 0 5.597656 5.597656 0 12.5 0 Z M 12.5 0 "/>
<path style=" stroke:none;fill-rule:nonzero;fill:rgb(30.588235%,30.588235%,30.588235%);fill-opacity:1;" d="M 5.636719 25.890625 L 5.636719 21.339844 L 6.628906 21.339844 L 6.628906 26.238281 C 6.675781 26.632812 6.640625 27.03125 6.527344 27.414062 C 6.417969 27.792969 6.230469 28.148438 5.976562 28.457031 C 5.507812 28.859375 4.910156 29.078125 4.289062 29.070312 L 4.1875 28.332031 C 4.585938 28.332031 4.96875 28.183594 5.265625 27.917969 C 5.53125 27.605469 5.636719 27.183594 5.636719 25.890625 Z M 13.027344 25.308594 C 13.027344 25.863281 13.027344 26.355469 13.074219 26.785156 L 12.191406 26.785156 L 12.132812 25.90625 C 11.949219 26.21875 11.6875 26.472656 11.371094 26.652344 C 11.054688 26.828125 10.699219 26.917969 10.335938 26.910156 C 9.476562 26.910156 8.457031 26.445312 8.457031 24.546875 L 8.457031 21.386719 L 9.449219 21.386719 L 9.449219 24.34375 C 9.449219 25.375 9.765625 26.0625 10.660156 26.0625 C 10.84375 26.0625 11.027344 26.027344 11.199219 25.957031 C 11.371094 25.890625 11.523438 25.785156 11.65625 25.65625 C 11.785156 25.527344 11.886719 25.371094 11.957031 25.199219 C 12.027344 25.03125 12.0625 24.847656 12.058594 24.664062 L 12.058594 21.351562 L 13.050781 21.351562 L 13.050781 25.277344 Z M 14.90625 23.144531 C 14.90625 22.457031 14.90625 21.894531 14.863281 21.386719 L 15.75 21.386719 L 15.792969 22.308594 C 15.992188 21.976562 16.277344 21.703125 16.617188 21.515625 C 16.960938 21.332031 17.34375 21.242188 17.734375 21.261719 C 19.050781 21.261719 20.039062 22.363281 20.039062 24.003906 C 20.039062 25.941406 18.847656 26.902344 17.5625 26.902344 C 17.234375 26.917969 16.90625 26.847656 16.609375 26.699219 C 16.316406 26.550781 16.066406 26.328125 15.882812 26.054688 L 15.882812 29.011719 L 14.90625 29.011719 Z M 15.882812 24.589844 C 15.886719 24.722656 15.902344 24.855469 15.929688 24.988281 C 16.011719 25.316406 16.203125 25.609375 16.46875 25.816406 C 16.738281 26.023438 17.066406 26.136719 17.40625 26.132812 C 18.449219 26.132812 19.0625 25.285156 19.0625 24.046875 C 19.0625 22.96875 18.488281 22.042969 17.445312 22.042969 C 17.03125 22.078125 16.644531 22.261719 16.359375 22.558594 C 16.070312 22.859375 15.902344 23.25 15.882812 23.664062 Z M 21.804688 21.382812 L 22.996094 24.570312 C 23.121094 24.925781 23.257812 25.351562 23.34375 25.671875 C 23.449219 25.34375 23.558594 24.929688 23.691406 24.546875 L 24.773438 21.382812 L 25.816406 21.382812 L 24.335938 25.226562 C 23.597656 27.078125 23.144531 28.03125 22.464844 28.609375 C 22.121094 28.921875 21.703125 29.140625 21.25 29.242188 L 21.007812 28.414062 C 21.324219 28.3125 21.617188 28.148438 21.871094 27.933594 C 22.234375 27.640625 22.519531 27.265625 22.707031 26.839844 C 22.75 26.765625 22.777344 26.6875 22.789062 26.601562 C 22.78125 26.515625 22.757812 26.425781 22.722656 26.34375 L 20.710938 21.367188 L 21.792969 21.367188 Z M 28.445312 19.828125 L 28.445312 21.382812 L 29.867188 21.382812 L 29.867188 22.121094 L 28.445312 22.121094 L 28.445312 25.035156 C 28.445312 25.703125 28.636719 26.085938 29.1875 26.085938 C 29.378906 26.089844 29.574219 26.066406 29.761719 26.019531 L 29.808594 26.761719 C 29.523438 26.859375 29.226562 26.902344 28.925781 26.894531 C 28.730469 26.90625 28.53125 26.875 28.34375 26.804688 C 28.160156 26.730469 27.992188 26.621094 27.855469 26.480469 C 27.554688 26.074219 27.414062 25.574219 27.46875 25.074219 L 27.46875 22.113281 L 26.625 22.113281 L 26.625 21.375 L 27.484375 21.375 L 27.484375 20.058594 Z M 31.691406 24.257812 C 31.671875 24.507812 31.707031 24.757812 31.792969 24.996094 C 31.878906 25.230469 32.019531 25.445312 32.195312 25.625 C 32.375 25.800781 32.589844 25.941406 32.824219 26.027344 C 33.0625 26.113281 33.3125 26.148438 33.5625 26.128906 C 34.070312 26.140625 34.574219 26.042969 35.042969 25.847656 L 35.214844 26.585938 C 34.640625 26.824219 34.023438 26.9375 33.402344 26.917969 C 33.039062 26.945312 32.675781 26.890625 32.335938 26.761719 C 31.996094 26.632812 31.691406 26.433594 31.4375 26.175781 C 31.183594 25.914062 30.988281 25.605469 30.863281 25.265625 C 30.742188 24.921875 30.691406 24.558594 30.722656 24.199219 C 30.722656 22.570312 31.691406 21.28125 33.273438 21.28125 C 35.050781 21.28125 35.492188 22.835938 35.492188 23.828125 C 35.503906 23.980469 35.503906 24.132812 35.492188 24.285156 L 31.671875 24.285156 Z M 34.589844 23.515625 C 34.621094 23.320312 34.605469 23.117188 34.550781 22.925781 C 34.496094 22.734375 34.398438 22.554688 34.265625 22.40625 C 34.136719 22.253906 33.976562 22.132812 33.792969 22.046875 C 33.613281 21.964844 33.414062 21.921875 33.214844 21.917969 C 32.808594 21.949219 32.429688 22.128906 32.148438 22.425781 C 31.867188 22.71875 31.707031 23.109375 31.699219 23.515625 Z M 36.996094 23.0625 C 36.996094 22.425781 36.996094 21.878906 36.953125 21.375 L 37.839844 21.375 L 37.839844 22.433594 L 37.886719 22.433594 C 37.980469 22.109375 38.171875 21.820312 38.4375 21.605469 C 38.703125 21.394531 39.027344 21.269531 39.363281 21.25 C 39.457031 21.238281 39.550781 21.238281 39.644531 21.25 L 39.644531 22.175781 C 39.53125 22.164062 39.417969 22.164062 39.304688 22.175781 C 38.96875 22.1875 38.648438 22.324219 38.40625 22.554688 C 38.164062 22.785156 38.011719 23.097656 37.980469 23.433594 C 37.953125 23.585938 37.9375 23.738281 37.9375 23.890625 L 37.9375 26.769531 L 36.960938 26.769531 L 36.960938 23.070312 Z M 36.996094 23.0625 "/>
<path style=" stroke:none;fill-rule:nonzero;fill:rgb(46.27451%,46.27451%,46.666667%);fill-opacity:1;" d="M 36.5625 6.523438 C 36.59375 7.019531 36.476562 7.515625 36.222656 7.945312 C 35.972656 8.375 35.597656 8.71875 35.148438 8.933594 C 34.703125 9.148438 34.199219 9.226562 33.707031 9.15625 C 33.214844 9.085938 32.753906 8.871094 32.382812 8.539062 C 32.011719 8.207031 31.75 7.769531 31.628906 7.285156 C 31.507812 6.804688 31.53125 6.296875 31.703125 5.828125 C 31.871094 5.359375 32.171875 4.949219 32.574219 4.65625 C 32.976562 4.359375 33.457031 4.191406 33.953125 4.171875 C 34.277344 4.152344 34.605469 4.199219 34.914062 4.308594 C 35.222656 4.417969 35.503906 4.585938 35.746094 4.804688 C 35.988281 5.023438 36.1875 5.285156 36.328125 5.582031 C 36.46875 5.875 36.546875 6.195312 36.5625 6.523438 Z M 36.5625 6.523438 "/>
<path style=" stroke:none;fill-rule:nonzero;fill:rgb(95.294118%,46.666667%,14.901961%);fill-opacity:1;" d="M 21.9375 35.492188 C 15.28125 35.492188 9.429688 33.101562 6.40625 29.574219 C 7.578125 32.75 9.695312 35.488281 12.472656 37.421875 C 15.25 39.355469 18.554688 40.390625 21.9375 40.390625 C 25.320312 40.390625 28.625 39.355469 31.402344 37.421875 C 34.179688 35.488281 36.296875 32.75 37.472656 29.574219 C 34.453125 33.101562 28.625 35.492188 21.9375 35.492188 Z M 21.9375 35.492188 "/>
<path style=" stroke:none;fill-rule:nonzero;fill:rgb(95.294118%,46.666667%,14.901961%);fill-opacity:1;" d="M 21.9375 12.550781 C 28.59375 12.550781 34.445312 14.9375 37.472656 18.464844 C 36.296875 15.292969 34.179688 12.554688 31.402344 10.621094 C 28.625 8.6875 25.320312 7.648438 21.9375 7.648438 C 18.554688 7.648438 15.25 8.6875 12.472656 10.621094 C 9.695312 12.554688 7.578125 15.292969 6.40625 18.464844 C 9.429688 14.929688 15.25 12.550781 21.9375 12.550781 Z M 21.9375 12.550781 "/>
<path style=" stroke:none;fill-rule:nonzero;fill:rgb(61.960784%,61.960784%,61.960784%);fill-opacity:1;" d="M 12.773438 42.359375 C 12.8125 42.984375 12.664062 43.605469 12.347656 44.148438 C 12.03125 44.691406 11.5625 45.125 10.996094 45.398438 C 10.433594 45.671875 9.800781 45.769531 9.179688 45.679688 C 8.558594 45.59375 7.976562 45.324219 7.511719 44.902344 C 7.042969 44.484375 6.710938 43.933594 6.558594 43.328125 C 6.40625 42.71875 6.4375 42.078125 6.648438 41.488281 C 6.859375 40.898438 7.242188 40.382812 7.746094 40.011719 C 8.25 39.640625 8.855469 39.425781 9.480469 39.398438 C 9.894531 39.378906 10.304688 39.4375 10.691406 39.574219 C 11.078125 39.710938 11.433594 39.921875 11.742188 40.195312 C 12.046875 40.472656 12.296875 40.804688 12.472656 41.175781 C 12.648438 41.546875 12.753906 41.945312 12.773438 42.359375 Z M 12.773438 42.359375 "/>
<path style=" stroke:none;fill-rule:nonzero;fill:rgb(38.039216%,38.431373%,38.431373%);fill-opacity:1;" d="M 7.160156 11.746094 C 6.804688 11.753906 6.449219 11.660156 6.144531 11.46875 C 5.839844 11.277344 5.601562 11 5.453125 10.675781 C 5.304688 10.347656 5.257812 9.984375 5.316406 9.628906 C 5.375 9.277344 5.535156 8.945312 5.78125 8.683594 C 6.027344 8.421875 6.34375 8.238281 6.691406 8.15625 C 7.042969 8.074219 7.40625 8.09375 7.742188 8.21875 C 8.082031 8.34375 8.371094 8.566406 8.582031 8.855469 C 8.792969 9.148438 8.914062 9.492188 8.929688 9.851562 C 8.945312 10.335938 8.765625 10.808594 8.433594 11.160156 C 8.105469 11.515625 7.644531 11.726562 7.160156 11.746094 Z M 7.160156 11.746094 "/>
</g>
</svg>
