<?xml version="1.0" encoding="UTF-8"?>
<svg xmlns="http://www.w3.org/2000/svg" xmlns:xlink="http://www.w3.org/1999/xlink" width="50px" height="50px" viewBox="0 0 50 50" version="1.1">
<g id="surface1">
<path style=" stroke:none;fill-rule:nonzero;fill:rgb(81.568627%,0%,0%);fill-opacity:1;" d="M 15.050781 32.527344 L 0 32.527344 L 0 17.476562 L 15.050781 17.476562 Z M 15.050781 32.527344 "/>
<path style=" stroke:none;fill-rule:nonzero;fill:rgb(100%,100%,100%);fill-opacity:1;" d="M 4.011719 29.144531 C 4.011719 29.144531 4.019531 29.171875 4.027344 29.179688 L 4.285156 29.4375 C 4.285156 29.4375 4.308594 29.453125 4.320312 29.453125 L 5.203125 29.453125 C 5.203125 29.453125 5.230469 29.445312 5.238281 29.4375 L 5.496094 29.179688 C 5.496094 29.179688 5.511719 29.15625 5.511719 29.144531 L 5.511719 26.347656 C 5.511719 26.347656 5.519531 26.320312 5.527344 26.3125 L 6.648438 25.242188 C 6.648438 25.242188 6.667969 25.234375 6.675781 25.242188 L 9.503906 29.433594 C 9.503906 29.433594 9.523438 29.449219 9.535156 29.449219 L 10.785156 29.449219 C 10.785156 29.449219 10.808594 29.441406 10.816406 29.429688 L 11.042969 28.992188 C 11.042969 28.992188 11.046875 28.964844 11.042969 28.957031 L 7.734375 24.160156 C 7.734375 24.160156 7.730469 24.136719 7.734375 24.128906 L 10.777344 21.097656 C 10.777344 21.097656 10.792969 21.074219 10.792969 21.0625 L 10.792969 21.007812 C 10.792969 21.007812 10.792969 20.980469 10.785156 20.96875 L 10.609375 20.566406 C 10.609375 20.566406 10.589844 20.546875 10.582031 20.546875 L 9.347656 20.546875 C 9.347656 20.546875 9.320312 20.554688 9.3125 20.5625 L 5.53125 24.359375 C 5.53125 24.359375 5.515625 24.363281 5.515625 24.351562 L 5.515625 20.867188 C 5.515625 20.867188 5.507812 20.839844 5.5 20.832031 L 5.246094 20.5625 C 5.246094 20.5625 5.222656 20.546875 5.210938 20.546875 L 4.324219 20.546875 C 4.324219 20.546875 4.296875 20.554688 4.289062 20.5625 L 4.03125 20.84375 C 4.03125 20.84375 4.015625 20.867188 4.015625 20.878906 L 4.015625 29.148438 Z M 4.011719 29.144531 "/>
<path style=" stroke:none;fill-rule:nonzero;fill:rgb(18.431373%,18.431373%,18.431373%);fill-opacity:1;" d="M 30.324219 29.324219 C 29.359375 29.324219 28.605469 29.042969 28.0625 28.480469 C 27.519531 27.917969 27.246094 27.144531 27.246094 26.15625 C 27.246094 25.167969 27.5 24.347656 28.003906 23.769531 C 28.507812 23.191406 29.203125 22.902344 30.082031 22.902344 C 30.898438 22.902344 31.546875 23.152344 32.019531 23.648438 C 32.492188 24.144531 32.730469 24.828125 32.730469 25.699219 L 32.730469 26.410156 L 28.601562 26.410156 C 28.621094 27.011719 28.78125 27.472656 29.089844 27.796875 C 29.394531 28.121094 29.828125 28.28125 30.382812 28.28125 C 30.75 28.28125 31.089844 28.246094 31.40625 28.175781 C 31.722656 28.105469 32.0625 27.992188 32.421875 27.832031 L 32.421875 28.902344 C 32.101562 29.054688 31.777344 29.164062 31.445312 29.226562 C 31.117188 29.289062 30.742188 29.320312 30.320312 29.320312 Z M 30.082031 23.898438 C 29.664062 23.898438 29.328125 24.03125 29.074219 24.296875 C 28.820312 24.5625 28.671875 24.949219 28.621094 25.457031 L 31.433594 25.457031 C 31.425781 24.945312 31.304688 24.558594 31.0625 24.292969 C 30.820312 24.027344 30.496094 23.898438 30.074219 23.898438 Z M 37.375 22.902344 C 37.640625 22.902344 37.859375 22.921875 38.03125 22.957031 L 37.902344 24.183594 C 37.714844 24.140625 37.519531 24.117188 37.320312 24.117188 C 36.792969 24.117188 36.367188 24.289062 36.039062 24.632812 C 35.710938 24.976562 35.546875 25.421875 35.546875 25.972656 L 35.546875 29.210938 L 34.230469 29.210938 L 34.230469 23.011719 L 35.261719 23.011719 L 35.4375 24.105469 L 35.503906 24.105469 C 35.710938 23.734375 35.976562 23.441406 36.308594 23.226562 C 36.640625 23.011719 36.996094 22.902344 37.375 22.902344 Z M 43.058594 29.214844 L 42.796875 28.351562 L 42.753906 28.351562 C 42.453125 28.730469 42.152344 28.984375 41.851562 29.121094 C 41.550781 29.257812 41.160156 29.324219 40.6875 29.324219 C 40.078125 29.324219 39.601562 29.160156 39.261719 28.832031 C 38.921875 28.503906 38.75 28.039062 38.75 27.4375 C 38.75 26.796875 38.988281 26.316406 39.460938 25.992188 C 39.9375 25.667969 40.660156 25.488281 41.628906 25.460938 L 42.699219 25.425781 L 42.699219 25.09375 C 42.699219 24.699219 42.605469 24.402344 42.421875 24.207031 C 42.238281 24.011719 41.949219 23.914062 41.5625 23.914062 C 41.246094 23.914062 40.941406 23.960938 40.648438 24.054688 C 40.355469 24.148438 40.078125 24.257812 39.808594 24.386719 L 39.382812 23.445312 C 39.71875 23.269531 40.085938 23.136719 40.488281 23.042969 C 40.886719 22.953125 41.265625 22.90625 41.621094 22.90625 C 42.410156 22.90625 43.003906 23.078125 43.40625 23.421875 C 43.808594 23.765625 44.007812 24.304688 44.007812 25.042969 L 44.007812 29.21875 L 43.066406 29.21875 Z M 41.097656 28.316406 C 41.574219 28.316406 41.960938 28.183594 42.25 27.914062 C 42.539062 27.648438 42.683594 27.273438 42.683594 26.789062 L 42.683594 26.25 L 41.886719 26.285156 C 41.265625 26.308594 40.816406 26.410156 40.53125 26.597656 C 40.25 26.78125 40.109375 27.066406 40.109375 27.445312 C 40.109375 27.722656 40.191406 27.9375 40.355469 28.085938 C 40.519531 28.234375 40.765625 28.3125 41.09375 28.3125 Z M 50.003906 27.449219 C 50.003906 28.054688 49.785156 28.519531 49.34375 28.84375 C 48.902344 29.167969 48.273438 29.328125 47.449219 29.328125 C 46.625 29.328125 45.960938 29.203125 45.460938 28.953125 L 45.460938 27.816406 C 46.191406 28.152344 46.867188 28.320312 47.496094 28.320312 C 48.308594 28.320312 48.710938 28.074219 48.710938 27.585938 C 48.710938 27.429688 48.667969 27.296875 48.578125 27.195312 C 48.488281 27.089844 48.339844 26.984375 48.136719 26.871094 C 47.929688 26.757812 47.644531 26.632812 47.277344 26.488281 C 46.5625 26.210938 46.082031 25.933594 45.828125 25.660156 C 45.574219 25.382812 45.449219 25.023438 45.449219 24.585938 C 45.449219 24.054688 45.664062 23.644531 46.089844 23.351562 C 46.519531 23.058594 47.101562 22.910156 47.835938 22.910156 C 48.570312 22.910156 49.253906 23.058594 49.902344 23.351562 L 49.476562 24.34375 C 48.808594 24.066406 48.246094 23.929688 47.789062 23.929688 C 47.09375 23.929688 46.746094 24.128906 46.746094 24.523438 C 46.746094 24.71875 46.835938 24.882812 47.019531 25.015625 C 47.199219 25.148438 47.597656 25.335938 48.203125 25.570312 C 48.714844 25.769531 49.085938 25.949219 49.320312 26.113281 C 49.550781 26.277344 49.722656 26.46875 49.835938 26.683594 C 49.949219 26.898438 50.003906 27.15625 50.003906 27.453125 Z M 19.523438 29.0625 C 19.523438 29.0625 19.53125 29.089844 19.539062 29.097656 L 19.792969 29.351562 C 19.792969 29.351562 19.816406 29.367188 19.828125 29.367188 L 20.691406 29.367188 C 20.691406 29.367188 20.71875 29.359375 20.726562 29.351562 L 20.980469 29.097656 C 20.980469 29.097656 20.996094 29.074219 20.996094 29.0625 L 20.996094 26.324219 C 20.996094 26.324219 21.003906 26.296875 21.011719 26.289062 L 22.109375 25.242188 C 22.109375 25.242188 22.128906 25.234375 22.136719 25.242188 L 24.90625 29.34375 C 24.90625 29.34375 24.925781 29.359375 24.9375 29.359375 L 26.160156 29.359375 C 26.160156 29.359375 26.183594 29.351562 26.191406 29.339844 L 26.414062 28.910156 C 26.414062 28.910156 26.417969 28.882812 26.414062 28.875 L 23.171875 24.175781 C 23.171875 24.175781 23.167969 24.152344 23.171875 24.144531 L 26.152344 21.175781 C 26.152344 21.175781 26.167969 21.152344 26.167969 21.140625 L 26.167969 21.085938 C 26.167969 21.085938 26.167969 21.058594 26.160156 21.046875 L 25.988281 20.652344 C 25.988281 20.652344 25.972656 20.632812 25.960938 20.632812 L 24.753906 20.632812 C 24.753906 20.632812 24.726562 20.640625 24.71875 20.648438 L 21.015625 24.367188 C 21.015625 24.367188 21 24.371094 21 24.359375 L 21 20.949219 C 21 20.949219 20.992188 20.921875 20.984375 20.914062 L 20.738281 20.648438 C 20.738281 20.648438 20.714844 20.632812 20.703125 20.632812 L 19.832031 20.632812 C 19.832031 20.632812 19.804688 20.640625 19.796875 20.648438 L 19.542969 20.921875 C 19.542969 20.921875 19.527344 20.945312 19.527344 20.957031 L 19.527344 29.050781 Z M 19.523438 29.0625 "/>
</g>
</svg>
