<?xml version="1.0" encoding="UTF-8"?>
<svg xmlns="http://www.w3.org/2000/svg" xmlns:xlink="http://www.w3.org/1999/xlink" width="50px" height="50px" viewBox="0 0 50 50" version="1.1">
<defs>
<linearGradient id="linear0" gradientUnits="userSpaceOnUse" x1="-2901.952" y1="923.573" x2="-2061.249" y2="1420.331" gradientTransform="matrix(0.002375,0,0,-0.002375,29.040055,31.826197)">
<stop offset="0" style="stop-color:rgb(56.470588%,61.176471%,66.27451%);stop-opacity:1;"/>
<stop offset="1" style="stop-color:rgb(92.941176%,92.941176%,93.333333%);stop-opacity:1;"/>
</linearGradient>
<linearGradient id="linear1" gradientUnits="userSpaceOnUse" x1="-2882.7" y1="10288.81" x2="-2206.249" y2="10288.81" gradientTransform="matrix(0.002375,0,0,-0.002375,29.040055,31.826197)">
<stop offset="0" style="stop-color:rgb(57.647059%,62.352941%,67.058824%);stop-opacity:1;"/>
<stop offset="1" style="stop-color:rgb(86.27451%,87.058824%,88.235294%);stop-opacity:1;"/>
</linearGradient>
<radialGradient id="radial0" gradientUnits="userSpaceOnUse" cx="-14217.448" cy="7277.705" fx="-14217.448" fy="7277.705" r="898.12" gradientTransform="matrix(-0.00228069,-0.000342585,-0.000692869,0.00456139,2.917249,-23.308641)">
<stop offset="0" style="stop-color:rgb(93.333333%,20.784314%,17.254902%);stop-opacity:1;"/>
<stop offset="1" style="stop-color:rgb(66.27451%,11.372549%,13.333333%);stop-opacity:1;"/>
</radialGradient>
</defs>
<g id="surface1">
<path style=" stroke:none;fill-rule:nonzero;fill:url(#linear0);" d="M 33.898438 17.660156 L 28.375 19.460938 L 23.574219 21.582031 L 22.230469 21.9375 C 21.886719 22.261719 21.527344 22.59375 21.140625 22.925781 C 20.714844 23.292969 20.316406 23.628906 20.011719 23.871094 C 19.675781 24.136719 19.175781 24.636719 18.917969 24.953125 C 18.539062 25.429688 18.238281 25.9375 18.109375 26.324219 C 17.878906 27.023438 17.992188 27.734375 18.433594 28.390625 C 19.003906 29.226562 20.132812 30.074219 21.453125 30.65625 C 22.125 30.953125 23.253906 31.332031 24.105469 31.546875 C 25.523438 31.902344 28.261719 32.292969 29.765625 32.351562 C 30.070312 32.363281 30.480469 32.363281 30.496094 32.351562 C 30.53125 32.328125 30.765625 31.882812 31.035156 31.328125 C 31.960938 29.4375 32.628906 27.664062 32.992188 26.148438 C 33.210938 25.230469 33.382812 24.007812 33.492188 22.558594 C 33.523438 22.15625 33.535156 20.796875 33.511719 20.339844 C 33.472656 19.585938 33.40625 18.976562 33.300781 18.382812 C 33.285156 18.292969 33.28125 18.214844 33.289062 18.210938 C 33.304688 18.199219 33.355469 18.179688 34.035156 17.984375 Z M 32.636719 18.398438 C 32.6875 18.398438 32.820312 19.679688 32.855469 20.488281 C 32.863281 20.660156 32.859375 20.773438 32.851562 20.773438 C 32.816406 20.773438 32.144531 20.375 31.664062 20.074219 C 31.25 19.8125 30.457031 19.289062 30.332031 19.1875 C 30.289062 19.15625 30.292969 19.152344 30.636719 19.035156 C 31.214844 18.839844 32.59375 18.398438 32.636719 18.398438 Z M 29.824219 19.324219 C 29.863281 19.324219 29.957031 19.378906 30.1875 19.519531 C 31.046875 20.058594 32.214844 20.710938 32.71875 20.925781 C 32.871094 20.996094 32.886719 20.96875 32.535156 21.210938 C 31.773438 21.730469 30.828125 22.238281 29.667969 22.75 C 29.460938 22.84375 29.289062 22.914062 29.285156 22.914062 C 29.277344 22.914062 29.304688 22.808594 29.335938 22.683594 C 29.617188 21.644531 29.773438 20.59375 29.785156 19.75 C 29.789062 19.332031 29.789062 19.332031 29.824219 19.320312 C 29.816406 19.324219 29.820312 19.324219 29.824219 19.324219 Z M 29.246094 19.546875 C 29.269531 19.570312 29.253906 20.507812 29.21875 20.761719 C 29.144531 21.371094 29.027344 21.9375 28.835938 22.574219 C 28.789062 22.730469 28.75 22.859375 28.738281 22.867188 C 28.722656 22.890625 28.152344 22.328125 27.964844 22.113281 C 27.636719 21.738281 27.382812 21.363281 27.195312 20.996094 C 27.101562 20.804688 26.949219 20.4375 26.960938 20.425781 C 27.027344 20.378906 29.226562 19.527344 29.246094 19.546875 Z M 26.515625 20.617188 C 26.519531 20.617188 26.523438 20.617188 26.527344 20.621094 C 26.535156 20.632812 26.566406 20.699219 26.589844 20.773438 C 26.722656 21.136719 27.023438 21.671875 27.285156 22.011719 C 27.566406 22.386719 27.9375 22.789062 28.246094 23.050781 C 28.347656 23.136719 28.4375 23.214844 28.453125 23.226562 C 28.476562 23.253906 28.484375 23.246094 27.804688 23.507812 C 27.015625 23.808594 26.15625 24.109375 25.171875 24.425781 C 24.9375 24.5 24.699219 24.578125 24.464844 24.65625 C 24.429688 24.667969 24.441406 24.644531 24.550781 24.476562 C 25.039062 23.710938 25.78125 22.210938 26.199219 21.152344 C 26.269531 20.96875 26.339844 20.785156 26.351562 20.742188 C 26.371094 20.683594 26.390625 20.664062 26.445312 20.636719 C 26.472656 20.625 26.503906 20.617188 26.515625 20.617188 Z M 25.679688 20.964844 C 25.691406 20.972656 25.480469 21.417969 25.273438 21.828125 C 24.867188 22.617188 24.425781 23.394531 23.832031 24.335938 C 23.730469 24.5 23.636719 24.648438 23.625 24.667969 C 23.601562 24.695312 23.59375 24.6875 23.527344 24.558594 C 23.386719 24.277344 23.269531 23.917969 23.207031 23.589844 C 23.144531 23.265625 23.15625 22.695312 23.226562 22.347656 C 23.28125 22.085938 23.277344 22.09375 23.402344 22.027344 C 23.9375 21.757812 25.664062 20.949219 25.679688 20.964844 Z M 32.878906 21.257812 L 32.878906 21.433594 C 32.878906 22.363281 32.78125 23.640625 32.632812 24.570312 C 32.609375 24.734375 32.589844 24.867188 32.582031 24.871094 C 32.582031 24.871094 32.460938 24.839844 32.320312 24.796875 C 31.695312 24.601562 31.015625 24.3125 30.402344 23.972656 C 29.996094 23.753906 29.40625 23.390625 29.425781 23.375 C 29.429688 23.367188 29.605469 23.277344 29.808594 23.167969 C 30.625 22.742188 31.410156 22.285156 32.089844 21.828125 C 32.347656 21.65625 32.730469 21.382812 32.8125 21.308594 Z M 22.53125 22.492188 C 22.546875 22.492188 22.542969 22.527344 22.515625 22.675781 C 22.5 22.785156 22.480469 22.984375 22.472656 23.121094 C 22.4375 23.730469 22.539062 24.183594 22.839844 24.800781 C 22.921875 24.972656 22.988281 25.113281 22.984375 25.117188 C 22.957031 25.144531 20.191406 25.953125 19.324219 26.191406 C 19.066406 26.261719 18.839844 26.324219 18.824219 26.328125 C 18.792969 26.335938 18.789062 26.332031 18.800781 26.261719 C 18.898438 25.648438 19.367188 24.847656 20.015625 24.171875 C 20.449219 23.71875 20.796875 23.457031 21.390625 23.117188 C 21.816406 22.875 22.472656 22.511719 22.519531 22.496094 C 22.519531 22.492188 22.523438 22.492188 22.53125 22.492188 Z M 29.039062 23.65625 C 29.042969 23.652344 29.144531 23.707031 29.265625 23.777344 C 30.160156 24.296875 31.402344 24.777344 32.460938 25.023438 L 32.558594 25.042969 L 32.425781 25.117188 C 31.871094 25.425781 30.046875 26.1875 28.179688 26.882812 C 27.910156 26.984375 27.640625 27.082031 27.59375 27.105469 C 27.542969 27.125 27.496094 27.136719 27.496094 27.132812 C 27.496094 27.128906 27.570312 26.984375 27.667969 26.804688 C 28.1875 25.828125 28.714844 24.636719 28.980469 23.8125 C 29.015625 23.730469 29.035156 23.660156 29.039062 23.65625 Z M 28.375 23.875 C 28.382812 23.878906 28.347656 23.964844 28.304688 24.066406 C 27.941406 24.945312 27.46875 25.90625 26.859375 26.984375 C 26.703125 27.257812 26.574219 27.480469 26.570312 27.480469 C 26.566406 27.480469 26.441406 27.40625 26.289062 27.3125 C 25.40625 26.769531 24.621094 26.101562 24.105469 25.457031 L 24.03125 25.363281 L 24.410156 25.257812 C 25.773438 24.886719 26.929688 24.488281 28.078125 23.996094 C 28.238281 23.929688 28.371094 23.875 28.375 23.875 Z M 32.5 25.3125 C 32.5 25.3125 32.503906 25.316406 32.5 25.3125 C 32.503906 25.410156 32.292969 26.269531 32.117188 26.890625 C 31.96875 27.414062 31.84375 27.824219 31.617188 28.542969 C 31.515625 28.863281 31.429688 29.125 31.421875 29.125 C 31.417969 29.125 31.394531 29.121094 31.371094 29.113281 C 30.128906 28.886719 29.019531 28.574219 27.976562 28.15625 C 27.683594 28.039062 27.265625 27.851562 27.242188 27.832031 C 27.234375 27.820312 27.484375 27.707031 27.800781 27.566406 C 29.699219 26.738281 31.667969 25.792969 32.347656 25.390625 C 32.425781 25.339844 32.488281 25.3125 32.5 25.3125 Z M 22.980469 25.640625 C 22.988281 25.648438 22.457031 26.410156 21.714844 27.449219 C 21.457031 27.8125 21.15625 28.238281 21.042969 28.398438 C 20.929688 28.558594 20.761719 28.808594 20.664062 28.957031 L 20.488281 29.230469 L 20.300781 29.070312 C 20.078125 28.886719 19.695312 28.496094 19.523438 28.277344 C 19.164062 27.832031 18.921875 27.359375 18.828125 26.929688 C 18.78125 26.730469 18.78125 26.628906 18.824219 26.617188 C 18.886719 26.597656 20 26.335938 21.042969 26.09375 C 21.625 25.960938 22.296875 25.800781 22.539062 25.742188 C 22.78125 25.683594 22.976562 25.640625 22.980469 25.640625 Z M 23.515625 25.84375 L 23.648438 25.996094 C 24.25 26.667969 24.863281 27.164062 25.605469 27.597656 C 25.738281 27.671875 25.839844 27.738281 25.832031 27.742188 C 25.800781 27.765625 23.25 28.667969 22.070312 29.078125 C 21.40625 29.3125 20.859375 29.5 20.855469 29.5 C 20.851562 29.5 20.8125 29.476562 20.773438 29.445312 L 20.699219 29.390625 L 20.816406 29.214844 C 21.210938 28.648438 21.703125 28.027344 22.777344 26.734375 Z M 26.84375 28.226562 C 26.847656 28.222656 27.03125 28.289062 27.257812 28.375 C 27.800781 28.578125 28.230469 28.707031 28.808594 28.851562 C 29.515625 29.03125 30.542969 29.207031 31.148438 29.257812 C 31.238281 29.265625 31.289062 29.273438 31.273438 29.289062 C 31.246094 29.304688 30.628906 29.507812 30.179688 29.652344 C 29.460938 29.875 27.269531 30.523438 25.484375 31.035156 C 25.15625 31.132812 24.871094 31.210938 24.855469 31.214844 C 24.8125 31.222656 24.675781 31.1875 24.675781 31.167969 C 24.675781 31.160156 24.773438 31.03125 24.894531 30.890625 C 25.496094 30.171875 26.09375 29.371094 26.589844 28.609375 C 26.726562 28.402344 26.84375 28.230469 26.84375 28.226562 Z M 26.109375 28.25 C 26.113281 28.253906 25.820312 28.726562 25.300781 29.546875 C 25.078125 29.890625 24.832031 30.285156 24.746094 30.421875 C 24.664062 30.554688 24.535156 30.765625 24.464844 30.882812 L 24.34375 31.09375 L 24.28125 31.078125 C 24.132812 31.035156 23.078125 30.664062 22.796875 30.550781 C 22.449219 30.414062 22.089844 30.246094 21.824219 30.105469 C 21.492188 29.925781 21.074219 29.660156 21.105469 29.648438 C 21.113281 29.644531 21.6875 29.492188 22.375 29.304688 C 24.203125 28.808594 25.21875 28.519531 25.882812 28.3125 C 26.003906 28.273438 26.105469 28.242188 26.109375 28.25 Z M 31.308594 29.464844 L 31.3125 29.464844 C 31.328125 29.507812 30.652344 31.386719 30.40625 31.980469 C 30.351562 32.113281 30.332031 32.144531 30.300781 32.140625 C 30.230469 32.136719 29.25 32 28.652344 31.914062 C 27.613281 31.753906 25.867188 31.449219 25.429688 31.347656 L 25.332031 31.328125 L 25.953125 31.1875 C 27.289062 30.886719 27.929688 30.722656 28.582031 30.523438 C 29.402344 30.273438 30.21875 29.960938 31.039062 29.574219 C 31.167969 29.515625 31.277344 29.472656 31.308594 29.464844 Z M 31.308594 29.464844 "/>
<path style=" stroke:none;fill-rule:nonzero;fill:url(#linear1);" d="M 28.207031 4.789062 C 28.113281 4.773438 26.632812 5.308594 25.675781 5.699219 C 24.386719 6.222656 23.386719 6.722656 22.765625 7.160156 C 22.539062 7.320312 22.25 7.609375 22.203125 7.722656 C 22.1875 7.761719 22.179688 7.8125 22.179688 7.863281 L 22.738281 8.394531 L 24.070312 8.820312 L 27.238281 9.386719 L 30.859375 10.007812 L 30.898438 9.695312 C 30.886719 9.695312 30.875 9.691406 30.863281 9.691406 L 30.386719 9.617188 L 30.292969 9.445312 C 29.800781 8.578125 29.257812 7.5 28.941406 6.773438 C 28.695312 6.210938 28.460938 5.558594 28.332031 5.09375 C 28.261719 4.808594 28.25 4.792969 28.207031 4.789062 Z M 28.140625 5 L 28.144531 5 C 28.148438 5.003906 28.164062 5.121094 28.179688 5.257812 C 28.25 5.84375 28.382812 6.40625 28.585938 7.015625 C 28.738281 7.476562 28.738281 7.449219 28.5625 7.394531 C 28.136719 7.28125 26.226562 6.949219 24.847656 6.757812 C 24.625 6.730469 24.4375 6.699219 24.4375 6.695312 C 24.421875 6.679688 25.433594 6.148438 25.882812 5.941406 C 26.453125 5.675781 28.023438 5.023438 28.140625 5 Z M 24.117188 6.871094 L 24.277344 6.925781 C 25.164062 7.226562 27.386719 7.652344 28.613281 7.75 C 28.753906 7.761719 28.871094 7.777344 28.875 7.777344 C 28.878906 7.78125 28.761719 7.84375 28.609375 7.914062 C 28.019531 8.210938 27.367188 8.574219 26.917969 8.851562 C 26.78125 8.9375 26.660156 9.003906 26.644531 9.003906 C 26.628906 9.003906 26.539062 8.988281 26.449219 8.972656 L 26.28125 8.949219 L 25.863281 8.539062 C 25.128906 7.828125 24.554688 7.273438 24.332031 7.066406 Z M 23.949219 7 L 24.539062 7.734375 C 24.859375 8.140625 25.183594 8.535156 25.253906 8.625 C 25.324219 8.710938 25.382812 8.78125 25.378906 8.785156 C 25.363281 8.796875 24.527344 8.636719 24.085938 8.535156 C 23.632812 8.429688 23.445312 8.382812 23.164062 8.292969 L 22.933594 8.21875 L 22.933594 8.160156 C 22.9375 7.878906 23.292969 7.464844 23.894531 7.039062 Z M 28.949219 8 C 28.964844 8 28.984375 8.039062 29.035156 8.152344 C 29.179688 8.464844 29.621094 9.308594 29.730469 9.46875 C 29.761719 9.523438 29.820312 9.527344 29.234375 9.433594 C 27.816406 9.203125 27.363281 9.128906 27.363281 9.121094 C 27.363281 9.117188 27.40625 9.085938 27.457031 9.058594 C 27.898438 8.816406 28.339844 8.507812 28.730469 8.175781 C 28.828125 8.097656 28.914062 8.023438 28.933594 8.011719 C 28.9375 8 28.945312 7.996094 28.949219 8 Z M 28.949219 8 "/>
<path style=" stroke:none;fill-rule:nonzero;fill:url(#radial0);" d="M 22.234375 7.664062 C 22.234375 7.664062 22.140625 7.808594 22.230469 8.027344 C 22.285156 8.160156 22.441406 8.324219 22.621094 8.488281 C 22.621094 8.488281 24.480469 10.300781 24.703125 10.558594 C 25.730469 11.746094 26.175781 12.914062 26.21875 14.523438 C 26.242188 15.558594 26.046875 16.46875 25.558594 17.527344 C 24.691406 19.421875 22.859375 21.511719 20.035156 23.832031 L 20.445312 23.695312 C 20.714844 23.496094 21.078125 23.28125 21.929688 22.8125 C 23.894531 21.738281 26.105469 20.746094 28.820312 19.730469 C 32.726562 18.261719 39.148438 16.539062 42.804688 15.980469 L 43.183594 15.921875 L 43.125 15.832031 C 42.792969 15.3125 42.5625 14.992188 42.289062 14.648438 C 41.484375 13.65625 40.515625 12.851562 39.324219 12.183594 C 37.6875 11.269531 35.570312 10.554688 32.894531 10.027344 C 32.386719 9.925781 31.277344 9.734375 30.375 9.597656 C 28.464844 9.300781 27.230469 9.09375 25.867188 8.863281 C 25.378906 8.777344 24.648438 8.652344 24.164062 8.546875 C 23.914062 8.492188 23.433594 8.382812 23.058594 8.253906 C 22.757812 8.136719 22.324219 8.019531 22.234375 7.664062 Z M 23.308594 8.707031 C 23.3125 8.703125 23.382812 8.726562 23.46875 8.757812 C 23.628906 8.8125 23.832031 8.875 24.074219 8.941406 C 24.257812 8.992188 24.441406 9.039062 24.625 9.085938 C 24.875 9.148438 25.082031 9.207031 25.089844 9.207031 C 25.117188 9.238281 25.539062 10.585938 25.679688 11.101562 C 25.734375 11.296875 25.777344 11.464844 25.773438 11.464844 C 25.769531 11.46875 25.722656 11.398438 25.667969 11.304688 C 25.179688 10.441406 24.40625 9.570312 23.515625 8.871094 C 23.398438 8.785156 23.308594 8.710938 23.308594 8.707031 Z M 25.363281 9.273438 C 25.382812 9.273438 25.476562 9.285156 25.589844 9.3125 C 26.296875 9.46875 27.570312 9.710938 28.386719 9.851562 C 28.523438 9.871094 28.632812 9.894531 28.632812 9.90625 C 28.632812 9.914062 28.582031 9.941406 28.519531 9.976562 C 28.382812 10.046875 27.824219 10.375 27.640625 10.5 C 27.179688 10.808594 26.761719 11.144531 26.460938 11.445312 C 26.339844 11.566406 26.234375 11.664062 26.234375 11.664062 C 26.234375 11.664062 26.210938 11.59375 26.191406 11.507812 C 26.039062 10.925781 25.726562 10.066406 25.441406 9.460938 C 25.398438 9.367188 25.359375 9.277344 25.359375 9.269531 C 25.359375 9.277344 25.359375 9.273438 25.363281 9.273438 Z M 28.976562 9.964844 C 29.003906 9.972656 29.042969 10.113281 29.128906 10.425781 C 29.28125 11.03125 29.355469 11.707031 29.328125 12.339844 C 29.320312 12.511719 29.3125 12.675781 29.304688 12.695312 L 29.289062 12.738281 L 29.074219 12.667969 C 28.628906 12.527344 27.902344 12.3125 27.277344 12.136719 C 26.925781 12.042969 26.636719 11.953125 26.636719 11.945312 C 26.636719 11.921875 27.152344 11.402344 27.375 11.207031 C 27.796875 10.835938 28.941406 9.949219 28.976562 9.964844 Z M 29.265625 10.003906 C 29.277344 9.992188 30.992188 10.289062 31.773438 10.4375 C 32.355469 10.550781 33.199219 10.726562 33.246094 10.746094 C 33.273438 10.757812 33.183594 10.804688 32.90625 10.929688 C 31.804688 11.429688 30.984375 11.875 30.171875 12.417969 C 29.957031 12.558594 29.777344 12.675781 29.773438 12.675781 C 29.769531 12.675781 29.765625 12.554688 29.765625 12.410156 C 29.765625 11.617188 29.609375 10.816406 29.316406 10.136719 C 29.285156 10.070312 29.261719 10.007812 29.265625 10.003906 Z M 33.703125 10.882812 C 33.714844 10.894531 33.660156 11.230469 33.609375 11.433594 C 33.460938 12.054688 33.054688 12.976562 32.558594 13.84375 C 32.472656 14 32.390625 14.125 32.382812 14.128906 C 32.375 14.132812 32.261719 14.070312 32.132812 13.996094 C 31.648438 13.710938 31.097656 13.445312 30.496094 13.195312 C 30.332031 13.121094 30.183594 13.0625 30.179688 13.054688 C 30.152344 13.03125 31.496094 12.140625 32.203125 11.714844 C 32.765625 11.375 33.6875 10.863281 33.703125 10.882812 Z M 34.019531 10.929688 C 34.058594 10.929688 34.816406 11.140625 35.214844 11.257812 C 36.195312 11.550781 37.320312 11.960938 38.054688 12.296875 L 38.359375 12.433594 L 38.148438 12.484375 C 36.351562 12.898438 34.816406 13.375 33.335938 13.972656 C 33.214844 14.023438 33.105469 14.066406 33.097656 14.066406 C 33.089844 14.066406 33.128906 13.96875 33.183594 13.851562 C 33.632812 12.90625 33.917969 11.917969 33.992188 11.074219 C 33.996094 10.992188 34.007812 10.929688 34.019531 10.929688 Z M 26.457031 12.667969 C 26.46875 12.65625 27.050781 12.792969 27.363281 12.878906 C 27.839844 13.015625 28.847656 13.351562 28.847656 13.378906 C 28.847656 13.382812 28.734375 13.476562 28.601562 13.59375 C 28.054688 14.050781 27.53125 14.527344 26.898438 15.136719 C 26.710938 15.316406 26.554688 15.464844 26.542969 15.464844 C 26.535156 15.464844 26.53125 15.4375 26.535156 15.40625 C 26.632812 14.703125 26.613281 13.804688 26.476562 12.890625 C 26.464844 12.773438 26.453125 12.671875 26.457031 12.667969 Z M 38.648438 12.679688 C 38.65625 12.6875 38.382812 13.121094 38.207031 13.367188 C 37.957031 13.726562 37.589844 14.203125 36.757812 15.246094 C 36.320312 15.796875 35.828125 16.417969 35.664062 16.628906 C 35.496094 16.835938 35.359375 17.011719 35.355469 17.011719 C 35.351562 17.011719 35.296875 16.9375 35.238281 16.84375 C 34.769531 16.144531 34.210938 15.53125 33.546875 14.980469 C 33.421875 14.875 33.285156 14.761719 33.238281 14.730469 C 33.191406 14.695312 33.15625 14.664062 33.15625 14.660156 C 33.15625 14.644531 33.863281 14.339844 34.402344 14.125 C 35.347656 13.742188 36.632812 13.28125 37.597656 12.984375 C 38.101562 12.828125 38.640625 12.671875 38.648438 12.679688 Z M 38.96875 12.761719 C 38.984375 12.757812 39.085938 12.808594 39.207031 12.878906 C 40.222656 13.460938 41.214844 14.207031 42 14.976562 C 42.222656 15.191406 42.769531 15.761719 42.757812 15.765625 C 42.757812 15.765625 42.566406 15.78125 42.34375 15.796875 C 40.585938 15.929688 38.335938 16.304688 36.171875 16.824219 C 36.027344 16.859375 35.898438 16.886719 35.890625 16.886719 C 35.882812 16.886719 36.042969 16.722656 36.25 16.527344 C 37.515625 15.304688 38.097656 14.535156 38.78125 13.15625 C 38.878906 12.953125 38.960938 12.777344 38.96875 12.761719 C 38.964844 12.761719 38.964844 12.761719 38.96875 12.761719 Z M 29.675781 13.714844 C 29.734375 13.726562 30.277344 13.984375 30.683594 14.1875 C 31.058594 14.375 31.625 14.675781 31.652344 14.699219 C 31.65625 14.703125 31.457031 14.808594 31.210938 14.929688 C 30.425781 15.320312 29.753906 15.695312 29.054688 16.121094 C 28.851562 16.242188 28.6875 16.339844 28.679688 16.339844 C 28.664062 16.339844 28.667969 16.324219 28.78125 16.121094 C 29.15625 15.433594 29.457031 14.617188 29.628906 13.820312 C 29.644531 13.757812 29.664062 13.714844 29.675781 13.714844 Z M 29.132812 13.816406 C 29.144531 13.828125 29.003906 14.339844 28.914062 14.621094 C 28.742188 15.152344 28.457031 15.816406 28.175781 16.316406 C 28.109375 16.433594 28.007812 16.601562 27.957031 16.699219 L 27.851562 16.867188 L 27.617188 16.640625 C 27.347656 16.378906 27.125 16.214844 26.839844 16.070312 C 26.726562 16.011719 26.640625 15.960938 26.640625 15.953125 C 26.640625 15.917969 27.355469 15.273438 27.902344 14.804688 C 28.292969 14.464844 29.121094 13.804688 29.132812 13.816406 Z M 32.449219 15.179688 L 32.65625 15.3125 C 33.121094 15.617188 33.671875 16.023438 34.09375 16.378906 C 34.332031 16.574219 34.792969 16.988281 34.882812 17.085938 L 34.933594 17.140625 L 34.59375 17.238281 C 32.683594 17.769531 31.207031 18.238281 29.484375 18.875 C 29.289062 18.945312 29.128906 19.003906 29.117188 19.003906 C 29.089844 19.003906 29.070312 19.023438 29.5 18.628906 C 30.601562 17.613281 31.578125 16.496094 32.304688 15.40625 Z M 31.578125 15.398438 C 31.585938 15.40625 31.015625 16.210938 30.671875 16.667969 C 30.261719 17.207031 29.539062 18.117188 29.035156 18.710938 C 28.828125 18.957031 28.648438 19.160156 28.640625 19.167969 C 28.628906 19.171875 28.625 19.109375 28.625 19.011719 C 28.625 18.507812 28.492188 17.96875 28.269531 17.507812 C 28.171875 17.316406 28.15625 17.269531 28.175781 17.25 C 28.257812 17.179688 29.46875 16.488281 30.238281 16.074219 C 30.753906 15.796875 31.566406 15.390625 31.578125 15.398438 Z M 26.300781 16.691406 C 26.316406 16.691406 26.410156 16.742188 26.519531 16.800781 C 26.785156 16.945312 27.023438 17.109375 27.238281 17.285156 C 27.246094 17.292969 27.136719 17.378906 26.996094 17.484375 C 26.597656 17.769531 25.996094 18.222656 25.648438 18.503906 C 25.28125 18.792969 25.265625 18.804688 25.308594 18.742188 C 25.585938 18.320312 25.722656 18.082031 25.867188 17.777344 C 25.996094 17.503906 26.128906 17.183594 26.21875 16.902344 C 26.253906 16.78125 26.292969 16.691406 26.300781 16.691406 Z M 27.710938 17.792969 C 27.730469 17.789062 27.753906 17.828125 27.867188 17.992188 C 28.105469 18.347656 28.289062 18.824219 28.335938 19.207031 L 28.34375 19.292969 L 27.773438 19.511719 C 26.75 19.910156 25.804688 20.300781 25.167969 20.59375 C 24.988281 20.675781 24.675781 20.828125 24.46875 20.925781 C 24.265625 21.03125 24.097656 21.109375 24.097656 21.105469 C 24.097656 21.101562 24.226562 21.007812 24.386719 20.890625 C 25.636719 19.984375 26.714844 18.992188 27.527344 17.996094 C 27.613281 17.894531 27.691406 17.796875 27.699219 17.792969 Z M 27.0625 17.953125 C 27.078125 17.96875 26.601562 18.507812 26.277344 18.835938 C 25.472656 19.660156 24.675781 20.300781 23.6875 20.925781 C 23.558594 21.007812 23.449219 21.078125 23.433594 21.085938 C 23.40625 21.101562 23.445312 21.0625 23.878906 20.589844 C 24.152344 20.292969 24.363281 20.042969 24.601562 19.734375 C 24.757812 19.527344 24.789062 19.5 25.015625 19.335938 C 25.628906 18.894531 27.046875 17.933594 27.0625 17.953125 Z M 27.0625 17.953125 "/>
<path style=" stroke:none;fill-rule:nonzero;fill:rgb(13.72549%,12.156863%,12.156863%);fill-opacity:1;" d="M 8.988281 35.234375 C 8.910156 35.234375 8.835938 35.242188 8.757812 35.242188 C 7.203125 35.324219 6.15625 36.007812 5.542969 37.34375 C 5.015625 38.554688 5.074219 40.132812 5.546875 41.347656 C 6.097656 42.539062 6.988281 43.164062 8.46875 43.402344 C 8.785156 43.453125 8.996094 43.625 9.601562 44.335938 L 10.351562 45.210938 L 11.707031 45.210938 L 10.804688 44.300781 C 10.308594 43.804688 9.902344 43.371094 9.902344 43.332031 C 9.902344 43.292969 10.09375 43.210938 10.324219 43.140625 C 11.085938 42.910156 11.71875 42.320312 12.160156 41.417969 C 12.519531 40.695312 12.570312 40.472656 12.621094 39.570312 C 12.757812 36.890625 11.34375 35.214844 8.988281 35.234375 Z M 10.179688 42.246094 C 9.519531 42.5625 8.558594 42.628906 7.933594 42.398438 C 7.289062 42.160156 6.660156 41.488281 6.378906 40.726562 C 6.066406 39.894531 6.109375 38.363281 6.46875 37.671875 C 7.042969 36.570312 7.804688 36.066406 8.917969 36.066406 C 10.570312 36.066406 11.507812 37.074219 11.628906 38.976562 C 11.726562 40.5625 11.195312 41.75 10.179688 42.242188 Z M 33.621094 37.523438 C 33.050781 37.523438 32.613281 37.753906 32.320312 38.207031 L 32.089844 38.566406 L 32.089844 37.632812 L 31.105469 37.632812 L 31.105469 43.238281 L 32.089844 43.238281 L 32.089844 41.445312 C 32.089844 39.808594 32.109375 39.617188 32.339844 39.167969 C 32.65625 38.554688 33.199219 38.246094 33.722656 38.394531 L 34.074219 38.496094 L 34.074219 37.523438 Z M 27.832031 37.472656 C 27.640625 37.472656 27.433594 37.496094 27.230469 37.542969 C 25.914062 37.886719 25.171875 39.148438 25.214844 40.445312 C 25.214844 41.535156 25.425781 42.078125 25.953125 42.648438 C 27.027344 43.53125 27.996094 43.601562 29.308594 43.125 C 29.53125 43.03125 29.777344 42.921875 29.777344 42.921875 L 29.777344 42.039062 L 29.308594 42.28125 C 28.246094 42.742188 27.449219 42.742188 26.808594 42.199219 C 26.398438 41.785156 26.21875 41.285156 26.136719 40.714844 L 30.109375 40.714844 L 30.109375 39.960938 C 30.109375 38.417969 29.179688 37.445312 27.832031 37.472656 Z M 26.226562 39.929688 C 26.226562 39.929688 26.371094 38.96875 26.917969 38.589844 C 27.179688 38.40625 27.480469 38.316406 27.773438 38.316406 C 28.070312 38.316406 28.363281 38.414062 28.605469 38.597656 C 29.105469 38.980469 29.1875 39.921875 29.1875 39.921875 L 26.226562 39.921875 Z M 2.476562 38.917969 C 1.410156 38.273438 0.9375 37.804688 0.992188 37.253906 C 1.160156 35.734375 3.039062 35.945312 4.082031 36.519531 L 4.089844 35.496094 C 4.089844 35.496094 3.511719 35.246094 2.6875 35.234375 C 1.421875 35.214844 0.601562 35.628906 0.21875 36.472656 C -0.34375 37.722656 0.15625 38.660156 1.957031 39.710938 C 2.96875 40.300781 3.417969 40.808594 3.417969 41.367188 C 3.417969 42.519531 2.03125 42.921875 0.597656 42.199219 C 0.300781 42.050781 0.0507812 41.929688 0.0390625 41.929688 C -0.0117188 42.257812 0.015625 43.039062 0.015625 43.039062 C 0.015625 43.039062 0.453125 43.222656 1.113281 43.351562 C 2.75 43.675781 4.242188 42.90625 4.382812 41.660156 C 4.503906 40.492188 4.082031 39.875 2.476562 38.917969 Z M 42.339844 37.457031 C 42.144531 37.457031 41.941406 37.484375 41.730469 37.53125 C 40.414062 37.875 39.671875 39.136719 39.722656 40.433594 C 39.722656 41.519531 39.933594 42.058594 40.457031 42.628906 C 41.53125 43.511719 42.503906 43.582031 43.820312 43.109375 C 44.042969 43.011719 44.289062 42.902344 44.289062 42.902344 L 44.289062 42.019531 L 43.820312 42.265625 C 42.757812 42.726562 41.957031 42.726562 41.320312 42.179688 C 40.910156 41.765625 40.730469 41.273438 40.648438 40.695312 L 44.613281 40.695312 L 44.613281 39.941406 C 44.613281 38.40625 43.6875 37.433594 42.335938 37.460938 Z M 40.730469 39.917969 C 40.730469 39.917969 40.878906 38.957031 41.425781 38.574219 C 41.683594 38.386719 41.984375 38.296875 42.28125 38.296875 C 42.574219 38.296875 42.867188 38.394531 43.113281 38.578125 C 43.609375 38.960938 43.695312 39.910156 43.695312 39.910156 L 40.734375 39.910156 Z M 22.675781 38.929688 C 21.609375 38.285156 21.136719 37.816406 21.191406 37.265625 C 21.359375 35.746094 23.238281 35.957031 24.28125 36.53125 L 24.289062 35.507812 C 24.289062 35.507812 23.710938 35.257812 22.886719 35.246094 C 21.621094 35.226562 20.800781 35.644531 20.417969 36.488281 C 19.855469 37.734375 20.359375 38.675781 22.160156 39.722656 C 23.167969 40.3125 23.617188 40.816406 23.617188 41.375 C 23.617188 42.527344 22.230469 42.933594 20.796875 42.207031 C 20.503906 42.058594 20.253906 41.9375 20.238281 41.9375 C 20.1875 42.265625 20.214844 43.046875 20.214844 43.046875 C 20.214844 43.046875 20.648438 43.222656 21.308594 43.359375 C 22.945312 43.683594 24.4375 42.917969 24.574219 41.671875 C 24.699219 40.503906 24.273438 39.890625 22.675781 38.933594 Z M 48.125 37.511719 C 47.558594 37.511719 47.117188 37.742188 46.828125 38.195312 L 46.597656 38.554688 L 46.597656 37.621094 L 45.613281 37.621094 L 45.613281 43.222656 L 46.597656 43.222656 L 46.597656 41.433594 C 46.597656 39.792969 46.617188 39.601562 46.847656 39.15625 C 47.164062 38.539062 47.703125 38.234375 48.230469 38.382812 L 48.582031 38.484375 L 48.582031 37.511719 Z M 14.84375 38.898438 L 14.84375 35.328125 L 13.847656 35.328125 L 13.847656 43.234375 L 18.027344 43.234375 L 18.027344 42.300781 L 14.84375 42.300781 Z M 37.808594 40.011719 L 36.992188 42.140625 L 36.203125 40 L 35.40625 37.625 L 34.386719 37.625 C 35.046875 39.492188 35.761719 41.394531 36.484375 43.234375 C 36.800781 43.242188 37.113281 43.234375 37.425781 43.234375 L 38.53125 40.460938 L 39.65625 37.625 L 38.6875 37.625 C 38.6875 37.625 38.257812 38.753906 37.808594 40.011719 Z M 17.128906 33.175781 C 17.289062 33.175781 17.425781 33.125 17.535156 33.015625 C 17.644531 32.90625 17.699219 32.777344 17.699219 32.617188 C 17.699219 32.457031 17.644531 32.324219 17.535156 32.222656 C 17.425781 32.117188 17.296875 32.066406 17.136719 32.066406 C 16.976562 32.066406 16.84375 32.117188 16.734375 32.226562 C 16.625 32.335938 16.574219 32.46875 16.574219 32.625 C 16.574219 32.785156 16.625 32.917969 16.734375 33.019531 C 16.835938 33.121094 16.972656 33.171875 17.128906 33.171875 Z M 16.777344 32.265625 C 16.875 32.171875 16.988281 32.125 17.136719 32.125 C 17.277344 32.125 17.394531 32.171875 17.492188 32.265625 C 17.585938 32.359375 17.636719 32.476562 17.636719 32.617188 C 17.636719 32.757812 17.585938 32.878906 17.492188 32.976562 C 17.394531 33.070312 17.277344 33.117188 17.136719 33.117188 C 16.996094 33.117188 16.882812 33.074219 16.785156 32.976562 C 16.691406 32.878906 16.640625 32.757812 16.640625 32.617188 C 16.640625 32.476562 16.683594 32.359375 16.777344 32.265625 Z M 17.015625 32.667969 L 17.082031 32.667969 C 17.125 32.667969 17.171875 32.714844 17.207031 32.796875 L 17.285156 32.96875 L 17.40625 32.96875 L 17.3125 32.777344 C 17.273438 32.699219 17.234375 32.65625 17.191406 32.644531 C 17.246094 32.628906 17.289062 32.609375 17.324219 32.574219 C 17.355469 32.539062 17.367188 32.496094 17.367188 32.445312 C 17.367188 32.386719 17.347656 32.34375 17.308594 32.308594 C 17.265625 32.273438 17.195312 32.253906 17.105469 32.253906 L 16.902344 32.253906 L 16.902344 32.96875 L 17.003906 32.96875 L 17.003906 32.667969 Z M 17.015625 32.335938 L 17.105469 32.335938 C 17.167969 32.335938 17.214844 32.347656 17.238281 32.367188 C 17.265625 32.386719 17.269531 32.414062 17.269531 32.457031 C 17.269531 32.539062 17.21875 32.578125 17.125 32.578125 L 17.015625 32.578125 Z M 0.609375 32.605469 C 0.609375 32.355469 0.601562 32.171875 0.597656 32.0625 L 0.601562 32.0625 C 0.628906 32.191406 0.660156 32.285156 0.683594 32.351562 L 1.640625 34.480469 L 1.800781 34.480469 L 2.753906 32.332031 C 2.777344 32.273438 2.804688 32.183594 2.835938 32.0625 L 2.84375 32.0625 C 2.824219 32.273438 2.816406 32.460938 2.816406 32.605469 L 2.816406 34.488281 L 3.144531 34.488281 L 3.144531 31.691406 L 2.734375 31.691406 L 1.859375 33.636719 C 1.824219 33.710938 1.78125 33.828125 1.722656 33.980469 L 1.710938 33.980469 C 1.691406 33.90625 1.644531 33.789062 1.582031 33.648438 L 0.726562 31.683594 L 0.289062 31.683594 L 0.289062 34.480469 L 0.605469 34.480469 L 0.605469 32.605469 Z M 3.859375 32.609375 L 4.140625 32.609375 L 4.140625 34.351562 L 3.859375 34.351562 Z M 4 31.972656 C 4.058594 31.972656 4.109375 31.953125 4.144531 31.914062 C 4.183594 31.875 4.210938 31.824219 4.210938 31.765625 C 4.210938 31.710938 4.191406 31.660156 4.148438 31.621094 C 4.105469 31.582031 4.058594 31.5625 4 31.5625 C 3.941406 31.5625 3.890625 31.582031 3.851562 31.621094 C 3.8125 31.660156 3.789062 31.710938 3.789062 31.765625 C 3.789062 31.832031 3.808594 31.875 3.851562 31.914062 C 3.894531 31.953125 3.941406 31.972656 4 31.972656 Z M 6.148438 34.390625 L 6.148438 34.082031 C 5.996094 34.199219 5.828125 34.253906 5.65625 34.253906 C 5.453125 34.253906 5.285156 34.183594 5.164062 34.050781 C 5.042969 33.917969 4.976562 33.730469 4.976562 33.5 C 4.976562 33.257812 5.042969 33.066406 5.175781 32.917969 C 5.304688 32.777344 5.472656 32.707031 5.675781 32.707031 C 5.839844 32.707031 6 32.757812 6.148438 32.863281 L 6.148438 32.535156 C 6.015625 32.464844 5.859375 32.433594 5.6875 32.433594 C 5.367188 32.433594 5.117188 32.535156 4.933594 32.734375 C 4.746094 32.929688 4.652344 33.199219 4.652344 33.523438 C 4.652344 33.8125 4.734375 34.058594 4.90625 34.242188 C 5.085938 34.433594 5.316406 34.53125 5.597656 34.53125 C 5.816406 34.523438 5.996094 34.480469 6.148438 34.390625 Z M 6.953125 33.460938 C 6.953125 33.230469 7.007812 33.046875 7.101562 32.917969 C 7.191406 32.804688 7.300781 32.746094 7.429688 32.746094 C 7.535156 32.746094 7.613281 32.765625 7.671875 32.808594 L 7.671875 32.476562 C 7.625 32.457031 7.5625 32.453125 7.480469 32.453125 C 7.363281 32.453125 7.261719 32.488281 7.171875 32.5625 C 7.074219 32.636719 7 32.753906 6.953125 32.898438 L 6.949219 32.898438 L 6.949219 32.488281 L 6.628906 32.488281 L 6.628906 34.484375 L 6.949219 34.484375 L 6.949219 33.460938 Z M 8.789062 34.523438 C 9.089844 34.523438 9.332031 34.429688 9.511719 34.234375 C 9.691406 34.046875 9.78125 33.789062 9.78125 33.46875 C 9.78125 33.140625 9.699219 32.894531 9.53125 32.707031 C 9.367188 32.523438 9.136719 32.433594 8.835938 32.433594 C 8.535156 32.433594 8.292969 32.523438 8.113281 32.695312 C 7.921875 32.886719 7.820312 33.15625 7.820312 33.5 C 7.820312 33.800781 7.902344 34.050781 8.074219 34.234375 C 8.253906 34.429688 8.492188 34.523438 8.789062 34.523438 Z M 8.335938 32.898438 C 8.457031 32.769531 8.617188 32.707031 8.816406 32.707031 C 9.019531 32.707031 9.175781 32.769531 9.289062 32.898438 C 9.40625 33.035156 9.460938 33.226562 9.460938 33.480469 C 9.460938 33.722656 9.410156 33.917969 9.300781 34.042969 C 9.195312 34.179688 9.035156 34.25 8.824219 34.25 C 8.617188 34.25 8.457031 34.179688 8.335938 34.042969 C 8.214844 33.910156 8.15625 33.722656 8.15625 33.480469 C 8.144531 33.238281 8.207031 33.039062 8.335938 32.898438 Z M 11.183594 34.351562 C 11.304688 34.242188 11.367188 34.109375 11.367188 33.941406 C 11.367188 33.796875 11.316406 33.671875 11.222656 33.578125 C 11.144531 33.5 11.023438 33.429688 10.851562 33.359375 C 10.695312 33.296875 10.601562 33.238281 10.550781 33.195312 C 10.496094 33.140625 10.464844 33.078125 10.464844 32.988281 C 10.464844 32.90625 10.5 32.839844 10.5625 32.789062 C 10.625 32.738281 10.707031 32.714844 10.816406 32.714844 C 10.992188 32.714844 11.136719 32.757812 11.273438 32.855469 L 11.273438 32.535156 C 11.144531 32.472656 11.003906 32.441406 10.84375 32.441406 C 10.636719 32.441406 10.464844 32.496094 10.335938 32.605469 C 10.203125 32.714844 10.140625 32.855469 10.140625 33.019531 C 10.140625 33.167969 10.183594 33.289062 10.265625 33.378906 C 10.335938 33.457031 10.457031 33.535156 10.625 33.601562 C 10.785156 33.671875 10.894531 33.738281 10.953125 33.789062 C 11.007812 33.839844 11.035156 33.902344 11.035156 33.980469 C 11.035156 34.164062 10.90625 34.261719 10.65625 34.261719 C 10.464844 34.261719 10.292969 34.199219 10.140625 34.070312 L 10.140625 34.414062 C 10.277344 34.5 10.445312 34.539062 10.628906 34.539062 C 10.867188 34.523438 11.054688 34.46875 11.179688 34.351562 Z M 12.703125 32.433594 C 12.402344 32.433594 12.160156 32.523438 11.980469 32.695312 C 11.792969 32.886719 11.6875 33.15625 11.6875 33.5 C 11.6875 33.800781 11.773438 34.050781 11.945312 34.234375 C 12.125 34.429688 12.359375 34.523438 12.660156 34.523438 C 12.96875 34.523438 13.203125 34.425781 13.382812 34.234375 C 13.5625 34.042969 13.652344 33.789062 13.652344 33.46875 C 13.652344 33.140625 13.570312 32.890625 13.402344 32.707031 C 13.230469 32.519531 13 32.429688 12.707031 32.429688 Z M 13.324219 33.480469 C 13.324219 33.722656 13.273438 33.917969 13.164062 34.042969 C 13.058594 34.179688 12.898438 34.25 12.6875 34.25 C 12.480469 34.25 12.320312 34.179688 12.199219 34.042969 C 12.078125 33.910156 12.019531 33.722656 12.019531 33.480469 C 12.019531 33.222656 12.085938 33.027344 12.210938 32.894531 C 12.332031 32.765625 12.492188 32.699219 12.691406 32.699219 C 12.890625 32.699219 13.050781 32.765625 13.164062 32.894531 C 13.265625 33.035156 13.324219 33.226562 13.324219 33.480469 Z M 14.191406 34.480469 L 14.507812 34.480469 L 14.507812 32.753906 L 14.976562 32.753906 L 14.976562 32.484375 L 14.507812 32.484375 L 14.507812 32.175781 C 14.507812 31.894531 14.617188 31.753906 14.839844 31.753906 C 14.917969 31.753906 14.992188 31.773438 15.050781 31.804688 L 15.050781 31.515625 C 14.992188 31.492188 14.917969 31.484375 14.820312 31.484375 C 14.648438 31.484375 14.507812 31.539062 14.390625 31.644531 C 14.257812 31.773438 14.1875 31.9375 14.1875 32.164062 L 14.1875 32.492188 L 13.851562 32.492188 L 13.851562 32.757812 L 14.1875 32.757812 L 14.1875 34.480469 Z M 15.5 33.933594 C 15.5 34.324219 15.671875 34.523438 16.023438 34.523438 C 16.152344 34.523438 16.25 34.503906 16.324219 34.457031 L 16.324219 34.183594 C 16.265625 34.226562 16.195312 34.25 16.121094 34.25 C 16.011719 34.25 15.933594 34.222656 15.890625 34.164062 C 15.84375 34.109375 15.820312 34.011719 15.820312 33.878906 L 15.820312 32.75 L 16.324219 32.75 L 16.324219 32.484375 L 15.820312 32.484375 L 15.820312 31.894531 C 15.710938 31.933594 15.601562 31.964844 15.5 31.996094 L 15.5 32.484375 L 15.15625 32.484375 L 15.15625 32.75 L 15.5 32.75 Z M 49.828125 37.613281 C 49.71875 37.511719 49.589844 37.457031 49.433594 37.457031 C 49.269531 37.457031 49.136719 37.511719 49.027344 37.621094 C 48.921875 37.726562 48.867188 37.863281 48.867188 38.015625 C 48.867188 38.175781 48.921875 38.308594 49.027344 38.414062 C 49.136719 38.515625 49.269531 38.566406 49.429688 38.566406 C 49.589844 38.566406 49.726562 38.515625 49.835938 38.40625 C 49.941406 38.296875 50 38.167969 50 38.011719 C 49.996094 37.847656 49.9375 37.714844 49.828125 37.613281 Z M 49.777344 38.367188 C 49.683594 38.464844 49.566406 38.507812 49.425781 38.507812 C 49.285156 38.507812 49.167969 38.464844 49.074219 38.367188 C 48.976562 38.273438 48.925781 38.152344 48.925781 38.007812 C 48.925781 37.871094 48.96875 37.753906 49.066406 37.65625 C 49.164062 37.5625 49.277344 37.515625 49.425781 37.515625 C 49.5625 37.515625 49.679688 37.5625 49.777344 37.65625 C 49.871094 37.753906 49.921875 37.871094 49.921875 38.007812 C 49.921875 38.15625 49.878906 38.273438 49.777344 38.367188 Z M 49.488281 38.042969 C 49.546875 38.027344 49.59375 38.003906 49.625 37.972656 C 49.65625 37.9375 49.667969 37.894531 49.667969 37.84375 C 49.667969 37.785156 49.648438 37.738281 49.609375 37.707031 C 49.566406 37.671875 49.496094 37.652344 49.40625 37.652344 L 49.203125 37.652344 L 49.203125 38.367188 L 49.304688 38.367188 L 49.304688 38.066406 L 49.367188 38.066406 C 49.410156 38.066406 49.457031 38.109375 49.496094 38.195312 L 49.570312 38.367188 L 49.695312 38.367188 L 49.597656 38.175781 C 49.566406 38.089844 49.527344 38.054688 49.488281 38.039062 Z M 49.417969 37.976562 L 49.308594 37.976562 L 49.308594 37.734375 L 49.398438 37.734375 C 49.464844 37.734375 49.507812 37.746094 49.535156 37.765625 C 49.558594 37.785156 49.566406 37.8125 49.566406 37.855469 C 49.566406 37.9375 49.515625 37.976562 49.417969 37.976562 Z M 31.574219 32.402344 L 31.664062 32.402344 L 31.664062 31.683594 L 31.898438 31.683594 L 31.898438 31.59375 L 31.335938 31.59375 L 31.335938 31.683594 L 31.574219 31.683594 Z M 32.117188 31.863281 C 32.117188 31.792969 32.117188 31.734375 32.109375 31.703125 C 32.117188 31.742188 32.128906 31.765625 32.136719 31.785156 L 32.410156 32.402344 L 32.457031 32.402344 L 32.730469 31.78125 C 32.738281 31.761719 32.746094 31.734375 32.757812 31.703125 C 32.75 31.765625 32.75 31.816406 32.75 31.855469 L 32.75 32.398438 L 32.847656 32.398438 L 32.847656 31.59375 L 32.730469 31.59375 L 32.480469 32.152344 C 32.476562 32.171875 32.457031 32.210938 32.445312 32.253906 L 32.4375 32.253906 C 32.429688 32.226562 32.417969 32.203125 32.398438 32.15625 L 32.148438 31.59375 L 32.019531 31.59375 L 32.019531 32.402344 L 32.109375 32.402344 L 32.109375 31.863281 Z M 32.117188 31.863281 "/>
</g>
</svg>
