<?xml version="1.0" encoding="UTF-8"?>
<svg xmlns="http://www.w3.org/2000/svg" xmlns:xlink="http://www.w3.org/1999/xlink" width="50px" height="50px" viewBox="0 0 50 50" version="1.1">
<g id="surface1">
<path style=" stroke:none;fill-rule:nonzero;fill:rgb(36.470588%,52.941176%,63.137255%);fill-opacity:1;" d="M 15.304688 35.660156 L 13.953125 35.660156 C 13.902344 33.375 13.773438 31.226562 13.554688 29.214844 L 13.542969 29.214844 L 11.484375 35.660156 L 10.453125 35.660156 L 8.402344 29.214844 L 8.390625 29.214844 C 8.242188 31.148438 8.144531 33.296875 8.105469 35.660156 L 6.871094 35.660156 C 6.949219 32.785156 7.148438 30.089844 7.46875 27.574219 L 9.148438 27.574219 L 11.101562 33.515625 L 11.113281 33.515625 L 13.078125 27.574219 L 14.683594 27.574219 C 15.035156 30.519531 15.242188 33.21875 15.304688 35.660156 M 21.175781 29.695312 C 20.625 32.683594 19.898438 34.859375 18.996094 36.214844 C 18.292969 37.257812 17.523438 37.78125 16.683594 37.78125 C 16.457031 37.78125 16.183594 37.714844 15.855469 37.578125 L 15.855469 36.859375 C 16.015625 36.882812 16.203125 36.894531 16.417969 36.894531 C 16.8125 36.894531 17.125 36.789062 17.367188 36.570312 C 17.652344 36.308594 17.796875 36.011719 17.796875 35.683594 C 17.796875 35.460938 17.683594 35 17.460938 34.308594 L 15.976562 29.695312 L 17.304688 29.695312 L 18.371094 33.144531 C 18.613281 33.925781 18.710938 34.472656 18.671875 34.785156 C 19.253906 33.230469 19.660156 31.53125 19.894531 29.695312 Z M 21.175781 29.695312 "/>
<path style=" stroke:none;fill-rule:nonzero;fill:rgb(97.254902%,59.607843%,11.372549%);fill-opacity:1;" d="M 39.195312 35.660156 L 35.347656 35.660156 L 35.347656 27.574219 L 36.640625 27.574219 L 36.640625 34.664062 L 39.195312 34.664062 Z M 34.34375 35.855469 L 32.855469 35.121094 C 32.988281 35.015625 33.113281 34.898438 33.226562 34.761719 C 33.859375 34.019531 34.175781 32.921875 34.175781 31.46875 C 34.175781 28.792969 33.125 27.453125 31.023438 27.453125 C 29.992188 27.453125 29.191406 27.792969 28.617188 28.472656 C 27.984375 29.214844 27.667969 30.308594 27.667969 31.753906 C 27.667969 33.175781 27.949219 34.21875 28.507812 34.882812 C 29.019531 35.480469 29.789062 35.78125 30.820312 35.78125 C 31.203125 35.78125 31.558594 35.734375 31.878906 35.636719 L 33.816406 36.765625 Z M 29.527344 34.042969 C 29.199219 33.515625 29.035156 32.671875 29.035156 31.503906 C 29.035156 29.46875 29.652344 28.449219 30.890625 28.449219 C 31.539062 28.449219 32.015625 28.691406 32.316406 29.179688 C 32.644531 29.707031 32.808594 30.542969 32.808594 31.695312 C 32.808594 33.746094 32.191406 34.773438 30.953125 34.773438 C 30.304688 34.773438 29.828125 34.53125 29.527344 34.042969 M 27.105469 33.417969 C 27.105469 34.105469 26.851562 34.667969 26.351562 35.109375 C 25.847656 35.546875 25.171875 35.765625 24.328125 35.765625 C 23.535156 35.765625 22.769531 35.515625 22.027344 35.011719 L 22.375 34.316406 C 23.011719 34.636719 23.589844 34.796875 24.109375 34.796875 C 24.597656 34.796875 24.980469 34.6875 25.253906 34.472656 C 25.53125 34.257812 25.695312 33.957031 25.695312 33.578125 C 25.695312 33.097656 25.359375 32.683594 24.746094 32.339844 C 24.179688 32.03125 23.046875 31.378906 23.046875 31.378906 C 22.429688 30.929688 22.125 30.449219 22.125 29.660156 C 22.125 29.003906 22.351562 28.472656 22.8125 28.070312 C 23.269531 27.667969 23.863281 27.464844 24.589844 27.464844 C 25.339844 27.464844 26.023438 27.667969 26.640625 28.066406 L 26.328125 28.757812 C 25.800781 28.535156 25.28125 28.425781 24.769531 28.425781 C 24.355469 28.425781 24.035156 28.523438 23.8125 28.722656 C 23.589844 28.921875 23.449219 29.179688 23.449219 29.492188 C 23.449219 29.96875 23.792969 30.386719 24.425781 30.738281 C 25 31.046875 26.160156 31.710938 26.160156 31.710938 C 26.789062 32.15625 27.105469 32.632812 27.105469 33.417969 "/>
<path style=" stroke:none;fill-rule:nonzero;fill:rgb(36.470588%,52.941176%,63.137255%);fill-opacity:1;" d="M 40.816406 24.863281 C 40.035156 24.84375 39.429688 24.921875 38.921875 25.136719 C 38.773438 25.195312 38.542969 25.195312 38.523438 25.382812 C 38.601562 25.460938 38.609375 25.585938 38.679688 25.695312 C 38.796875 25.890625 39 26.152344 39.1875 26.292969 C 39.390625 26.449219 39.597656 26.605469 39.8125 26.742188 C 40.191406 26.976562 40.625 27.113281 40.992188 27.347656 C 41.210938 27.484375 41.425781 27.660156 41.640625 27.804688 C 41.746094 27.882812 41.816406 28.011719 41.953125 28.058594 L 41.953125 28.03125 C 41.882812 27.941406 41.863281 27.816406 41.796875 27.71875 L 41.503906 27.433594 C 41.21875 27.054688 40.867188 26.722656 40.488281 26.449219 C 40.171875 26.230469 39.488281 25.9375 39.363281 25.578125 L 39.34375 25.558594 C 39.558594 25.539062 39.8125 25.460938 40.015625 25.402344 C 40.347656 25.3125 40.652344 25.332031 40.992188 25.246094 C 41.152344 25.207031 41.304688 25.15625 41.464844 25.109375 L 41.464844 25.019531 C 41.285156 24.84375 41.160156 24.609375 40.976562 24.445312 C 40.476562 24.015625 39.929688 23.59375 39.363281 23.242188 C 39.058594 23.046875 38.667969 22.921875 38.347656 22.753906 C 38.230469 22.695312 38.035156 22.667969 37.964844 22.566406 C 37.789062 22.351562 37.691406 22.070312 37.5625 21.816406 C 37.28125 21.277344 37.007812 20.683594 36.761719 20.113281 C 36.585938 19.734375 36.480469 19.355469 36.265625 19 C 35.257812 17.339844 34.164062 16.335938 32.484375 15.347656 C 32.121094 15.140625 31.691406 15.054688 31.234375 14.945312 L 30.5 14.90625 C 30.34375 14.839844 30.1875 14.652344 30.050781 14.566406 C 29.492188 14.214844 28.054688 13.453125 27.644531 14.457031 C 27.382812 15.09375 28.039062 15.71875 28.261719 16.039062 C 28.429688 16.265625 28.644531 16.519531 28.757812 16.773438 C 28.828125 16.941406 28.847656 17.117188 28.917969 17.292969 C 29.074219 17.722656 29.21875 18.199219 29.425781 18.601562 C 29.53125 18.804688 29.648438 19.019531 29.785156 19.207031 C 29.863281 19.316406 30 19.363281 30.03125 19.539062 C 29.894531 19.734375 29.882812 20.027344 29.804688 20.273438 C 29.453125 21.375 29.589844 22.742188 30.089844 23.554688 C 30.246094 23.800781 30.617188 24.335938 31.113281 24.132812 C 31.554688 23.957031 31.457031 23.398438 31.585938 22.910156 C 31.613281 22.792969 31.59375 22.714844 31.652344 22.636719 L 31.652344 22.65625 C 31.789062 22.929688 31.925781 23.191406 32.054688 23.46875 C 32.355469 23.945312 32.882812 24.445312 33.324219 24.777344 C 33.558594 24.953125 33.742188 25.253906 34.035156 25.363281 L 34.035156 25.332031 L 34.019531 25.332031 C 33.957031 25.246094 33.871094 25.207031 33.792969 25.136719 C 33.617188 24.960938 33.421875 24.746094 33.285156 24.550781 C 32.875 24.003906 32.511719 23.398438 32.191406 22.773438 C 32.035156 22.46875 31.898438 22.136719 31.769531 21.835938 C 31.710938 21.71875 31.710938 21.542969 31.613281 21.484375 C 31.46875 21.699219 31.253906 21.882812 31.144531 22.148438 C 30.960938 22.566406 30.941406 23.085938 30.871094 23.625 L 30.832031 23.644531 C 30.519531 23.566406 30.414062 23.242188 30.292969 22.96875 C 30.003906 22.273438 29.953125 21.160156 30.207031 20.359375 C 30.273438 20.15625 30.570312 19.511719 30.453125 19.316406 C 30.394531 19.128906 30.199219 19.019531 30.089844 18.875 C 29.964844 18.6875 29.824219 18.453125 29.738281 18.25 C 29.503906 17.703125 29.386719 17.097656 29.132812 16.550781 C 29.015625 16.292969 28.808594 16.03125 28.644531 15.796875 C 28.457031 15.53125 28.253906 15.347656 28.105469 15.035156 C 28.058594 14.925781 27.988281 14.75 28.066406 14.632812 C 28.085938 14.554688 28.125 14.527344 28.203125 14.507812 C 28.332031 14.398438 28.691406 14.535156 28.820312 14.59375 C 29.183594 14.742188 29.484375 14.878906 29.789062 15.082031 C 29.925781 15.179688 30.070312 15.367188 30.246094 15.414062 L 30.453125 15.414062 C 30.765625 15.484375 31.117188 15.433594 31.410156 15.523438 C 31.925781 15.6875 32.394531 15.933594 32.816406 16.195312 C 34.097656 17.007812 35.152344 18.160156 35.863281 19.539062 C 35.980469 19.761719 36.03125 19.96875 36.136719 20.203125 C 36.34375 20.683594 36.597656 21.171875 36.800781 21.640625 C 37.007812 22.097656 37.203125 22.566406 37.496094 22.949219 C 37.644531 23.152344 38.230469 23.261719 38.492188 23.371094 C 38.6875 23.457031 38.992188 23.535156 39.167969 23.640625 C 39.5 23.847656 39.832031 24.082031 40.144531 24.308594 C 40.300781 24.425781 40.789062 24.667969 40.816406 24.863281 M 30.851562 16.371094 C 30.714844 16.371094 30.582031 16.386719 30.449219 16.421875 L 30.449219 16.441406 L 30.46875 16.441406 C 30.546875 16.597656 30.683594 16.707031 30.78125 16.84375 C 30.859375 17 30.929688 17.15625 31.007812 17.3125 L 31.027344 17.292969 C 31.164062 17.195312 31.230469 17.039062 31.230469 16.804688 C 31.171875 16.734375 31.164062 16.667969 31.113281 16.597656 C 31.054688 16.5 30.929688 16.453125 30.851562 16.371094 "/>
<path style=" stroke:none;fill-rule:nonzero;fill:rgb(97.254902%,59.607843%,11.372549%);fill-opacity:1;" d="M 41.75 35.660156 L 41.949219 35.660156 L 41.949219 34.667969 L 41.648438 34.667969 L 41.398438 35.34375 L 41.128906 34.667969 L 40.839844 34.667969 L 40.839844 35.660156 L 41.03125 35.660156 L 41.03125 34.90625 L 41.039062 34.90625 L 41.320312 35.660156 L 41.46875 35.660156 L 41.75 34.90625 Z M 40.117188 35.660156 L 40.332031 35.660156 L 40.332031 34.835938 L 40.613281 34.835938 L 40.613281 34.667969 L 39.824219 34.667969 L 39.824219 34.835938 L 40.117188 34.835938 Z M 40.117188 35.660156 "/>
</g>
</svg>
