<?xml version="1.0" encoding="UTF-8"?>
<svg xmlns="http://www.w3.org/2000/svg" xmlns:xlink="http://www.w3.org/1999/xlink" width="50px" height="50px" viewBox="0 0 50 50" version="1.1">
<g id="surface1">
<path style=" stroke:none;fill-rule:nonzero;fill:rgb(100%,100%,100%);fill-opacity:1;" d="M 12.5 0 L 37.5 0 C 44.402344 0 50 5.597656 50 12.5 L 50 37.5 C 50 44.402344 44.402344 50 37.5 50 L 12.5 50 C 5.597656 50 0 44.402344 0 37.5 L 0 12.5 C 0 5.597656 5.597656 0 12.5 0 Z M 12.5 0 "/>
<path style=" stroke:none;fill-rule:nonzero;fill:rgb(36.470588%,52.941176%,63.137255%);fill-opacity:1;" d="M 12.898438 28.925781 L 11.769531 28.925781 C 11.730469 27.019531 11.621094 25.230469 11.441406 23.554688 L 11.429688 23.554688 L 9.714844 28.925781 L 8.855469 28.925781 L 7.148438 23.554688 L 7.136719 23.554688 C 7.011719 25.164062 6.929688 26.953125 6.898438 28.925781 L 5.871094 28.925781 C 5.9375 26.527344 6.101562 24.28125 6.367188 22.1875 L 7.765625 22.1875 L 9.394531 27.136719 L 9.402344 27.136719 L 11.042969 22.1875 L 12.378906 22.1875 C 12.671875 24.640625 12.84375 26.886719 12.898438 28.925781 M 17.789062 23.953125 C 17.332031 26.445312 16.726562 28.257812 15.972656 29.386719 C 15.386719 30.257812 14.746094 30.691406 14.046875 30.691406 C 13.859375 30.691406 13.628906 30.636719 13.355469 30.523438 L 13.355469 29.921875 C 13.492188 29.941406 13.648438 29.953125 13.828125 29.953125 C 14.152344 29.953125 14.414062 29.863281 14.617188 29.683594 C 14.855469 29.464844 14.972656 29.21875 14.972656 28.945312 C 14.972656 28.757812 14.882812 28.375 14.695312 27.796875 L 13.457031 23.953125 L 14.566406 23.953125 L 15.453125 26.828125 C 15.652344 27.480469 15.738281 27.9375 15.703125 28.195312 C 16.1875 26.898438 16.527344 25.484375 16.722656 23.953125 Z M 17.789062 23.953125 "/>
<path style=" stroke:none;fill-rule:nonzero;fill:rgb(97.254902%,59.607843%,11.372549%);fill-opacity:1;" d="M 32.804688 28.925781 L 29.601562 28.925781 L 29.601562 22.1875 L 30.679688 22.1875 L 30.679688 28.09375 L 32.804688 28.09375 Z M 28.761719 29.089844 L 27.523438 28.476562 C 27.632812 28.386719 27.738281 28.289062 27.832031 28.175781 C 28.359375 27.558594 28.621094 26.640625 28.621094 25.429688 C 28.621094 23.199219 27.746094 22.085938 25.996094 22.085938 C 25.136719 22.085938 24.46875 22.367188 23.988281 22.933594 C 23.464844 23.554688 23.199219 24.464844 23.199219 25.671875 C 23.199219 26.855469 23.433594 27.722656 23.898438 28.273438 C 24.324219 28.773438 24.96875 29.023438 25.828125 29.023438 C 26.148438 29.023438 26.441406 28.984375 26.710938 28.90625 L 28.320312 29.84375 Z M 24.75 27.578125 C 24.476562 27.136719 24.339844 26.433594 24.339844 25.460938 C 24.339844 23.765625 24.855469 22.914062 25.886719 22.914062 C 26.425781 22.914062 26.820312 23.117188 27.074219 23.523438 C 27.347656 23.960938 27.484375 24.660156 27.484375 25.621094 C 27.484375 27.332031 26.96875 28.1875 25.9375 28.1875 C 25.398438 28.1875 25 27.984375 24.75 27.578125 M 22.730469 27.058594 C 22.730469 27.628906 22.519531 28.097656 22.101562 28.464844 C 21.683594 28.832031 21.121094 29.015625 20.414062 29.015625 C 19.757812 29.015625 19.117188 28.804688 18.5 28.382812 L 18.789062 27.804688 C 19.320312 28.074219 19.804688 28.203125 20.234375 28.203125 C 20.640625 28.203125 20.960938 28.113281 21.1875 27.9375 C 21.417969 27.757812 21.554688 27.503906 21.554688 27.1875 C 21.554688 26.789062 21.277344 26.445312 20.765625 26.160156 C 20.292969 25.898438 19.347656 25.355469 19.347656 25.355469 C 18.835938 24.984375 18.578125 24.582031 18.578125 23.921875 C 18.578125 23.378906 18.769531 22.9375 19.152344 22.601562 C 19.535156 22.265625 20.03125 22.097656 20.636719 22.097656 C 21.261719 22.097656 21.832031 22.261719 22.34375 22.59375 L 22.082031 23.175781 C 21.644531 22.988281 21.210938 22.894531 20.785156 22.894531 C 20.441406 22.894531 20.171875 22.976562 19.988281 23.144531 C 19.800781 23.3125 19.683594 23.523438 19.683594 23.785156 C 19.683594 24.183594 19.96875 24.527344 20.496094 24.820312 C 20.976562 25.082031 21.945312 25.632812 21.945312 25.632812 C 22.46875 26.003906 22.730469 26.402344 22.730469 27.058594 "/>
<path style=" stroke:none;fill-rule:nonzero;fill:rgb(36.470588%,52.941176%,63.137255%);fill-opacity:1;" d="M 34.15625 19.929688 C 33.507812 19.910156 33 19.976562 32.578125 20.15625 C 32.457031 20.207031 32.261719 20.207031 32.246094 20.359375 C 32.308594 20.425781 32.316406 20.53125 32.375 20.621094 C 32.472656 20.785156 32.644531 21.003906 32.796875 21.117188 C 32.96875 21.25 33.140625 21.378906 33.320312 21.492188 C 33.636719 21.6875 33.996094 21.800781 34.304688 21.996094 C 34.484375 22.109375 34.664062 22.257812 34.84375 22.378906 C 34.933594 22.445312 34.988281 22.550781 35.101562 22.589844 L 35.101562 22.566406 C 35.046875 22.492188 35.03125 22.386719 34.972656 22.304688 L 34.726562 22.070312 C 34.492188 21.753906 34.199219 21.476562 33.882812 21.246094 C 33.621094 21.066406 33.050781 20.824219 32.945312 20.523438 L 32.929688 20.507812 C 33.109375 20.492188 33.320312 20.425781 33.492188 20.375 C 33.769531 20.300781 34.019531 20.320312 34.304688 20.246094 C 34.433594 20.214844 34.566406 20.171875 34.695312 20.132812 L 34.695312 20.058594 C 34.546875 19.910156 34.445312 19.71875 34.289062 19.578125 C 33.875 19.21875 33.417969 18.871094 32.945312 18.578125 C 32.691406 18.414062 32.367188 18.308594 32.097656 18.167969 C 32 18.121094 31.835938 18.097656 31.78125 18.015625 C 31.632812 17.835938 31.550781 17.601562 31.445312 17.386719 C 31.210938 16.941406 30.980469 16.445312 30.777344 15.96875 C 30.632812 15.652344 30.542969 15.335938 30.363281 15.042969 C 29.523438 13.660156 28.613281 12.820312 27.210938 11.996094 C 26.910156 11.824219 26.554688 11.753906 26.171875 11.664062 L 25.558594 11.632812 C 25.429688 11.574219 25.300781 11.417969 25.183594 11.347656 C 24.71875 11.054688 23.523438 10.417969 23.183594 11.257812 C 22.960938 11.785156 23.507812 12.308594 23.695312 12.574219 C 23.832031 12.761719 24.011719 12.976562 24.109375 13.1875 C 24.167969 13.324219 24.183594 13.472656 24.242188 13.617188 C 24.371094 13.976562 24.492188 14.375 24.664062 14.710938 C 24.753906 14.878906 24.851562 15.058594 24.964844 15.214844 C 25.03125 15.304688 25.144531 15.34375 25.167969 15.492188 C 25.054688 15.652344 25.046875 15.898438 24.980469 16.101562 C 24.6875 17.019531 24.804688 18.160156 25.21875 18.835938 C 25.347656 19.039062 25.65625 19.488281 26.074219 19.316406 C 26.441406 19.171875 26.359375 18.707031 26.464844 18.300781 C 26.488281 18.203125 26.472656 18.136719 26.519531 18.074219 L 26.519531 18.089844 C 26.632812 18.316406 26.75 18.535156 26.855469 18.765625 C 27.105469 19.164062 27.546875 19.578125 27.914062 19.855469 C 28.109375 20 28.261719 20.253906 28.507812 20.34375 L 28.507812 20.320312 L 28.492188 20.320312 C 28.441406 20.246094 28.371094 20.214844 28.304688 20.15625 C 28.15625 20.011719 27.996094 19.832031 27.882812 19.667969 C 27.539062 19.210938 27.238281 18.707031 26.96875 18.1875 C 26.839844 17.933594 26.726562 17.65625 26.621094 17.402344 C 26.570312 17.308594 26.570312 17.160156 26.488281 17.109375 C 26.367188 17.289062 26.1875 17.445312 26.097656 17.664062 C 25.941406 18.015625 25.925781 18.445312 25.871094 18.894531 L 25.835938 18.910156 C 25.578125 18.84375 25.488281 18.578125 25.390625 18.347656 C 25.144531 17.769531 25.105469 16.84375 25.316406 16.175781 C 25.371094 16.003906 25.617188 15.464844 25.519531 15.304688 C 25.472656 15.148438 25.308594 15.058594 25.21875 14.9375 C 25.113281 14.78125 25 14.585938 24.925781 14.414062 C 24.730469 13.960938 24.632812 13.453125 24.421875 13 C 24.324219 12.785156 24.152344 12.566406 24.015625 12.371094 C 23.859375 12.152344 23.6875 11.996094 23.566406 11.738281 C 23.523438 11.648438 23.46875 11.5 23.53125 11.402344 C 23.550781 11.339844 23.582031 11.3125 23.648438 11.296875 C 23.753906 11.207031 24.054688 11.320312 24.160156 11.371094 C 24.460938 11.492188 24.714844 11.605469 24.964844 11.777344 C 25.078125 11.859375 25.203125 12.015625 25.347656 12.054688 L 25.519531 12.054688 C 25.78125 12.109375 26.074219 12.070312 26.316406 12.144531 C 26.75 12.28125 27.140625 12.484375 27.492188 12.707031 C 28.558594 13.382812 29.4375 14.34375 30.03125 15.492188 C 30.128906 15.675781 30.167969 15.847656 30.257812 16.042969 C 30.429688 16.445312 30.640625 16.851562 30.8125 17.242188 C 30.984375 17.625 31.144531 18.015625 31.390625 18.332031 C 31.511719 18.503906 32 18.59375 32.222656 18.683594 C 32.382812 18.753906 32.636719 18.820312 32.78125 18.910156 C 33.058594 19.082031 33.335938 19.277344 33.597656 19.464844 C 33.726562 19.5625 34.132812 19.765625 34.15625 19.929688 M 25.851562 12.851562 C 25.738281 12.851562 25.628906 12.863281 25.519531 12.894531 L 25.519531 12.910156 L 25.535156 12.910156 C 25.601562 13.039062 25.714844 13.128906 25.796875 13.242188 C 25.859375 13.375 25.917969 13.503906 25.980469 13.632812 L 25.996094 13.617188 C 26.113281 13.535156 26.167969 13.40625 26.167969 13.210938 C 26.121094 13.152344 26.113281 13.097656 26.070312 13.039062 C 26.023438 12.957031 25.917969 12.917969 25.851562 12.851562 "/>
<path style=" stroke:none;fill-rule:nonzero;fill:rgb(97.254902%,59.607843%,11.372549%);fill-opacity:1;" d="M 34.933594 28.925781 L 35.101562 28.925781 L 35.101562 28.097656 L 34.847656 28.097656 L 34.644531 28.660156 L 34.417969 28.097656 L 34.175781 28.097656 L 34.175781 28.925781 L 34.335938 28.925781 L 34.335938 28.296875 L 34.34375 28.296875 L 34.578125 28.925781 L 34.699219 28.925781 L 34.933594 28.296875 Z M 33.574219 28.925781 L 33.753906 28.925781 L 33.753906 28.238281 L 33.988281 28.238281 L 33.988281 28.097656 L 33.332031 28.097656 L 33.332031 28.238281 L 33.574219 28.238281 Z M 33.574219 28.925781 "/>
</g>
</svg>
