<?xml version="1.0" encoding="UTF-8"?>
<svg xmlns="http://www.w3.org/2000/svg" xmlns:xlink="http://www.w3.org/1999/xlink" width="50px" height="50px" viewBox="0 0 50 50" version="1.1">
<g id="surface1">
<path style=" stroke:none;fill-rule:nonzero;fill:rgb(0%,0%,0%);fill-opacity:1;" d="M 24.738281 12.722656 C 22.707031 13.058594 21.003906 13.894531 19.726562 15.167969 C 18.214844 16.679688 17.449219 18.488281 17.1875 21.171875 C 17.070312 22.394531 17.003906 27.214844 17.109375 27.214844 C 17.136719 27.214844 17.382812 27.121094 17.65625 27.003906 C 18.292969 26.730469 19.675781 26.730469 20.390625 26.992188 L 20.9375 27.1875 L 21.003906 24.050781 C 21.066406 20.703125 21.144531 20.195312 21.769531 18.945312 C 22.199219 18.113281 23.242188 17.136719 24.128906 16.730469 C 25.144531 16.261719 26.628906 16.082031 27.773438 16.261719 C 30.222656 16.667969 31.679688 17.996094 32.292969 20.363281 C 32.539062 21.316406 32.550781 21.808594 32.550781 27.042969 L 32.550781 32.683594 L 36.484375 32.683594 L 36.417969 26.523438 C 36.378906 20.703125 36.355469 20.3125 36.082031 19.269531 C 35.339844 16.378906 33.542969 14.285156 31.027344 13.332031 C 29.6875 12.824219 28.410156 12.628906 26.652344 12.644531 C 25.78125 12.65625 24.921875 12.695312 24.738281 12.722656 Z M 24.738281 12.722656 "/>
<path style=" stroke:none;fill-rule:nonzero;fill:rgb(0.392157%,54.509804%,100%);fill-opacity:1;" d="M 8.878906 22.34375 C 7.761719 22.902344 7.160156 23.90625 7.160156 25.261719 C 7.160156 25.691406 7.238281 26.238281 7.34375 26.484375 C 7.589844 27.097656 8.292969 27.839844 8.90625 28.164062 C 9.648438 28.554688 11.054688 28.554688 11.785156 28.175781 L 12.316406 27.902344 L 13.984375 29.035156 L 15.652344 30.183594 L 15.652344 31.914062 L 13.984375 33.058594 L 12.304688 34.207031 L 11.875 33.945312 C 11.25 33.582031 10.039062 33.503906 9.296875 33.789062 C 8.515625 34.089844 7.707031 34.804688 7.410156 35.480469 C 7.082031 36.171875 7.082031 37.527344 7.410156 38.214844 C 7.683594 38.828125 8.320312 39.503906 8.894531 39.804688 C 9.128906 39.921875 9.6875 40.039062 10.15625 40.078125 C 11.25 40.15625 12.175781 39.792969 12.839844 39.011719 C 13.371094 38.386719 13.722656 37.292969 13.632812 36.535156 L 13.566406 36.003906 L 16.925781 33.738281 L 17.527344 34.011719 C 18.4375 34.402344 19.792969 34.308594 20.652344 33.789062 C 21.589844 33.203125 22.058594 32.371094 22.109375 31.199219 C 22.148438 30.378906 22.109375 30.195312 21.785156 29.558594 C 20.9375 27.941406 19.050781 27.332031 17.433594 28.136719 L 16.953125 28.371094 L 15.300781 27.238281 L 13.644531 26.105469 L 13.605469 25.195312 C 13.582031 24.101562 13.269531 23.398438 12.5 22.761719 C 11.523438 21.925781 10.066406 21.757812 8.878906 22.34375 Z M 8.878906 22.34375 "/>
</g>
</svg>
