<?xml version="1.0" encoding="UTF-8"?>
<svg xmlns="http://www.w3.org/2000/svg" xmlns:xlink="http://www.w3.org/1999/xlink" width="50px" height="50px" viewBox="0 0 50 50" version="1.1">
<g id="surface1">
<path style=" stroke:none;fill-rule:nonzero;fill:rgb(0%,18.823529%,25.882353%);fill-opacity:1;" d="M 20.386719 22.050781 C 20.429688 22.058594 20.472656 22.070312 20.511719 22.085938 C 20.554688 22.105469 20.589844 22.128906 20.621094 22.160156 C 20.664062 22.199219 20.703125 22.242188 20.742188 22.289062 L 24.015625 26.429688 C 23.988281 26.183594 23.976562 25.9375 23.976562 25.691406 L 23.976562 22.039062 L 25.386719 22.039062 L 25.386719 28.929688 L 24.554688 28.929688 C 24.445312 28.933594 24.339844 28.914062 24.242188 28.875 C 24.144531 28.828125 24.058594 28.753906 23.996094 28.664062 L 20.746094 24.566406 C 20.753906 24.683594 20.761719 24.800781 20.769531 24.914062 C 20.773438 25.03125 20.777344 25.136719 20.777344 25.238281 L 20.777344 28.933594 L 19.367188 28.933594 L 19.367188 22.039062 L 20.210938 22.039062 C 20.269531 22.039062 20.328125 22.042969 20.386719 22.050781 Z M 27.453125 24.023438 L 27.453125 27.136719 C 27.453125 27.378906 27.507812 27.566406 27.617188 27.699219 C 27.742188 27.839844 27.921875 27.910156 28.105469 27.898438 C 28.261719 27.898438 28.414062 27.867188 28.558594 27.800781 C 28.707031 27.726562 28.84375 27.632812 28.964844 27.519531 L 28.964844 24.023438 L 30.433594 24.023438 L 30.433594 28.929688 L 29.523438 28.929688 C 29.363281 28.945312 29.210938 28.839844 29.164062 28.683594 L 29.074219 28.398438 C 28.984375 28.488281 28.886719 28.574219 28.78125 28.648438 C 28.574219 28.800781 28.335938 28.90625 28.082031 28.960938 C 27.941406 28.992188 27.792969 29.007812 27.648438 29.007812 C 27.40625 29.011719 27.164062 28.964844 26.9375 28.867188 C 26.738281 28.777344 26.558594 28.644531 26.414062 28.476562 C 26.269531 28.304688 26.160156 28.105469 26.09375 27.886719 C 26.019531 27.644531 25.980469 27.390625 25.984375 27.140625 L 25.984375 24.023438 Z M 31.378906 28.929688 L 31.378906 24.023438 L 32.289062 24.023438 C 32.367188 24.019531 32.449219 24.042969 32.515625 24.085938 C 32.582031 24.128906 32.628906 24.195312 32.648438 24.269531 L 32.726562 24.535156 C 32.804688 24.449219 32.890625 24.371094 32.980469 24.296875 C 33.070312 24.226562 33.167969 24.164062 33.269531 24.113281 C 33.492188 24 33.738281 23.941406 33.988281 23.945312 C 34.253906 23.9375 34.515625 24.015625 34.726562 24.175781 C 34.925781 24.335938 35.078125 24.546875 35.167969 24.789062 C 35.246094 24.644531 35.347656 24.511719 35.46875 24.398438 C 35.582031 24.296875 35.710938 24.207031 35.851562 24.140625 C 35.988281 24.074219 36.136719 24.023438 36.285156 23.992188 C 36.4375 23.960938 36.589844 23.945312 36.742188 23.945312 C 36.996094 23.941406 37.25 23.984375 37.492188 24.070312 C 37.699219 24.148438 37.886719 24.273438 38.035156 24.4375 C 38.1875 24.605469 38.304688 24.804688 38.371094 25.023438 C 38.449219 25.277344 38.488281 25.546875 38.484375 25.8125 L 38.484375 28.929688 L 37.015625 28.929688 L 37.015625 25.8125 C 37.015625 25.304688 36.796875 25.054688 36.363281 25.054688 C 36.179688 25.046875 36 25.117188 35.871094 25.25 C 35.738281 25.378906 35.671875 25.566406 35.671875 25.8125 L 35.671875 28.929688 L 34.207031 28.929688 L 34.207031 25.8125 C 34.207031 25.53125 34.152344 25.335938 34.042969 25.222656 C 33.929688 25.109375 33.769531 25.050781 33.554688 25.050781 C 33.425781 25.050781 33.296875 25.082031 33.179688 25.140625 C 33.054688 25.203125 32.945312 25.285156 32.84375 25.382812 L 32.84375 28.933594 Z M 40.933594 26.628906 L 40.933594 28.929688 L 39.335938 28.929688 L 39.335938 22.039062 L 41.765625 22.039062 C 42.191406 22.027344 42.613281 22.085938 43.019531 22.210938 C 43.335938 22.304688 43.628906 22.46875 43.878906 22.683594 C 44.101562 22.878906 44.273438 23.125 44.378906 23.398438 C 44.488281 23.679688 44.539062 23.984375 44.539062 24.285156 C 44.539062 24.609375 44.484375 24.929688 44.371094 25.234375 C 44.265625 25.515625 44.089844 25.769531 43.867188 25.972656 C 43.613281 26.191406 43.320312 26.355469 43 26.453125 C 42.601562 26.574219 42.1875 26.636719 41.769531 26.628906 Z M 40.933594 25.421875 L 41.765625 25.421875 C 42.183594 25.421875 42.484375 25.324219 42.667969 25.125 C 42.847656 24.925781 42.941406 24.648438 42.941406 24.292969 C 42.941406 24.144531 42.917969 24 42.871094 23.859375 C 42.824219 23.734375 42.753906 23.621094 42.65625 23.527344 C 42.550781 23.429688 42.425781 23.355469 42.292969 23.308594 C 42.121094 23.253906 41.945312 23.230469 41.769531 23.230469 L 40.933594 23.230469 Z M 47.378906 30.203125 C 47.347656 30.289062 47.292969 30.363281 47.222656 30.421875 C 47.128906 30.472656 47.023438 30.496094 46.917969 30.488281 L 45.816406 30.488281 L 46.765625 28.503906 L 44.808594 24.023438 L 46.101562 24.023438 C 46.199219 24.019531 46.292969 24.046875 46.367188 24.105469 C 46.429688 24.148438 46.476562 24.210938 46.5 24.28125 L 47.304688 26.398438 C 47.378906 26.589844 47.441406 26.78125 47.488281 26.980469 C 47.519531 26.882812 47.554688 26.78125 47.59375 26.683594 C 47.632812 26.585938 47.667969 26.488281 47.703125 26.386719 L 48.433594 24.28125 C 48.457031 24.207031 48.511719 24.140625 48.578125 24.097656 C 48.648438 24.050781 48.734375 24.027344 48.816406 24.027344 L 50 24.027344 Z M 47.378906 30.203125 "/>
<path style=" stroke:none;fill-rule:nonzero;fill:rgb(30.196078%,67.058824%,81.176471%);fill-opacity:1;" d="M 6.96875 19.796875 L 4.042969 18.316406 L 0.828125 19.921875 L 3.835938 21.433594 Z M 8.3125 20.472656 L 11.382812 22.023438 L 8.199219 23.625 L 5.1875 22.109375 Z M 12.417969 18.339844 L 15.570312 19.921875 L 12.75 21.339844 L 9.671875 19.785156 Z M 11.058594 17.65625 L 8.21875 16.234375 L 5.40625 17.636719 L 8.335938 19.109375 Z M 8.839844 29.890625 L 8.839844 33.765625 L 12.277344 32.046875 L 12.273438 28.171875 Z M 12.273438 26.816406 L 12.269531 22.980469 L 8.839844 24.6875 L 8.839844 28.527344 Z M 16.40625 26.097656 L 16.40625 29.992188 L 13.46875 31.453125 L 13.46875 27.582031 Z M 16.40625 24.738281 L 16.40625 20.921875 L 13.464844 22.386719 L 13.46875 26.230469 Z M 16.40625 24.738281 "/>
<path style=" stroke:none;fill-rule:nonzero;fill:rgb(29.803922%,45.882353%,81.176471%);fill-opacity:1;" d="M 7.621094 24.6875 L 5.304688 23.519531 L 5.304688 28.554688 C 5.304688 28.554688 2.46875 22.523438 2.207031 21.984375 C 2.175781 21.914062 2.035156 21.835938 2 21.816406 C 1.335938 21.472656 0.667969 21.132812 0 20.796875 L 0 29.699219 L 2.0625 30.800781 L 2.0625 26.148438 C 2.0625 26.148438 4.867188 31.539062 4.894531 31.597656 C 4.921875 31.65625 5.203125 32.222656 5.503906 32.421875 C 5.90625 32.6875 7.621094 33.71875 7.621094 33.71875 Z M 7.621094 24.6875 "/>
</g>
</svg>
