<?xml version="1.0" encoding="UTF-8"?>
<svg xmlns="http://www.w3.org/2000/svg" xmlns:xlink="http://www.w3.org/1999/xlink" width="50px" height="50px" viewBox="0 0 50 50" version="1.1">
<g id="surface1">
<path style=" stroke:none;fill-rule:nonzero;fill:rgb(7.45098%,2.745098%,32.941176%);fill-opacity:1;" d="M 4.433594 44.964844 C 3.480469 44.964844 2.515625 44.574219 1.90625 43.800781 L 1.90625 47.972656 L 0 47.972656 L 0 37.675781 L 1.722656 37.675781 L 1.792969 38.804688 C 2.382812 37.933594 3.433594 37.476562 4.4375 37.476562 C 6.355469 37.476562 7.773438 39.085938 7.773438 41.21875 C 7.773438 43.355469 6.355469 44.96875 4.433594 44.96875 Z M 3.84375 38.890625 C 2.730469 38.890625 1.824219 39.761719 1.824219 41.222656 C 1.824219 42.683594 2.726562 43.554688 3.84375 43.554688 C 4.960938 43.554688 5.863281 42.683594 5.863281 41.222656 C 5.863281 39.761719 4.960938 38.890625 3.84375 38.890625 Z M 14.953125 44.769531 L 14.890625 43.636719 C 14.296875 44.507812 13.246094 44.96875 12.246094 44.96875 C 10.324219 44.96875 8.910156 43.359375 8.910156 41.222656 C 8.910156 39.089844 10.320312 37.480469 12.246094 37.480469 C 13.246094 37.480469 14.296875 37.945312 14.890625 38.808594 L 14.957031 37.675781 L 16.679688 37.675781 L 16.679688 44.773438 Z M 12.835938 38.890625 C 11.726562 38.890625 10.816406 39.761719 10.816406 41.222656 C 10.816406 42.683594 11.71875 43.554688 12.835938 43.554688 C 13.953125 43.554688 14.855469 42.683594 14.855469 41.222656 C 14.855469 39.761719 13.953125 38.898438 12.835938 38.890625 Z M 23.34375 44.773438 L 23.34375 40.84375 C 23.34375 39.464844 22.867188 39.003906 22 39.003906 C 21.09375 39.003906 20.109375 39.824219 20.109375 40.808594 L 20.109375 44.769531 L 18.203125 44.769531 L 18.203125 37.675781 L 19.949219 37.675781 L 20.03125 38.992188 C 20.507812 38.089844 21.574219 37.480469 22.660156 37.480469 C 24.546875 37.480469 25.253906 38.796875 25.253906 40.554688 L 25.253906 44.773438 Z M 32.234375 44.773438 L 32.167969 43.640625 C 31.578125 44.511719 30.527344 44.96875 29.523438 44.96875 C 27.601562 44.96875 26.1875 43.359375 26.1875 41.226562 C 26.1875 39.089844 27.601562 37.480469 29.523438 37.480469 C 30.476562 37.480469 31.445312 37.875 32.054688 38.648438 L 32.054688 34.921875 L 33.957031 34.921875 L 33.957031 44.773438 Z M 30.117188 38.898438 C 29 38.898438 28.09375 39.765625 28.09375 41.230469 C 28.09375 42.691406 29 43.558594 30.117188 43.5625 C 31.234375 43.5625 32.132812 42.691406 32.132812 41.230469 C 32.132812 39.765625 31.234375 38.898438 30.117188 38.898438 Z M 41.117188 44.773438 L 41.050781 43.640625 C 40.457031 44.511719 39.40625 44.972656 38.40625 44.972656 C 36.484375 44.972656 35.070312 43.363281 35.070312 41.226562 C 35.070312 39.09375 36.480469 37.484375 38.40625 37.484375 C 39.40625 37.484375 40.457031 37.945312 41.050781 38.8125 L 41.117188 37.679688 L 42.84375 37.679688 L 42.84375 44.773438 Z M 38.996094 38.898438 C 37.882812 38.898438 36.976562 39.765625 36.976562 41.230469 C 36.976562 42.691406 37.878906 43.5625 38.996094 43.5625 C 40.113281 43.5625 41.015625 42.691406 41.015625 41.230469 C 41.015625 39.765625 40.113281 38.898438 38.996094 38.898438 Z M 47.0625 45.003906 C 46.058594 44.996094 45.078125 44.71875 44.21875 44.199219 L 44.53125 42.882812 C 45.105469 43.226562 45.976562 43.671875 47.027344 43.671875 C 47.78125 43.671875 48.308594 43.441406 48.308594 42.851562 C 48.308594 42.34375 47.765625 42.160156 46.796875 41.929688 C 45.058594 41.554688 44.433594 40.632812 44.433594 39.632812 C 44.433594 38.519531 45.304688 37.464844 47.226562 37.464844 C 48.390625 37.464844 49.410156 37.972656 49.636719 38.105469 L 49.328125 39.359375 C 48.707031 38.988281 48 38.78125 47.273438 38.769531 C 46.503906 38.769531 46.125 39.03125 46.125 39.457031 C 46.125 39.933594 46.617188 40.148438 47.371094 40.328125 C 49.242188 40.722656 50 41.59375 50 42.546875 C 50 44.070312 48.882812 45.003906 47.0625 45.003906 Z M 20.484375 3.859375 L 23.867188 3.859375 L 23.867188 10.882812 L 20.484375 10.882812 Z M 20.484375 18.289062 L 23.867188 18.289062 L 23.867188 25.316406 L 20.484375 25.316406 Z M 20.484375 18.289062 "/>
<path style=" stroke:none;fill-rule:nonzero;fill:rgb(100%,79.215686%,0%);fill-opacity:1;" d="M 20.484375 12.9375 L 23.867188 12.9375 L 23.867188 16.25 L 20.484375 16.25 Z M 20.484375 12.9375 "/>
<path style=" stroke:none;fill-rule:nonzero;fill:rgb(7.45098%,2.745098%,32.941176%);fill-opacity:1;" d="M 15.046875 9.632812 L 18.429688 9.632812 L 18.429688 32.992188 L 15.046875 32.992188 Z M 25.808594 24.085938 L 29.191406 24.085938 L 29.191406 31.113281 L 25.808594 31.113281 Z M 25.808594 9.644531 L 29.191406 9.644531 L 29.191406 16.667969 L 25.808594 16.667969 Z M 25.808594 9.644531 "/>
<path style=" stroke:none;fill-rule:nonzero;fill:rgb(90.588235%,1.568627%,53.333333%);fill-opacity:1;" d="M 25.808594 18.71875 L 29.191406 18.71875 L 29.191406 22.035156 L 25.808594 22.035156 Z M 25.808594 18.71875 "/>
<path style=" stroke:none;fill-rule:nonzero;fill:rgb(7.45098%,2.745098%,32.941176%);fill-opacity:1;" d="M 31.128906 2.027344 L 34.511719 2.027344 L 34.511719 25.382812 L 31.128906 25.382812 Z M 31.128906 2.027344 "/>
</g>
</svg>
