<?xml version="1.0" encoding="UTF-8"?>
<svg xmlns="http://www.w3.org/2000/svg" xmlns:xlink="http://www.w3.org/1999/xlink" width="50px" height="50px" viewBox="0 0 50 50" version="1.1">
<g id="surface1">
<path style=" stroke:none;fill-rule:nonzero;fill:rgb(23.921569%,29.803922%,45.098039%);fill-opacity:1;" d="M 1.375 16.375 C 0.613281 16.375 0 17.011719 0 17.792969 L 0 32.203125 C 0 32.988281 0.613281 33.625 1.371094 33.625 L 15.710938 33.625 C 16.46875 33.625 17.085938 32.988281 17.085938 32.207031 L 17.085938 17.792969 C 17.085938 17.011719 16.472656 16.375 15.710938 16.375 L 1.371094 16.375 Z M 28.027344 20.273438 C 27.644531 20.273438 27.332031 20.585938 27.332031 20.972656 L 27.332031 27.992188 C 27.332031 28.378906 27.640625 28.695312 28.027344 28.695312 C 28.214844 28.695312 28.390625 28.621094 28.519531 28.488281 C 28.652344 28.355469 28.722656 28.175781 28.722656 27.992188 L 28.722656 20.972656 C 28.722656 20.585938 28.410156 20.273438 28.027344 20.273438 Z M 37.746094 20.273438 C 37.5625 20.273438 37.382812 20.347656 37.253906 20.480469 C 37.125 20.609375 37.050781 20.789062 37.050781 20.972656 L 37.050781 25.886719 C 37.050781 27.4375 38.296875 28.695312 39.828125 28.695312 C 40.214844 28.691406 40.523438 28.378906 40.523438 27.992188 C 40.523438 27.605469 40.214844 27.292969 39.828125 27.289062 C 39.0625 27.289062 38.441406 26.664062 38.441406 25.886719 L 38.441406 23.078125 L 39.828125 23.078125 C 40.214844 23.078125 40.523438 22.761719 40.523438 22.378906 C 40.523438 21.992188 40.214844 21.679688 39.828125 21.675781 L 38.441406 21.675781 L 38.441406 20.972656 C 38.441406 20.585938 38.132812 20.273438 37.746094 20.273438 Z M 42.605469 20.273438 C 42.222656 20.273438 41.910156 20.585938 41.910156 20.972656 L 41.910156 27.992188 C 41.910156 28.175781 41.980469 28.355469 42.113281 28.488281 C 42.242188 28.621094 42.417969 28.695312 42.605469 28.695312 C 42.789062 28.695312 42.96875 28.621094 43.097656 28.488281 C 43.226562 28.355469 43.300781 28.179688 43.300781 27.992188 L 43.300781 20.972656 C 43.300781 20.585938 42.988281 20.273438 42.605469 20.273438 Z M 21.085938 21.675781 C 20.699219 21.679688 20.390625 21.992188 20.390625 22.378906 L 20.390625 29.394531 C 20.390625 29.785156 20.703125 30.097656 21.085938 30.097656 C 21.46875 30.097656 21.78125 29.78125 21.777344 29.394531 L 21.777344 28.292969 C 22.195312 28.554688 22.675781 28.695312 23.167969 28.695312 C 24.703125 28.695312 25.945312 27.347656 25.945312 25.6875 L 25.945312 24.683594 C 25.945312 23.023438 24.703125 21.675781 23.167969 21.675781 C 22.65625 21.675781 22.15625 21.828125 21.726562 22.109375 C 21.621094 21.847656 21.367188 21.675781 21.085938 21.675781 Z M 32.886719 21.675781 C 31.351562 21.675781 30.109375 23.023438 30.109375 24.683594 L 30.109375 25.6875 C 30.109375 27.347656 31.351562 28.695312 32.886719 28.695312 C 34.421875 28.695312 35.664062 27.347656 35.664062 25.6875 L 35.664062 24.683594 C 35.664062 23.023438 34.421875 21.675781 32.886719 21.675781 Z M 45.140625 21.675781 C 45.050781 21.675781 44.960938 21.695312 44.875 21.734375 C 44.523438 21.886719 44.363281 22.300781 44.511719 22.65625 L 46.472656 27.277344 L 46.238281 27.828125 C 46.03125 28.339844 45.539062 28.679688 44.988281 28.691406 C 44.601562 28.703125 44.300781 29.027344 44.3125 29.414062 C 44.320312 29.789062 44.625 30.09375 45.003906 30.097656 L 45.019531 30.097656 C 46.121094 30.066406 47.101562 29.390625 47.519531 28.371094 L 49.945312 22.652344 C 50.09375 22.300781 49.933594 21.886719 49.578125 21.730469 C 49.410156 21.660156 49.21875 21.65625 49.046875 21.726562 C 48.875 21.792969 48.738281 21.929688 48.667969 22.101562 L 47.226562 25.496094 L 45.789062 22.101562 C 45.679688 21.839844 45.425781 21.671875 45.144531 21.675781 Z M 23.167969 23.078125 C 23.933594 23.078125 24.554688 23.765625 24.554688 24.613281 L 24.554688 25.761719 C 24.554688 26.605469 23.933594 27.289062 23.167969 27.289062 C 22.402344 27.289062 21.777344 26.605469 21.777344 25.757812 L 21.777344 24.609375 C 21.777344 23.765625 22.402344 23.078125 23.167969 23.078125 Z M 32.886719 23.078125 C 33.652344 23.078125 34.277344 23.765625 34.277344 24.613281 L 34.277344 25.761719 C 34.277344 26.605469 33.652344 27.289062 32.886719 27.289062 C 32.117188 27.289062 31.5 26.605469 31.5 25.757812 L 31.5 24.609375 C 31.5 23.765625 32.121094 23.078125 32.886719 23.078125 Z M 32.886719 23.078125 "/>
<path style=" stroke:none;fill-rule:nonzero;fill:rgb(49.803922%,81.176471%,74.117647%);fill-opacity:1;" d="M 7.125 19.714844 C 7.070312 19.722656 7.023438 19.75 6.988281 19.792969 C 6.949219 19.789062 6.914062 19.785156 6.875 19.785156 C 6.851562 19.785156 6.832031 19.785156 6.808594 19.789062 C 6.6875 19.742188 6.558594 19.742188 6.503906 19.894531 C 6.484375 19.957031 6.472656 20.019531 6.46875 20.085938 C 6.445312 20.101562 6.425781 20.125 6.410156 20.148438 C 6.292969 20.316406 6.308594 20.609375 6.355469 20.800781 C 6.4375 21.117188 6.773438 21.371094 7.070312 21.277344 C 7.09375 21.269531 7.117188 21.261719 7.136719 21.25 C 7.296875 21.277344 7.46875 21.226562 7.605469 21.058594 C 7.808594 20.808594 7.828125 20.472656 7.710938 20.195312 C 7.710938 20.148438 7.6875 20.105469 7.652344 20.078125 C 7.585938 19.96875 7.5 19.878906 7.394531 19.808594 C 7.304688 19.75 7.210938 19.707031 7.125 19.714844 Z M 13.179688 19.714844 C 13.128906 19.722656 13.078125 19.75 13.046875 19.792969 C 13.007812 19.789062 12.96875 19.785156 12.929688 19.785156 C 12.910156 19.785156 12.886719 19.785156 12.867188 19.789062 C 12.746094 19.742188 12.617188 19.742188 12.5625 19.894531 C 12.539062 19.957031 12.53125 20.019531 12.527344 20.085938 C 12.503906 20.101562 12.484375 20.125 12.46875 20.148438 C 12.351562 20.316406 12.367188 20.609375 12.414062 20.800781 C 12.492188 21.117188 12.832031 21.371094 13.128906 21.277344 C 13.152344 21.269531 13.175781 21.261719 13.195312 21.25 C 13.355469 21.277344 13.523438 21.226562 13.664062 21.058594 C 13.867188 20.808594 13.886719 20.472656 13.769531 20.195312 C 13.765625 20.148438 13.746094 20.105469 13.707031 20.078125 C 13.644531 19.972656 13.554688 19.878906 13.453125 19.808594 C 13.363281 19.75 13.265625 19.707031 13.179688 19.714844 Z M 3.839844 19.832031 C 3.65625 19.824219 3.480469 19.894531 3.371094 20.070312 C 3.359375 20.082031 3.351562 20.097656 3.34375 20.113281 C 3.214844 20.226562 3.128906 20.378906 3.097656 20.546875 C 3.058594 20.558594 3.03125 20.59375 3.03125 20.636719 C 3.027344 20.832031 3.125 20.984375 3.269531 21.085938 C 3.421875 21.222656 3.640625 21.277344 3.859375 21.28125 C 4.183594 21.289062 4.402344 21.113281 4.503906 20.882812 L 4.507812 20.875 C 4.679688 20.652344 4.699219 20.339844 4.453125 20.164062 C 4.4375 20.152344 4.425781 20.144531 4.410156 20.136719 C 4.363281 20.074219 4.308594 20.019531 4.246094 19.972656 C 4.128906 19.886719 3.988281 19.839844 3.839844 19.832031 Z M 10.078125 19.832031 C 9.894531 19.828125 9.71875 19.894531 9.605469 20.070312 L 9.578125 20.113281 C 9.449219 20.226562 9.363281 20.378906 9.335938 20.546875 C 9.296875 20.558594 9.269531 20.597656 9.269531 20.636719 C 9.261719 20.832031 9.363281 20.984375 9.507812 21.085938 C 9.65625 21.222656 9.878906 21.277344 10.097656 21.28125 C 10.417969 21.289062 10.640625 21.113281 10.738281 20.882812 L 10.746094 20.875 C 10.914062 20.652344 10.9375 20.339844 10.691406 20.164062 L 10.648438 20.136719 C 10.601562 20.074219 10.546875 20.019531 10.484375 19.976562 C 10.367188 19.890625 10.21875 19.839844 10.078125 19.832031 Z M 4.066406 20.191406 C 4.140625 20.207031 4.207031 20.238281 4.269531 20.269531 C 4.289062 20.300781 4.308594 20.332031 4.324219 20.367188 C 4.277344 20.328125 4.222656 20.296875 4.164062 20.277344 C 4.148438 20.25 4.125 20.226562 4.097656 20.222656 L 4.089844 20.21875 C 4.082031 20.210938 4.074219 20.199219 4.066406 20.191406 Z M 10.304688 20.191406 C 10.375 20.207031 10.445312 20.238281 10.503906 20.269531 C 10.527344 20.300781 10.546875 20.332031 10.5625 20.367188 C 10.515625 20.328125 10.460938 20.296875 10.398438 20.277344 C 10.386719 20.25 10.367188 20.226562 10.335938 20.222656 L 10.328125 20.21875 C 10.320312 20.210938 10.3125 20.199219 10.304688 20.191406 Z M 7.03125 20.277344 C 7.042969 20.28125 7.050781 20.285156 7.058594 20.289062 C 7.0625 20.292969 7.070312 20.296875 7.074219 20.300781 C 7.085938 20.367188 7.082031 20.457031 7.027344 20.488281 C 7.023438 20.417969 7.027344 20.347656 7.03125 20.277344 Z M 13.089844 20.277344 C 13.097656 20.28125 13.109375 20.285156 13.117188 20.289062 L 13.128906 20.300781 C 13.144531 20.367188 13.140625 20.457031 13.085938 20.488281 C 13.082031 20.417969 13.082031 20.347656 13.089844 20.277344 Z M 3.90625 20.4375 C 3.914062 20.441406 3.917969 20.445312 3.921875 20.449219 C 3.941406 20.457031 3.957031 20.460938 3.976562 20.464844 C 3.976562 20.480469 3.980469 20.492188 3.976562 20.507812 C 3.949219 20.46875 3.894531 20.464844 3.851562 20.488281 L 3.847656 20.457031 Z M 10.144531 20.4375 C 10.148438 20.441406 10.152344 20.445312 10.160156 20.449219 C 10.175781 20.457031 10.195312 20.460938 10.214844 20.464844 C 10.214844 20.480469 10.21875 20.492188 10.214844 20.507812 C 10.1875 20.46875 10.132812 20.464844 10.089844 20.488281 L 10.082031 20.457031 Z M 3.652344 20.503906 C 3.65625 20.515625 3.65625 20.527344 3.660156 20.539062 C 3.664062 20.558594 3.671875 20.578125 3.679688 20.59375 C 3.660156 20.574219 3.648438 20.542969 3.652344 20.503906 Z M 9.890625 20.503906 C 9.898438 20.535156 9.90625 20.566406 9.914062 20.59375 C 9.894531 20.574219 9.886719 20.542969 9.890625 20.503906 Z M 7.605469 20.515625 C 7.609375 20.648438 7.578125 20.78125 7.503906 20.890625 C 7.46875 20.953125 7.414062 21.003906 7.347656 21.039062 C 7.386719 20.980469 7.421875 20.910156 7.453125 20.835938 C 7.460938 20.820312 7.46875 20.804688 7.476562 20.789062 C 7.5 20.769531 7.511719 20.734375 7.503906 20.703125 C 7.503906 20.703125 7.503906 20.703125 7.503906 20.699219 C 7.554688 20.664062 7.585938 20.597656 7.597656 20.527344 Z M 13.664062 20.515625 C 13.667969 20.648438 13.632812 20.78125 13.5625 20.890625 C 13.523438 20.953125 13.472656 21.003906 13.40625 21.039062 C 13.441406 20.980469 13.480469 20.910156 13.511719 20.835938 C 13.519531 20.820312 13.527344 20.804688 13.53125 20.789062 C 13.558594 20.769531 13.570312 20.734375 13.558594 20.703125 C 13.5625 20.703125 13.5625 20.703125 13.5625 20.699219 C 13.609375 20.664062 13.640625 20.597656 13.65625 20.527344 Z M 6.503906 20.542969 C 6.535156 20.65625 6.578125 20.761719 6.625 20.859375 C 6.652344 20.925781 6.683594 21.003906 6.726562 21.058594 C 6.707031 21.042969 6.6875 21.027344 6.667969 21.007812 C 6.566406 20.914062 6.523438 20.773438 6.507812 20.640625 C 6.507812 20.609375 6.503906 20.578125 6.503906 20.542969 Z M 12.5625 20.542969 C 12.59375 20.65625 12.636719 20.761719 12.683594 20.859375 C 12.707031 20.925781 12.742188 21.003906 12.785156 21.058594 C 12.765625 21.042969 12.742188 21.027344 12.722656 21.007812 C 12.625 20.914062 12.578125 20.773438 12.566406 20.640625 C 12.5625 20.609375 12.5625 20.578125 12.5625 20.542969 Z M 4.179688 20.648438 C 4.1875 20.679688 4.191406 20.714844 4.183594 20.746094 L 4.15625 20.695312 C 4.164062 20.683594 4.171875 20.667969 4.179688 20.648438 Z M 10.414062 20.648438 C 10.425781 20.679688 10.429688 20.714844 10.421875 20.746094 L 10.394531 20.695312 C 10.402344 20.683594 10.410156 20.667969 10.414062 20.648438 Z M 3.882812 20.945312 C 3.890625 20.953125 3.898438 20.964844 3.910156 20.972656 C 3.855469 20.988281 3.800781 20.992188 3.746094 20.984375 L 3.753906 20.96875 C 3.796875 20.96875 3.84375 20.960938 3.882812 20.945312 Z M 10.121094 20.945312 C 10.128906 20.953125 10.136719 20.964844 10.144531 20.972656 C 10.09375 20.988281 10.039062 20.992188 9.984375 20.984375 L 9.992188 20.96875 C 10.035156 20.96875 10.078125 20.960938 10.121094 20.945312 Z M 3.839844 22.671875 C 3.65625 22.664062 3.480469 22.734375 3.371094 22.90625 C 3.359375 22.921875 3.351562 22.9375 3.34375 22.953125 C 3.214844 23.066406 3.128906 23.21875 3.097656 23.382812 C 3.058594 23.398438 3.03125 23.433594 3.03125 23.476562 C 3.027344 23.671875 3.125 23.824219 3.269531 23.925781 C 3.421875 24.058594 3.640625 24.117188 3.859375 24.121094 C 4.183594 24.128906 4.402344 23.953125 4.503906 23.71875 L 4.507812 23.714844 C 4.679688 23.488281 4.699219 23.175781 4.453125 23 C 4.4375 22.992188 4.425781 22.984375 4.410156 22.976562 C 4.363281 22.914062 4.308594 22.859375 4.246094 22.8125 C 4.128906 22.726562 3.988281 22.679688 3.839844 22.671875 Z M 10.078125 22.671875 C 9.894531 22.664062 9.714844 22.734375 9.605469 22.90625 C 9.597656 22.921875 9.589844 22.9375 9.578125 22.953125 C 9.453125 23.066406 9.363281 23.21875 9.335938 23.382812 C 9.296875 23.398438 9.269531 23.433594 9.269531 23.476562 C 9.261719 23.671875 9.363281 23.824219 9.507812 23.925781 C 9.65625 24.058594 9.878906 24.117188 10.097656 24.121094 C 10.417969 24.128906 10.640625 23.953125 10.738281 23.71875 L 10.746094 23.714844 C 10.914062 23.488281 10.933594 23.175781 10.691406 23 C 10.675781 22.992188 10.664062 22.984375 10.648438 22.976562 C 10.601562 22.914062 10.546875 22.859375 10.480469 22.8125 C 10.363281 22.726562 10.222656 22.679688 10.078125 22.671875 Z M 4.066406 23.027344 C 4.140625 23.046875 4.207031 23.074219 4.269531 23.109375 C 4.289062 23.140625 4.308594 23.171875 4.324219 23.207031 C 4.277344 23.164062 4.222656 23.132812 4.160156 23.113281 C 4.148438 23.089844 4.125 23.066406 4.097656 23.0625 L 4.089844 23.058594 C 4.082031 23.046875 4.074219 23.039062 4.066406 23.027344 Z M 10.304688 23.027344 C 10.375 23.046875 10.445312 23.074219 10.503906 23.109375 C 10.527344 23.140625 10.546875 23.171875 10.5625 23.207031 C 10.515625 23.164062 10.460938 23.132812 10.398438 23.117188 C 10.386719 23.089844 10.363281 23.066406 10.335938 23.0625 L 10.328125 23.058594 C 10.320312 23.046875 10.3125 23.039062 10.304688 23.027344 Z M 3.90625 23.277344 L 3.921875 23.285156 C 3.941406 23.292969 3.957031 23.300781 3.976562 23.304688 C 3.976562 23.316406 3.980469 23.332031 3.976562 23.34375 C 3.949219 23.304688 3.894531 23.300781 3.851562 23.324219 L 3.847656 23.296875 Z M 10.144531 23.277344 C 10.164062 23.289062 10.191406 23.300781 10.214844 23.304688 C 10.214844 23.316406 10.214844 23.332031 10.214844 23.34375 C 10.1875 23.304688 10.132812 23.300781 10.089844 23.324219 L 10.082031 23.296875 Z M 3.652344 23.339844 C 3.65625 23.371094 3.664062 23.402344 3.679688 23.433594 C 3.660156 23.414062 3.648438 23.382812 3.652344 23.339844 Z M 9.890625 23.339844 C 9.894531 23.371094 9.902344 23.402344 9.914062 23.433594 C 9.894531 23.414062 9.886719 23.382812 9.890625 23.339844 Z M 4.179688 23.488281 C 4.1875 23.519531 4.191406 23.550781 4.183594 23.582031 C 4.175781 23.566406 4.167969 23.550781 4.15625 23.535156 C 4.164062 23.519531 4.171875 23.503906 4.179688 23.488281 Z M 10.414062 23.488281 C 10.425781 23.519531 10.429688 23.550781 10.421875 23.582031 C 10.410156 23.566406 10.402344 23.550781 10.394531 23.535156 C 10.402344 23.519531 10.410156 23.503906 10.414062 23.488281 Z M 3.882812 23.78125 C 3.890625 23.792969 3.898438 23.800781 3.910156 23.808594 C 3.855469 23.824219 3.800781 23.828125 3.746094 23.820312 L 3.753906 23.808594 C 3.796875 23.808594 3.84375 23.796875 3.882812 23.78125 Z M 10.121094 23.78125 C 10.128906 23.792969 10.136719 23.800781 10.144531 23.808594 C 10.09375 23.824219 10.039062 23.828125 9.984375 23.820312 L 9.992188 23.808594 C 10.035156 23.808594 10.078125 23.796875 10.121094 23.78125 Z M 10.121094 23.78125 "/>
<path style=" stroke:none;fill-rule:nonzero;fill:rgb(100%,100%,100%);fill-opacity:1;" d="M 3.996094 25.679688 C 3.574219 25.679688 3.238281 26.023438 3.238281 26.449219 L 3.238281 29.53125 C 3.238281 29.957031 3.574219 30.300781 3.996094 30.300781 C 4.414062 30.300781 4.753906 29.957031 4.753906 29.53125 L 4.753906 26.449219 C 4.753906 26.023438 4.414062 25.679688 3.996094 25.679688 M 10.054688 25.679688 C 9.636719 25.679688 9.296875 26.023438 9.296875 26.449219 L 9.296875 29.53125 C 9.296875 29.957031 9.636719 30.300781 10.054688 30.300781 C 10.472656 30.300781 10.8125 29.957031 10.8125 29.53125 L 10.8125 26.449219 C 10.8125 26.023438 10.472656 25.679688 10.054688 25.679688 M 7.023438 22.597656 C 6.605469 22.597656 6.269531 22.941406 6.269531 23.367188 L 6.269531 29.53125 C 6.269531 29.957031 6.605469 30.300781 7.023438 30.300781 C 7.441406 30.300781 7.78125 29.957031 7.78125 29.53125 L 7.78125 23.367188 C 7.78125 22.941406 7.441406 22.597656 7.023438 22.597656 M 13.085938 22.597656 C 12.664062 22.597656 12.324219 22.941406 12.324219 23.367188 L 12.324219 29.53125 C 12.324219 29.957031 12.664062 30.300781 13.085938 30.300781 C 13.503906 30.300781 13.839844 29.957031 13.839844 29.53125 L 13.839844 23.367188 C 13.839844 22.941406 13.503906 22.597656 13.085938 22.597656 "/>
</g>
</svg>
