<?xml version="1.0" encoding="UTF-8"?>
<svg xmlns="http://www.w3.org/2000/svg" xmlns:xlink="http://www.w3.org/1999/xlink" width="50px" height="50px" viewBox="0 0 50 50" version="1.1">
<g id="surface1">
<path style=" stroke:none;fill-rule:nonzero;fill:rgb(95.294118%,43.921569%,21.176471%);fill-opacity:1;" d="M 44.1875 10.183594 C 36.003906 -0.414062 20.777344 -2.371094 10.179688 5.8125 C -0.414062 14 -2.371094 29.222656 5.816406 39.820312 C 14 50.414062 29.226562 52.367188 39.820312 44.179688 C 50.414062 35.996094 52.367188 20.777344 44.1875 10.183594 Z M 44.1875 10.183594 "/>
<path style=" stroke:none;fill-rule:nonzero;fill:rgb(100%,100%,100%);fill-opacity:1;" d="M 35.578125 9.4375 C 34.742188 9.503906 33.953125 9.835938 33.320312 10.386719 C 31.785156 11.71875 31.523438 14.003906 32.71875 15.648438 C 33.910156 17.292969 36.160156 17.75 37.902344 16.707031 L 37.964844 16.769531 C 38.242188 16.609375 38.5 16.417969 38.734375 16.203125 C 40.226562 14.621094 40.199219 12.136719 38.671875 10.589844 L 35.21875 14.019531 L 35.15625 13.960938 L 38.609375 10.527344 C 37.800781 9.746094 36.699219 9.351562 35.578125 9.441406 Z M 31.027344 15.058594 C 29.371094 15.054688 26.667969 16.933594 20.066406 23.535156 L 20.097656 23.570312 C 20.0625 23.558594 20.027344 23.554688 20.027344 23.554688 L 17.539062 26.019531 C 17.410156 26.144531 17.375 26.34375 17.460938 26.503906 C 17.546875 26.664062 17.726562 26.746094 17.902344 26.710938 L 22.167969 25.800781 C 22.183594 25.78125 22.199219 25.757812 22.203125 25.734375 L 22.296875 25.832031 L 20.84375 27.273438 L 20.773438 27.273438 L 12.144531 35.96875 L 14.914062 38.632812 C 15.074219 38.777344 15.304688 38.800781 15.492188 38.691406 C 15.675781 38.582031 15.777344 38.375 15.742188 38.160156 L 15.339844 36.402344 C 15.285156 36.332031 15.285156 36.234375 15.339844 36.160156 C 19.117188 34.359375 22.632812 32.050781 25.78125 29.292969 L 24.011719 27.519531 L 24.046875 27.515625 L 22.996094 26.464844 L 23.0625 26.398438 L 23.132812 26.46875 L 23.097656 26.503906 L 25.882812 29.355469 L 25.882812 29.351562 C 31.226562 24.292969 35.019531 20.226562 34.035156 17.488281 C 33.988281 17.160156 33.835938 16.855469 33.601562 16.625 L 33.601562 16.628906 C 33.542969 16.582031 33.480469 16.542969 33.414062 16.507812 C 33.378906 16.472656 33.351562 16.4375 33.316406 16.40625 L 33.292969 16.429688 C 33.21875 16.386719 33.144531 16.347656 33.066406 16.316406 L 33.175781 16.203125 C 32.476562 15.578125 31.894531 15.0625 31.027344 15.058594 Z M 12.085938 36.019531 L 10.066406 38.039062 L 10.066406 38.042969 C 9.917969 38.132812 9.84375 38.3125 9.886719 38.480469 C 9.929688 38.652344 10.074219 38.773438 10.246094 38.789062 L 15.195312 39.132812 Z M 12.085938 36.019531 "/>
<path style=" stroke:none;fill-rule:nonzero;fill:rgb(95.294118%,43.921569%,21.176471%);fill-opacity:1;" d="M 35.917969 9.105469 C 34.785156 9.105469 33.695312 9.550781 32.886719 10.34375 C 31.710938 11.546875 31.347656 13.324219 31.953125 14.890625 C 30.101562 14.097656 27.597656 15.480469 19.804688 23.273438 C 19.796875 23.285156 19.792969 23.296875 19.789062 23.308594 C 19.773438 23.316406 19.757812 23.324219 19.742188 23.332031 L 17.277344 25.820312 C 17.035156 26.058594 16.976562 26.425781 17.136719 26.726562 C 17.277344 26.964844 17.527344 27.109375 17.800781 27.113281 L 17.925781 27.03125 L 21.214844 26.332031 L 19.640625 27.917969 C 19.632812 27.941406 19.625 27.960938 19.621094 27.984375 L 11.90625 35.71875 C 11.875 35.742188 11.847656 35.777344 11.832031 35.8125 L 9.84375 37.800781 C 9.640625 38.011719 9.578125 38.320312 9.683594 38.597656 C 9.789062 38.871094 10.039062 39.0625 10.328125 39.089844 L 15.257812 39.433594 C 15.339844 39.40625 15.414062 39.347656 15.460938 39.273438 C 15.546875 39.152344 15.546875 38.988281 15.460938 38.867188 L 15.449219 38.859375 C 15.558594 38.804688 15.652344 38.726562 15.726562 38.632812 C 15.886719 38.425781 15.945312 38.15625 15.882812 37.898438 L 15.5 36.265625 C 19.1875 34.5 22.644531 32.289062 25.785156 29.675781 C 25.816406 29.695312 25.851562 29.707031 25.882812 29.71875 C 25.984375 29.710938 26.074219 29.667969 26.144531 29.597656 C 31.4375 24.585938 34.550781 21.152344 34.550781 18.425781 C 34.5625 18.046875 34.503906 17.667969 34.382812 17.3125 C 34.859375 17.507812 35.367188 17.621094 35.882812 17.636719 L 35.878906 17.636719 C 36.589844 17.617188 37.285156 17.421875 37.902344 17.070312 C 37.902344 17.070312 37.902344 17.070312 37.90625 17.070312 C 37.984375 17.09375 38.070312 17.085938 38.144531 17.050781 C 38.445312 16.875 38.714844 16.65625 38.953125 16.40625 C 39.769531 15.605469 40.226562 14.515625 40.226562 13.375 C 40.226562 12.234375 39.769531 11.140625 38.953125 10.34375 C 38.941406 10.332031 38.925781 10.320312 38.90625 10.308594 C 38.105469 9.535156 37.03125 9.105469 35.917969 9.105469 Z M 35.882812 9.796875 C 36.671875 9.800781 37.441406 10.066406 38.066406 10.546875 L 34.914062 13.714844 C 34.902344 13.726562 34.894531 13.742188 34.882812 13.753906 C 34.828125 13.8125 34.792969 13.886719 34.792969 13.96875 C 34.792969 14.066406 34.835938 14.160156 34.914062 14.222656 L 37.296875 16.605469 C 35.960938 17.1875 34.40625 16.890625 33.378906 15.859375 C 32.371094 14.84375 32.078125 13.316406 32.617188 11.996094 C 33.15625 10.671875 34.445312 9.804688 35.882812 9.796875 Z M 38.664062 11.136719 C 39.179688 11.761719 39.460938 12.546875 39.460938 13.355469 C 39.457031 14.300781 39.082031 15.210938 38.410156 15.878906 C 38.273438 16.007812 38.132812 16.125 37.980469 16.230469 L 36.058594 14.335938 L 35.679688 13.960938 L 35.785156 13.855469 Z M 38.523438 12.777344 C 38.453125 12.753906 38.375 12.757812 38.308594 12.789062 C 38.242188 12.824219 38.191406 12.882812 38.167969 12.953125 C 38.144531 13.027344 38.152344 13.105469 38.1875 13.171875 C 38.328125 13.46875 38.289062 13.824219 38.085938 14.082031 C 38.035156 14.132812 38.007812 14.203125 38.007812 14.273438 C 38.011719 14.34375 38.039062 14.414062 38.085938 14.464844 C 38.136719 14.484375 38.195312 14.484375 38.246094 14.464844 C 38.34375 14.488281 38.445312 14.457031 38.511719 14.382812 C 38.847656 13.96875 38.921875 13.394531 38.691406 12.910156 C 38.652344 12.847656 38.59375 12.796875 38.523438 12.777344 Z M 30.992188 15.402344 C 31.464844 15.417969 31.917969 15.585938 32.285156 15.882812 C 31.890625 15.9375 31.519531 16.121094 31.238281 16.40625 L 22.328125 25.273438 L 20.582031 23.527344 C 25.199219 18.925781 28.027344 16.523438 29.78125 15.738281 C 30.144531 15.507812 30.566406 15.394531 30.992188 15.402344 Z M 32.539062 16.558594 C 32.839844 16.558594 33.128906 16.675781 33.339844 16.886719 C 33.566406 17.101562 33.691406 17.402344 33.683594 17.71875 C 33.671875 18.027344 33.53125 18.320312 33.296875 18.523438 L 23.824219 26.769531 L 22.804688 25.746094 L 31.742188 16.886719 C 31.953125 16.675781 32.242188 16.558594 32.542969 16.558594 Z M 33.710938 19.175781 C 33.050781 21.792969 29.550781 25.339844 25.902344 28.789062 L 24.429688 27.3125 Z M 20.066406 24.042969 L 21.542969 25.519531 L 17.78125 26.324219 Z M 22.328125 26.324219 L 22.785156 26.792969 C 22.789062 26.800781 22.789062 26.8125 22.792969 26.824219 L 22.824219 26.828125 L 22.921875 26.929688 L 23.242188 27.257812 L 21.136719 27.515625 Z M 23.839844 27.914062 L 25.234375 29.3125 C 22.144531 31.882812 18.753906 34.066406 15.136719 35.816406 C 14.894531 35.933594 14.765625 36.203125 14.832031 36.464844 L 15.238281 38.222656 C 15.269531 38.265625 15.269531 38.320312 15.238281 38.363281 C 15.191406 38.40625 15.121094 38.40625 15.074219 38.363281 L 12.691406 35.960938 L 20.039062 28.503906 Z M 12.144531 36.484375 L 12.484375 36.804688 L 14.238281 38.558594 L 10.328125 38.304688 Z M 12.144531 36.484375 "/>
</g>
</svg>
