<?xml version="1.0" encoding="UTF-8"?>
<svg xmlns="http://www.w3.org/2000/svg" xmlns:xlink="http://www.w3.org/1999/xlink" width="50px" height="50px" viewBox="0 0 50 50" version="1.1">
<defs>
<filter id="alpha" filterUnits="objectBoundingBox" x="0%" y="0%" width="100%" height="100%">
  <feColorMatrix type="matrix" in="SourceGraphic" values="0 0 0 0 1 0 0 0 0 1 0 0 0 0 1 0 0 0 1 0"/>
</filter>
<mask id="mask0">
  <g filter="url(#alpha)">
<rect x="0" y="0" width="50" height="50" style="fill:rgb(0%,0%,0%);fill-opacity:0.8;stroke:none;"/>
  </g>
</mask>
<linearGradient id="linear0" gradientUnits="userSpaceOnUse" x1="96.306" y1="35.144" x2="25.454" y2="98.431" gradientTransform="matrix(0.390625,0,0,-0.390625,0,50)">
<stop offset="0" style="stop-color:rgb(66.27451%,78.431373%,100%);stop-opacity:1;"/>
<stop offset="1" style="stop-color:rgb(78.039216%,90.196078%,100%);stop-opacity:1;"/>
</linearGradient>
<clipPath id="clip1">
  <rect x="0" y="0" width="50" height="50"/>
</clipPath>
<g id="surface5" clip-path="url(#clip1)">
<path style=" stroke:none;fill-rule:evenodd;fill:url(#linear0);" d="M 2.8125 43.164062 C 2.148438 43.164062 1.601562 42.890625 1.210938 42.421875 C 0.820312 41.953125 0.703125 41.289062 0.859375 40.625 L 8.125 9.179688 C 8.4375 7.851562 9.6875 6.835938 11.015625 6.835938 L 47.1875 6.835938 C 47.851562 6.835938 48.398438 7.109375 48.789062 7.578125 C 49.179688 8.046875 49.296875 8.710938 49.140625 9.375 L 41.875 40.820312 C 41.5625 42.148438 40.3125 43.164062 38.984375 43.164062 Z M 2.8125 43.164062 "/>
</g>
<linearGradient id="linear1" gradientUnits="userSpaceOnUse" x1="25.336" y1="98.33" x2="94.569" y2="36.847" gradientTransform="matrix(0.390625,0,0,-0.390625,0,50)">
<stop offset="0" style="stop-color:rgb(17.647059%,27.45098%,39.215686%);stop-opacity:1;"/>
<stop offset="0.169" style="stop-color:rgb(16.078431%,25.098039%,35.686275%);stop-opacity:1;"/>
<stop offset="0.445" style="stop-color:rgb(11.764706%,18.431373%,26.27451%);stop-opacity:1;"/>
<stop offset="0.79" style="stop-color:rgb(4.705882%,7.45098%,10.588235%);stop-opacity:1;"/>
<stop offset="1" style="stop-color:rgb(0%,0%,0%);stop-opacity:1;"/>
</linearGradient>
</defs>
<g id="surface1">
<use xlink:href="#surface5" mask="url(#mask0)"/>
<path style=" stroke:none;fill-rule:evenodd;fill:url(#linear1);" d="M 46.992188 7.226562 L 11.132812 7.226562 C 10 7.226562 8.90625 8.125 8.632812 9.257812 L 1.445312 40.742188 C 1.171875 41.875 1.875 42.773438 3.007812 42.773438 L 38.867188 42.773438 C 40 42.773438 41.09375 41.875 41.367188 40.742188 L 48.554688 9.296875 C 48.828125 8.164062 48.125 7.226562 46.992188 7.226562 Z M 46.992188 7.226562 "/>
<path style=" stroke:none;fill-rule:evenodd;fill:rgb(17.254902%,33.333333%,56.862745%);fill-opacity:1;" d="M 25.078125 34.492188 L 33.789062 34.492188 C 34.804688 34.492188 35.625 35.351562 35.625 36.40625 C 35.625 37.460938 34.804688 38.320312 33.789062 38.320312 L 25.078125 38.320312 C 24.0625 38.320312 23.242188 37.460938 23.242188 36.40625 C 23.242188 35.351562 24.0625 34.492188 25.078125 34.492188 Z M 30.742188 25.976562 C 30.585938 26.289062 30.273438 26.601562 29.726562 26.992188 L 13.515625 38.632812 C 12.617188 39.257812 11.367188 39.023438 10.664062 38.085938 C 10 37.148438 10.15625 35.859375 11.015625 35.234375 L 25.625 24.648438 L 25.625 24.414062 L 16.445312 14.648438 C 15.703125 13.867188 15.78125 12.578125 16.601562 11.757812 C 17.460938 10.976562 18.75 10.976562 19.492188 11.757812 L 30.507812 23.476562 C 31.171875 24.21875 31.210938 25.234375 30.742188 25.976562 Z M 30.742188 25.976562 "/>
<path style=" stroke:none;fill-rule:evenodd;fill:rgb(100%,100%,100%);fill-opacity:1;" d="M 30.3125 25.585938 C 30.15625 25.898438 29.84375 26.210938 29.296875 26.601562 L 13.125 38.242188 C 12.226562 38.867188 10.976562 38.632812 10.273438 37.695312 C 9.609375 36.757812 9.765625 35.46875 10.625 34.84375 L 25.234375 24.257812 L 25.234375 24.023438 L 16.054688 14.257812 C 15.3125 13.476562 15.390625 12.1875 16.210938 11.367188 C 17.070312 10.585938 18.359375 10.585938 19.101562 11.367188 L 30.117188 23.085938 C 30.78125 23.789062 30.820312 24.804688 30.3125 25.585938 Z M 24.804688 34.296875 L 33.515625 34.296875 C 34.53125 34.296875 35.351562 35.117188 35.351562 36.09375 C 35.351562 37.109375 34.53125 37.890625 33.515625 37.890625 L 24.804688 37.890625 C 23.789062 37.890625 22.96875 37.070312 22.96875 36.09375 C 22.96875 35.078125 23.789062 34.296875 24.804688 34.296875 Z M 24.804688 34.296875 "/>
</g>
</svg>
