<?xml version="1.0" encoding="UTF-8"?>
<svg xmlns="http://www.w3.org/2000/svg" xmlns:xlink="http://www.w3.org/1999/xlink" width="64px" height="64px" viewBox="0 0 64 64" version="1.1">
<defs>
<linearGradient id="linear0" gradientUnits="userSpaceOnUse" x1="47.22" y1="46.896" x2="146.333" y2="145.02" gradientTransform="matrix(0.25,0,0,0.25,0,0)">
<stop offset="0" style="stop-color:rgb(21.960784%,49.411765%,72.156863%);stop-opacity:1;"/>
<stop offset="1" style="stop-color:rgb(21.176471%,41.176471%,58.039216%);stop-opacity:1;"/>
</linearGradient>
<linearGradient id="linear1" gradientUnits="userSpaceOnUse" x1="108.056" y1="109.905" x2="214.492" y2="210.522" gradientTransform="matrix(0.25,0,0,0.25,0,0)">
<stop offset="0" style="stop-color:rgb(100%,87.843137%,32.156863%);stop-opacity:1;"/>
<stop offset="1" style="stop-color:rgb(100%,76.470588%,19.215686%);stop-opacity:1;"/>
</linearGradient>
</defs>
<g id="surface1">
<path style=" stroke:none;fill-rule:nonzero;fill:rgb(14.117647%,16.078431%,21.960784%);fill-opacity:1;" d="M 15 0 L 49 0 C 57.285156 0 64 6.714844 64 15 L 64 49 C 64 57.285156 57.285156 64 49 64 L 15 64 C 6.714844 64 0 57.285156 0 49 L 0 15 C 0 6.714844 6.714844 0 15 0 Z M 15 0 "/>
<path style=" stroke:none;fill-rule:nonzero;fill:url(#linear0);" d="M 31.820312 7.25 C 19.125 7.25 19.917969 12.753906 19.917969 12.753906 L 19.933594 18.457031 L 32.046875 18.457031 L 32.046875 20.167969 L 15.121094 20.167969 C 15.121094 20.167969 7 19.25 7 32.054688 C 7 44.863281 14.089844 44.410156 14.089844 44.410156 L 18.320312 44.410156 L 18.320312 38.464844 C 18.320312 38.464844 18.09375 31.375 25.296875 31.375 L 37.308594 31.375 C 37.308594 31.375 44.058594 31.484375 44.058594 24.851562 L 44.058594 13.886719 C 44.058594 13.886719 45.085938 7.25 31.820312 7.25 Z M 25.140625 11.085938 C 26.347656 11.085938 27.320312 12.058594 27.320312 13.265625 C 27.320312 14.46875 26.347656 15.441406 25.140625 15.441406 C 23.9375 15.441406 22.960938 14.46875 22.960938 13.265625 C 22.960938 12.058594 23.9375 11.085938 25.140625 11.085938 Z M 25.140625 11.085938 "/>
<path style=" stroke:none;fill-rule:nonzero;fill:url(#linear1);" d="M 32.179688 56.988281 C 44.875 56.988281 44.082031 51.484375 44.082031 51.484375 L 44.066406 45.78125 L 31.953125 45.78125 L 31.953125 44.070312 L 48.878906 44.070312 C 48.878906 44.070312 57 44.992188 57 32.183594 C 57 19.375 49.910156 19.832031 49.910156 19.832031 L 45.679688 19.832031 L 45.679688 25.773438 C 45.679688 25.773438 45.90625 32.863281 38.703125 32.863281 L 26.691406 32.863281 C 26.691406 32.863281 19.941406 32.753906 19.941406 39.386719 L 19.941406 50.351562 C 19.941406 50.351562 18.914062 56.988281 32.179688 56.988281 Z M 38.859375 53.15625 C 37.652344 53.15625 36.679688 52.179688 36.679688 50.976562 C 36.679688 49.769531 37.652344 48.796875 38.859375 48.796875 C 40.0625 48.796875 41.039062 49.769531 41.039062 50.976562 C 41.039062 52.179688 40.0625 53.15625 38.859375 53.15625 Z M 38.859375 53.15625 "/>
</g>
</svg>
