<?xml version="1.0" encoding="UTF-8"?>
<svg xmlns="http://www.w3.org/2000/svg" xmlns:xlink="http://www.w3.org/1999/xlink" width="50px" height="50px" viewBox="0 0 50 50" version="1.1">
<g id="surface1">
<path style=" stroke:none;fill-rule:nonzero;fill:rgb(93.333333%,29.803922%,17.254902%);fill-opacity:1;" d="M 6.992188 21.757812 L 6.328125 22.421875 C 7.382812 23.476562 7.382812 25.234375 6.328125 26.289062 C 5.273438 27.34375 3.515625 27.34375 2.5 26.25 C 1.445312 25.195312 1.445312 23.4375 2.5 22.382812 L 4.453125 20.429688 L 4.453125 19.140625 L 1.875 21.71875 C 0.429688 23.164062 0.429688 25.46875 1.875 26.875 C 3.320312 28.28125 5.625 28.320312 7.03125 26.875 C 8.4375 25.46875 8.4375 23.203125 6.992188 21.757812 Z M 6.992188 21.757812 "/>
<path style=" stroke:none;fill-rule:nonzero;fill:rgb(93.333333%,29.803922%,17.254902%);fill-opacity:1;" d="M 6.171875 21.132812 C 6.171875 21.390625 5.960938 21.601562 5.703125 21.601562 C 5.445312 21.601562 5.234375 21.390625 5.234375 21.132812 C 5.234375 20.875 5.445312 20.664062 5.703125 20.664062 C 5.960938 20.664062 6.171875 20.875 6.171875 21.132812 Z M 6.171875 21.132812 "/>
<path style=" stroke:none;fill-rule:nonzero;fill:rgb(0%,0%,0%);fill-opacity:1;" d="M 13.632812 25.039062 L 12.539062 25.039062 L 12.539062 27.890625 L 11.71875 27.890625 L 11.71875 19.804688 L 13.75 19.804688 C 15.859375 19.804688 16.875 20.859375 16.875 22.304688 C 16.875 24.101562 15.625 25.039062 13.632812 25.039062 Z M 13.710938 20.625 L 12.539062 20.625 L 12.539062 24.335938 L 13.671875 24.296875 C 15.195312 24.257812 16.015625 23.671875 16.015625 22.421875 C 16.054688 21.25 15.195312 20.625 13.710938 20.625 Z M 20.585938 27.851562 L 20.117188 29.140625 C 19.570312 30.585938 19.023438 30.976562 18.203125 30.976562 C 17.773438 30.976562 17.421875 30.859375 17.070312 30.703125 L 17.304688 29.960938 C 17.578125 30.117188 17.890625 30.234375 18.203125 30.234375 C 18.632812 30.234375 18.984375 30 19.414062 28.867188 L 19.804688 27.8125 L 17.5 21.992188 L 18.359375 21.992188 L 20.195312 26.875 L 22.03125 21.992188 L 22.851562 21.992188 Z M 20.585938 27.851562 "/>
<path style=" stroke:none;fill-rule:nonzero;fill:rgb(0%,0%,0%);fill-opacity:1;" d="M 25.585938 20.625 L 25.585938 27.929688 L 24.765625 27.929688 L 24.765625 20.625 L 21.914062 20.625 L 21.914062 19.84375 L 28.398438 19.84375 L 28.398438 20.625 Z M 30.78125 28.046875 C 29.140625 28.046875 27.929688 26.835938 27.929688 24.960938 C 27.929688 23.085938 29.179688 21.835938 30.859375 21.835938 C 32.539062 21.835938 33.710938 23.046875 33.710938 24.921875 C 33.671875 26.796875 32.421875 28.046875 30.78125 28.046875 Z M 30.78125 22.578125 C 29.53125 22.578125 28.710938 23.554688 28.710938 24.960938 C 28.710938 26.40625 29.53125 27.382812 30.78125 27.382812 C 32.03125 27.382812 32.851562 26.40625 32.851562 25 C 32.890625 23.515625 32.070312 22.578125 30.78125 22.578125 Z M 35.703125 27.890625 L 34.882812 27.890625 L 34.882812 21.992188 L 35.703125 21.796875 L 35.703125 23.046875 C 36.09375 22.304688 36.640625 21.796875 37.421875 21.796875 C 37.8125 21.796875 38.164062 21.914062 38.476562 22.070312 L 38.28125 22.8125 C 38.007812 22.65625 37.695312 22.539062 37.382812 22.539062 C 36.757812 22.539062 36.171875 23.007812 35.703125 24.0625 Z M 41.601562 28.046875 C 39.804688 28.046875 38.710938 26.757812 38.710938 24.960938 C 38.710938 23.125 39.921875 21.835938 41.601562 21.835938 C 42.304688 21.835938 42.929688 22.03125 43.4375 22.34375 L 43.242188 23.046875 C 42.8125 22.734375 42.226562 22.578125 41.601562 22.578125 C 40.3125 22.578125 39.53125 23.515625 39.53125 24.921875 C 39.53125 26.367188 40.351562 27.304688 41.601562 27.304688 C 42.1875 27.304688 42.8125 27.109375 43.242188 26.835938 L 43.4375 27.578125 C 42.929688 27.851562 42.304688 28.046875 41.601562 28.046875 Z M 48.398438 27.890625 L 48.398438 24.0625 C 48.398438 23.007812 47.96875 22.578125 47.148438 22.578125 C 46.445312 22.578125 45.820312 22.929688 45.3125 23.398438 L 45.3125 27.890625 L 44.492188 27.890625 L 44.492188 19.21875 L 45.3125 19.023438 L 45.3125 22.773438 C 45.9375 22.148438 46.71875 21.835938 47.382812 21.835938 C 48.515625 21.835938 49.21875 22.578125 49.21875 23.867188 L 49.21875 27.890625 Z M 48.398438 27.890625 "/>
</g>
</svg>
