<?xml version="1.0" encoding="UTF-8"?>
<svg xmlns="http://www.w3.org/2000/svg" xmlns:xlink="http://www.w3.org/1999/xlink" width="50px" height="50px" viewBox="0 0 50 50" version="1.1">
<g id="surface1">
<path style=" stroke:none;fill-rule:nonzero;fill:rgb(56.862745%,14.901961%,14.901961%);fill-opacity:1;" d="M 48.039062 36.511719 C 45.371094 37.902344 31.550781 43.585938 28.605469 45.121094 C 25.664062 46.65625 24.03125 46.640625 21.703125 45.527344 C 19.378906 44.417969 4.671875 38.476562 2.019531 37.210938 C 0.695312 36.578125 0 36.042969 0 35.539062 L 0 30.484375 C 0 30.484375 19.148438 26.3125 22.242188 25.207031 C 25.332031 24.097656 26.40625 24.054688 29.035156 25.019531 C 31.667969 25.984375 47.398438 28.820312 50 29.773438 C 50 29.773438 50 34.289062 50 34.757812 C 50 35.257812 49.398438 35.804688 48.039062 36.511719 "/>
<path style=" stroke:none;fill-rule:nonzero;fill:rgb(77.647059%,18.823529%,16.862745%);fill-opacity:1;" d="M 48.039062 31.488281 C 45.371094 32.878906 31.550781 38.5625 28.605469 40.097656 C 25.664062 41.628906 24.03125 41.617188 21.703125 40.503906 C 19.378906 39.394531 4.671875 33.449219 2.019531 32.183594 C -0.628906 30.917969 -0.683594 30.046875 1.917969 29.027344 C 4.523438 28.007812 19.148438 22.269531 22.242188 21.160156 C 25.332031 20.050781 26.40625 20.011719 29.035156 20.976562 C 31.667969 21.9375 45.40625 27.40625 48.007812 28.359375 C 50.609375 29.3125 50.707031 30.097656 48.039062 31.488281 "/>
<path style=" stroke:none;fill-rule:nonzero;fill:rgb(56.862745%,14.901961%,14.901961%);fill-opacity:1;" d="M 48.039062 28.335938 C 45.371094 29.726562 31.550781 35.410156 28.605469 36.945312 C 25.664062 38.476562 24.03125 38.460938 21.703125 37.351562 C 19.378906 36.242188 4.671875 30.296875 2.019531 29.03125 C 0.695312 28.398438 0 27.863281 0 27.359375 L 0 22.304688 C 0 22.304688 19.148438 18.136719 22.242188 17.027344 C 25.332031 15.917969 26.40625 15.878906 29.035156 16.84375 C 31.667969 17.804688 47.398438 20.644531 50 21.597656 C 50 21.597656 50 26.109375 50 26.578125 C 50 27.078125 49.398438 27.628906 48.039062 28.335938 "/>
<path style=" stroke:none;fill-rule:nonzero;fill:rgb(77.647059%,18.823529%,16.862745%);fill-opacity:1;" d="M 48.039062 23.3125 C 45.371094 24.703125 31.550781 30.382812 28.605469 31.917969 C 25.664062 33.453125 24.03125 33.4375 21.703125 32.328125 C 19.378906 31.214844 4.671875 25.273438 2.019531 24.007812 C -0.628906 22.742188 -0.683594 21.871094 1.917969 20.851562 C 4.523438 19.832031 19.148438 14.089844 22.242188 12.984375 C 25.332031 11.875 26.40625 11.832031 29.035156 12.796875 C 31.667969 13.761719 45.40625 19.230469 48.007812 20.183594 C 50.609375 21.136719 50.707031 21.921875 48.039062 23.3125 "/>
<path style=" stroke:none;fill-rule:nonzero;fill:rgb(56.862745%,14.901961%,14.901961%);fill-opacity:1;" d="M 48.039062 19.855469 C 45.371094 21.246094 31.550781 26.929688 28.605469 28.464844 C 25.664062 29.996094 24.03125 29.980469 21.703125 28.871094 C 19.378906 27.761719 4.671875 21.816406 2.019531 20.550781 C 0.695312 19.917969 0 19.382812 0 18.878906 L 0 13.824219 C 0 13.824219 19.148438 9.65625 22.242188 8.546875 C 25.332031 7.4375 26.40625 7.398438 29.035156 8.363281 C 31.667969 9.324219 47.398438 12.164062 50 13.117188 C 50 13.117188 50 17.628906 50 18.097656 C 50 18.597656 49.398438 19.144531 48.039062 19.855469 "/>
<path style=" stroke:none;fill-rule:nonzero;fill:rgb(77.647059%,18.823529%,16.862745%);fill-opacity:1;" d="M 48.039062 14.828125 C 45.371094 16.21875 31.550781 21.902344 28.605469 23.4375 C 25.664062 24.972656 24.03125 24.957031 21.703125 23.847656 C 19.378906 22.734375 4.671875 16.792969 2.019531 15.527344 C -0.628906 14.261719 -0.683594 13.390625 1.917969 12.371094 C 4.523438 11.351562 19.148438 5.609375 22.242188 4.5 C 25.332031 3.394531 26.40625 3.351562 29.035156 4.316406 C 31.667969 5.28125 45.40625 10.75 48.007812 11.703125 C 50.609375 12.652344 50.707031 13.4375 48.039062 14.828125 "/>
<path style=" stroke:none;fill-rule:nonzero;fill:rgb(100%,100%,100%);fill-opacity:1;" d="M 31.109375 9.914062 L 26.8125 10.359375 L 25.847656 12.675781 L 24.292969 10.089844 L 19.332031 9.644531 L 23.035156 8.308594 L 21.921875 6.257812 L 25.390625 7.617188 L 28.660156 6.546875 L 27.777344 8.664062 L 31.109375 9.914062 "/>
<path style=" stroke:none;fill-rule:nonzero;fill:rgb(100%,100%,100%);fill-opacity:1;" d="M 25.59375 21.148438 L 17.570312 17.820312 L 29.066406 16.054688 L 25.59375 21.148438 "/>
<path style=" stroke:none;fill-rule:nonzero;fill:rgb(100%,100%,100%);fill-opacity:1;" d="M 14.46875 11.199219 C 17.863281 11.199219 20.613281 12.265625 20.613281 13.582031 C 20.613281 14.898438 17.863281 15.964844 14.46875 15.964844 C 11.074219 15.964844 8.324219 14.898438 8.324219 13.582031 C 8.324219 12.265625 11.074219 11.199219 14.46875 11.199219 "/>
<path style=" stroke:none;fill-rule:nonzero;fill:rgb(38.431373%,10.588235%,10.980392%);fill-opacity:1;" d="M 36.191406 10.546875 L 42.996094 13.234375 L 36.195312 15.921875 L 36.191406 10.546875 "/>
<path style=" stroke:none;fill-rule:nonzero;fill:rgb(60.392157%,16.078431%,15.686275%);fill-opacity:1;" d="M 28.664062 13.523438 L 36.191406 10.546875 L 36.195312 15.921875 L 35.457031 16.210938 L 28.664062 13.523438 "/>
</g>
</svg>
