<?xml version="1.0" encoding="UTF-8"?>
<svg xmlns="http://www.w3.org/2000/svg" xmlns:xlink="http://www.w3.org/1999/xlink" width="50px" height="50px" viewBox="0 0 50 50" version="1.1">
<g id="surface1">
<path style=" stroke:none;fill-rule:nonzero;fill:rgb(97.254902%,60%,22.352941%);fill-opacity:1;" d="M 38.351562 34.425781 C 44.457031 28.324219 45.472656 19.441406 40.617188 14.589844 C 35.761719 9.738281 26.878906 10.753906 20.773438 16.855469 C 14.667969 22.957031 16.433594 34.621094 18.507812 36.691406 C 20.183594 38.367188 32.246094 40.527344 38.351562 34.425781 Z M 38.351562 34.425781 "/>
<path style=" stroke:none;fill-rule:nonzero;fill:rgb(20.392157%,60%,80.392157%);fill-opacity:1;" d="M 13.296875 25.609375 C 9.753906 22.070312 4.597656 21.480469 1.78125 24.292969 C -1.035156 27.109375 -0.445312 32.261719 3.097656 35.800781 C 6.640625 39.34375 13.410156 38.316406 14.613281 37.117188 C 15.585938 36.144531 16.84375 29.148438 13.296875 25.609375 Z M 13.296875 25.609375 "/>
<path style=" stroke:none;fill-rule:nonzero;fill:rgb(0.392157%,0.392157%,0.392157%);fill-opacity:1;" d="M 48.367188 33.46875 C 48.140625 33.46875 48.027344 33.332031 48.027344 33.054688 C 48.027344 32.847656 48.164062 32.394531 48.433594 31.703125 C 48.828125 30.691406 49.027344 29.964844 49.027344 29.523438 C 49.027344 29.257812 48.949219 29.035156 48.792969 28.859375 C 48.636719 28.683594 48.441406 28.59375 48.207031 28.59375 C 47.863281 28.59375 47.46875 28.753906 47.023438 29.078125 C 46.578125 29.402344 45.980469 29.984375 45.226562 30.828125 C 45.335938 30.28125 45.570312 29.53125 45.921875 28.578125 L 44.238281 28.902344 C 43.855469 29.730469 43.578125 30.476562 43.40625 31.140625 C 43.320312 31.464844 43.257812 31.800781 43.214844 32.140625 C 42.6875 32.652344 42.34375 32.960938 42.195312 33.074219 C 42.042969 33.1875 41.882812 33.242188 41.71875 33.242188 C 41.566406 33.242188 41.445312 33.183594 41.355469 33.070312 C 41.265625 32.957031 41.222656 32.800781 41.222656 32.609375 C 41.222656 32.402344 41.261719 32.164062 41.339844 31.894531 C 41.417969 31.625 41.589844 31.117188 41.859375 30.371094 L 42.5 28.605469 L 41.871094 28.632812 C 41.300781 29.71875 40.632812 30.304688 39.867188 30.386719 C 40.074219 29.847656 40.179688 29.433594 40.179688 29.144531 C 40.179688 28.777344 40 28.59375 39.640625 28.59375 C 39.214844 28.59375 38.882812 28.792969 38.644531 29.195312 C 38.402344 29.597656 38.28125 29.976562 38.28125 30.332031 C 38.28125 30.6875 38.480469 30.9375 38.875 31.113281 C 38.617188 31.492188 38.328125 31.847656 38.015625 32.183594 C 37.644531 32.550781 37.355469 32.832031 37.144531 33.015625 C 36.929688 33.207031 36.730469 33.300781 36.550781 33.300781 C 36.269531 33.300781 36.128906 33.101562 36.128906 32.707031 C 36.128906 32.3125 36.285156 31.632812 36.597656 30.617188 L 37.207031 28.59375 L 36.820312 28.59375 L 35.410156 29.375 C 35.179688 28.847656 34.777344 28.582031 34.203125 28.582031 C 33.746094 28.582031 33.222656 28.777344 32.628906 29.164062 C 32.035156 29.550781 31.546875 30.054688 31.167969 30.683594 C 30.875 31.167969 30.695312 31.675781 30.628906 32.199219 C 30.097656 32.730469 29.699219 33.074219 29.433594 33.234375 C 29.15625 33.398438 28.867188 33.480469 28.5625 33.480469 C 27.785156 33.480469 27.304688 33.03125 27.121094 32.132812 C 29.148438 31.539062 30.160156 30.765625 30.160156 29.8125 C 30.160156 29.453125 30.03125 29.164062 29.773438 28.941406 C 29.515625 28.71875 29.171875 28.609375 28.746094 28.609375 C 27.921875 28.609375 27.171875 29.003906 26.496094 29.792969 C 25.882812 30.507812 25.550781 31.300781 25.492188 32.171875 C 24.933594 32.722656 24.511719 33.085938 24.238281 33.261719 C 23.957031 33.441406 23.691406 33.53125 23.445312 33.53125 C 23.199219 33.53125 23.003906 33.414062 22.859375 33.179688 C 22.710938 32.945312 22.636719 32.628906 22.636719 32.226562 C 22.636719 32.046875 22.65625 31.71875 22.691406 31.238281 C 23.613281 30.238281 24.289062 29.300781 24.722656 28.421875 C 25.15625 27.542969 25.371094 26.632812 25.371094 25.695312 C 25.371094 25.363281 25.328125 25.101562 25.242188 24.90625 C 25.15625 24.710938 25.046875 24.613281 24.914062 24.613281 C 24.886719 24.613281 24.84375 24.621094 24.789062 24.640625 L 23.035156 25.289062 C 22.4375 26.429688 21.925781 27.675781 21.507812 29.03125 C 21.089844 30.382812 20.878906 31.542969 20.878906 32.507812 C 20.878906 33.152344 21.027344 33.664062 21.332031 34.046875 C 21.632812 34.429688 22.03125 34.621094 22.523438 34.621094 C 22.953125 34.621094 23.402344 34.484375 23.875 34.210938 C 24.347656 33.9375 24.894531 33.511719 25.523438 32.9375 C 26.152344 32.363281 25.523438 32.929688 25.523438 32.929688 C 25.597656 33.363281 25.777344 33.726562 26.058594 34.023438 C 26.445312 34.421875 26.949219 34.625 27.574219 34.625 C 28.136719 34.625 28.648438 34.488281 29.113281 34.214844 C 29.5625 33.953125 30.066406 33.542969 30.628906 33 C 30.675781 33.40625 30.808594 33.757812 31.03125 34.058594 C 31.316406 34.4375 31.660156 34.628906 32.0625 34.628906 C 32.464844 34.628906 32.878906 34.472656 33.269531 34.160156 C 33.660156 33.847656 34.082031 33.359375 34.542969 32.703125 C 34.5 33.988281 34.84375 34.628906 35.570312 34.628906 C 35.859375 34.628906 36.164062 34.523438 36.480469 34.3125 C 36.796875 34.101562 37.324219 33.644531 38.0625 32.945312 C 38.703125 32.3125 39.171875 31.71875 39.472656 31.164062 C 39.878906 31.09375 40.25 30.972656 40.589844 30.796875 C 39.894531 31.886719 39.546875 32.757812 39.546875 33.40625 C 39.546875 33.757812 39.644531 34.050781 39.835938 34.285156 C 40.027344 34.519531 40.265625 34.640625 40.546875 34.640625 C 41.160156 34.640625 42.03125 34.089844 43.15625 33 C 43.15625 33.085938 43.148438 33.167969 43.148438 33.253906 C 43.148438 33.558594 43.175781 34.019531 43.222656 34.640625 L 44.75 34.28125 C 44.75 33.867188 44.757812 33.539062 44.769531 33.292969 C 44.792969 32.964844 44.839844 32.605469 44.90625 32.214844 C 44.949219 31.984375 45.054688 31.765625 45.222656 31.558594 L 45.609375 31.109375 C 45.75 30.945312 45.886719 30.796875 46.007812 30.667969 C 46.152344 30.515625 46.28125 30.386719 46.394531 30.28125 C 46.523438 30.167969 46.636719 30.074219 46.734375 30.011719 C 46.839844 29.949219 46.925781 29.914062 46.988281 29.914062 C 47.101562 29.914062 47.160156 29.988281 47.160156 30.136719 C 47.160156 30.285156 47.050781 30.628906 46.835938 31.171875 C 46.429688 32.183594 46.226562 32.9375 46.226562 33.429688 C 46.226562 33.792969 46.320312 34.082031 46.511719 34.300781 C 46.699219 34.515625 46.949219 34.625 47.257812 34.625 C 48.015625 34.625 48.929688 34.0625 49.992188 32.941406 L 49.992188 32.148438 C 49.238281 33.035156 48.695312 33.480469 48.359375 33.480469 Z M 22.875 30.230469 C 23.1875 28.703125 23.507812 27.519531 23.832031 26.671875 C 24.15625 25.824219 24.40625 25.398438 24.574219 25.398438 C 24.652344 25.398438 24.71875 25.449219 24.769531 25.554688 C 24.820312 25.65625 24.84375 25.796875 24.84375 25.964844 C 24.84375 26.546875 24.664062 27.238281 24.296875 28.046875 C 23.933594 28.851562 23.457031 29.582031 22.875 30.230469 Z M 27.480469 29.847656 C 27.757812 29.382812 28.046875 29.152344 28.351562 29.152344 C 28.671875 29.152344 28.835938 29.375 28.835938 29.816406 C 28.835938 30.710938 28.246094 31.320312 27.066406 31.652344 C 27.066406 30.910156 27.203125 30.308594 27.480469 29.847656 Z M 34.308594 32.132812 C 33.902344 32.917969 33.464844 33.308594 33.007812 33.308594 C 32.820312 33.308594 32.664062 33.230469 32.542969 33.078125 C 32.421875 32.925781 32.359375 32.722656 32.359375 32.472656 C 32.359375 31.816406 32.566406 31.09375 32.976562 30.3125 C 33.386719 29.53125 33.824219 29.140625 34.285156 29.140625 C 34.476562 29.140625 34.632812 29.210938 34.746094 29.359375 C 34.859375 29.503906 34.917969 29.707031 34.917969 29.964844 C 34.917969 30.628906 34.714844 31.351562 34.308594 32.136719 Z M 34.308594 32.132812 "/>
<path style=" stroke:none;fill-rule:nonzero;fill:rgb(100%,100%,100%);fill-opacity:1;" d="M 29.476562 25.34375 C 29.535156 25.425781 29.5625 25.53125 29.5625 25.65625 C 29.5625 25.78125 29.527344 25.894531 29.457031 26 C 29.386719 26.105469 29.285156 26.191406 29.148438 26.25 C 29.015625 26.308594 28.863281 26.339844 28.695312 26.339844 C 28.414062 26.339844 28.203125 26.28125 28.054688 26.164062 C 27.90625 26.046875 27.8125 25.875 27.773438 25.644531 L 28.136719 25.585938 C 28.15625 25.730469 28.214844 25.84375 28.304688 25.917969 C 28.398438 25.996094 28.527344 26.035156 28.695312 26.035156 C 28.863281 26.035156 28.988281 26 29.070312 25.933594 C 29.152344 25.867188 29.191406 25.785156 29.191406 25.691406 C 29.191406 25.609375 29.15625 25.542969 29.082031 25.496094 C 29.03125 25.464844 28.90625 25.421875 28.707031 25.371094 C 28.4375 25.304688 28.253906 25.246094 28.148438 25.195312 C 28.042969 25.144531 27.964844 25.078125 27.914062 24.988281 C 27.863281 24.898438 27.832031 24.804688 27.832031 24.699219 C 27.832031 24.601562 27.855469 24.515625 27.898438 24.433594 C 27.941406 24.351562 28.003906 24.285156 28.078125 24.230469 C 28.136719 24.1875 28.210938 24.152344 28.308594 24.125 C 28.40625 24.097656 28.511719 24.082031 28.625 24.082031 C 28.792969 24.082031 28.941406 24.105469 29.070312 24.15625 C 29.199219 24.203125 29.292969 24.269531 29.355469 24.355469 C 29.417969 24.4375 29.457031 24.550781 29.480469 24.691406 L 29.121094 24.738281 C 29.105469 24.628906 29.058594 24.539062 28.980469 24.476562 C 28.902344 24.414062 28.792969 24.382812 28.648438 24.382812 C 28.480469 24.382812 28.359375 24.410156 28.289062 24.464844 C 28.21875 24.519531 28.179688 24.585938 28.179688 24.660156 C 28.179688 24.707031 28.195312 24.75 28.222656 24.789062 C 28.253906 24.828125 28.300781 24.859375 28.363281 24.886719 C 28.398438 24.898438 28.507812 24.929688 28.6875 24.980469 C 28.945312 25.050781 29.125 25.105469 29.230469 25.148438 C 29.332031 25.191406 29.414062 25.257812 29.472656 25.339844 Z M 31.222656 25.90625 C 31.125 25.996094 31.007812 26.039062 30.863281 26.039062 C 30.683594 26.039062 30.539062 25.972656 30.429688 25.84375 C 30.320312 25.714844 30.261719 25.5 30.261719 25.210938 C 30.261719 24.921875 30.320312 24.714844 30.433594 24.585938 C 30.546875 24.457031 30.699219 24.386719 30.882812 24.386719 C 31.003906 24.386719 31.109375 24.421875 31.195312 24.496094 C 31.28125 24.570312 31.339844 24.679688 31.375 24.824219 L 31.730469 24.769531 C 31.6875 24.550781 31.59375 24.382812 31.445312 24.265625 C 31.296875 24.148438 31.105469 24.089844 30.871094 24.089844 C 30.683594 24.089844 30.515625 24.132812 30.355469 24.222656 C 30.199219 24.308594 30.078125 24.441406 30.003906 24.617188 C 29.925781 24.792969 29.886719 24.996094 29.886719 25.230469 C 29.886719 25.589844 29.976562 25.867188 30.15625 26.058594 C 30.335938 26.25 30.574219 26.347656 30.867188 26.347656 C 31.101562 26.347656 31.300781 26.277344 31.464844 26.136719 C 31.625 25.996094 31.726562 25.800781 31.765625 25.554688 L 31.40625 25.507812 C 31.378906 25.691406 31.320312 25.824219 31.222656 25.914062 Z M 32.078125 26.289062 L 32.445312 26.289062 L 32.445312 24.132812 L 32.078125 24.132812 Z M 32.078125 23.730469 L 32.445312 23.730469 L 32.445312 23.308594 L 32.078125 23.308594 Z M 34.707031 24.128906 L 34.234375 24.128906 L 33.367188 25.007812 L 33.367188 23.308594 L 33 23.308594 L 33 26.285156 L 33.367188 26.285156 L 33.367188 25.429688 L 33.625 25.183594 L 34.339844 26.285156 L 34.792969 26.285156 L 33.882812 24.929688 Z M 35.082031 23.730469 L 35.449219 23.730469 L 35.449219 23.308594 L 35.082031 23.308594 Z M 35.082031 26.289062 L 35.449219 26.289062 L 35.449219 24.132812 L 35.082031 24.132812 Z M 36.804688 25.960938 C 36.738281 25.96875 36.683594 25.976562 36.644531 25.976562 C 36.589844 25.976562 36.546875 25.96875 36.519531 25.949219 C 36.492188 25.929688 36.46875 25.90625 36.457031 25.878906 C 36.445312 25.847656 36.4375 25.78125 36.4375 25.679688 L 36.4375 24.417969 L 36.804688 24.417969 L 36.804688 24.132812 L 36.4375 24.132812 L 36.4375 23.378906 L 36.074219 23.597656 L 36.074219 24.132812 L 35.804688 24.132812 L 35.804688 24.417969 L 36.074219 24.417969 L 36.074219 25.660156 C 36.074219 25.878906 36.089844 26.023438 36.117188 26.089844 C 36.148438 26.160156 36.199219 26.214844 36.269531 26.253906 C 36.34375 26.296875 36.445312 26.316406 36.578125 26.316406 C 36.660156 26.316406 36.75 26.304688 36.855469 26.285156 L 36.800781 25.960938 Z M 36.804688 25.960938 "/>
</g>
</svg>
