<?xml version="1.0" encoding="UTF-8"?>
<svg xmlns="http://www.w3.org/2000/svg" xmlns:xlink="http://www.w3.org/1999/xlink" width="50px" height="50px" viewBox="0 0 50 50" version="1.1">
<g id="surface1">
<path style=" stroke:none;fill-rule:nonzero;fill:rgb(100%,100%,100%);fill-opacity:1;" d="M 25.175781 0.46875 C 21.976562 0.46875 18.8125 1.097656 15.855469 2.320312 C 12.902344 3.546875 10.214844 5.339844 7.953125 7.601562 C 5.691406 9.863281 3.898438 12.546875 2.675781 15.503906 C 1.449219 18.457031 0.820312 21.625 0.820312 24.824219 C 0.820312 28.019531 1.449219 31.1875 2.675781 34.144531 C 3.898438 37.097656 5.691406 39.78125 7.953125 42.042969 C 10.214844 44.304688 12.902344 46.101562 15.855469 47.324219 C 18.8125 48.546875 21.976562 49.179688 25.175781 49.179688 C 28.375 49.179688 31.542969 48.546875 34.496094 47.324219 C 37.453125 46.101562 40.136719 44.304688 42.398438 42.042969 C 44.660156 39.78125 46.453125 37.097656 47.675781 34.144531 C 48.863281 31.285156 49.488281 28.226562 49.53125 25.132812 L 49.53125 24.511719 C 49.488281 21.421875 48.863281 18.363281 47.675781 15.503906 C 46.453125 12.546875 44.660156 9.863281 42.398438 7.601562 C 40.136719 5.339844 37.453125 3.546875 34.496094 2.320312 C 31.542969 1.097656 28.375 0.46875 25.175781 0.46875 Z M 25.175781 0.46875 "/>
<path style="fill-rule:nonzero;fill:rgb(68.627451%,85.490196%,82.352941%);fill-opacity:1;stroke-width:0.25;stroke-linecap:butt;stroke-linejoin:miter;stroke:rgb(100%,100%,100%);stroke-opacity:1;stroke-miterlimit:4;" d="M 88.716026 63.707856 C 89.996026 63.707856 91.216026 63.207856 92.116026 62.307856 C 93.016026 61.407856 93.536026 60.187856 93.536026 58.907856 C 93.536026 57.627856 93.016026 56.407856 92.116026 55.507856 C 91.216026 54.607856 89.996026 54.107856 88.716026 54.107856 C 87.456026 54.107856 86.236026 54.607856 85.336026 55.507856 C 84.436026 56.407856 83.916026 57.627856 83.916026 58.907856 C 83.916026 60.187856 84.436026 61.407856 85.336026 62.307856 C 86.236026 63.207856 87.456026 63.707856 88.716026 63.707856 Z M 88.716026 63.707856 " transform="matrix(0.195312,0,0,0.195312,2.285932,2.006278)"/>
<path style="fill-rule:nonzero;fill:rgb(68.627451%,85.490196%,82.352941%);fill-opacity:1;stroke-width:0.25;stroke-linecap:butt;stroke-linejoin:miter;stroke:rgb(100%,100%,100%);stroke-opacity:1;stroke-miterlimit:4;" d="M 78.376026 70.947856 C 79.616026 70.947856 80.796026 70.467856 81.676026 69.587856 C 82.536026 68.707856 83.036026 67.527856 83.036026 66.307856 C 83.036026 65.067856 82.536026 63.887856 81.676026 63.007856 C 80.796026 62.127856 79.616026 61.647856 78.376026 61.647856 C 77.156026 61.647856 75.956026 62.127856 75.096026 63.007856 C 74.216026 63.887856 73.736026 65.067856 73.736026 66.307856 C 73.736026 67.527856 74.216026 68.707856 75.096026 69.587856 C 75.956026 70.467856 77.156026 70.947856 78.376026 70.947856 Z M 78.376026 70.947856 " transform="matrix(0.195312,0,0,0.195312,2.285932,2.006278)"/>
<path style="fill-rule:nonzero;fill:rgb(68.627451%,85.490196%,82.352941%);fill-opacity:1;stroke-width:0.25;stroke-linecap:butt;stroke-linejoin:miter;stroke:rgb(100%,100%,100%);stroke-opacity:1;stroke-miterlimit:4;" d="M 68.436026 75.567856 C 69.596026 75.567856 70.716026 75.087856 71.536026 74.267856 C 72.356026 73.447856 72.816026 72.347856 72.816026 71.187856 C 72.816026 70.007856 72.356026 68.907856 71.536026 68.087856 C 70.716026 67.267856 69.596026 66.807856 68.436026 66.807856 C 67.276026 66.807856 66.156026 67.267856 65.336026 68.087856 C 64.516026 68.907856 64.056026 70.007856 64.056026 71.187856 C 64.056026 72.347856 64.516026 73.447856 65.336026 74.267856 C 66.156026 75.087856 67.276026 75.567856 68.436026 75.567856 Z M 68.436026 75.567856 " transform="matrix(0.195312,0,0,0.195312,2.285932,2.006278)"/>
<path style="fill-rule:nonzero;fill:rgb(68.627451%,85.490196%,82.352941%);fill-opacity:1;stroke-width:0.25;stroke-linecap:butt;stroke-linejoin:miter;stroke:rgb(100%,100%,100%);stroke-opacity:1;stroke-miterlimit:4;" d="M 97.456026 57.987856 C 98.756026 57.987856 100.016026 57.467856 100.936026 56.547856 C 101.876026 55.607856 102.396026 54.347856 102.396026 53.047856 C 102.396026 51.727856 101.876026 50.467856 100.936026 49.547856 C 100.016026 48.607856 98.756026 48.087856 97.456026 48.087856 C 96.136026 48.087856 94.876026 48.607856 93.956026 49.547856 C 93.016026 50.467856 92.496026 51.727856 92.496026 53.047856 C 92.496026 54.347856 93.016026 55.607856 93.956026 56.547856 C 94.876026 57.467856 96.136026 57.987856 97.456026 57.987856 Z M 97.456026 57.987856 " transform="matrix(0.195312,0,0,0.195312,2.285932,2.006278)"/>
<path style="fill-rule:nonzero;fill:rgb(68.627451%,85.490196%,82.352941%);fill-opacity:1;stroke-width:0.25;stroke-linecap:butt;stroke-linejoin:miter;stroke:rgb(100%,100%,100%);stroke-opacity:1;stroke-miterlimit:4;" d="M 60.976026 65.167856 C 61.856026 65.167856 62.696026 64.827856 63.316026 64.207856 C 63.936026 63.567856 64.296026 62.727856 64.296026 61.847856 C 64.296026 60.967856 63.936026 60.127856 63.316026 59.507856 C 62.696026 58.867856 61.856026 58.527856 60.976026 58.527856 C 60.076026 58.527856 59.236026 58.867856 58.616026 59.507856 C 57.996026 60.127856 57.636026 60.967856 57.636026 61.847856 C 57.636026 62.727856 57.996026 63.567856 58.616026 64.207856 C 59.236026 64.827856 60.076026 65.167856 60.976026 65.167856 Z M 60.976026 65.167856 " transform="matrix(0.195312,0,0,0.195312,2.285932,2.006278)"/>
<path style="fill-rule:nonzero;fill:rgb(68.627451%,85.490196%,82.352941%);fill-opacity:1;stroke-width:0.25;stroke-linecap:butt;stroke-linejoin:miter;stroke:rgb(100%,100%,100%);stroke-opacity:1;stroke-miterlimit:4;" d="M 52.756026 83.367856 C 53.816026 83.367856 54.816026 82.967856 55.556026 82.227856 C 56.296026 81.487856 56.716026 80.467856 56.716026 79.427856 C 56.716026 78.387856 56.296026 77.367856 55.556026 76.627856 C 54.816026 75.887856 53.816026 75.487856 52.756026 75.487856 C 51.716026 75.487856 50.716026 75.887856 49.976026 76.627856 C 49.236026 77.367856 48.816026 78.387856 48.816026 79.427856 C 48.816026 80.467856 49.236026 81.487856 49.976026 82.227856 C 50.716026 82.967856 51.716026 83.367856 52.756026 83.367856 Z M 52.756026 83.367856 " transform="matrix(0.195312,0,0,0.195312,2.285932,2.006278)"/>
<path style="fill-rule:nonzero;fill:rgb(68.627451%,85.490196%,82.352941%);fill-opacity:1;stroke-width:0.25;stroke-linecap:butt;stroke-linejoin:miter;stroke:rgb(100%,100%,100%);stroke-opacity:1;stroke-miterlimit:4;" d="M 57.776026 52.107856 C 59.036026 52.107856 60.256026 51.607856 61.156026 50.727856 C 62.036026 49.827856 62.536026 48.627856 62.536026 47.367856 C 62.536026 46.087856 62.036026 44.887856 61.156026 43.987856 C 60.256026 43.107856 59.036026 42.607856 57.776026 42.607856 C 56.516026 42.607856 55.316026 43.107856 54.416026 43.987856 C 53.536026 44.887856 53.016026 46.087856 53.016026 47.367856 C 53.016026 48.627856 53.536026 49.827856 54.416026 50.727856 C 55.316026 51.607856 56.516026 52.107856 57.776026 52.107856 Z M 57.776026 52.107856 " transform="matrix(0.195312,0,0,0.195312,2.285932,2.006278)"/>
<path style="fill-rule:nonzero;fill:rgb(68.627451%,85.490196%,82.352941%);fill-opacity:1;stroke-width:0.25;stroke-linecap:butt;stroke-linejoin:miter;stroke:rgb(100%,100%,100%);stroke-opacity:1;stroke-miterlimit:4;" d="M 70.616026 61.027856 C 71.596026 61.027856 72.536026 60.627856 73.216026 59.947856 C 73.916026 59.247856 74.296026 58.307856 74.296026 57.347856 C 74.296026 56.367856 73.916026 55.427856 73.216026 54.747856 C 72.536026 54.047856 71.596026 53.667856 70.616026 53.667856 C 69.636026 53.667856 68.716026 54.047856 68.016026 54.747856 C 67.336026 55.427856 66.936026 56.367856 66.936026 57.347856 C 66.936026 58.307856 67.336026 59.247856 68.016026 59.947856 C 68.716026 60.627856 69.636026 61.027856 70.616026 61.027856 Z M 70.616026 61.027856 " transform="matrix(0.195312,0,0,0.195312,2.285932,2.006278)"/>
<path style="fill-rule:nonzero;fill:rgb(68.627451%,85.490196%,82.352941%);fill-opacity:1;stroke-width:0.25;stroke-linecap:butt;stroke-linejoin:miter;stroke:rgb(100%,100%,100%);stroke-opacity:1;stroke-miterlimit:4;" d="M 134.056026 50.027856 C 135.196026 50.027856 136.296026 49.587856 137.116026 48.767856 C 137.916026 47.967856 138.376026 46.867856 138.376026 45.727856 C 138.376026 44.587856 137.916026 43.507856 137.116026 42.687856 C 136.296026 41.887856 135.196026 41.427856 134.056026 41.427856 C 132.916026 41.427856 131.836026 41.887856 131.016026 42.687856 C 130.216026 43.507856 129.756026 44.587856 129.756026 45.727856 C 129.756026 46.867856 130.216026 47.967856 131.016026 48.767856 C 131.836026 49.587856 132.916026 50.027856 134.056026 50.027856 Z M 134.056026 50.027856 " transform="matrix(0.195312,0,0,0.195312,2.285932,2.006278)"/>
<path style="fill-rule:nonzero;fill:rgb(68.627451%,85.490196%,82.352941%);fill-opacity:1;stroke-width:0.25;stroke-linecap:butt;stroke-linejoin:miter;stroke:rgb(100%,100%,100%);stroke-opacity:1;stroke-miterlimit:4;" d="M 43.836026 72.847856 C 44.516026 72.847856 45.176026 72.567856 45.676026 72.087856 C 46.156026 71.587856 46.436026 70.927856 46.436026 70.227856 C 46.436026 69.547856 46.156026 68.887856 45.676026 68.387856 C 45.176026 67.907856 44.516026 67.627856 43.836026 67.627856 C 43.136026 67.627856 42.476026 67.907856 41.996026 68.387856 C 41.496026 68.887856 41.216026 69.547856 41.216026 70.227856 C 41.216026 70.927856 41.496026 71.587856 41.996026 72.087856 C 42.476026 72.567856 43.136026 72.847856 43.836026 72.847856 Z M 43.836026 72.847856 " transform="matrix(0.195312,0,0,0.195312,2.285932,2.006278)"/>
<path style="fill-rule:nonzero;fill:rgb(68.627451%,85.490196%,82.352941%);fill-opacity:1;stroke-width:0.25;stroke-linecap:butt;stroke-linejoin:miter;stroke:rgb(100%,100%,100%);stroke-opacity:1;stroke-miterlimit:4;" d="M 52.496026 70.387856 C 53.316026 70.387856 54.096026 70.067856 54.676026 69.487856 C 55.256026 68.907856 55.596026 68.107856 55.596026 67.287856 C 55.596026 66.467856 55.256026 65.687856 54.676026 65.107856 C 54.096026 64.527856 53.316026 64.207856 52.496026 64.207856 C 51.676026 64.207856 50.896026 64.527856 50.316026 65.107856 C 49.736026 65.687856 49.396026 66.467856 49.396026 67.287856 C 49.396026 68.107856 49.736026 68.907856 50.316026 69.487856 C 50.896026 70.067856 51.676026 70.387856 52.496026 70.387856 Z M 52.496026 70.387856 " transform="matrix(0.195312,0,0,0.195312,2.285932,2.006278)"/>
<path style="fill-rule:nonzero;fill:rgb(68.627451%,85.490196%,82.352941%);fill-opacity:1;stroke-width:0.25;stroke-linecap:butt;stroke-linejoin:miter;stroke:rgb(100%,100%,100%);stroke-opacity:1;stroke-miterlimit:4;" d="M 36.696026 60.587856 C 37.776026 60.587856 38.836026 60.147856 39.596026 59.387856 C 40.356026 58.607856 40.796026 57.567856 40.796026 56.487856 C 40.796026 55.387856 40.356026 54.347856 39.596026 53.587856 C 38.836026 52.807856 37.776026 52.367856 36.696026 52.367856 C 35.616026 52.367856 34.556026 52.807856 33.796026 53.587856 C 33.016026 54.347856 32.596026 55.387856 32.596026 56.487856 C 32.596026 57.567856 33.016026 58.607856 33.796026 59.387856 C 34.556026 60.147856 35.616026 60.587856 36.696026 60.587856 Z M 36.696026 60.587856 " transform="matrix(0.195312,0,0,0.195312,2.285932,2.006278)"/>
<path style="fill-rule:nonzero;fill:rgb(68.627451%,85.490196%,82.352941%);fill-opacity:1;stroke-width:0.25;stroke-linecap:butt;stroke-linejoin:miter;stroke:rgb(100%,100%,100%);stroke-opacity:1;stroke-miterlimit:4;" d="M 52.836026 58.767856 C 53.396026 58.767856 53.956026 58.547856 54.356026 58.147856 C 54.756026 57.747856 54.976026 57.207856 54.976026 56.627856 C 54.976026 56.067856 54.756026 55.527856 54.356026 55.127856 C 53.956026 54.727856 53.396026 54.487856 52.836026 54.487856 C 52.276026 54.487856 51.716026 54.727856 51.316026 55.127856 C 50.916026 55.527856 50.696026 56.067856 50.696026 56.627856 C 50.696026 57.207856 50.916026 57.747856 51.316026 58.147856 C 51.716026 58.547856 52.276026 58.767856 52.836026 58.767856 Z M 52.836026 58.767856 " transform="matrix(0.195312,0,0,0.195312,2.285932,2.006278)"/>
<path style="fill-rule:nonzero;fill:rgb(68.627451%,85.490196%,82.352941%);fill-opacity:1;stroke-width:0.25;stroke-linecap:butt;stroke-linejoin:miter;stroke:rgb(100%,100%,100%);stroke-opacity:1;stroke-miterlimit:4;" d="M 81.476026 55.447856 C 82.536026 55.447856 83.536026 55.027856 84.296026 54.267856 C 85.036026 53.527856 85.456026 52.507856 85.456026 51.447856 C 85.456026 50.387856 85.036026 49.367856 84.296026 48.627856 C 83.536026 47.867856 82.536026 47.447856 81.476026 47.447856 C 80.416026 47.447856 79.396026 47.867856 78.656026 48.627856 C 77.896026 49.367856 77.476026 50.387856 77.476026 51.447856 C 77.476026 52.507856 77.896026 53.527856 78.656026 54.267856 C 79.396026 55.027856 80.416026 55.447856 81.476026 55.447856 Z M 81.476026 55.447856 " transform="matrix(0.195312,0,0,0.195312,2.285932,2.006278)"/>
<path style="fill-rule:nonzero;fill:rgb(68.627451%,85.490196%,82.352941%);fill-opacity:1;stroke-width:0.25;stroke-linecap:butt;stroke-linejoin:miter;stroke:rgb(100%,100%,100%);stroke-opacity:1;stroke-miterlimit:4;" d="M 111.796026 57.747856 C 112.716026 57.747856 113.596026 57.387856 114.236026 56.747856 C 114.876026 56.087856 115.256026 55.227856 115.256026 54.307856 C 115.256026 53.387856 114.876026 52.507856 114.236026 51.867856 C 113.596026 51.227856 112.716026 50.867856 111.796026 50.867856 C 110.896026 50.867856 110.016026 51.227856 109.356026 51.867856 C 108.716026 52.507856 108.356026 53.387856 108.356026 54.307856 C 108.356026 55.227856 108.716026 56.087856 109.356026 56.747856 C 110.016026 57.387856 110.896026 57.747856 111.796026 57.747856 Z M 111.796026 57.747856 " transform="matrix(0.195312,0,0,0.195312,2.285932,2.006278)"/>
<path style="fill-rule:nonzero;fill:rgb(68.627451%,85.490196%,82.352941%);fill-opacity:1;stroke-width:0.25;stroke-linecap:butt;stroke-linejoin:miter;stroke:rgb(100%,100%,100%);stroke-opacity:1;stroke-miterlimit:4;" d="M 118.116026 36.247856 C 118.696026 36.247856 119.276026 36.007856 119.696026 35.587856 C 120.116026 35.167856 120.356026 34.587856 120.356026 34.007856 C 120.356026 33.407856 120.116026 32.827856 119.696026 32.407856 C 119.276026 31.987856 118.696026 31.747856 118.116026 31.747856 C 117.516026 31.747856 116.936026 31.987856 116.516026 32.407856 C 116.096026 32.827856 115.856026 33.407856 115.856026 34.007856 C 115.856026 34.587856 116.096026 35.167856 116.516026 35.587856 C 116.936026 36.007856 117.516026 36.247856 118.116026 36.247856 Z M 118.116026 36.247856 " transform="matrix(0.195312,0,0,0.195312,2.285932,2.006278)"/>
<path style="fill-rule:nonzero;fill:rgb(68.627451%,85.490196%,82.352941%);fill-opacity:1;stroke-width:0.25;stroke-linecap:butt;stroke-linejoin:miter;stroke:rgb(100%,100%,100%);stroke-opacity:1;stroke-miterlimit:4;" d="M 125.436026 49.227856 C 126.436026 49.227856 127.396026 48.847856 128.096026 48.127856 C 128.816026 47.427856 129.216026 46.467856 129.216026 45.467856 C 129.216026 44.467856 128.816026 43.507856 128.096026 42.807856 C 127.396026 42.087856 126.436026 41.707856 125.436026 41.707856 C 124.436026 41.707856 123.476026 42.087856 122.776026 42.807856 C 122.076026 43.507856 121.676026 44.467856 121.676026 45.467856 C 121.676026 46.467856 122.076026 47.427856 122.776026 48.127856 C 123.476026 48.847856 124.436026 49.227856 125.436026 49.227856 Z M 125.436026 49.227856 " transform="matrix(0.195312,0,0,0.195312,2.285932,2.006278)"/>
<path style="fill-rule:nonzero;fill:rgb(68.627451%,85.490196%,82.352941%);fill-opacity:1;stroke-width:0.25;stroke-linecap:butt;stroke-linejoin:miter;stroke:rgb(100%,100%,100%);stroke-opacity:1;stroke-miterlimit:4;" d="M 87.796026 47.047856 C 88.816026 47.047856 89.816026 46.627856 90.536026 45.907856 C 91.256026 45.187856 91.676026 44.187856 91.676026 43.167856 C 91.676026 42.147856 91.256026 41.147856 90.536026 40.427856 C 89.816026 39.707856 88.816026 39.287856 87.796026 39.287856 C 86.776026 39.287856 85.776026 39.707856 85.056026 40.427856 C 84.336026 41.147856 83.916026 42.147856 83.916026 43.167856 C 83.916026 44.187856 84.336026 45.187856 85.056026 45.907856 C 85.776026 46.627856 86.776026 47.047856 87.796026 47.047856 Z M 87.796026 47.047856 " transform="matrix(0.195312,0,0,0.195312,2.285932,2.006278)"/>
<path style="fill-rule:nonzero;fill:rgb(68.627451%,85.490196%,82.352941%);fill-opacity:1;stroke-width:0.25;stroke-linecap:butt;stroke-linejoin:miter;stroke:rgb(100%,100%,100%);stroke-opacity:1;stroke-miterlimit:4;" d="M 39.296026 84.247856 C 40.136026 84.247856 40.936026 83.927856 41.516026 83.327856 C 42.096026 82.747856 42.436026 81.947856 42.436026 81.107856 C 42.436026 80.267856 42.096026 79.467856 41.516026 78.887856 C 40.936026 78.287856 40.136026 77.967856 39.296026 77.967856 C 38.456026 77.967856 37.656026 78.287856 37.076026 78.887856 C 36.476026 79.467856 36.156026 80.267856 36.156026 81.107856 C 36.156026 81.947856 36.476026 82.747856 37.076026 83.327856 C 37.656026 83.927856 38.456026 84.247856 39.296026 84.247856 Z M 39.296026 84.247856 " transform="matrix(0.195312,0,0,0.195312,2.285932,2.006278)"/>
<path style="fill-rule:nonzero;fill:rgb(68.627451%,85.490196%,82.352941%);fill-opacity:1;stroke-width:0.25;stroke-linecap:butt;stroke-linejoin:miter;stroke:rgb(100%,100%,100%);stroke-opacity:1;stroke-miterlimit:4;" d="M 142.776026 50.867856 C 144.036026 50.867856 145.256026 50.347856 146.156026 49.467856 C 147.056026 48.567856 147.556026 47.347856 147.556026 46.067856 C 147.556026 44.807856 147.056026 43.587856 146.156026 42.687856 C 145.256026 41.787856 144.036026 41.287856 142.776026 41.287856 C 141.516026 41.287856 140.296026 41.787856 139.396026 42.687856 C 138.496026 43.587856 137.996026 44.807856 137.996026 46.067856 C 137.996026 47.347856 138.496026 48.567856 139.396026 49.467856 C 140.296026 50.347856 141.516026 50.867856 142.776026 50.867856 Z M 142.776026 50.867856 " transform="matrix(0.195312,0,0,0.195312,2.285932,2.006278)"/>
<path style="fill-rule:nonzero;fill:rgb(68.627451%,85.490196%,82.352941%);fill-opacity:1;stroke-width:0.25;stroke-linecap:butt;stroke-linejoin:miter;stroke:rgb(100%,100%,100%);stroke-opacity:1;stroke-miterlimit:4;" d="M 96.596026 47.627856 C 97.776026 47.627856 98.896026 47.147856 99.716026 46.327856 C 100.536026 45.507856 100.996026 44.387856 100.996026 43.227856 C 100.996026 42.067856 100.536026 40.947856 99.716026 40.127856 C 98.896026 39.287856 97.776026 38.827856 96.596026 38.827856 C 95.436026 38.827856 94.316026 39.287856 93.496026 40.127856 C 92.676026 40.947856 92.216026 42.067856 92.216026 43.227856 C 92.216026 44.387856 92.676026 45.507856 93.496026 46.327856 C 94.316026 47.147856 95.436026 47.627856 96.596026 47.627856 Z M 96.596026 47.627856 " transform="matrix(0.195312,0,0,0.195312,2.285932,2.006278)"/>
<path style="fill-rule:nonzero;fill:rgb(68.627451%,85.490196%,82.352941%);fill-opacity:1;stroke-width:0.25;stroke-linecap:butt;stroke-linejoin:miter;stroke:rgb(100%,100%,100%);stroke-opacity:1;stroke-miterlimit:4;" d="M 45.576026 51.167856 C 46.656026 51.167856 47.696026 50.727856 48.456026 49.967856 C 49.216026 49.207856 49.656026 48.167856 49.656026 47.087856 C 49.656026 46.007856 49.216026 44.967856 48.456026 44.207856 C 47.696026 43.447856 46.656026 43.007856 45.576026 43.007856 C 44.496026 43.007856 43.456026 43.447856 42.696026 44.207856 C 41.936026 44.967856 41.496026 46.007856 41.496026 47.087856 C 41.496026 48.167856 41.936026 49.207856 42.696026 49.967856 C 43.456026 50.727856 44.496026 51.167856 45.576026 51.167856 Z M 45.576026 51.167856 " transform="matrix(0.195312,0,0,0.195312,2.285932,2.006278)"/>
<path style="fill-rule:nonzero;fill:rgb(68.627451%,85.490196%,82.352941%);fill-opacity:1;stroke-width:0.25;stroke-linecap:butt;stroke-linejoin:miter;stroke:rgb(100%,100%,100%);stroke-opacity:1;stroke-miterlimit:4;" d="M 68.236026 40.647856 C 69.496026 40.647856 70.676026 40.147856 71.576026 39.267856 C 72.456026 38.387856 72.936026 37.187856 72.936026 35.947856 C 72.936026 34.687856 72.456026 33.487856 71.576026 32.607856 C 70.676026 31.727856 69.496026 31.227856 68.236026 31.227856 C 66.996026 31.227856 65.796026 31.727856 64.916026 32.607856 C 64.036026 33.487856 63.536026 34.687856 63.536026 35.947856 C 63.536026 37.187856 64.036026 38.387856 64.916026 39.267856 C 65.796026 40.147856 66.996026 40.647856 68.236026 40.647856 Z M 68.236026 40.647856 " transform="matrix(0.195312,0,0,0.195312,2.285932,2.006278)"/>
<path style="fill-rule:nonzero;fill:rgb(68.627451%,85.490196%,82.352941%);fill-opacity:1;stroke-width:0.25;stroke-linecap:butt;stroke-linejoin:miter;stroke:rgb(100%,100%,100%);stroke-opacity:1;stroke-miterlimit:4;" d="M 156.556026 46.987856 C 157.336026 46.987856 158.076026 46.687856 158.616026 46.127856 C 159.156026 45.587856 159.476026 44.847856 159.476026 44.067856 C 159.476026 43.307856 159.156026 42.567856 158.616026 42.027856 C 158.076026 41.467856 157.336026 41.167856 156.556026 41.167856 C 155.796026 41.167856 155.056026 41.467856 154.516026 42.027856 C 153.956026 42.567856 153.656026 43.307856 153.656026 44.067856 C 153.656026 44.847856 153.956026 45.587856 154.516026 46.127856 C 155.056026 46.687856 155.796026 46.987856 156.556026 46.987856 Z M 156.556026 46.987856 " transform="matrix(0.195312,0,0,0.195312,2.285932,2.006278)"/>
<path style="fill-rule:nonzero;fill:rgb(68.627451%,85.490196%,82.352941%);fill-opacity:1;stroke-width:0.25;stroke-linecap:butt;stroke-linejoin:miter;stroke:rgb(100%,100%,100%);stroke-opacity:1;stroke-miterlimit:4;" d="M 55.276026 35.107856 C 56.256026 35.107856 57.196026 34.727856 57.896026 34.027856 C 58.576026 33.327856 58.976026 32.387856 58.976026 31.407856 C 58.976026 30.427856 58.576026 29.487856 57.896026 28.787856 C 57.196026 28.107856 56.256026 27.707856 55.276026 27.707856 C 54.296026 27.707856 53.356026 28.107856 52.656026 28.787856 C 51.956026 29.487856 51.576026 30.427856 51.576026 31.407856 C 51.576026 32.387856 51.956026 33.327856 52.656026 34.027856 C 53.356026 34.727856 54.296026 35.107856 55.276026 35.107856 Z M 55.276026 35.107856 " transform="matrix(0.195312,0,0,0.195312,2.285932,2.006278)"/>
<path style="fill-rule:nonzero;fill:rgb(68.627451%,85.490196%,82.352941%);fill-opacity:1;stroke-width:0.25;stroke-linecap:butt;stroke-linejoin:miter;stroke:rgb(100%,100%,100%);stroke-opacity:1;stroke-miterlimit:4;" d="M 71.956026 51.687856 C 72.796026 51.687856 73.596026 51.347856 74.176026 50.747856 C 74.776026 50.167856 75.096026 49.367856 75.096026 48.527856 C 75.096026 47.687856 74.776026 46.887856 74.176026 46.307856 C 73.596026 45.707856 72.796026 45.387856 71.956026 45.387856 C 71.116026 45.387856 70.316026 45.707856 69.736026 46.307856 C 69.136026 46.887856 68.816026 47.687856 68.816026 48.527856 C 68.816026 49.367856 69.136026 50.167856 69.736026 50.747856 C 70.316026 51.347856 71.116026 51.687856 71.956026 51.687856 Z M 71.956026 51.687856 " transform="matrix(0.195312,0,0,0.195312,2.285932,2.006278)"/>
<path style="fill-rule:nonzero;fill:rgb(68.627451%,85.490196%,82.352941%);fill-opacity:1;stroke-width:0.25;stroke-linecap:butt;stroke-linejoin:miter;stroke:rgb(100%,100%,100%);stroke-opacity:1;stroke-miterlimit:4;" d="M 79.496026 44.847856 C 80.336026 44.847856 81.156026 44.507856 81.756026 43.907856 C 82.356026 43.307856 82.696026 42.487856 82.696026 41.647856 C 82.696026 40.807856 82.356026 39.987856 81.756026 39.387856 C 81.156026 38.787856 80.336026 38.447856 79.496026 38.447856 C 78.656026 38.447856 77.836026 38.787856 77.236026 39.387856 C 76.636026 39.987856 76.296026 40.807856 76.296026 41.647856 C 76.296026 42.487856 76.636026 43.307856 77.236026 43.907856 C 77.836026 44.507856 78.656026 44.847856 79.496026 44.847856 Z M 79.496026 44.847856 " transform="matrix(0.195312,0,0,0.195312,2.285932,2.006278)"/>
<path style="fill-rule:nonzero;fill:rgb(68.627451%,85.490196%,82.352941%);fill-opacity:1;stroke-width:0.25;stroke-linecap:butt;stroke-linejoin:miter;stroke:rgb(100%,100%,100%);stroke-opacity:1;stroke-miterlimit:4;" d="M 30.096026 52.967856 C 30.956026 52.967856 31.776026 52.627856 32.376026 52.027856 C 32.976026 51.427856 33.316026 50.607856 33.316026 49.747856 C 33.316026 48.887856 32.976026 48.067856 32.376026 47.467856 C 31.776026 46.867856 30.956026 46.527856 30.096026 46.527856 C 29.236026 46.527856 28.416026 46.867856 27.816026 47.467856 C 27.216026 48.067856 26.876026 48.887856 26.876026 49.747856 C 26.876026 50.607856 27.216026 51.427856 27.816026 52.027856 C 28.416026 52.627856 29.236026 52.967856 30.096026 52.967856 Z M 30.096026 52.967856 " transform="matrix(0.195312,0,0,0.195312,2.285932,2.006278)"/>
<path style="fill-rule:nonzero;fill:rgb(68.627451%,85.490196%,82.352941%);fill-opacity:1;stroke-width:0.25;stroke-linecap:butt;stroke-linejoin:miter;stroke:rgb(100%,100%,100%);stroke-opacity:1;stroke-miterlimit:4;" d="M 38.956026 40.447856 C 39.756026 40.447856 40.496026 40.147856 41.056026 39.587856 C 41.616026 39.027856 41.916026 38.287856 41.916026 37.487856 C 41.916026 36.707856 41.616026 35.967856 41.056026 35.407856 C 40.496026 34.847856 39.756026 34.547856 38.956026 34.547856 C 38.176026 34.547856 37.436026 34.847856 36.876026 35.407856 C 36.316026 35.967856 36.016026 36.707856 36.016026 37.487856 C 36.016026 38.287856 36.316026 39.027856 36.876026 39.587856 C 37.436026 40.147856 38.176026 40.447856 38.956026 40.447856 Z M 38.956026 40.447856 " transform="matrix(0.195312,0,0,0.195312,2.285932,2.006278)"/>
<path style="fill-rule:nonzero;fill:rgb(68.627451%,85.490196%,82.352941%);fill-opacity:1;stroke-width:0.25;stroke-linecap:butt;stroke-linejoin:miter;stroke:rgb(100%,100%,100%);stroke-opacity:1;stroke-miterlimit:4;" d="M 107.116026 49.627856 C 107.776026 49.627856 108.416026 49.367856 108.876026 48.887856 C 109.336026 48.427856 109.596026 47.807856 109.596026 47.147856 C 109.596026 46.487856 109.336026 45.867856 108.876026 45.387856 C 108.416026 44.927856 107.776026 44.667856 107.116026 44.667856 C 106.456026 44.667856 105.836026 44.927856 105.376026 45.387856 C 104.896026 45.867856 104.636026 46.487856 104.636026 47.147856 C 104.636026 47.807856 104.896026 48.427856 105.376026 48.887856 C 105.836026 49.367856 106.456026 49.627856 107.116026 49.627856 Z M 107.116026 49.627856 " transform="matrix(0.195312,0,0,0.195312,2.285932,2.006278)"/>
<path style="fill-rule:nonzero;fill:rgb(68.627451%,85.490196%,82.352941%);fill-opacity:1;stroke-width:0.25;stroke-linecap:butt;stroke-linejoin:miter;stroke:rgb(100%,100%,100%);stroke-opacity:1;stroke-miterlimit:4;" d="M 27.836026 69.267856 C 28.916026 69.267856 29.956026 68.847856 30.716026 68.067856 C 31.496026 67.307856 31.916026 66.267856 31.916026 65.187856 C 31.916026 64.087856 31.496026 63.047856 30.716026 62.287856 C 29.956026 61.527856 28.916026 61.087856 27.836026 61.087856 C 26.736026 61.087856 25.696026 61.527856 24.936026 62.287856 C 24.156026 63.047856 23.736026 64.087856 23.736026 65.187856 C 23.736026 66.267856 24.156026 67.307856 24.936026 68.067856 C 25.696026 68.847856 26.736026 69.267856 27.836026 69.267856 Z M 27.836026 69.267856 " transform="matrix(0.195312,0,0,0.195312,2.285932,2.006278)"/>
<path style="fill-rule:nonzero;fill:rgb(68.627451%,85.490196%,82.352941%);fill-opacity:1;stroke-width:0.25;stroke-linecap:butt;stroke-linejoin:miter;stroke:rgb(100%,100%,100%);stroke-opacity:1;stroke-miterlimit:4;" d="M 18.696026 62.367856 C 19.496026 62.367856 20.276026 62.047856 20.856026 61.467856 C 21.436026 60.887856 21.756026 60.107856 21.756026 59.287856 C 21.756026 58.487856 21.436026 57.687856 20.856026 57.127856 C 20.276026 56.547856 19.496026 56.227856 18.696026 56.227856 C 17.876026 56.227856 17.096026 56.547856 16.516026 57.127856 C 15.936026 57.687856 15.616026 58.487856 15.616026 59.287856 C 15.616026 60.107856 15.936026 60.887856 16.516026 61.467856 C 17.096026 62.047856 17.876026 62.367856 18.696026 62.367856 Z M 18.696026 62.367856 " transform="matrix(0.195312,0,0,0.195312,2.285932,2.006278)"/>
<path style="fill-rule:nonzero;fill:rgb(68.627451%,85.490196%,82.352941%);fill-opacity:1;stroke-width:0.25;stroke-linecap:butt;stroke-linejoin:miter;stroke:rgb(100%,100%,100%);stroke-opacity:1;stroke-miterlimit:4;" d="M 115.556026 48.907856 C 116.376026 48.907856 117.176026 48.567856 117.756026 47.987856 C 118.336026 47.407856 118.656026 46.627856 118.656026 45.807856 C 118.656026 44.987856 118.336026 44.207856 117.756026 43.627856 C 117.176026 43.047856 116.376026 42.707856 115.556026 42.707856 C 114.736026 42.707856 113.956026 43.047856 113.376026 43.627856 C 112.796026 44.207856 112.476026 44.987856 112.476026 45.807856 C 112.476026 46.627856 112.796026 47.407856 113.376026 47.987856 C 113.956026 48.567856 114.736026 48.907856 115.556026 48.907856 Z M 115.556026 48.907856 " transform="matrix(0.195312,0,0,0.195312,2.285932,2.006278)"/>
<path style="fill-rule:nonzero;fill:rgb(68.627451%,85.490196%,82.352941%);fill-opacity:1;stroke-width:0.25;stroke-linecap:butt;stroke-linejoin:miter;stroke:rgb(100%,100%,100%);stroke-opacity:1;stroke-miterlimit:4;" d="M 45.216026 64.967856 C 46.476026 64.967856 47.696026 64.467856 48.576026 63.567856 C 49.476026 62.687856 49.976026 61.467856 49.976026 60.207856 C 49.976026 58.927856 49.476026 57.727856 48.576026 56.827856 C 47.696026 55.927856 46.476026 55.427856 45.216026 55.427856 C 43.936026 55.427856 42.736026 55.927856 41.836026 56.827856 C 40.936026 57.727856 40.436026 58.927856 40.436026 60.207856 C 40.436026 61.467856 40.936026 62.687856 41.836026 63.567856 C 42.736026 64.467856 43.936026 64.967856 45.216026 64.967856 Z M 45.216026 64.967856 " transform="matrix(0.195312,0,0,0.195312,2.285932,2.006278)"/>
<path style="fill-rule:nonzero;fill:rgb(68.627451%,85.490196%,82.352941%);fill-opacity:1;stroke-width:0.25;stroke-linecap:butt;stroke-linejoin:miter;stroke:rgb(100%,100%,100%);stroke-opacity:1;stroke-miterlimit:4;" d="M 150.296026 43.287856 C 151.576026 43.287856 152.796026 42.767856 153.696026 41.887856 C 154.576026 40.987856 155.096026 39.767856 155.096026 38.487856 C 155.096026 37.227856 154.576026 36.007856 153.696026 35.107856 C 152.796026 34.227856 151.576026 33.707856 150.296026 33.707856 C 149.036026 33.707856 147.816026 34.227856 146.916026 35.107856 C 146.036026 36.007856 145.516026 37.227856 145.516026 38.487856 C 145.516026 39.767856 146.036026 40.987856 146.916026 41.887856 C 147.816026 42.767856 149.036026 43.287856 150.296026 43.287856 Z M 150.296026 43.287856 " transform="matrix(0.195312,0,0,0.195312,2.285932,2.006278)"/>
<path style="fill-rule:nonzero;fill:rgb(68.627451%,85.490196%,82.352941%);fill-opacity:1;stroke-width:0.25;stroke-linecap:butt;stroke-linejoin:miter;stroke:rgb(100%,100%,100%);stroke-opacity:1;stroke-miterlimit:4;" d="M 30.356026 88.347856 C 31.096026 88.347856 31.796026 88.047856 32.316026 87.527856 C 32.856026 87.007856 33.136026 86.307856 33.136026 85.567856 C 33.136026 84.827856 32.856026 84.127856 32.316026 83.607856 C 31.796026 83.087856 31.096026 82.787856 30.356026 82.787856 C 29.636026 82.787856 28.916026 83.087856 28.396026 83.607856 C 27.876026 84.127856 27.596026 84.827856 27.596026 85.567856 C 27.596026 86.307856 27.876026 87.007856 28.396026 87.527856 C 28.916026 88.047856 29.636026 88.347856 30.356026 88.347856 Z M 30.356026 88.347856 " transform="matrix(0.195312,0,0,0.195312,2.285932,2.006278)"/>
<path style="fill-rule:nonzero;fill:rgb(68.627451%,85.490196%,82.352941%);fill-opacity:1;stroke-width:0.25;stroke-linecap:butt;stroke-linejoin:miter;stroke:rgb(100%,100%,100%);stroke-opacity:1;stroke-miterlimit:4;" d="M 99.696026 34.207856 C 100.716026 34.207856 101.676026 33.787856 102.396026 33.087856 C 103.116026 32.367856 103.516026 31.387856 103.516026 30.387856 C 103.516026 29.367856 103.116026 28.407856 102.396026 27.687856 C 101.676026 26.967856 100.716026 26.567856 99.696026 26.567856 C 98.696026 26.567856 97.716026 26.967856 96.996026 27.687856 C 96.296026 28.407856 95.896026 29.367856 95.896026 30.387856 C 95.896026 31.387856 96.296026 32.367856 96.996026 33.087856 C 97.716026 33.787856 98.696026 34.207856 99.696026 34.207856 Z M 99.696026 34.207856 " transform="matrix(0.195312,0,0,0.195312,2.285932,2.006278)"/>
<path style="fill-rule:nonzero;fill:rgb(68.627451%,85.490196%,82.352941%);fill-opacity:1;stroke-width:0.25;stroke-linecap:butt;stroke-linejoin:miter;stroke:rgb(100%,100%,100%);stroke-opacity:1;stroke-miterlimit:4;" d="M 178.996026 39.447856 C 180.036026 39.447856 181.016026 39.047856 181.756026 38.307856 C 182.476026 37.587856 182.896026 36.587856 182.896026 35.547856 C 182.896026 34.527856 182.476026 33.527856 181.756026 32.807856 C 181.016026 32.067856 180.036026 31.647856 178.996026 31.647856 C 177.956026 31.647856 176.976026 32.067856 176.236026 32.807856 C 175.516026 33.527856 175.096026 34.527856 175.096026 35.547856 C 175.096026 36.587856 175.516026 37.587856 176.236026 38.307856 C 176.976026 39.047856 177.956026 39.447856 178.996026 39.447856 Z M 178.996026 39.447856 " transform="matrix(0.195312,0,0,0.195312,2.285932,2.006278)"/>
<path style="fill-rule:nonzero;fill:rgb(68.627451%,85.490196%,82.352941%);fill-opacity:1;stroke-width:0.25;stroke-linecap:butt;stroke-linejoin:miter;stroke:rgb(100%,100%,100%);stroke-opacity:1;stroke-miterlimit:4;" d="M 127.136026 37.467856 C 127.956026 37.467856 128.756026 37.147856 129.336026 36.567856 C 129.916026 35.967856 130.236026 35.187856 130.236026 34.367856 C 130.236026 33.547856 129.916026 32.747856 129.336026 32.167856 C 128.756026 31.587856 127.956026 31.267856 127.136026 31.267856 C 126.316026 31.267856 125.516026 31.587856 124.936026 32.167856 C 124.356026 32.747856 124.036026 33.547856 124.036026 34.367856 C 124.036026 35.187856 124.356026 35.967856 124.936026 36.567856 C 125.516026 37.147856 126.316026 37.467856 127.136026 37.467856 Z M 127.136026 37.467856 " transform="matrix(0.195312,0,0,0.195312,2.285932,2.006278)"/>
<path style="fill-rule:nonzero;fill:rgb(68.627451%,85.490196%,82.352941%);fill-opacity:1;stroke-width:0.25;stroke-linecap:butt;stroke-linejoin:miter;stroke:rgb(100%,100%,100%);stroke-opacity:1;stroke-miterlimit:4;" d="M 59.456026 78.427856 C 60.536026 78.427856 61.556026 77.987856 62.316026 77.227856 C 63.076026 76.467856 63.496026 75.447856 63.496026 74.367856 C 63.496026 73.307856 63.076026 72.267856 62.316026 71.507856 C 61.556026 70.747856 60.536026 70.327856 59.456026 70.327856 C 58.376026 70.327856 57.356026 70.747856 56.596026 71.507856 C 55.836026 72.267856 55.416026 73.307856 55.416026 74.367856 C 55.416026 75.447856 55.836026 76.467856 56.596026 77.227856 C 57.356026 77.987856 58.376026 78.427856 59.456026 78.427856 Z M 59.456026 78.427856 " transform="matrix(0.195312,0,0,0.195312,2.285932,2.006278)"/>
<path style="fill-rule:nonzero;fill:rgb(68.627451%,85.490196%,82.352941%);fill-opacity:1;stroke-width:0.25;stroke-linecap:butt;stroke-linejoin:miter;stroke:rgb(100%,100%,100%);stroke-opacity:1;stroke-miterlimit:4;" d="M 137.656026 38.807856 C 138.696026 38.807856 139.676026 38.387856 140.396026 37.667856 C 141.136026 36.947856 141.536026 35.947856 141.536026 34.927856 C 141.536026 33.907856 141.136026 32.907856 140.396026 32.187856 C 139.676026 31.467856 138.696026 31.047856 137.656026 31.047856 C 136.636026 31.047856 135.656026 31.467856 134.916026 32.187856 C 134.196026 32.907856 133.796026 33.907856 133.796026 34.927856 C 133.796026 35.947856 134.196026 36.947856 134.916026 37.667856 C 135.656026 38.387856 136.636026 38.807856 137.656026 38.807856 Z M 137.656026 38.807856 " transform="matrix(0.195312,0,0,0.195312,2.285932,2.006278)"/>
<path style="fill-rule:nonzero;fill:rgb(68.627451%,85.490196%,82.352941%);fill-opacity:1;stroke-width:0.25;stroke-linecap:butt;stroke-linejoin:miter;stroke:rgb(100%,100%,100%);stroke-opacity:1;stroke-miterlimit:4;" d="M 165.096026 42.587856 C 165.956026 42.587856 166.776026 42.247856 167.376026 41.647856 C 167.976026 41.047856 168.316026 40.227856 168.316026 39.367856 C 168.316026 38.507856 167.976026 37.707856 167.376026 37.107856 C 166.776026 36.487856 165.956026 36.167856 165.096026 36.167856 C 164.256026 36.167856 163.436026 36.487856 162.836026 37.107856 C 162.236026 37.707856 161.896026 38.507856 161.896026 39.367856 C 161.896026 40.227856 162.236026 41.047856 162.836026 41.647856 C 163.436026 42.247856 164.256026 42.587856 165.096026 42.587856 Z M 165.096026 42.587856 " transform="matrix(0.195312,0,0,0.195312,2.285932,2.006278)"/>
<path style="fill-rule:nonzero;fill:rgb(68.627451%,85.490196%,82.352941%);fill-opacity:1;stroke-width:0.25;stroke-linecap:butt;stroke-linejoin:miter;stroke:rgb(100%,100%,100%);stroke-opacity:1;stroke-miterlimit:4;" d="M 195.416026 49.547856 C 196.176026 49.547856 196.916026 49.227856 197.456026 48.687856 C 197.996026 48.147856 198.316026 47.407856 198.316026 46.647856 C 198.316026 45.887856 197.996026 45.147856 197.456026 44.607856 C 196.916026 44.047856 196.176026 43.747856 195.416026 43.747856 C 194.656026 43.747856 193.916026 44.047856 193.376026 44.607856 C 192.816026 45.147856 192.516026 45.887856 192.516026 46.647856 C 192.516026 47.407856 192.816026 48.147856 193.376026 48.687856 C 193.916026 49.227856 194.656026 49.547856 195.416026 49.547856 Z M 195.416026 49.547856 " transform="matrix(0.195312,0,0,0.195312,2.285932,2.006278)"/>
<path style="fill-rule:nonzero;fill:rgb(68.627451%,85.490196%,82.352941%);fill-opacity:1;stroke-width:0.25;stroke-linecap:butt;stroke-linejoin:miter;stroke:rgb(100%,100%,100%);stroke-opacity:1;stroke-miterlimit:4;" d="M 87.096026 28.267856 C 87.756026 28.267856 88.396026 28.007856 88.856026 27.547856 C 89.336026 27.067856 89.596026 26.447856 89.596026 25.767856 C 89.596026 25.107856 89.336026 24.487856 88.856026 24.007856 C 88.396026 23.547856 87.756026 23.287856 87.096026 23.287856 C 86.436026 23.287856 85.796026 23.547856 85.336026 24.007856 C 84.876026 24.487856 84.596026 25.107856 84.596026 25.767856 C 84.596026 26.447856 84.876026 27.067856 85.336026 27.547856 C 85.796026 28.007856 86.436026 28.267856 87.096026 28.267856 Z M 87.096026 28.267856 " transform="matrix(0.195312,0,0,0.195312,2.285932,2.006278)"/>
<path style="fill-rule:nonzero;fill:rgb(68.627451%,85.490196%,82.352941%);fill-opacity:1;stroke-width:0.25;stroke-linecap:butt;stroke-linejoin:miter;stroke:rgb(100%,100%,100%);stroke-opacity:1;stroke-miterlimit:4;" d="M 109.776026 21.427856 C 110.756026 21.427856 111.676026 21.047856 112.356026 20.347856 C 113.056026 19.667856 113.436026 18.747856 113.436026 17.767856 C 113.436026 16.807856 113.056026 15.867856 112.356026 15.187856 C 111.676026 14.507856 110.756026 14.127856 109.776026 14.127856 C 108.816026 14.127856 107.876026 14.507856 107.196026 15.187856 C 106.516026 15.867856 106.136026 16.807856 106.136026 17.767856 C 106.136026 18.747856 106.516026 19.667856 107.196026 20.347856 C 107.876026 21.047856 108.816026 21.427856 109.776026 21.427856 Z M 109.776026 21.427856 " transform="matrix(0.195312,0,0,0.195312,2.285932,2.006278)"/>
<path style="fill-rule:nonzero;fill:rgb(68.627451%,85.490196%,82.352941%);fill-opacity:1;stroke-width:0.25;stroke-linecap:butt;stroke-linejoin:miter;stroke:rgb(100%,100%,100%);stroke-opacity:1;stroke-miterlimit:4;" d="M 194.776026 41.007856 C 196.036026 41.007856 197.276026 40.487856 198.176026 39.587856 C 199.076026 38.687856 199.576026 37.467856 199.576026 36.187856 C 199.576026 34.907856 199.076026 33.687856 198.176026 32.787856 C 197.276026 31.887856 196.036026 31.387856 194.776026 31.387856 C 193.496026 31.387856 192.276026 31.887856 191.376026 32.787856 C 190.456026 33.687856 189.956026 34.907856 189.956026 36.187856 C 189.956026 37.467856 190.456026 38.687856 191.376026 39.587856 C 192.276026 40.487856 193.496026 41.007856 194.776026 41.007856 Z M 194.776026 41.007856 " transform="matrix(0.195312,0,0,0.195312,2.285932,2.006278)"/>
<path style="fill-rule:nonzero;fill:rgb(68.627451%,85.490196%,82.352941%);fill-opacity:1;stroke-width:0.25;stroke-linecap:butt;stroke-linejoin:miter;stroke:rgb(100%,100%,100%);stroke-opacity:1;stroke-miterlimit:4;" d="M 104.276026 42.967856 C 105.476026 42.967856 106.636026 42.487856 107.476026 41.627856 C 108.336026 40.787856 108.816026 39.627856 108.816026 38.427856 C 108.816026 37.207856 108.336026 36.067856 107.476026 35.207856 C 106.636026 34.347856 105.476026 33.867856 104.276026 33.867856 C 103.056026 33.867856 101.916026 34.347856 101.056026 35.207856 C 100.196026 36.067856 99.716026 37.207856 99.716026 38.427856 C 99.716026 39.627856 100.196026 40.787856 101.056026 41.627856 C 101.916026 42.487856 103.056026 42.967856 104.276026 42.967856 Z M 104.276026 42.967856 " transform="matrix(0.195312,0,0,0.195312,2.285932,2.006278)"/>
<path style="fill-rule:nonzero;fill:rgb(68.627451%,85.490196%,82.352941%);fill-opacity:1;stroke-width:0.25;stroke-linecap:butt;stroke-linejoin:miter;stroke:rgb(100%,100%,100%);stroke-opacity:1;stroke-miterlimit:4;" d="M 121.096026 25.927856 C 122.296026 25.927856 123.456026 25.447856 124.296026 24.607856 C 125.156026 23.747856 125.636026 22.587856 125.636026 21.387856 C 125.636026 20.187856 125.156026 19.027856 124.296026 18.187856 C 123.456026 17.327856 122.296026 16.847856 121.096026 16.847856 C 119.896026 16.847856 118.736026 17.327856 117.876026 18.187856 C 117.036026 19.027856 116.556026 20.187856 116.556026 21.387856 C 116.556026 22.587856 117.036026 23.747856 117.876026 24.607856 C 118.736026 25.447856 119.896026 25.927856 121.096026 25.927856 Z M 121.096026 25.927856 " transform="matrix(0.195312,0,0,0.195312,2.285932,2.006278)"/>
<path style="fill-rule:nonzero;fill:rgb(68.627451%,85.490196%,82.352941%);fill-opacity:1;stroke-width:0.25;stroke-linecap:butt;stroke-linejoin:miter;stroke:rgb(100%,100%,100%);stroke-opacity:1;stroke-miterlimit:4;" d="M 160.416026 31.447856 C 161.656026 31.447856 162.856026 30.947856 163.736026 30.067856 C 164.616026 29.187856 165.116026 28.007856 165.116026 26.747856 C 165.116026 25.507856 164.616026 24.307856 163.736026 23.427856 C 162.856026 22.547856 161.656026 22.047856 160.416026 22.047856 C 159.176026 22.047856 157.976026 22.547856 157.096026 23.427856 C 156.216026 24.307856 155.716026 25.507856 155.716026 26.747856 C 155.716026 28.007856 156.216026 29.187856 157.096026 30.067856 C 157.976026 30.947856 159.176026 31.447856 160.416026 31.447856 Z M 160.416026 31.447856 " transform="matrix(0.195312,0,0,0.195312,2.285932,2.006278)"/>
<path style="fill-rule:nonzero;fill:rgb(68.627451%,85.490196%,82.352941%);fill-opacity:1;stroke-width:0.25;stroke-linecap:butt;stroke-linejoin:miter;stroke:rgb(100%,100%,100%);stroke-opacity:1;stroke-miterlimit:4;" d="M 209.056026 60.987856 C 210.236026 60.987856 211.376026 60.527856 212.216026 59.687856 C 213.036026 58.847856 213.516026 57.727856 213.516026 56.547856 C 213.516026 55.367856 213.036026 54.227856 212.216026 53.407856 C 211.376026 52.567856 210.236026 52.087856 209.056026 52.087856 C 207.876026 52.087856 206.756026 52.567856 205.916026 53.407856 C 205.076026 54.227856 204.616026 55.367856 204.616026 56.547856 C 204.616026 57.727856 205.076026 58.847856 205.916026 59.687856 C 206.756026 60.527856 207.876026 60.987856 209.056026 60.987856 Z M 209.056026 60.987856 " transform="matrix(0.195312,0,0,0.195312,2.285932,2.006278)"/>
<path style="fill-rule:nonzero;fill:rgb(68.627451%,85.490196%,82.352941%);fill-opacity:1;stroke-width:0.25;stroke-linecap:butt;stroke-linejoin:miter;stroke:rgb(100%,100%,100%);stroke-opacity:1;stroke-miterlimit:4;" d="M 108.756026 7.127856 C 109.436026 7.127856 110.076026 6.867856 110.556026 6.387856 C 111.036026 5.907856 111.296026 5.267856 111.296026 4.587856 C 111.296026 3.927856 111.036026 3.267856 110.556026 2.787856 C 110.076026 2.327856 109.436026 2.047856 108.756026 2.047856 C 108.076026 2.047856 107.436026 2.327856 106.956026 2.787856 C 106.476026 3.267856 106.216026 3.927856 106.216026 4.587856 C 106.216026 5.267856 106.476026 5.907856 106.956026 6.387856 C 107.436026 6.867856 108.076026 7.127856 108.756026 7.127856 Z M 108.756026 7.127856 " transform="matrix(0.195312,0,0,0.195312,2.285932,2.006278)"/>
<path style="fill-rule:nonzero;fill:rgb(68.627451%,85.490196%,82.352941%);fill-opacity:1;stroke-width:0.25;stroke-linecap:butt;stroke-linejoin:miter;stroke:rgb(100%,100%,100%);stroke-opacity:1;stroke-miterlimit:4;" d="M 149.316026 34.087856 C 150.456026 34.087856 151.536026 33.647856 152.336026 32.847856 C 153.136026 32.047856 153.576026 30.967856 153.576026 29.827856 C 153.576026 28.707856 153.136026 27.607856 152.336026 26.807856 C 151.536026 26.007856 150.456026 25.567856 149.316026 25.567856 C 148.196026 25.567856 147.096026 26.007856 146.296026 26.807856 C 145.496026 27.607856 145.056026 28.707856 145.056026 29.827856 C 145.056026 30.967856 145.496026 32.047856 146.296026 32.847856 C 147.096026 33.647856 148.196026 34.087856 149.316026 34.087856 Z M 149.316026 34.087856 " transform="matrix(0.195312,0,0,0.195312,2.285932,2.006278)"/>
<path style="fill-rule:nonzero;fill:rgb(68.627451%,85.490196%,82.352941%);fill-opacity:1;stroke-width:0.25;stroke-linecap:butt;stroke-linejoin:miter;stroke:rgb(100%,100%,100%);stroke-opacity:1;stroke-miterlimit:4;" d="M 143.616026 25.907856 C 144.516026 25.907856 145.396026 25.547856 146.036026 24.887856 C 146.696026 24.247856 147.056026 23.367856 147.056026 22.467856 C 147.056026 21.547856 146.696026 20.667856 146.036026 20.027856 C 145.396026 19.387856 144.516026 19.027856 143.616026 19.027856 C 142.696026 19.027856 141.816026 19.387856 141.176026 20.027856 C 140.536026 20.667856 140.176026 21.547856 140.176026 22.467856 C 140.176026 23.367856 140.536026 24.247856 141.176026 24.887856 C 141.816026 25.547856 142.696026 25.907856 143.616026 25.907856 Z M 143.616026 25.907856 " transform="matrix(0.195312,0,0,0.195312,2.285932,2.006278)"/>
<path style="fill-rule:nonzero;fill:rgb(68.627451%,85.490196%,82.352941%);fill-opacity:1;stroke-width:0.25;stroke-linecap:butt;stroke-linejoin:miter;stroke:rgb(100%,100%,100%);stroke-opacity:1;stroke-miterlimit:4;" d="M 126.316026 18.407856 C 127.476026 18.407856 128.596026 17.947856 129.436026 17.107856 C 130.256026 16.287856 130.736026 15.167856 130.736026 13.987856 C 130.736026 12.827856 130.256026 11.687856 129.436026 10.867856 C 128.596026 10.027856 127.476026 9.567856 126.316026 9.567856 C 125.136026 9.567856 124.016026 10.027856 123.176026 10.867856 C 122.356026 11.687856 121.896026 12.827856 121.896026 13.987856 C 121.896026 15.167856 122.356026 16.287856 123.176026 17.107856 C 124.016026 17.947856 125.136026 18.407856 126.316026 18.407856 Z M 126.316026 18.407856 " transform="matrix(0.195312,0,0,0.195312,2.285932,2.006278)"/>
<path style="fill-rule:nonzero;fill:rgb(68.627451%,85.490196%,82.352941%);fill-opacity:1;stroke-width:0.25;stroke-linecap:butt;stroke-linejoin:miter;stroke:rgb(100%,100%,100%);stroke-opacity:1;stroke-miterlimit:4;" d="M 77.576026 36.427856 C 78.896026 36.427856 80.156026 35.907856 81.076026 34.967856 C 82.016026 34.047856 82.536026 32.787856 82.536026 31.467856 C 82.536026 30.147856 82.016026 28.907856 81.076026 27.967856 C 80.156026 27.047856 78.896026 26.527856 77.576026 26.527856 C 76.256026 26.527856 74.996026 27.047856 74.076026 27.967856 C 73.156026 28.907856 72.616026 30.147856 72.616026 31.467856 C 72.616026 32.787856 73.156026 34.047856 74.076026 34.967856 C 74.996026 35.907856 76.256026 36.427856 77.576026 36.427856 Z M 77.576026 36.427856 " transform="matrix(0.195312,0,0,0.195312,2.285932,2.006278)"/>
<path style="fill-rule:nonzero;fill:rgb(68.627451%,85.490196%,82.352941%);fill-opacity:1;stroke-width:0.25;stroke-linecap:butt;stroke-linejoin:miter;stroke:rgb(100%,100%,100%);stroke-opacity:1;stroke-miterlimit:4;" d="M 47.016026 29.127856 C 47.736026 29.127856 48.436026 28.847856 48.936026 28.347856 C 49.436026 27.827856 49.716026 27.147856 49.716026 26.427856 C 49.716026 25.727856 49.436026 25.027856 48.936026 24.527856 C 48.436026 24.027856 47.736026 23.727856 47.016026 23.727856 C 46.316026 23.727856 45.616026 24.027856 45.116026 24.527856 C 44.616026 25.027856 44.336026 25.727856 44.336026 26.427856 C 44.336026 27.147856 44.616026 27.827856 45.116026 28.347856 C 45.616026 28.847856 46.316026 29.127856 47.016026 29.127856 Z M 47.016026 29.127856 " transform="matrix(0.195312,0,0,0.195312,2.285932,2.006278)"/>
<path style="fill-rule:nonzero;fill:rgb(68.627451%,85.490196%,82.352941%);fill-opacity:1;stroke-width:0.25;stroke-linecap:butt;stroke-linejoin:miter;stroke:rgb(100%,100%,100%);stroke-opacity:1;stroke-miterlimit:4;" d="M 59.856026 27.327856 C 60.776026 27.327856 61.656026 26.947856 62.316026 26.307856 C 62.976026 25.647856 63.336026 24.747856 63.336026 23.827856 C 63.336026 22.907856 62.976026 22.007856 62.316026 21.347856 C 61.656026 20.707856 60.776026 20.327856 59.856026 20.327856 C 58.916026 20.327856 58.036026 20.707856 57.376026 21.347856 C 56.716026 22.007856 56.356026 22.907856 56.356026 23.827856 C 56.356026 24.747856 56.716026 25.647856 57.376026 26.307856 C 58.036026 26.947856 58.916026 27.327856 59.856026 27.327856 Z M 59.856026 27.327856 " transform="matrix(0.195312,0,0,0.195312,2.285932,2.006278)"/>
<path style="fill-rule:nonzero;fill:rgb(68.627451%,85.490196%,82.352941%);fill-opacity:1;stroke-width:0.25;stroke-linecap:butt;stroke-linejoin:miter;stroke:rgb(100%,100%,100%);stroke-opacity:1;stroke-miterlimit:4;" d="M 177.316026 48.507856 C 178.456026 48.507856 179.556026 48.047856 180.356026 47.247856 C 181.176026 46.427856 181.616026 45.327856 181.616026 44.187856 C 181.616026 43.047856 181.176026 41.947856 180.356026 41.147856 C 179.556026 40.347856 178.456026 39.887856 177.316026 39.887856 C 176.176026 39.887856 175.076026 40.347856 174.256026 41.147856 C 173.456026 41.947856 172.996026 43.047856 172.996026 44.187856 C 172.996026 45.327856 173.456026 46.427856 174.256026 47.247856 C 175.076026 48.047856 176.176026 48.507856 177.316026 48.507856 Z M 177.316026 48.507856 " transform="matrix(0.195312,0,0,0.195312,2.285932,2.006278)"/>
<path style="fill-rule:nonzero;fill:rgb(68.627451%,85.490196%,82.352941%);fill-opacity:1;stroke-width:0.25;stroke-linecap:butt;stroke-linejoin:miter;stroke:rgb(100%,100%,100%);stroke-opacity:1;stroke-miterlimit:4;" d="M 130.036026 25.787856 C 130.676026 25.787856 131.276026 25.527856 131.736026 25.087856 C 132.176026 24.647856 132.436026 24.027856 132.436026 23.387856 C 132.436026 22.767856 132.176026 22.147856 131.736026 21.707856 C 131.276026 21.247856 130.676026 21.007856 130.036026 21.007856 C 129.396026 21.007856 128.796026 21.247856 128.336026 21.707856 C 127.896026 22.147856 127.636026 22.767856 127.636026 23.387856 C 127.636026 24.027856 127.896026 24.647856 128.336026 25.087856 C 128.796026 25.527856 129.396026 25.787856 130.036026 25.787856 Z M 130.036026 25.787856 " transform="matrix(0.195312,0,0,0.195312,2.285932,2.006278)"/>
<path style="fill-rule:nonzero;fill:rgb(68.627451%,85.490196%,82.352941%);fill-opacity:1;stroke-width:0.25;stroke-linecap:butt;stroke-linejoin:miter;stroke:rgb(100%,100%,100%);stroke-opacity:1;stroke-miterlimit:4;" d="M 79.216026 26.267856 C 80.416026 26.267856 81.576026 25.787856 82.436026 24.947856 C 83.276026 24.087856 83.756026 22.927856 83.756026 21.727856 C 83.756026 20.527856 83.276026 19.367856 82.436026 18.527856 C 81.576026 17.667856 80.416026 17.187856 79.216026 17.187856 C 78.016026 17.187856 76.856026 17.667856 76.016026 18.527856 C 75.156026 19.367856 74.676026 20.527856 74.676026 21.727856 C 74.676026 22.927856 75.156026 24.087856 76.016026 24.947856 C 76.856026 25.787856 78.016026 26.267856 79.216026 26.267856 Z M 79.216026 26.267856 " transform="matrix(0.195312,0,0,0.195312,2.285932,2.006278)"/>
<path style="fill-rule:nonzero;fill:rgb(68.627451%,85.490196%,82.352941%);fill-opacity:1;stroke-width:0.25;stroke-linecap:butt;stroke-linejoin:miter;stroke:rgb(100%,100%,100%);stroke-opacity:1;stroke-miterlimit:4;" d="M 12.616026 81.907856 C 13.676026 81.907856 14.676026 81.487856 15.416026 80.747856 C 16.156026 80.007856 16.576026 79.007856 16.576026 77.967856 C 16.576026 76.907856 16.156026 75.907856 15.416026 75.167856 C 14.676026 74.427856 13.676026 74.007856 12.616026 74.007856 C 11.576026 74.007856 10.576026 74.427856 9.836026 75.167856 C 9.096026 75.907856 8.676026 76.907856 8.676026 77.967856 C 8.676026 79.007856 9.096026 80.007856 9.836026 80.747856 C 10.576026 81.487856 11.576026 81.907856 12.616026 81.907856 Z M 12.616026 81.907856 " transform="matrix(0.195312,0,0,0.195312,2.285932,2.006278)"/>
<path style="fill-rule:nonzero;fill:rgb(68.627451%,85.490196%,82.352941%);fill-opacity:1;stroke-width:0.25;stroke-linecap:butt;stroke-linejoin:miter;stroke:rgb(100%,100%,100%);stroke-opacity:1;stroke-miterlimit:4;" d="M 23.136026 83.267856 C 24.356026 83.267856 25.516026 82.787856 26.376026 81.927856 C 27.236026 81.067856 27.716026 79.907856 27.716026 78.687856 C 27.716026 77.467856 27.236026 76.307856 26.376026 75.447856 C 25.516026 74.587856 24.356026 74.107856 23.136026 74.107856 C 21.916026 74.107856 20.756026 74.587856 19.896026 75.447856 C 19.036026 76.307856 18.556026 77.467856 18.556026 78.687856 C 18.556026 79.907856 19.036026 81.067856 19.896026 81.927856 C 20.756026 82.787856 21.916026 83.267856 23.136026 83.267856 Z M 23.136026 83.267856 " transform="matrix(0.195312,0,0,0.195312,2.285932,2.006278)"/>
<path style="fill-rule:nonzero;fill:rgb(68.627451%,85.490196%,82.352941%);fill-opacity:1;stroke-width:0.25;stroke-linecap:butt;stroke-linejoin:miter;stroke:rgb(100%,100%,100%);stroke-opacity:1;stroke-miterlimit:4;" d="M 60.176026 42.847856 C 61.356026 42.847856 62.476026 42.387856 63.296026 41.547856 C 64.136026 40.727856 64.596026 39.607856 64.596026 38.427856 C 64.596026 37.267856 64.136026 36.147856 63.296026 35.307856 C 62.476026 34.487856 61.356026 34.027856 60.176026 34.027856 C 59.016026 34.027856 57.896026 34.487856 57.056026 35.307856 C 56.236026 36.147856 55.776026 37.267856 55.776026 38.427856 C 55.776026 39.607856 56.236026 40.727856 57.056026 41.547856 C 57.896026 42.387856 59.016026 42.847856 60.176026 42.847856 Z M 60.176026 42.847856 " transform="matrix(0.195312,0,0,0.195312,2.285932,2.006278)"/>
<path style="fill-rule:nonzero;fill:rgb(68.627451%,85.490196%,82.352941%);fill-opacity:1;stroke-width:0.25;stroke-linecap:butt;stroke-linejoin:miter;stroke:rgb(100%,100%,100%);stroke-opacity:1;stroke-miterlimit:4;" d="M 13.916026 72.087856 C 14.816026 72.087856 15.696026 71.727856 16.336026 71.087856 C 16.976026 70.447856 17.336026 69.567856 17.336026 68.667856 C 17.336026 67.747856 16.976026 66.887856 16.336026 66.247856 C 15.696026 65.607856 14.816026 65.247856 13.916026 65.247856 C 13.016026 65.247856 12.136026 65.607856 11.496026 66.247856 C 10.856026 66.887856 10.496026 67.747856 10.496026 68.667856 C 10.496026 69.567856 10.856026 70.447856 11.496026 71.087856 C 12.136026 71.727856 13.016026 72.087856 13.916026 72.087856 Z M 13.916026 72.087856 " transform="matrix(0.195312,0,0,0.195312,2.285932,2.006278)"/>
<path style="fill-rule:nonzero;fill:rgb(68.627451%,85.490196%,82.352941%);fill-opacity:1;stroke-width:0.25;stroke-linecap:butt;stroke-linejoin:miter;stroke:rgb(100%,100%,100%);stroke-opacity:1;stroke-miterlimit:4;" d="M 151.816026 22.447856 C 152.796026 22.447856 153.756026 22.047856 154.456026 21.347856 C 155.156026 20.647856 155.556026 19.687856 155.556026 18.707856 C 155.556026 17.707856 155.156026 16.747856 154.456026 16.047856 C 153.756026 15.347856 152.796026 14.947856 151.816026 14.947856 C 150.816026 14.947856 149.856026 15.347856 149.156026 16.047856 C 148.456026 16.747856 148.076026 17.707856 148.076026 18.707856 C 148.076026 19.687856 148.456026 20.647856 149.156026 21.347856 C 149.856026 22.047856 150.816026 22.447856 151.816026 22.447856 Z M 151.816026 22.447856 " transform="matrix(0.195312,0,0,0.195312,2.285932,2.006278)"/>
<path style="fill-rule:nonzero;fill:rgb(68.627451%,85.490196%,82.352941%);fill-opacity:1;stroke-width:0.25;stroke-linecap:butt;stroke-linejoin:miter;stroke:rgb(100%,100%,100%);stroke-opacity:1;stroke-miterlimit:4;" d="M 47.636026 38.147856 C 48.536026 38.147856 49.396026 37.787856 50.036026 37.147856 C 50.676026 36.527856 51.036026 35.647856 51.036026 34.747856 C 51.036026 33.847856 50.676026 32.987856 50.036026 32.347856 C 49.396026 31.707856 48.536026 31.347856 47.636026 31.347856 C 46.736026 31.347856 45.856026 31.707856 45.216026 32.347856 C 44.576026 32.987856 44.216026 33.847856 44.216026 34.747856 C 44.216026 35.647856 44.576026 36.527856 45.216026 37.147856 C 45.856026 37.787856 46.736026 38.147856 47.636026 38.147856 Z M 47.636026 38.147856 " transform="matrix(0.195312,0,0,0.195312,2.285932,2.006278)"/>
<path style="fill-rule:nonzero;fill:rgb(68.627451%,85.490196%,82.352941%);fill-opacity:1;stroke-width:0.25;stroke-linecap:butt;stroke-linejoin:miter;stroke:rgb(100%,100%,100%);stroke-opacity:1;stroke-miterlimit:4;" d="M 31.116026 79.167856 C 32.396026 79.167856 33.596026 78.667856 34.496026 77.767856 C 35.396026 76.887856 35.896026 75.667856 35.896026 74.387856 C 35.896026 73.127856 35.396026 71.907856 34.496026 71.027856 C 33.596026 70.127856 32.396026 69.627856 31.116026 69.627856 C 29.856026 69.627856 28.636026 70.127856 27.736026 71.027856 C 26.856026 71.907856 26.336026 73.127856 26.336026 74.387856 C 26.336026 75.667856 26.856026 76.887856 27.736026 77.767856 C 28.636026 78.667856 29.856026 79.167856 31.116026 79.167856 Z M 31.116026 79.167856 " transform="matrix(0.195312,0,0,0.195312,2.285932,2.006278)"/>
<path style="fill-rule:nonzero;fill:rgb(68.627451%,85.490196%,82.352941%);fill-opacity:1;stroke-width:0.25;stroke-linecap:butt;stroke-linejoin:miter;stroke:rgb(100%,100%,100%);stroke-opacity:1;stroke-miterlimit:4;" d="M 186.376026 46.667856 C 187.616026 46.667856 188.816026 46.187856 189.696026 45.307856 C 190.576026 44.427856 191.056026 43.227856 191.056026 41.987856 C 191.056026 40.747856 190.576026 39.567856 189.696026 38.687856 C 188.816026 37.807856 187.616026 37.307856 186.376026 37.307856 C 185.136026 37.307856 183.956026 37.807856 183.076026 38.687856 C 182.196026 39.567856 181.696026 40.747856 181.696026 41.987856 C 181.696026 43.227856 182.196026 44.427856 183.076026 45.307856 C 183.956026 46.187856 185.136026 46.667856 186.376026 46.667856 Z M 186.376026 46.667856 " transform="matrix(0.195312,0,0,0.195312,2.285932,2.006278)"/>
<path style="fill-rule:nonzero;fill:rgb(68.627451%,85.490196%,82.352941%);fill-opacity:1;stroke-width:0.25;stroke-linecap:butt;stroke-linejoin:miter;stroke:rgb(100%,100%,100%);stroke-opacity:1;stroke-miterlimit:4;" d="M 203.256026 46.107856 C 204.096026 46.107856 204.916026 45.767856 205.536026 45.167856 C 206.136026 44.567856 206.476026 43.747856 206.476026 42.887856 C 206.476026 42.047856 206.136026 41.227856 205.536026 40.627856 C 204.916026 40.007856 204.096026 39.667856 203.256026 39.667856 C 202.396026 39.667856 201.576026 40.007856 200.976026 40.627856 C 200.376026 41.227856 200.036026 42.047856 200.036026 42.887856 C 200.036026 43.747856 200.376026 44.567856 200.976026 45.167856 C 201.576026 45.767856 202.396026 46.107856 203.256026 46.107856 Z M 203.256026 46.107856 " transform="matrix(0.195312,0,0,0.195312,2.285932,2.006278)"/>
<path style="fill-rule:nonzero;fill:rgb(68.627451%,85.490196%,82.352941%);fill-opacity:1;stroke-width:0.25;stroke-linecap:butt;stroke-linejoin:miter;stroke:rgb(100%,100%,100%);stroke-opacity:1;stroke-miterlimit:4;" d="M 91.976026 38.147856 C 92.936026 38.147856 93.856026 37.767856 94.516026 37.107856 C 95.196026 36.427856 95.576026 35.507856 95.576026 34.567856 C 95.576026 33.607856 95.196026 32.707856 94.516026 32.027856 C 93.856026 31.347856 92.936026 30.987856 91.976026 30.987856 C 91.036026 30.987856 90.116026 31.347856 89.456026 32.027856 C 88.776026 32.707856 88.396026 33.607856 88.396026 34.567856 C 88.396026 35.507856 88.776026 36.427856 89.456026 37.107856 C 90.116026 37.767856 91.036026 38.147856 91.976026 38.147856 Z M 91.976026 38.147856 " transform="matrix(0.195312,0,0,0.195312,2.285932,2.006278)"/>
<path style="fill-rule:nonzero;fill:rgb(68.627451%,85.490196%,82.352941%);fill-opacity:1;stroke-width:0.25;stroke-linecap:butt;stroke-linejoin:miter;stroke:rgb(100%,100%,100%);stroke-opacity:1;stroke-miterlimit:4;" d="M 170.676026 34.127856 C 171.476026 34.127856 172.236026 33.807856 172.796026 33.247856 C 173.356026 32.667856 173.676026 31.907856 173.676026 31.107856 C 173.676026 30.327856 173.356026 29.547856 172.796026 28.987856 C 172.236026 28.427856 171.476026 28.107856 170.676026 28.107856 C 169.876026 28.107856 169.116026 28.427856 168.556026 28.987856 C 167.996026 29.547856 167.676026 30.327856 167.676026 31.107856 C 167.676026 31.907856 167.996026 32.667856 168.556026 33.247856 C 169.116026 33.807856 169.876026 34.127856 170.676026 34.127856 Z M 170.676026 34.127856 " transform="matrix(0.195312,0,0,0.195312,2.285932,2.006278)"/>
<path style="fill-rule:nonzero;fill:rgb(68.627451%,85.490196%,82.352941%);fill-opacity:1;stroke-width:0.25;stroke-linecap:butt;stroke-linejoin:miter;stroke:rgb(100%,100%,100%);stroke-opacity:1;stroke-miterlimit:4;" d="M 169.396026 26.587856 C 170.696026 26.587856 171.936026 26.087856 172.856026 25.167856 C 173.776026 24.247856 174.276026 22.987856 174.276026 21.707856 C 174.276026 20.407856 173.776026 19.147856 172.856026 18.227856 C 171.936026 17.307856 170.696026 16.807856 169.396026 16.807856 C 168.096026 16.807856 166.836026 17.307856 165.916026 18.227856 C 165.016026 19.147856 164.496026 20.407856 164.496026 21.707856 C 164.496026 22.987856 165.016026 24.247856 165.916026 25.167856 C 166.836026 26.087856 168.096026 26.587856 169.396026 26.587856 Z M 169.396026 26.587856 " transform="matrix(0.195312,0,0,0.195312,2.285932,2.006278)"/>
<path style="fill-rule:nonzero;fill:rgb(68.627451%,85.490196%,82.352941%);fill-opacity:1;stroke-width:0.25;stroke-linecap:butt;stroke-linejoin:miter;stroke:rgb(100%,100%,100%);stroke-opacity:1;stroke-miterlimit:4;" d="M 109.016026 34.947856 C 110.176026 34.947856 111.296026 34.487856 112.116026 33.667856 C 112.936026 32.827856 113.396026 31.727856 113.396026 30.567856 C 113.396026 29.407856 112.936026 28.287856 112.116026 27.467856 C 111.296026 26.647856 110.176026 26.187856 109.016026 26.187856 C 107.856026 26.187856 106.736026 26.647856 105.916026 27.467856 C 105.096026 28.287856 104.636026 29.407856 104.636026 30.567856 C 104.636026 31.727856 105.096026 32.827856 105.916026 33.667856 C 106.736026 34.487856 107.856026 34.947856 109.016026 34.947856 Z M 109.016026 34.947856 " transform="matrix(0.195312,0,0,0.195312,2.285932,2.006278)"/>
<path style="fill-rule:nonzero;fill:rgb(68.627451%,85.490196%,82.352941%);fill-opacity:1;stroke-width:0.25;stroke-linecap:butt;stroke-linejoin:miter;stroke:rgb(100%,100%,100%);stroke-opacity:1;stroke-miterlimit:4;" d="M 201.536026 56.107856 C 202.536026 56.107856 203.476026 55.707856 204.196026 55.007856 C 204.896026 54.307856 205.296026 53.347856 205.296026 52.347856 C 205.296026 51.347856 204.896026 50.387856 204.196026 49.687856 C 203.476026 48.987856 202.536026 48.587856 201.536026 48.587856 C 200.536026 48.587856 199.576026 48.987856 198.876026 49.687856 C 198.176026 50.387856 197.776026 51.347856 197.776026 52.347856 C 197.776026 53.347856 198.176026 54.307856 198.876026 55.007856 C 199.576026 55.707856 200.536026 56.107856 201.536026 56.107856 Z M 201.536026 56.107856 " transform="matrix(0.195312,0,0,0.195312,2.285932,2.006278)"/>
<path style="fill-rule:nonzero;fill:rgb(68.627451%,85.490196%,82.352941%);fill-opacity:1;stroke-width:0.25;stroke-linecap:butt;stroke-linejoin:miter;stroke:rgb(100%,100%,100%);stroke-opacity:1;stroke-miterlimit:4;" d="M 22.236026 90.007856 C 22.816026 90.007856 23.376026 89.787856 23.796026 89.367856 C 24.196026 88.947856 24.436026 88.387856 24.436026 87.807856 C 24.436026 87.227856 24.196026 86.667856 23.796026 86.247856 C 23.376026 85.847856 22.816026 85.607856 22.236026 85.607856 C 21.656026 85.607856 21.096026 85.847856 20.676026 86.247856 C 20.256026 86.667856 20.036026 87.227856 20.036026 87.807856 C 20.036026 88.387856 20.256026 88.947856 20.676026 89.367856 C 21.096026 89.787856 21.656026 90.007856 22.236026 90.007856 Z M 22.236026 90.007856 " transform="matrix(0.195312,0,0,0.195312,2.285932,2.006278)"/>
<path style="fill-rule:nonzero;fill:rgb(68.627451%,85.490196%,82.352941%);fill-opacity:1;stroke-width:0.25;stroke-linecap:butt;stroke-linejoin:miter;stroke:rgb(100%,100%,100%);stroke-opacity:1;stroke-miterlimit:4;" d="M 68.536026 28.927856 C 69.616026 28.927856 70.656026 28.507856 71.436026 27.727856 C 72.216026 26.967856 72.636026 25.907856 72.636026 24.827856 C 72.636026 23.727856 72.216026 22.687856 71.436026 21.907856 C 70.656026 21.147856 69.616026 20.707856 68.536026 20.707856 C 67.436026 20.707856 66.396026 21.147856 65.616026 21.907856 C 64.856026 22.687856 64.416026 23.727856 64.416026 24.827856 C 64.416026 25.907856 64.856026 26.967856 65.616026 27.727856 C 66.396026 28.507856 67.436026 28.927856 68.536026 28.927856 Z M 68.536026 28.927856 " transform="matrix(0.195312,0,0,0.195312,2.285932,2.006278)"/>
<path style="fill-rule:nonzero;fill:rgb(68.627451%,85.490196%,82.352941%);fill-opacity:1;stroke-width:0.25;stroke-linecap:butt;stroke-linejoin:miter;stroke:rgb(100%,100%,100%);stroke-opacity:1;stroke-miterlimit:4;" d="M 98.556026 22.227856 C 99.336026 22.227856 100.076026 21.927856 100.616026 21.367856 C 101.176026 20.807856 101.496026 20.067856 101.496026 19.287856 C 101.496026 18.507856 101.176026 17.767856 100.616026 17.207856 C 100.076026 16.667856 99.336026 16.347856 98.556026 16.347856 C 97.776026 16.347856 97.016026 16.667856 96.476026 17.207856 C 95.916026 17.767856 95.616026 18.507856 95.616026 19.287856 C 95.616026 20.067856 95.916026 20.807856 96.476026 21.367856 C 97.016026 21.927856 97.776026 22.227856 98.556026 22.227856 Z M 98.556026 22.227856 " transform="matrix(0.195312,0,0,0.195312,2.285932,2.006278)"/>
<path style="fill-rule:nonzero;fill:rgb(68.627451%,85.490196%,82.352941%);fill-opacity:1;stroke-width:0.25;stroke-linecap:butt;stroke-linejoin:miter;stroke:rgb(100%,100%,100%);stroke-opacity:1;stroke-miterlimit:4;" d="M 183.796026 31.267856 C 184.776026 31.267856 185.716026 30.887856 186.416026 30.187856 C 187.116026 29.507856 187.496026 28.547856 187.496026 27.567856 C 187.496026 26.587856 187.116026 25.647856 186.416026 24.967856 C 185.716026 24.267856 184.776026 23.887856 183.796026 23.887856 C 182.816026 23.887856 181.876026 24.267856 181.196026 24.967856 C 180.496026 25.647856 180.116026 26.587856 180.116026 27.567856 C 180.116026 28.547856 180.496026 29.507856 181.196026 30.187856 C 181.876026 30.887856 182.816026 31.267856 183.796026 31.267856 Z M 183.796026 31.267856 " transform="matrix(0.195312,0,0,0.195312,2.285932,2.006278)"/>
<path style="fill-rule:nonzero;fill:rgb(68.627451%,85.490196%,82.352941%);fill-opacity:1;stroke-width:0.25;stroke-linecap:butt;stroke-linejoin:miter;stroke:rgb(100%,100%,100%);stroke-opacity:1;stroke-miterlimit:4;" d="M 90.336026 16.287856 C 91.556026 16.287856 92.736026 15.807856 93.596026 14.947856 C 94.456026 14.087856 94.936026 12.927856 94.936026 11.707856 C 94.936026 10.487856 94.456026 9.307856 93.596026 8.447856 C 92.736026 7.587856 91.556026 7.107856 90.336026 7.107856 C 89.116026 7.107856 87.956026 7.587856 87.096026 8.447856 C 86.236026 9.307856 85.736026 10.487856 85.736026 11.707856 C 85.736026 12.927856 86.236026 14.087856 87.096026 14.947856 C 87.956026 15.807856 89.116026 16.287856 90.336026 16.287856 Z M 90.336026 16.287856 " transform="matrix(0.195312,0,0,0.195312,2.285932,2.006278)"/>
<path style="fill-rule:nonzero;fill:rgb(68.627451%,85.490196%,82.352941%);fill-opacity:1;stroke-width:0.25;stroke-linecap:butt;stroke-linejoin:miter;stroke:rgb(100%,100%,100%);stroke-opacity:1;stroke-miterlimit:4;" d="M 162.456026 20.687856 C 163.576026 20.687856 164.656026 20.227856 165.456026 19.447856 C 166.256026 18.647856 166.696026 17.567856 166.696026 16.427856 C 166.696026 15.307856 166.256026 14.227856 165.456026 13.427856 C 164.656026 12.627856 163.576026 12.187856 162.456026 12.187856 C 161.316026 12.187856 160.236026 12.627856 159.436026 13.427856 C 158.636026 14.227856 158.196026 15.307856 158.196026 16.427856 C 158.196026 17.567856 158.636026 18.647856 159.436026 19.447856 C 160.236026 20.227856 161.316026 20.687856 162.456026 20.687856 Z M 162.456026 20.687856 " transform="matrix(0.195312,0,0,0.195312,2.285932,2.006278)"/>
<path style="fill-rule:nonzero;fill:rgb(68.627451%,85.490196%,82.352941%);fill-opacity:1;stroke-width:0.25;stroke-linecap:butt;stroke-linejoin:miter;stroke:rgb(100%,100%,100%);stroke-opacity:1;stroke-miterlimit:4;" d="M 69.616026 16.147856 C 70.516026 16.147856 71.396026 15.787856 72.036026 15.147856 C 72.676026 14.527856 73.036026 13.647856 73.036026 12.747856 C 73.036026 11.847856 72.676026 10.987856 72.036026 10.347856 C 71.396026 9.707856 70.516026 9.347856 69.616026 9.347856 C 68.716026 9.347856 67.856026 9.707856 67.216026 10.347856 C 66.576026 10.987856 66.216026 11.847856 66.216026 12.747856 C 66.216026 13.647856 66.576026 14.527856 67.216026 15.147856 C 67.856026 15.787856 68.716026 16.147856 69.616026 16.147856 Z M 69.616026 16.147856 " transform="matrix(0.195312,0,0,0.195312,2.285932,2.006278)"/>
<path style="fill-rule:nonzero;fill:rgb(68.627451%,85.490196%,82.352941%);fill-opacity:1;stroke-width:0.25;stroke-linecap:butt;stroke-linejoin:miter;stroke:rgb(100%,100%,100%);stroke-opacity:1;stroke-miterlimit:4;" d="M 77.796026 13.527856 C 78.796026 13.527856 79.756026 13.127856 80.456026 12.427856 C 81.156026 11.707856 81.556026 10.767856 81.556026 9.767856 C 81.556026 8.767856 81.156026 7.807856 80.456026 7.107856 C 79.756026 6.407856 78.796026 6.007856 77.796026 6.007856 C 76.796026 6.007856 75.856026 6.407856 75.136026 7.107856 C 74.436026 7.807856 74.036026 8.767856 74.036026 9.767856 C 74.036026 10.767856 74.436026 11.707856 75.136026 12.427856 C 75.856026 13.127856 76.796026 13.527856 77.796026 13.527856 Z M 77.796026 13.527856 " transform="matrix(0.195312,0,0,0.195312,2.285932,2.006278)"/>
<path style="fill-rule:nonzero;fill:rgb(68.627451%,85.490196%,82.352941%);fill-opacity:1;stroke-width:0.25;stroke-linecap:butt;stroke-linejoin:miter;stroke:rgb(100%,100%,100%);stroke-opacity:1;stroke-miterlimit:4;" d="M 135.696026 8.807856 C 136.856026 8.807856 137.976026 8.347856 138.816026 7.527856 C 139.636026 6.687856 140.096026 5.567856 140.096026 4.407856 C 140.096026 3.247856 139.636026 2.107856 138.816026 1.287856 C 137.976026 0.467856 136.856026 0.007856 135.696026 0.007856 C 134.516026 0.007856 133.396026 0.467856 132.576026 1.287856 C 131.756026 2.107856 131.296026 3.247856 131.296026 4.407856 C 131.296026 5.567856 131.756026 6.687856 132.576026 7.527856 C 133.396026 8.347856 134.516026 8.807856 135.696026 8.807856 Z M 135.696026 8.807856 " transform="matrix(0.195312,0,0,0.195312,2.285932,2.006278)"/>
<path style="fill-rule:nonzero;fill:rgb(68.627451%,85.490196%,82.352941%);fill-opacity:1;stroke-width:0.25;stroke-linecap:butt;stroke-linejoin:miter;stroke:rgb(100%,100%,100%);stroke-opacity:1;stroke-miterlimit:4;" d="M 117.996026 9.747856 C 118.896026 9.747856 119.776026 9.387856 120.416026 8.747856 C 121.056026 8.107856 121.416026 7.227856 121.416026 6.327856 C 121.416026 5.407856 121.056026 4.527856 120.416026 3.887856 C 119.776026 3.247856 118.896026 2.887856 117.996026 2.887856 C 117.076026 2.887856 116.196026 3.247856 115.556026 3.887856 C 114.916026 4.527856 114.556026 5.407856 114.556026 6.327856 C 114.556026 7.227856 114.916026 8.107856 115.556026 8.747856 C 116.196026 9.387856 117.076026 9.747856 117.996026 9.747856 Z M 117.996026 9.747856 " transform="matrix(0.195312,0,0,0.195312,2.285932,2.006278)"/>
<path style="fill-rule:nonzero;fill:rgb(68.627451%,85.490196%,82.352941%);fill-opacity:1;stroke-width:0.25;stroke-linecap:butt;stroke-linejoin:miter;stroke:rgb(100%,100%,100%);stroke-opacity:1;stroke-miterlimit:4;" d="M 144.496026 13.927856 C 145.196026 13.927856 145.856026 13.647856 146.356026 13.167856 C 146.836026 12.667856 147.116026 12.007856 147.116026 11.307856 C 147.116026 10.607856 146.836026 9.947856 146.356026 9.447856 C 145.856026 8.967856 145.196026 8.687856 144.496026 8.687856 C 143.796026 8.687856 143.136026 8.967856 142.636026 9.447856 C 142.156026 9.947856 141.876026 10.607856 141.876026 11.307856 C 141.876026 12.007856 142.156026 12.667856 142.636026 13.167856 C 143.136026 13.647856 143.796026 13.927856 144.496026 13.927856 Z M 144.496026 13.927856 " transform="matrix(0.195312,0,0,0.195312,2.285932,2.006278)"/>
<path style="fill-rule:nonzero;fill:rgb(68.627451%,85.490196%,82.352941%);fill-opacity:1;stroke-width:0.25;stroke-linecap:butt;stroke-linejoin:miter;stroke:rgb(100%,100%,100%);stroke-opacity:1;stroke-miterlimit:4;" d="M 135.736026 17.967856 C 137.036026 17.967856 138.256026 17.447856 139.176026 16.527856 C 140.096026 15.627856 140.596026 14.387856 140.596026 13.087856 C 140.596026 11.807856 140.096026 10.567856 139.176026 9.647856 C 138.256026 8.747856 137.036026 8.227856 135.736026 8.227856 C 134.456026 8.227856 133.216026 8.747856 132.296026 9.647856 C 131.396026 10.567856 130.876026 11.807856 130.876026 13.087856 C 130.876026 14.387856 131.396026 15.627856 132.296026 16.527856 C 133.216026 17.447856 134.456026 17.967856 135.736026 17.967856 Z M 135.736026 17.967856 " transform="matrix(0.195312,0,0,0.195312,2.285932,2.006278)"/>
<path style="fill-rule:nonzero;fill:rgb(68.627451%,85.490196%,82.352941%);fill-opacity:1;stroke-width:0.25;stroke-linecap:butt;stroke-linejoin:miter;stroke:rgb(100%,100%,100%);stroke-opacity:1;stroke-miterlimit:4;" d="M 155.036026 13.247856 C 155.936026 13.247856 156.796026 12.887856 157.416026 12.247856 C 158.056026 11.627856 158.396026 10.767856 158.396026 9.887856 C 158.396026 8.987856 158.056026 8.127856 157.416026 7.507856 C 156.796026 6.867856 155.936026 6.527856 155.036026 6.527856 C 154.156026 6.527856 153.296026 6.867856 152.656026 7.507856 C 152.036026 8.127856 151.676026 8.987856 151.676026 9.887856 C 151.676026 10.767856 152.036026 11.627856 152.656026 12.247856 C 153.296026 12.887856 154.156026 13.247856 155.036026 13.247856 Z M 155.036026 13.247856 " transform="matrix(0.195312,0,0,0.195312,2.285932,2.006278)"/>
<path style="fill-rule:nonzero;fill:rgb(68.627451%,85.490196%,82.352941%);fill-opacity:1;stroke-width:0.25;stroke-linecap:butt;stroke-linejoin:miter;stroke:rgb(100%,100%,100%);stroke-opacity:1;stroke-miterlimit:4;" d="M 4.216026 95.227856 C 5.336026 95.227856 6.416026 94.787856 7.216026 93.987856 C 7.996026 93.207856 8.436026 92.127856 8.436026 91.007856 C 8.436026 89.887856 7.996026 88.807856 7.216026 88.027856 C 6.416026 87.227856 5.336026 86.787856 4.216026 86.787856 C 3.096026 86.787856 2.036026 87.227856 1.236026 88.027856 C 0.436026 88.807856 -0.003974 89.887856 -0.003974 91.007856 C -0.003974 92.127856 0.436026 93.207856 1.236026 93.987856 C 2.036026 94.787856 3.096026 95.227856 4.216026 95.227856 Z M 4.216026 95.227856 " transform="matrix(0.195312,0,0,0.195312,2.285932,2.006278)"/>
<path style="fill-rule:nonzero;fill:rgb(68.627451%,85.490196%,82.352941%);fill-opacity:1;stroke-width:0.25;stroke-linecap:butt;stroke-linejoin:miter;stroke:rgb(100%,100%,100%);stroke-opacity:1;stroke-miterlimit:4;" d="M 100.016026 12.947856 C 100.616026 12.947856 101.196026 12.707856 101.616026 12.287856 C 102.056026 11.867856 102.296026 11.287856 102.296026 10.687856 C 102.296026 10.067856 102.056026 9.487856 101.616026 9.067856 C 101.196026 8.647856 100.616026 8.407856 100.016026 8.407856 C 99.416026 8.407856 98.836026 8.647856 98.416026 9.067856 C 97.976026 9.487856 97.736026 10.067856 97.736026 10.687856 C 97.736026 11.287856 97.976026 11.867856 98.416026 12.287856 C 98.836026 12.707856 99.416026 12.947856 100.016026 12.947856 Z M 100.016026 12.947856 " transform="matrix(0.195312,0,0,0.195312,2.285932,2.006278)"/>
<path style="fill-rule:nonzero;fill:rgb(68.627451%,85.490196%,82.352941%);fill-opacity:1;stroke-width:0.25;stroke-linecap:butt;stroke-linejoin:miter;stroke:rgb(100%,100%,100%);stroke-opacity:1;stroke-miterlimit:4;" d="M 178.096026 23.347856 C 178.836026 23.347856 179.536026 23.067856 180.036026 22.547856 C 180.556026 22.047856 180.856026 21.347856 180.856026 20.607856 C 180.856026 19.887856 180.556026 19.187856 180.036026 18.667856 C 179.536026 18.167856 178.836026 17.867856 178.096026 17.867856 C 177.376026 17.867856 176.676026 18.167856 176.176026 18.667856 C 175.656026 19.187856 175.356026 19.887856 175.356026 20.607856 C 175.356026 21.347856 175.656026 22.047856 176.176026 22.547856 C 176.676026 23.067856 177.376026 23.347856 178.096026 23.347856 Z M 178.096026 23.347856 " transform="matrix(0.195312,0,0,0.195312,2.285932,2.006278)"/>
<path style="fill-rule:nonzero;fill:rgb(68.627451%,85.490196%,82.352941%);fill-opacity:1;stroke-width:0.25;stroke-linecap:butt;stroke-linejoin:miter;stroke:rgb(100%,100%,100%);stroke-opacity:1;stroke-miterlimit:4;" d="M 126.836026 9.627856 C 127.896026 9.627856 128.896026 9.207856 129.636026 8.467856 C 130.396026 7.727856 130.796026 6.727856 130.796026 5.667856 C 130.796026 4.607856 130.396026 3.607856 129.636026 2.867856 C 128.896026 2.127856 127.896026 1.707856 126.836026 1.707856 C 125.776026 1.707856 124.776026 2.127856 124.036026 2.867856 C 123.296026 3.607856 122.876026 4.607856 122.876026 5.667856 C 122.876026 6.727856 123.296026 7.727856 124.036026 8.467856 C 124.776026 9.207856 125.776026 9.627856 126.836026 9.627856 Z M 126.836026 9.627856 " transform="matrix(0.195312,0,0,0.195312,2.285932,2.006278)"/>
<path style="fill-rule:nonzero;fill:rgb(68.627451%,85.490196%,82.352941%);fill-opacity:1;stroke-width:0.25;stroke-linecap:butt;stroke-linejoin:miter;stroke:rgb(100%,100%,100%);stroke-opacity:1;stroke-miterlimit:4;" d="M 36.256026 69.867856 C 37.456026 69.867856 38.616026 69.387856 39.476026 68.527856 C 40.336026 67.687856 40.816026 66.507856 40.816026 65.307856 C 40.816026 64.087856 40.336026 62.927856 39.476026 62.067856 C 38.616026 61.207856 37.456026 60.727856 36.256026 60.727856 C 35.036026 60.727856 33.876026 61.207856 33.016026 62.067856 C 32.156026 62.927856 31.676026 64.087856 31.676026 65.307856 C 31.676026 66.507856 32.156026 67.687856 33.016026 68.527856 C 33.876026 69.387856 35.036026 69.867856 36.256026 69.867856 Z M 36.256026 69.867856 " transform="matrix(0.195312,0,0,0.195312,2.285932,2.006278)"/>
<path style=" stroke:none;fill-rule:nonzero;fill:rgb(100%,100%,100%);fill-opacity:1;" d="M 34.050781 11.4375 L 33.128906 11.414062 L 32.207031 11.4375 L 31.289062 11.5 L 30.367188 11.605469 L 29.445312 11.753906 L 28.527344 11.941406 L 27.609375 12.164062 L 26.695312 12.417969 L 25.777344 12.707031 L 24.867188 13.023438 L 23.953125 13.363281 L 23.042969 13.722656 L 22.136719 14.101562 L 21.226562 14.492188 L 20.320312 14.894531 L 19.417969 15.300781 L 17.609375 16.121094 L 16.710938 16.527344 L 15.808594 16.929688 L 14.910156 17.320312 L 14.011719 17.699219 L 13.113281 18.066406 L 12.21875 18.417969 L 11.320312 18.753906 L 10.425781 19.074219 L 9.527344 19.375 L 8.632812 19.65625 L 7.738281 19.917969 L 6.84375 20.164062 L 5.949219 20.390625 L 5.054688 20.597656 L 4.160156 20.789062 L 3.265625 20.960938 L 2.371094 21.117188 L 1.386719 21.273438 L 1.34375 21.570312 C 1.179688 22.707031 1.097656 23.851562 1.097656 25 C 1.097656 25.894531 1.148438 26.785156 1.246094 27.675781 L 1.308594 28.230469 L 2.605469 27.652344 L 3.511719 27.246094 L 5.316406 26.425781 L 6.21875 26.019531 L 7.117188 25.621094 L 8.015625 25.234375 L 8.914062 24.859375 L 9.808594 24.503906 L 10.703125 24.171875 L 11.597656 23.863281 L 12.488281 23.582031 L 13.378906 23.332031 L 14.269531 23.117188 L 15.15625 22.9375 L 16.039062 22.796875 L 16.925781 22.691406 L 17.808594 22.632812 L 18.691406 22.613281 L 19.574219 22.632812 L 20.460938 22.695312 L 21.34375 22.796875 L 22.226562 22.941406 L 23.113281 23.121094 L 24 23.335938 L 24.890625 23.585938 L 25.777344 23.863281 L 26.671875 24.171875 L 27.5625 24.507812 L 28.457031 24.863281 L 29.355469 25.234375 L 30.25 25.621094 L 31.148438 26.019531 L 32.050781 26.425781 L 33.851562 27.246094 L 34.757812 27.652344 L 35.660156 28.054688 L 36.566406 28.449219 L 37.472656 28.832031 L 38.378906 29.203125 L 39.289062 29.558594 L 40.195312 29.898438 L 41.105469 30.222656 L 42.011719 30.527344 L 42.921875 30.8125 L 43.832031 31.082031 L 44.742188 31.332031 L 45.652344 31.558594 L 46.5625 31.773438 L 47.84375 32.042969 L 47.949219 31.679688 C 48.550781 29.605469 48.871094 27.460938 48.898438 25.304688 L 48.902344 25.003906 L 48.898438 24.699219 L 48.894531 24.375 C 48.816406 21.445312 48.203125 18.558594 47.082031 15.851562 L 47 15.65625 L 46.851562 15.3125 L 45.921875 14.894531 L 45.015625 14.496094 L 44.109375 14.105469 L 43.203125 13.726562 L 42.296875 13.367188 L 41.386719 13.027344 L 40.472656 12.710938 L 39.558594 12.421875 L 38.644531 12.164062 L 37.730469 11.941406 L 36.8125 11.757812 L 35.890625 11.609375 L 34.972656 11.503906 Z M 33.121094 11.824219 L 34.023438 11.847656 L 34.925781 11.910156 L 35.828125 12.015625 L 36.730469 12.160156 L 37.632812 12.339844 L 38.535156 12.558594 L 39.4375 12.8125 L 40.339844 13.097656 L 41.242188 13.410156 L 42.144531 13.746094 L 43.046875 14.105469 L 43.949219 14.480469 L 44.851562 14.871094 L 45.753906 15.269531 L 46.539062 15.621094 C 46.59375 15.75 46.648438 15.878906 46.703125 16.007812 C 47.804688 18.667969 48.40625 21.507812 48.484375 24.382812 L 48.488281 24.699219 L 48.492188 25 L 48.488281 25.296875 C 48.460938 27.421875 48.148438 29.53125 47.554688 31.566406 L 46.65625 31.371094 L 45.753906 31.164062 L 44.851562 30.933594 L 43.949219 30.6875 L 43.046875 30.421875 L 42.144531 30.136719 L 41.242188 29.835938 L 40.339844 29.515625 L 39.4375 29.175781 L 38.535156 28.824219 L 37.632812 28.453125 L 36.730469 28.074219 L 35.828125 27.679688 L 34.925781 27.28125 L 32.21875 26.050781 L 31.316406 25.644531 L 30.414062 25.246094 L 29.511719 24.855469 L 28.609375 24.480469 L 27.707031 24.125 L 26.804688 23.785156 L 25.902344 23.472656 L 25 23.191406 L 24.097656 22.9375 L 23.195312 22.71875 L 22.292969 22.535156 L 21.390625 22.390625 L 20.488281 22.285156 L 19.585938 22.222656 L 18.683594 22.203125 L 17.78125 22.222656 L 16.878906 22.285156 L 15.976562 22.390625 L 15.074219 22.535156 L 14.171875 22.71875 L 13.269531 22.9375 L 12.367188 23.191406 L 11.464844 23.472656 L 10.5625 23.785156 L 9.660156 24.125 L 8.757812 24.480469 L 7.855469 24.855469 L 6.953125 25.246094 L 6.050781 25.644531 L 5.148438 26.050781 L 2.441406 27.28125 L 1.65625 27.628906 C 1.554688 26.757812 1.507812 25.878906 1.507812 25 C 1.507812 23.871094 1.589844 22.742188 1.75 21.628906 L 2.441406 21.519531 L 3.34375 21.363281 L 4.246094 21.1875 L 5.148438 20.996094 L 6.050781 20.785156 L 6.953125 20.558594 L 7.855469 20.3125 L 8.757812 20.046875 L 9.660156 19.761719 L 10.5625 19.457031 L 11.464844 19.136719 L 12.367188 18.800781 L 13.269531 18.445312 L 14.171875 18.078125 L 15.074219 17.695312 L 15.976562 17.304688 L 16.878906 16.902344 L 17.78125 16.496094 L 19.585938 15.675781 L 20.488281 15.269531 L 21.390625 14.871094 L 22.292969 14.480469 L 23.195312 14.105469 L 24.097656 13.746094 L 25 13.410156 L 25.902344 13.097656 L 26.804688 12.8125 L 27.707031 12.558594 L 28.609375 12.339844 L 29.511719 12.160156 L 30.414062 12.015625 L 31.316406 11.910156 L 32.21875 11.847656 Z M 33.121094 11.824219 "/>
<path style="fill-rule:nonzero;fill:rgb(49.019608%,69.019608%,73.72549%);fill-opacity:1;stroke-width:1;stroke-linecap:butt;stroke-linejoin:miter;stroke:rgb(100%,100%,100%);stroke-opacity:1;stroke-miterlimit:4;" d="M 169.58 60.04 L 174.22 60.16 L 178.86 60.48 L 183.5 61.02 L 188.14 61.76 L 192.78 62.7 L 197.42 63.82 L 202.06 65.12 L 206.7 66.58 L 211.32 68.18 L 215.96 69.92 L 220.58 71.76 L 225.22 73.68 L 229.84 75.68 L 234.46 77.72 L 238.66 79.62 C 238.98 80.34 239.28 81.06 239.58 81.78 C 245.32 95.64 248.44 110.46 248.76 125.44 L 248.76 126.46 L 248.78 128 L 248.76 129.54 C 248.62 140.62 246.96 151.6 243.84 162.2 L 238.76 161.12 L 234.14 160.04 L 229.5 158.88 L 224.88 157.6 L 220.24 156.24 L 215.62 154.78 L 210.98 153.24 L 206.36 151.58 L 201.74 149.86 L 197.1 148.04 L 192.48 146.14 L 187.86 144.2 L 183.24 142.18 L 178.62 140.12 L 174 138.04 L 164.76 133.84 L 160.14 131.76 L 155.52 129.72 L 150.9 127.72 L 146.3 125.8 L 141.68 123.98 L 137.06 122.26 L 132.46 120.66 L 127.86 119.22 L 123.26 117.92 L 118.64 116.8 L 114.04 115.88 L 109.44 115.14 L 104.86 114.6 L 100.26 114.28 L 95.66 114.18 L 91.06 114.28 L 86.46 114.6 L 81.86 115.14 L 77.26 115.88 L 72.66 116.8 L 68.06 117.92 L 63.46 119.22 L 58.86 120.66 L 54.24 122.26 L 49.64 123.98 L 45.02 125.8 L 40.42 127.72 L 35.8 129.72 L 31.18 131.76 L 26.56 133.84 L 17.32 138.04 L 12.7 140.12 L 8.06 142.2 C 7.5 137.5 7.22 132.76 7.22 128 C 7.22 122.06 7.66 116.16 8.52 110.32 L 12.42 109.7 L 17.02 108.88 L 21.64 108 L 26.24 107.02 L 30.86 105.94 L 35.46 104.78 L 40.08 103.52 L 44.68 102.16 L 49.3 100.7 L 53.9 99.16 L 58.52 97.52 L 63.14 95.8 L 67.74 93.98 L 72.36 92.1 L 76.98 90.14 L 81.6 88.14 L 86.22 86.08 L 90.82 84 L 100.08 79.8 L 104.7 77.72 L 109.32 75.68 L 113.94 73.68 L 118.58 71.74 L 123.2 69.92 L 127.82 68.18 L 132.46 66.58 L 137.1 65.12 L 141.74 63.82 L 146.36 62.7 L 151 61.76 L 155.64 61.02 L 160.3 60.48 L 164.94 60.16 Z M 169.58 60.04 " transform="matrix(0.195312,0,0,0.195312,0,0)"/>
<path style=" stroke:none;fill-rule:nonzero;fill:rgb(36.078431%,49.019608%,63.529412%);fill-opacity:1;" d="M 18.683594 22.652344 L 19.585938 22.675781 L 20.488281 22.738281 L 21.390625 22.84375 L 22.292969 22.988281 L 23.195312 23.167969 L 24.097656 23.386719 L 25 23.640625 L 25.902344 23.925781 L 26.804688 24.238281 L 27.707031 24.574219 L 28.609375 24.933594 L 29.511719 25.308594 L 30.414062 25.699219 L 31.316406 26.097656 L 32.21875 26.503906 L 34.023438 27.324219 L 34.925781 27.730469 L 35.828125 28.132812 L 36.730469 28.523438 L 37.632812 28.90625 L 38.535156 29.273438 L 39.4375 29.628906 L 40.339844 29.964844 L 41.242188 30.285156 L 42.144531 30.589844 L 43.046875 30.875 L 43.949219 31.140625 L 44.851562 31.386719 L 45.753906 31.613281 L 46.65625 31.824219 L 47.429688 31.988281 C 47.21875 32.664062 46.976562 33.332031 46.703125 33.988281 C 45.523438 36.839844 43.792969 39.429688 41.609375 41.609375 C 39.429688 43.792969 36.839844 45.523438 33.988281 46.703125 C 31.140625 47.882812 28.085938 48.492188 25 48.492188 C 21.914062 48.492188 18.859375 47.882812 16.007812 46.703125 C 13.160156 45.523438 10.570312 43.792969 8.386719 41.609375 C 6.207031 39.429688 4.476562 36.839844 3.296875 33.988281 C 2.507812 32.085938 1.972656 30.089844 1.707031 28.058594 L 2.441406 27.730469 L 3.34375 27.324219 L 5.148438 26.503906 L 6.050781 26.097656 L 6.953125 25.699219 L 7.855469 25.308594 L 8.757812 24.933594 L 9.660156 24.574219 L 10.5625 24.238281 L 11.464844 23.925781 L 12.367188 23.640625 L 13.269531 23.386719 L 14.171875 23.167969 L 15.074219 22.988281 L 15.976562 22.84375 L 16.878906 22.738281 L 17.78125 22.675781 Z M 18.683594 22.652344 "/>
<path style=" stroke:none;fill-rule:nonzero;fill:rgb(26.666667%,28.235294%,46.27451%);fill-opacity:1;" d="M 20.488281 28.738281 L 20.488281 31.761719 L 25.902344 31.761719 L 25.902344 35.941406 L 31.316406 35.941406 L 31.316406 38.800781 L 36.730469 38.800781 L 36.730469 40.007812 L 42.144531 40.007812 L 42.144531 41.058594 C 41.96875 41.246094 41.792969 41.429688 41.609375 41.609375 C 39.429688 43.792969 36.839844 45.523438 33.988281 46.703125 C 31.140625 47.882812 28.085938 48.492188 25 48.492188 C 21.914062 48.492188 18.859375 47.882812 16.007812 46.703125 C 13.160156 45.523438 10.570312 43.792969 8.386719 41.609375 C 6.734375 39.957031 5.335938 38.066406 4.246094 36.007812 L 4.246094 33.1875 L 9.660156 33.1875 L 9.660156 29.417969 L 15.074219 29.417969 L 15.074219 28.738281 Z M 20.488281 28.738281 "/>
<path style=" stroke:none;fill-rule:nonzero;fill:rgb(100%,100%,100%);fill-opacity:1;" d="M 20.671875 28.550781 L 20.671875 31.578125 L 26.085938 31.578125 L 26.085938 35.757812 L 31.5 35.757812 L 31.5 38.613281 L 36.914062 38.613281 L 36.914062 39.820312 L 42.328125 39.820312 L 42.328125 40.859375 C 42.207031 40.992188 42.082031 41.125 41.957031 41.253906 L 41.957031 40.191406 L 36.914062 40.191406 L 36.914062 45.246094 C 36.792969 45.316406 36.667969 45.390625 36.542969 45.457031 L 36.542969 38.984375 L 31.5 38.984375 L 31.5 47.574219 C 31.378906 47.609375 31.253906 47.644531 31.128906 47.675781 L 31.128906 36.125 L 26.085938 36.125 L 26.085938 48.464844 C 25.964844 48.472656 25.839844 48.476562 25.714844 48.480469 L 25.714844 31.945312 L 20.671875 31.945312 L 20.671875 48.089844 C 20.550781 48.066406 20.425781 48.042969 20.300781 48.015625 L 20.300781 28.921875 L 15.257812 28.921875 L 15.257812 46.375 C 15.132812 46.320312 15.011719 46.261719 14.886719 46.203125 L 14.886719 29.601562 L 9.84375 29.601562 L 9.84375 42.949219 C 9.71875 42.84375 9.597656 42.738281 9.472656 42.628906 L 9.472656 33.371094 L 4.429688 33.371094 L 4.429688 36.347656 C 4.304688 36.117188 4.179688 35.886719 4.058594 35.648438 L 4.0625 33.003906 L 9.472656 33.003906 L 9.476562 29.230469 L 14.886719 29.230469 L 14.890625 28.550781 Z M 20.671875 28.550781 "/>
<path style=" stroke:none;fill-rule:nonzero;fill:rgb(26.666667%,28.235294%,46.27451%);fill-opacity:1;" d="M 25 0 C 28.28125 0 31.535156 0.648438 34.566406 1.902344 C 37.597656 3.160156 40.355469 5 42.675781 7.320312 C 44.996094 9.644531 46.839844 12.398438 48.097656 15.433594 C 49.3125 18.367188 49.957031 21.507812 49.996094 24.683594 L 50 25 L 49.996094 25.316406 C 49.957031 28.492188 49.3125 31.632812 48.097656 34.566406 C 46.839844 37.597656 44.996094 40.355469 42.675781 42.675781 C 40.355469 44.996094 37.597656 46.839844 34.566406 48.097656 C 31.535156 49.351562 28.28125 50 25 50 C 21.714844 50 18.464844 49.351562 15.433594 48.097656 C 12.398438 46.839844 9.644531 44.996094 7.320312 42.675781 C 5 40.355469 3.160156 37.597656 1.902344 34.566406 C 0.648438 31.535156 0 28.28125 0 25 C 0 21.714844 0.648438 18.464844 1.902344 15.433594 C 3.160156 12.398438 5 9.644531 7.320312 7.320312 C 9.644531 5 12.398438 3.160156 15.433594 1.902344 C 18.464844 0.648438 21.714844 0 25 0 Z M 25 0.820312 C 21.824219 0.820312 18.679688 1.445312 15.746094 2.660156 C 12.8125 3.875 10.148438 5.65625 7.902344 7.902344 C 5.65625 10.148438 3.875 12.8125 2.660156 15.746094 C 1.445312 18.679688 0.820312 21.824219 0.820312 25 C 0.820312 28.175781 1.445312 31.320312 2.660156 34.253906 C 3.875 37.183594 5.65625 39.851562 7.902344 42.097656 C 10.148438 44.339844 12.8125 46.121094 15.746094 47.335938 C 18.679688 48.550781 21.824219 49.179688 25 49.179688 C 28.175781 49.179688 31.320312 48.550781 34.253906 47.335938 C 37.183594 46.121094 39.851562 44.339844 42.097656 42.097656 C 44.339844 39.851562 46.121094 37.183594 47.335938 34.253906 C 48.511719 31.414062 49.136719 28.378906 49.175781 25.304688 L 49.179688 25 L 49.175781 24.691406 C 49.136719 21.621094 48.511719 18.585938 47.335938 15.746094 C 46.121094 12.8125 44.339844 10.148438 42.097656 7.902344 C 39.851562 5.65625 37.183594 3.875 34.253906 2.660156 C 31.320312 1.445312 28.175781 0.820312 25 0.820312 Z M 25 0.820312 "/>
</g>
</svg>
