<?xml version="1.0" encoding="UTF-8"?>
<svg xmlns="http://www.w3.org/2000/svg" xmlns:xlink="http://www.w3.org/1999/xlink" width="50px" height="50px" viewBox="0 0 50 50" version="1.1">
<defs>
<linearGradient id="linear0" gradientUnits="userSpaceOnUse" x1="0.576616" y1="0.0204645" x2="0.576616" y2="0.944388" gradientTransform="matrix(152.752,0,0,170.992,0,0)">
<stop offset="0" style="stop-color:rgb(59.215686%,85.098039%,96.470588%);stop-opacity:1;"/>
<stop offset="0.920245" style="stop-color:rgb(5.882353%,50.196078%,80%);stop-opacity:1;"/>
<stop offset="1" style="stop-color:rgb(5.882353%,50.196078%,80%);stop-opacity:1;"/>
</linearGradient>
</defs>
<g id="surface1">
<path style=" stroke:none;fill-rule:nonzero;fill:rgb(59.215686%,85.098039%,96.470588%);fill-opacity:1;" d="M 12.5 0 L 37.5 0 C 44.402344 0 50 5.597656 50 12.5 L 50 37.5 C 50 44.402344 44.402344 50 37.5 50 L 12.5 50 C 5.597656 50 0 44.402344 0 37.5 L 0 12.5 C 0 5.597656 5.597656 0 12.5 0 Z M 12.5 0 "/>
<path style="fill-rule:nonzero;fill:rgb(0%,23.137255%,34.117647%);fill-opacity:1;stroke-width:0.00512;stroke-linecap:butt;stroke-linejoin:miter;stroke:rgb(0%,0%,0%);stroke-opacity:1;stroke-miterlimit:4;" d="M 194.512 112.048 C 187.696 112.048 182.176 114.064 177.904 118.096 C 173.632 122.128 171.472 127.456 171.472 133.936 C 171.472 137.296 172.048 140.368 173.104 143.152 C 174.16 145.984 175.792 148.576 178 150.928 C 180.208 153.28 184.624 156.496 191.2 160.576 C 199.264 165.52 204.592 169.504 207.136 172.624 C 209.68 175.744 210.928 179.056 210.928 182.464 C 210.928 187.024 209.392 190.672 206.32 193.408 C 203.2 196.144 199.072 197.536 193.936 197.536 C 188.512 197.536 183.808 195.616 179.776 191.824 C 175.696 188.032 173.68 182.992 173.632 176.704 L 171.088 176.704 L 171.088 199.552 L 173.632 199.552 C 174.4 197.392 175.456 196.288 176.848 196.288 C 177.52 196.288 179.056 196.768 181.504 197.632 C 187.456 199.744 192.352 200.752 196.192 200.752 C 202.816 200.752 208.48 198.448 213.184 193.744 C 217.888 188.992 220.24 183.328 220.24 176.704 C 220.24 171.568 218.656 167.008 215.584 163.024 C 212.512 158.992 206.56 154.384 197.632 149.056 C 189.904 144.4 184.912 140.656 182.608 137.728 C 180.304 134.8 179.152 131.536 179.152 127.984 C 179.152 124.144 180.544 121.072 183.328 118.768 C 186.112 116.464 189.76 115.312 194.32 115.312 C 199.504 115.312 203.776 116.848 207.184 119.92 C 210.544 122.992 212.512 127.264 213.088 132.736 L 215.584 132.736 L 215.584 112.912 L 213.28 112.912 C 212.992 113.92 212.704 114.592 212.464 114.88 C 212.224 115.168 211.792 115.312 211.072 115.312 C 210.256 115.312 208.816 114.976 206.752 114.304 C 202.336 112.816 198.256 112.048 194.512 112.048 Z M 276.88 112.048 C 268.528 112.048 260.992 114.016 254.176 117.904 C 247.36 121.84 241.936 127.264 237.952 134.176 C 233.968 141.088 232 148.432 232 156.304 C 232 166.816 235.456 176.176 242.368 184.384 C 249.328 192.592 257.68 197.728 267.328 199.696 C 269.536 200.848 272.704 203.824 276.832 208.624 C 281.488 214.048 285.424 217.936 288.64 220.288 C 291.904 222.64 295.408 224.32 299.104 225.472 C 302.8 226.576 306.784 227.152 311.104 227.152 C 316.336 227.152 321.04 226.24 325.168 224.368 L 324.256 222.064 C 321.856 222.928 319.312 223.36 316.576 223.36 C 312.928 223.36 309.232 222.112 305.536 219.712 C 301.84 217.264 297.232 212.656 291.712 205.84 C 289.12 202.576 287.344 200.512 286.336 199.696 C 296.896 197.632 305.584 192.496 312.352 184.288 C 319.12 176.128 322.528 166.768 322.528 156.304 C 322.528 143.824 318.112 133.408 309.28 124.864 C 300.496 116.32 289.696 112.048 276.88 112.048 Z M 328.288 112.048 L 328.384 114.736 C 333.952 114.736 337.024 116.368 337.744 119.632 C 337.984 120.832 338.08 122.992 338.128 126.112 L 338.08 185.728 C 338.032 190.192 337.408 193.024 336.16 194.272 C 334.96 195.472 332.896 196.24 329.92 196.576 L 329.776 199.264 L 384.928 199.264 L 386.32 185.728 L 383.824 185.728 C 383.104 189.424 381.472 192.064 378.832 193.552 C 376.192 195.04 371.536 195.808 364.816 195.808 L 359.584 195.808 C 353.536 195.808 350.032 193.6 349.12 189.232 C 348.928 188.368 348.88 187.408 348.88 186.4 L 349.072 126.112 C 349.072 121.648 349.648 118.672 350.8 117.232 C 352 115.744 354.112 114.928 357.184 114.736 L 357.04 112.048 Z M 277.744 115.312 C 287.104 115.312 294.784 119.008 300.688 126.448 C 306.592 133.888 309.52 144.112 309.52 157.024 C 309.52 169.312 306.544 179.104 300.592 186.496 C 294.64 193.84 286.72 197.536 276.88 197.536 C 267.376 197.536 259.744 193.744 253.84 186.112 C 247.936 178.528 245.056 168.64 245.056 156.448 C 245.056 143.968 247.984 133.984 253.936 126.496 C 259.84 119.008 267.808 115.312 277.744 115.312 Z M 404.608 128.128 C 403.264 128.128 402.208 128.608 401.44 129.52 C 400.672 130.432 400.432 131.536 400.72 132.88 C 400.96 134.176 401.728 135.328 402.88 136.288 C 404.032 137.248 405.28 137.728 406.624 137.728 C 407.92 137.728 408.928 137.248 409.648 136.288 C 410.368 135.328 410.56 134.176 410.32 132.88 C 410.032 131.536 409.312 130.432 408.208 129.52 C 407.104 128.608 405.904 128.128 404.608 128.128 Z M 440.992 137.296 C 438.688 146.08 433.744 150.832 426.112 151.6 L 426.208 154.144 L 435.088 154.144 L 434.896 183.904 C 434.944 188.992 435.088 192.4 435.424 194.128 C 436.336 198.256 439.024 200.368 443.536 200.368 C 450.064 200.368 456.928 196.384 464.08 188.416 L 461.92 186.544 C 456.736 191.824 452.176 194.416 448.192 194.416 C 445.744 194.416 444.208 193.024 443.632 190.24 C 443.488 189.568 443.392 188.752 443.392 187.84 L 443.488 154.144 L 457.072 154.144 L 456.928 150.112 L 443.536 150.112 L 443.536 137.296 Z M 493.456 148.528 C 485.824 148.528 479.68 152.176 474.88 159.52 C 470.08 166.864 468.64 174.976 470.512 183.904 C 471.616 189.136 473.824 193.216 477.184 196.048 C 480.544 198.928 484.816 200.368 489.904 200.368 C 494.656 200.368 501.28 199.168 504.064 196.72 C 506.848 194.32 509.392 190.384 511.792 185.008 L 509.872 183.04 C 506.08 190 498.448 193.504 492.688 193.504 C 484.768 193.504 479.92 189.136 478.096 180.496 C 477.856 179.392 477.712 178.24 477.568 176.992 C 486.976 175.456 494.128 172.816 498.976 169.024 C 503.776 165.184 508.624 161.152 507.712 156.88 C 507.184 154.336 505.84 152.32 503.824 150.784 C 501.76 149.296 496.432 148.528 493.456 148.528 Z M 410.464 148.816 L 394.144 152.56 L 394.144 155.488 L 399.76 154.768 C 402.496 154.768 404.128 156.016 404.656 158.512 C 404.8 159.328 404.944 160.48 404.944 161.968 L 404.752 188.704 C 404.704 192.4 404.32 194.56 403.504 195.184 C 402.64 195.808 400.48 196.144 396.928 196.144 L 396.832 198.688 L 422.752 198.688 L 422.704 196.144 C 419.104 196.144 416.8 195.856 415.744 195.328 C 414.688 194.752 414.016 193.744 413.68 192.208 C 413.488 191.104 413.344 189.184 413.344 186.544 L 413.44 148.816 Z M 489.28 153.76 C 490.864 153.76 492.4 154.384 493.936 155.584 C 495.424 156.784 496.384 158.128 496.672 159.568 C 498.16 166.672 491.824 171.568 477.664 174.304 C 477.232 169.12 478.144 164.416 480.448 160.192 C 482.704 155.92 485.68 153.76 489.28 153.76 Z M 489.28 153.76 " transform="matrix(0.0813802,0,0,0.0813802,4.166667,4.166667)"/>
<path style="fill-rule:nonzero;fill:rgb(5.882353%,50.196078%,80%);fill-opacity:1;stroke-width:0.00512;stroke-linecap:butt;stroke-linejoin:miter;stroke:rgb(0%,0%,0%);stroke-opacity:1;stroke-miterlimit:4;" d="M 157.888 9.952 L 17.152 9.952 C 7.696 9.952 0.016 17.68 0.016 27.088 L 0.016 182.32 C 0.016 191.728 7.696 199.456 17.152 199.456 L 109.84 199.456 C 108.784 153.328 124.528 63.808 157.888 9.952 Z M 157.888 9.952 " transform="matrix(0.0813802,0,0,0.0813802,4.166667,4.166667)"/>
<path style="fill-rule:nonzero;fill:url(#linear0);stroke-width:0.00512;stroke-linecap:butt;stroke-linejoin:miter;stroke:rgb(0%,0%,0%);stroke-opacity:1;stroke-miterlimit:4;" d="M 152.752 14.944 L 17.152 14.944 C 10.432 14.944 5.008 20.416 5.008 27.088 L 5.008 170.992 C 35.728 159.184 81.808 149.008 113.68 149.488 C 120.112 115.984 138.928 50.368 152.752 14.944 Z M 152.752 14.944 " transform="matrix(0.0813802,0,0,0.0813802,4.166667,4.166667)"/>
<path style="fill-rule:nonzero;fill:rgb(0%,23.137255%,34.117647%);fill-opacity:1;stroke-width:0.00512;stroke-linecap:butt;stroke-linejoin:miter;stroke:rgb(0%,0%,0%);stroke-opacity:1;stroke-miterlimit:4;" d="M 190.72 4.864 C 181.072 -3.728 169.408 -0.272 157.888 9.952 C 156.16 11.488 154.48 13.168 152.752 14.944 C 133.072 35.872 114.784 74.56 109.12 104.128 C 111.328 108.64 113.056 114.352 114.16 118.72 C 114.448 119.872 114.736 120.928 114.928 121.792 C 115.456 123.952 115.696 125.296 115.696 125.296 C 115.696 125.296 115.552 124.624 114.832 122.56 C 114.688 122.128 114.544 121.696 114.352 121.168 C 114.256 120.976 114.16 120.688 114.016 120.448 C 112.768 117.424 109.216 111.136 107.632 108.4 C 106.288 112.336 105.088 116.032 104.128 119.344 C 108.64 127.648 111.376 141.808 111.376 141.808 C 111.376 141.808 111.136 140.896 110.032 137.68 C 109.024 134.848 103.984 126.064 102.784 124 C 100.768 131.488 99.952 136.576 100.672 137.824 C 102.112 140.176 103.456 144.304 104.608 148.864 C 107.296 159.184 109.168 171.664 109.168 171.664 C 109.168 171.664 109.216 172.528 109.312 173.776 C 108.976 182.416 109.168 191.392 109.84 199.456 C 110.752 210.16 112.384 219.376 114.544 224.272 L 115.984 223.504 C 112.864 213.808 111.568 201.088 112.144 186.448 C 112.96 164.032 118.144 137.008 127.648 108.832 C 143.776 66.304 166.096 32.176 186.544 15.904 C 167.92 32.704 142.672 87.184 135.136 107.344 C 126.688 129.952 120.688 151.12 117.088 171.472 C 123.328 152.416 143.44 144.208 143.44 144.208 C 143.44 144.208 153.328 132.064 164.848 114.64 C 157.936 116.224 146.608 118.912 142.816 120.496 C 137.2 122.848 135.664 123.664 135.664 123.664 C 135.664 123.664 153.856 112.624 169.456 107.584 C 190.864 73.84 214.24 25.84 190.72 4.864 " transform="matrix(0.0813802,0,0,0.0813802,4.166667,4.166667)"/>
</g>
</svg>
