<?xml version="1.0" encoding="UTF-8"?>
<svg xmlns="http://www.w3.org/2000/svg" xmlns:xlink="http://www.w3.org/1999/xlink" width="50px" height="50px" viewBox="0 0 50 50" version="1.1">
<g id="surface1">
<path style=" stroke:none;fill-rule:nonzero;fill:rgb(100%,43.529412%,0%);fill-opacity:1;" d="M 2.550781 28.980469 L 2.550781 23.179688 L 0 24.652344 L 0.00390625 22.457031 L 4.246094 20.035156 L 4.246094 29.964844 Z M 4.628906 29.964844 L 6.324219 28.980469 L 6.324219 26.1875 L 7.601562 26.925781 L 7.59375 25.019531 L 6.324219 24.289062 L 6.324219 23.179688 L 8.875 24.652344 L 8.871094 22.457031 L 4.628906 20.035156 Z M 4.628906 29.964844 "/>
<path style=" stroke:none;fill-rule:nonzero;fill:rgb(25.882353%,31.372549%,40%);fill-opacity:1;" d="M 13.746094 23.105469 L 12.136719 23.105469 L 12.136719 27.910156 L 11.210938 27.910156 L 11.210938 23.105469 L 9.605469 23.105469 L 9.605469 22.316406 L 13.746094 22.316406 Z M 17.066406 26.160156 L 14.34375 26.160156 C 14.355469 26.527344 14.46875 26.8125 14.683594 27.011719 C 14.902344 27.210938 15.203125 27.3125 15.582031 27.3125 C 16.007812 27.3125 16.398438 27.1875 16.753906 26.929688 L 16.753906 27.660156 C 16.390625 27.890625 15.910156 28.003906 15.3125 28.003906 C 14.726562 28.003906 14.261719 27.824219 13.929688 27.460938 C 13.59375 27.097656 13.429688 26.585938 13.429688 25.929688 C 13.429688 25.308594 13.613281 24.800781 13.980469 24.410156 C 14.347656 24.019531 14.804688 23.820312 15.351562 23.820312 C 15.898438 23.820312 16.320312 23.996094 16.617188 24.347656 C 16.917969 24.699219 17.066406 25.1875 17.066406 25.8125 Z M 16.195312 25.519531 C 16.191406 25.195312 16.113281 24.941406 15.964844 24.761719 C 15.8125 24.582031 15.605469 24.488281 15.339844 24.488281 C 15.078125 24.488281 14.859375 24.585938 14.675781 24.773438 C 14.496094 24.964844 14.386719 25.210938 14.34375 25.519531 Z M 21.484375 27.910156 L 20.582031 27.910156 L 20.582031 25.660156 C 20.582031 24.914062 20.316406 24.539062 19.789062 24.539062 C 19.515625 24.539062 19.285156 24.644531 19.105469 24.851562 C 18.925781 25.058594 18.839844 25.316406 18.839844 25.632812 L 18.839844 27.910156 L 17.929688 27.910156 L 17.929688 23.914062 L 18.839844 23.914062 L 18.839844 24.578125 L 18.855469 24.578125 C 19.152344 24.074219 19.585938 23.820312 20.148438 23.820312 C 20.582031 23.820312 20.914062 23.964844 21.144531 24.246094 C 21.371094 24.527344 21.488281 24.933594 21.488281 25.46875 Z M 22.339844 27.785156 L 22.339844 26.945312 C 22.679688 27.203125 23.050781 27.332031 23.460938 27.332031 C 24.003906 27.332031 24.277344 27.171875 24.277344 26.847656 C 24.28125 26.765625 24.257812 26.683594 24.207031 26.617188 C 24.15625 26.550781 24.09375 26.492188 24.019531 26.445312 C 23.929688 26.394531 23.835938 26.347656 23.738281 26.3125 C 23.617188 26.269531 23.496094 26.226562 23.378906 26.183594 C 23.226562 26.121094 23.078125 26.054688 22.933594 25.976562 C 22.8125 25.910156 22.703125 25.828125 22.605469 25.730469 C 22.519531 25.636719 22.453125 25.53125 22.410156 25.414062 C 22.367188 25.296875 22.34375 25.160156 22.34375 25.003906 C 22.34375 24.8125 22.390625 24.640625 22.480469 24.496094 C 22.570312 24.347656 22.695312 24.226562 22.847656 24.125 C 23.007812 24.023438 23.183594 23.945312 23.371094 23.898438 C 23.566406 23.847656 23.765625 23.820312 23.972656 23.820312 C 24.34375 23.820312 24.675781 23.878906 24.964844 23.988281 L 24.964844 24.78125 C 24.683594 24.589844 24.363281 24.492188 23.996094 24.492188 C 23.894531 24.492188 23.789062 24.503906 23.6875 24.527344 C 23.59375 24.550781 23.515625 24.582031 23.453125 24.625 C 23.390625 24.664062 23.339844 24.714844 23.300781 24.777344 C 23.261719 24.835938 23.246094 24.902344 23.246094 24.96875 C 23.242188 25.046875 23.261719 25.121094 23.300781 25.1875 C 23.335938 25.246094 23.390625 25.300781 23.460938 25.347656 C 23.53125 25.390625 23.617188 25.433594 23.71875 25.472656 C 23.820312 25.507812 23.933594 25.546875 24.0625 25.59375 C 24.234375 25.664062 24.390625 25.734375 24.523438 25.808594 C 24.664062 25.878906 24.78125 25.964844 24.875 26.058594 C 24.972656 26.148438 25.046875 26.253906 25.097656 26.375 C 25.148438 26.496094 25.175781 26.640625 25.175781 26.804688 C 25.175781 27.007812 25.128906 27.1875 25.035156 27.335938 C 24.941406 27.488281 24.816406 27.613281 24.660156 27.710938 C 24.492188 27.8125 24.3125 27.886719 24.117188 27.929688 C 23.910156 27.980469 23.691406 28.003906 23.476562 28.003906 C 23.039062 28.003906 22.660156 27.929688 22.339844 27.785156 Z M 27.804688 28.003906 C 27.1875 28.003906 26.695312 27.816406 26.328125 27.445312 C 25.960938 27.070312 25.777344 26.574219 25.777344 25.960938 C 25.777344 25.289062 25.96875 24.765625 26.351562 24.386719 C 26.734375 24.011719 27.25 23.820312 27.902344 23.820312 C 28.527344 23.820312 29.011719 24.003906 29.359375 24.371094 C 29.707031 24.738281 29.882812 25.246094 29.882812 25.898438 C 29.882812 26.535156 29.695312 27.046875 29.316406 27.429688 C 28.945312 27.8125 28.4375 28.003906 27.804688 28.003906 Z M 27.847656 24.542969 C 27.492188 24.542969 27.214844 24.667969 27.007812 24.914062 C 26.804688 25.160156 26.699219 25.503906 26.699219 25.9375 C 26.699219 26.355469 26.804688 26.683594 27.011719 26.925781 C 27.222656 27.167969 27.5 27.285156 27.847656 27.285156 C 28.203125 27.285156 28.476562 27.167969 28.667969 26.929688 C 28.859375 26.695312 28.953125 26.355469 28.953125 25.921875 C 28.953125 25.480469 28.859375 25.140625 28.667969 24.902344 C 28.476562 24.664062 28.203125 24.542969 27.847656 24.542969 Z M 33.121094 24.777344 C 33.011719 24.691406 32.855469 24.648438 32.648438 24.648438 C 32.378906 24.648438 32.15625 24.769531 31.976562 25.011719 C 31.796875 25.253906 31.707031 25.582031 31.707031 26 L 31.707031 27.910156 L 30.804688 27.910156 L 30.804688 23.914062 L 31.707031 23.914062 L 31.707031 24.738281 L 31.722656 24.738281 C 31.8125 24.457031 31.949219 24.238281 32.128906 24.082031 C 32.3125 23.925781 32.519531 23.84375 32.746094 23.84375 C 32.910156 23.84375 33.035156 23.871094 33.121094 23.917969 Z M 36.878906 23.105469 L 34.789062 23.105469 L 34.789062 24.785156 L 36.714844 24.785156 L 36.714844 25.570312 L 34.789062 25.570312 L 34.789062 27.910156 L 33.863281 27.910156 L 33.863281 22.316406 L 36.878906 22.316406 Z M 38.683594 27.910156 L 37.773438 27.910156 L 37.773438 21.996094 L 38.683594 21.996094 Z M 41.628906 28.003906 C 41.015625 28.003906 40.519531 27.816406 40.152344 27.445312 C 39.785156 27.070312 39.601562 26.574219 39.601562 25.960938 C 39.601562 25.289062 39.792969 24.765625 40.175781 24.386719 C 40.558594 24.011719 41.078125 23.820312 41.726562 23.820312 C 42.351562 23.820312 42.839844 24.003906 43.1875 24.371094 C 43.535156 24.738281 43.710938 25.246094 43.710938 25.898438 C 43.710938 26.535156 43.519531 27.046875 43.144531 27.429688 C 42.769531 27.8125 42.265625 28.003906 41.628906 28.003906 Z M 41.671875 24.542969 C 41.320312 24.542969 41.039062 24.667969 40.835938 24.914062 C 40.628906 25.160156 40.527344 25.503906 40.527344 25.9375 C 40.527344 26.355469 40.632812 26.683594 40.839844 26.925781 C 41.046875 27.167969 41.324219 27.285156 41.671875 27.285156 C 42.03125 27.285156 42.300781 27.167969 42.492188 26.929688 C 42.683594 26.695312 42.78125 26.355469 42.78125 25.921875 C 42.78125 25.480469 42.683594 25.140625 42.492188 24.902344 C 42.300781 24.664062 42.03125 24.542969 41.671875 24.542969 Z M 50 23.914062 L 48.824219 27.910156 L 47.875 27.910156 L 47.148438 25.203125 C 47.117188 25.085938 47.101562 24.96875 47.09375 24.851562 L 47.078125 24.851562 C 47.066406 24.96875 47.042969 25.082031 47.007812 25.195312 L 46.222656 27.910156 L 45.292969 27.910156 L 44.117188 23.914062 L 45.054688 23.914062 L 45.78125 26.792969 C 45.804688 26.878906 45.820312 26.992188 45.828125 27.136719 L 45.855469 27.136719 C 45.863281 27.027344 45.882812 26.910156 45.917969 26.785156 L 46.722656 23.914062 L 47.574219 23.914062 L 48.292969 26.804688 C 48.316406 26.898438 48.332031 27.011719 48.34375 27.148438 L 48.371094 27.148438 C 48.375 27.054688 48.394531 26.9375 48.429688 26.804688 L 49.136719 23.914062 Z M 50 23.914062 "/>
</g>
</svg>
