<?xml version="1.0" encoding="UTF-8"?>
<svg xmlns="http://www.w3.org/2000/svg" xmlns:xlink="http://www.w3.org/1999/xlink" width="50px" height="50px" viewBox="0 0 50 50" version="1.1">
<g id="surface1">
<path style=" stroke:none;fill-rule:nonzero;fill:rgb(40.784314%,12.941176%,47.843137%);fill-opacity:1;" d="M 15.898438 28.660156 C 8.847656 28.660156 3.132812 22.941406 3.132812 15.890625 C 3.132812 8.839844 8.847656 3.125 15.898438 3.125 C 22.949219 3.125 28.664062 8.839844 28.664062 15.890625 C 28.65625 22.941406 22.945312 28.652344 15.898438 28.660156 Z M 15.898438 10.421875 C 12.878906 10.421875 10.429688 12.867188 10.429688 15.890625 C 10.429688 18.910156 12.878906 21.359375 15.898438 21.359375 C 18.917969 21.359375 21.367188 18.910156 21.367188 15.890625 C 21.363281 12.871094 18.917969 10.425781 15.898438 10.421875 Z M 15.898438 10.421875 "/>
<path style=" stroke:none;fill-rule:nonzero;fill:rgb(40.784314%,12.941176%,47.843137%);fill-opacity:1;" d="M 43.890625 37.535156 C 43.890625 40.667969 41.675781 43.359375 38.605469 43.972656 C 35.535156 44.582031 32.460938 42.941406 31.265625 40.046875 C 30.066406 37.15625 31.078125 33.820312 33.679688 32.078125 C 36.28125 30.339844 39.75 30.679688 41.964844 32.894531 C 43.199219 34.125 43.890625 35.792969 43.890625 37.535156 Z M 43.890625 37.535156 "/>
<path style=" stroke:none;fill-rule:nonzero;fill:rgb(40.784314%,12.941176%,47.843137%);fill-opacity:1;" d="M 46.875 9.703125 C 46.875 12.832031 44.664062 15.527344 41.59375 16.140625 C 38.523438 16.75 35.449219 15.105469 34.25 12.214844 C 33.050781 9.324219 34.0625 5.988281 36.664062 4.246094 C 39.269531 2.507812 42.738281 2.847656 44.953125 5.0625 C 46.183594 6.289062 46.878906 7.960938 46.875 9.703125 Z M 46.875 9.703125 "/>
<path style=" stroke:none;fill-rule:nonzero;fill:rgb(40.784314%,12.941176%,47.843137%);fill-opacity:1;" d="M 16.273438 40.3125 C 16.273438 43.441406 14.0625 46.136719 10.992188 46.75 C 7.921875 47.359375 4.847656 45.714844 3.648438 42.824219 C 2.453125 39.933594 3.460938 36.597656 6.066406 34.855469 C 8.667969 33.117188 12.136719 33.457031 14.351562 35.671875 C 15.585938 36.898438 16.277344 38.570312 16.273438 40.3125 Z M 16.273438 40.3125 "/>
<path style=" stroke:none;fill-rule:nonzero;fill:rgb(40.784314%,12.941176%,47.843137%);fill-opacity:1;" d="M 24.28125 11.59375 L 36.683594 8.445312 L 37.757812 12.6875 L 25.355469 15.835938 Z M 24.28125 11.59375 "/>
<path style=" stroke:none;fill-rule:nonzero;fill:rgb(40.784314%,12.941176%,47.843137%);fill-opacity:1;" d="M 8.347656 36.457031 L 11.265625 24.941406 L 15.507812 26.019531 L 12.589844 37.53125 Z M 8.347656 36.457031 "/>
<path style=" stroke:none;fill-rule:nonzero;fill:rgb(40.784314%,12.941176%,47.843137%);fill-opacity:1;" d="M 22.355469 25.648438 L 25.464844 22.570312 L 35.679688 32.886719 L 32.570312 35.96875 Z M 22.355469 25.648438 "/>
</g>
</svg>
